G75*
G70*
%OFA0B0*%
%FSLAX24Y24*%
%IPPOS*%
%LPD*%
%AMOC8*
5,1,8,0,0,1.08239X$1,22.5*
%
%ADD10R,0.0170X0.0650*%
%ADD11R,0.0157X0.0335*%
%ADD12R,0.0580X0.0220*%
%ADD13R,0.0709X0.0669*%
%ADD14R,0.1063X0.0630*%
%ADD15R,0.0512X0.0591*%
%ADD16R,0.0220X0.0580*%
%ADD17R,0.0394X0.0433*%
%ADD18R,0.0689X0.0591*%
%ADD19R,0.0300X0.1130*%
%ADD20R,0.0630X0.0710*%
%ADD21R,0.0709X0.0630*%
%ADD22R,0.0472X0.0472*%
%ADD23R,0.0591X0.0512*%
%ADD24R,0.1063X0.1181*%
%ADD25R,0.0118X0.0472*%
%ADD26R,0.0433X0.0394*%
%ADD27R,0.0551X0.0551*%
%ADD28R,0.0472X0.0591*%
%ADD29R,0.0138X0.0630*%
%ADD30R,0.0520X0.0220*%
%ADD31R,0.0300X0.0350*%
%ADD32C,0.0083*%
%ADD33R,0.0220X0.0780*%
%ADD34R,0.0197X0.0472*%
%ADD35R,0.0630X0.0138*%
%ADD36R,0.0460X0.0100*%
%ADD37R,0.0710X0.0630*%
%ADD38R,0.1890X0.1890*%
%ADD39R,0.0512X0.0071*%
%ADD40R,0.0370X0.0520*%
%ADD41R,0.0220X0.0620*%
%ADD42R,0.0630X0.1063*%
%ADD43R,0.0335X0.0157*%
%ADD44R,0.0748X0.0787*%
%ADD45R,0.1575X0.0807*%
%ADD46R,0.1378X0.0807*%
%ADD47R,0.0886X0.0197*%
%ADD48R,0.0110X0.0660*%
%ADD49R,0.1575X0.1575*%
%ADD50R,0.0560X0.0170*%
%ADD51R,0.0620X0.0740*%
%ADD52R,0.0580X0.0140*%
%ADD53R,0.0591X0.0472*%
%ADD54R,0.0236X0.0689*%
%ADD55R,0.0669X0.0709*%
%ADD56R,0.0630X0.0354*%
%ADD57R,0.0257X0.0118*%
%ADD58R,0.0630X0.0630*%
D10*
X022387Y006814D03*
X022637Y006814D03*
X022897Y006814D03*
X023157Y006814D03*
X023407Y006814D03*
X023667Y006814D03*
X023917Y006814D03*
X024177Y006814D03*
X024437Y006814D03*
X024687Y006814D03*
X024687Y009674D03*
X024437Y009674D03*
X024177Y009674D03*
X023917Y009674D03*
X023667Y009674D03*
X023407Y009674D03*
X023157Y009674D03*
X022897Y009674D03*
X022637Y009674D03*
X022387Y009674D03*
X031902Y010764D03*
X032152Y010764D03*
X032412Y010764D03*
X032662Y010764D03*
X032922Y010764D03*
X033182Y010764D03*
X033432Y010764D03*
X033692Y010764D03*
X033942Y010764D03*
X034202Y010764D03*
X034462Y010764D03*
X034712Y010764D03*
X034972Y010764D03*
X035222Y010764D03*
X035222Y013624D03*
X034972Y013624D03*
X034712Y013624D03*
X034462Y013624D03*
X034202Y013624D03*
X033942Y013624D03*
X033692Y013624D03*
X033432Y013624D03*
X033182Y013624D03*
X032922Y013624D03*
X032662Y013624D03*
X032412Y013624D03*
X032152Y013624D03*
X031902Y013624D03*
D11*
X010593Y007662D03*
X010081Y007662D03*
X010081Y006776D03*
X010337Y006776D03*
X010593Y006776D03*
X040831Y033176D03*
X041087Y033176D03*
X041343Y033176D03*
X041343Y034062D03*
X040831Y034062D03*
D12*
X015677Y028943D03*
X015677Y028569D03*
X015677Y028195D03*
X014797Y028195D03*
X014797Y028569D03*
X014797Y028943D03*
D13*
X013544Y027594D03*
X011930Y027594D03*
X032505Y009094D03*
X032505Y008119D03*
X032505Y007119D03*
X034119Y007119D03*
X034119Y008119D03*
X034119Y009094D03*
D14*
X042887Y014243D03*
X042887Y015345D03*
X010512Y027468D03*
X010512Y028570D03*
D15*
X012988Y028619D03*
X013736Y028619D03*
X014863Y027519D03*
X015611Y027519D03*
X015611Y029769D03*
X014863Y029769D03*
X015763Y031044D03*
X016511Y031044D03*
X016511Y031819D03*
X015763Y031819D03*
X011486Y031894D03*
X010738Y031894D03*
X010738Y031119D03*
X011486Y031119D03*
X020913Y031044D03*
X021661Y031044D03*
X021661Y031819D03*
X020913Y031819D03*
X023538Y032094D03*
X024286Y032094D03*
X027298Y031079D03*
X028046Y031079D03*
X028046Y030304D03*
X027298Y030304D03*
X027298Y029529D03*
X028046Y029529D03*
X033338Y029094D03*
X034086Y029094D03*
X034086Y028319D03*
X033338Y028319D03*
X033188Y027369D03*
X033936Y027369D03*
X033936Y026594D03*
X033188Y026594D03*
X035538Y024969D03*
X036286Y024969D03*
X029071Y023154D03*
X028323Y023154D03*
X026361Y020694D03*
X025613Y020694D03*
X024486Y023969D03*
X023738Y023969D03*
X015361Y019519D03*
X014613Y019519D03*
X013261Y020419D03*
X012513Y020419D03*
X012011Y012319D03*
X011263Y012319D03*
X011263Y011544D03*
X012011Y011544D03*
X012011Y010769D03*
X011263Y010769D03*
X011113Y009469D03*
X011861Y009469D03*
X014513Y010719D03*
X015261Y010719D03*
X012011Y006944D03*
X011263Y006944D03*
X025563Y006644D03*
X026311Y006644D03*
X026311Y007419D03*
X025563Y007419D03*
X025613Y008894D03*
X026361Y008894D03*
X026361Y009669D03*
X025613Y009669D03*
X036463Y012794D03*
X037211Y012794D03*
X036286Y031294D03*
X035538Y031294D03*
X035938Y033194D03*
X036686Y033194D03*
X036686Y033969D03*
X035938Y033969D03*
X034616Y033739D03*
X033868Y033739D03*
X035938Y035269D03*
X036686Y035269D03*
X037488Y035269D03*
X038236Y035269D03*
X039038Y035269D03*
X039786Y035269D03*
X040588Y035269D03*
X041336Y035269D03*
X041336Y036044D03*
X040588Y036044D03*
X039786Y036044D03*
X039038Y036044D03*
X038236Y036044D03*
X037488Y036044D03*
X036686Y036044D03*
X035938Y036044D03*
X034601Y035954D03*
X033853Y035954D03*
D16*
X024186Y031034D03*
X023812Y031034D03*
X023438Y031034D03*
X023438Y030154D03*
X023812Y030154D03*
X024186Y030154D03*
X021486Y032729D03*
X021112Y032729D03*
X020738Y032729D03*
X020738Y033609D03*
X021112Y033609D03*
X021486Y033609D03*
X016336Y033609D03*
X015962Y033609D03*
X015588Y033609D03*
X015588Y032729D03*
X015962Y032729D03*
X016336Y032729D03*
X011411Y032729D03*
X011037Y032729D03*
X010663Y032729D03*
X010663Y033609D03*
X011037Y033609D03*
X011411Y033609D03*
X015888Y017589D03*
X016636Y017589D03*
X016636Y016649D03*
X016262Y016649D03*
X015888Y016649D03*
X010511Y013389D03*
X009763Y013389D03*
X009763Y012449D03*
X010137Y012449D03*
X010511Y012449D03*
D17*
X010262Y010129D03*
X010262Y009459D03*
X009547Y008694D03*
X008877Y008694D03*
X013587Y008909D03*
X013587Y009579D03*
X016562Y009579D03*
X016562Y008909D03*
X021487Y016509D03*
X021487Y017179D03*
X020287Y017209D03*
X020287Y017879D03*
X017537Y018209D03*
X017537Y018879D03*
X016862Y018834D03*
X016187Y019134D03*
X016862Y019504D03*
X016187Y019804D03*
X014137Y021234D03*
X014137Y021904D03*
X014527Y025494D03*
X015197Y025494D03*
X015197Y026169D03*
X014527Y026169D03*
X018002Y027144D03*
X018672Y027144D03*
X019577Y027019D03*
X020247Y027019D03*
X020247Y027694D03*
X019577Y027694D03*
X021387Y026654D03*
X022062Y026654D03*
X022062Y025984D03*
X021387Y025984D03*
X022962Y025404D03*
X022962Y024734D03*
X026077Y028094D03*
X026747Y028094D03*
X031162Y029784D03*
X031162Y030454D03*
X031837Y030454D03*
X032512Y030454D03*
X032512Y029784D03*
X031837Y029784D03*
X036472Y029644D03*
X036472Y028974D03*
X036472Y028019D03*
X036472Y027349D03*
X022212Y033034D03*
X022212Y033704D03*
X017062Y033704D03*
X017062Y033034D03*
X016487Y029829D03*
X016487Y029159D03*
X012137Y033034D03*
X012137Y033704D03*
X015237Y017504D03*
X015237Y016834D03*
X029687Y014579D03*
X029687Y013909D03*
D18*
X010702Y005094D03*
X009422Y005094D03*
X010772Y035519D03*
X012052Y035519D03*
X015697Y035519D03*
X016977Y035519D03*
X020847Y035519D03*
X022127Y035519D03*
D19*
X019162Y036024D03*
X019162Y034464D03*
X019162Y032874D03*
X019162Y031314D03*
X014012Y031314D03*
X014012Y032874D03*
X014012Y034464D03*
X014012Y036024D03*
X009037Y036024D03*
X009037Y034464D03*
X009037Y032874D03*
X009037Y031314D03*
D20*
X011277Y007894D03*
X012397Y007894D03*
D21*
X008362Y005468D03*
X008362Y006570D03*
X030387Y029918D03*
X030387Y031020D03*
D22*
X027577Y035606D03*
X027577Y036432D03*
X023612Y036432D03*
X023612Y035606D03*
X030287Y005332D03*
X030287Y004506D03*
X031887Y004506D03*
X031887Y005332D03*
X033487Y005332D03*
X033487Y004506D03*
D23*
X035087Y007020D03*
X035862Y007020D03*
X035862Y007768D03*
X035087Y007768D03*
X036637Y007768D03*
X036637Y007020D03*
X040587Y006970D03*
X040587Y007718D03*
X041887Y007743D03*
X041887Y006995D03*
X036437Y010945D03*
X036437Y011693D03*
X039837Y011895D03*
X039837Y012643D03*
X042787Y012643D03*
X042787Y011895D03*
X040037Y019520D03*
X040037Y020268D03*
X029712Y016318D03*
X029712Y015570D03*
X019662Y008218D03*
X019662Y007470D03*
X029612Y007543D03*
X029612Y006795D03*
X030387Y006795D03*
X031162Y006795D03*
X031162Y007543D03*
X030387Y007543D03*
X014512Y017120D03*
X014512Y017868D03*
X013287Y021395D03*
X013287Y022143D03*
X012512Y022143D03*
X012512Y021395D03*
X022687Y029495D03*
X022687Y030243D03*
X025062Y030295D03*
X025062Y031043D03*
X023612Y034120D03*
X023612Y034868D03*
X027577Y034878D03*
X027577Y034130D03*
X032562Y034435D03*
X032562Y035183D03*
X033222Y032108D03*
X033222Y031360D03*
X033997Y031360D03*
X033997Y032108D03*
D24*
X022010Y005119D03*
X012813Y005119D03*
D25*
X013573Y005867D03*
X013770Y005867D03*
X013967Y005867D03*
X014164Y005867D03*
X014361Y005867D03*
X014558Y005867D03*
X014754Y005867D03*
X014951Y005867D03*
X015148Y005867D03*
X015345Y005867D03*
X015542Y005867D03*
X015739Y005867D03*
X015935Y005867D03*
X016132Y005867D03*
X016329Y005867D03*
X016526Y005867D03*
X016723Y005867D03*
X016920Y005867D03*
X017117Y005867D03*
X017313Y005867D03*
X017510Y005867D03*
X017707Y005867D03*
X017904Y005867D03*
X018101Y005867D03*
X018298Y005867D03*
X018495Y005867D03*
X018691Y005867D03*
X018888Y005867D03*
X019085Y005867D03*
X019282Y005867D03*
X019479Y005867D03*
X019676Y005867D03*
X019873Y005867D03*
X020069Y005867D03*
X020266Y005867D03*
X020463Y005867D03*
X020660Y005867D03*
X020857Y005867D03*
X021054Y005867D03*
X021250Y005867D03*
D26*
X025502Y010394D03*
X026172Y010394D03*
X026027Y013219D03*
X026697Y013219D03*
X025647Y016494D03*
X024977Y016494D03*
X026352Y017769D03*
X027022Y017769D03*
X029502Y017719D03*
X030172Y017719D03*
X032652Y014419D03*
X033322Y014419D03*
X031547Y009819D03*
X030877Y009819D03*
X020747Y010769D03*
X020077Y010769D03*
X018022Y010769D03*
X017352Y010769D03*
X017352Y016469D03*
X018022Y016469D03*
X019102Y016469D03*
X019772Y016469D03*
X021502Y018894D03*
X022172Y018894D03*
X021852Y019569D03*
X022522Y019569D03*
X022552Y020244D03*
X023222Y020244D03*
X023102Y020919D03*
X023772Y020919D03*
X023927Y021719D03*
X024597Y021719D03*
X024647Y023144D03*
X023977Y023144D03*
X024297Y024719D03*
X023627Y024719D03*
X027202Y026769D03*
X027872Y026769D03*
X028162Y028809D03*
X027492Y028809D03*
X029622Y029799D03*
X029622Y030469D03*
X032412Y031134D03*
X032412Y031804D03*
X033527Y029819D03*
X034197Y029819D03*
X034047Y025869D03*
X033377Y025869D03*
X029212Y024634D03*
X028542Y024634D03*
X024197Y029169D03*
X023527Y029169D03*
X017322Y026269D03*
X016652Y026269D03*
X016472Y025019D03*
X015802Y025019D03*
X015772Y024369D03*
X015102Y024369D03*
X015147Y023694D03*
X014477Y023694D03*
X011572Y021069D03*
X010902Y021069D03*
X014977Y020919D03*
X015647Y020919D03*
X013197Y016469D03*
X012527Y016469D03*
X008937Y012354D03*
X008937Y011684D03*
X038477Y019344D03*
X039147Y019344D03*
X039602Y033994D03*
X040272Y033994D03*
D27*
X011537Y006192D03*
X011537Y004696D03*
D28*
X013187Y006773D03*
X013187Y007915D03*
X040587Y008548D03*
X041887Y008548D03*
X041887Y009690D03*
X040587Y009690D03*
D29*
X030317Y010042D03*
X030061Y010042D03*
X029806Y010042D03*
X029550Y010042D03*
X029294Y010042D03*
X029038Y010042D03*
X028782Y010042D03*
X028526Y010042D03*
X028526Y012246D03*
X028782Y012246D03*
X029038Y012246D03*
X029294Y012246D03*
X029550Y012246D03*
X029806Y012246D03*
X030061Y012246D03*
X030317Y012246D03*
X018923Y009571D03*
X018667Y009571D03*
X018411Y009571D03*
X018155Y009571D03*
X017899Y009571D03*
X017643Y009571D03*
X017387Y009571D03*
X017131Y009571D03*
X015973Y009571D03*
X015717Y009571D03*
X015461Y009571D03*
X015205Y009571D03*
X014949Y009571D03*
X014693Y009571D03*
X014437Y009571D03*
X014181Y009571D03*
X014181Y007367D03*
X014437Y007367D03*
X014693Y007367D03*
X014949Y007367D03*
X015205Y007367D03*
X015461Y007367D03*
X015717Y007367D03*
X015973Y007367D03*
X017131Y007367D03*
X017387Y007367D03*
X017643Y007367D03*
X017899Y007367D03*
X018155Y007367D03*
X018411Y007367D03*
X018667Y007367D03*
X018923Y007367D03*
D30*
X011942Y029074D03*
X011942Y029814D03*
X011082Y029444D03*
D31*
X025637Y036394D03*
D32*
X026289Y036744D02*
X026289Y036000D01*
X026289Y036744D02*
X026757Y036744D01*
X026757Y036000D01*
X026289Y036000D01*
X026289Y036082D02*
X026757Y036082D01*
X026757Y036164D02*
X026289Y036164D01*
X026289Y036246D02*
X026757Y036246D01*
X026757Y036328D02*
X026289Y036328D01*
X026289Y036410D02*
X026757Y036410D01*
X026757Y036492D02*
X026289Y036492D01*
X026289Y036574D02*
X026757Y036574D01*
X026757Y036656D02*
X026289Y036656D01*
X026289Y036738D02*
X026757Y036738D01*
X024517Y036744D02*
X024517Y036000D01*
X024517Y036744D02*
X024985Y036744D01*
X024985Y036000D01*
X024517Y036000D01*
X024517Y036082D02*
X024985Y036082D01*
X024985Y036164D02*
X024517Y036164D01*
X024517Y036246D02*
X024985Y036246D01*
X024985Y036328D02*
X024517Y036328D01*
X024517Y036410D02*
X024985Y036410D01*
X024985Y036492D02*
X024517Y036492D01*
X024517Y036574D02*
X024985Y036574D01*
X024985Y036656D02*
X024517Y036656D01*
X024517Y036738D02*
X024985Y036738D01*
X024517Y033437D02*
X024517Y032693D01*
X024517Y033437D02*
X024985Y033437D01*
X024985Y032693D01*
X024517Y032693D01*
X024517Y032775D02*
X024985Y032775D01*
X024985Y032857D02*
X024517Y032857D01*
X024517Y032939D02*
X024985Y032939D01*
X024985Y033021D02*
X024517Y033021D01*
X024517Y033103D02*
X024985Y033103D01*
X024985Y033185D02*
X024517Y033185D01*
X024517Y033267D02*
X024985Y033267D01*
X024985Y033349D02*
X024517Y033349D01*
X024517Y033431D02*
X024985Y033431D01*
X026289Y033437D02*
X026289Y032693D01*
X026289Y033437D02*
X026757Y033437D01*
X026757Y032693D01*
X026289Y032693D01*
X026289Y032775D02*
X026757Y032775D01*
X026757Y032857D02*
X026289Y032857D01*
X026289Y032939D02*
X026757Y032939D01*
X026757Y033021D02*
X026289Y033021D01*
X026289Y033103D02*
X026757Y033103D01*
X026757Y033185D02*
X026289Y033185D01*
X026289Y033267D02*
X026757Y033267D01*
X026757Y033349D02*
X026289Y033349D01*
X026289Y033431D02*
X026757Y033431D01*
D33*
X030787Y017689D03*
X031287Y017689D03*
X031787Y017689D03*
X032287Y017689D03*
X032287Y015749D03*
X031787Y015749D03*
X031287Y015749D03*
X030787Y015749D03*
X028937Y016339D03*
X028437Y016339D03*
X027937Y016339D03*
X027437Y016339D03*
X027437Y014399D03*
X027937Y014399D03*
X028437Y014399D03*
X028937Y014399D03*
D34*
X021456Y015785D03*
X021141Y015785D03*
X020826Y015785D03*
X020511Y015785D03*
X020197Y015785D03*
X019882Y015785D03*
X019567Y015785D03*
X019252Y015785D03*
X018937Y015785D03*
X018622Y015785D03*
X018307Y015785D03*
X017992Y015785D03*
X017677Y015785D03*
X017362Y015785D03*
X017047Y015785D03*
X016732Y015785D03*
X016417Y015785D03*
X016102Y015785D03*
X015787Y015785D03*
X015472Y015785D03*
X015157Y015785D03*
X014842Y015785D03*
X014527Y015785D03*
X014212Y015785D03*
X013897Y015785D03*
X013582Y015785D03*
X013267Y015785D03*
X013267Y011453D03*
X013582Y011453D03*
X013897Y011453D03*
X014212Y011453D03*
X014527Y011453D03*
X014842Y011453D03*
X015157Y011453D03*
X015472Y011453D03*
X015787Y011453D03*
X016102Y011453D03*
X016417Y011453D03*
X016732Y011453D03*
X017047Y011453D03*
X017362Y011453D03*
X017677Y011453D03*
X017992Y011453D03*
X018307Y011453D03*
X018622Y011453D03*
X018937Y011453D03*
X019252Y011453D03*
X019567Y011453D03*
X019882Y011453D03*
X020197Y011453D03*
X020511Y011453D03*
X020826Y011453D03*
X021141Y011453D03*
X021456Y011453D03*
D35*
X023135Y011633D03*
X023135Y011889D03*
X023135Y012145D03*
X023135Y012401D03*
X023135Y012657D03*
X023135Y012913D03*
X023135Y013169D03*
X023135Y013424D03*
X023110Y014158D03*
X023110Y014414D03*
X023110Y014670D03*
X023110Y014926D03*
X023110Y015182D03*
X023110Y015438D03*
X023110Y015694D03*
X023110Y015949D03*
X025314Y015949D03*
X025314Y015694D03*
X025314Y015438D03*
X025314Y015182D03*
X025314Y014926D03*
X025314Y014670D03*
X025314Y014414D03*
X025314Y014158D03*
X025339Y013424D03*
X025339Y013169D03*
X025339Y012913D03*
X025339Y012657D03*
X025339Y012401D03*
X025339Y012145D03*
X025339Y011889D03*
X025339Y011633D03*
D36*
X025727Y017324D03*
X025727Y017520D03*
X025727Y017717D03*
X025727Y017914D03*
X024647Y017914D03*
X024647Y017717D03*
X024647Y017520D03*
X024647Y017324D03*
D37*
X024887Y018634D03*
X024887Y019754D03*
X009262Y007829D03*
X009262Y006709D03*
D38*
G36*
X019387Y021233D02*
X018051Y022569D01*
X019387Y023905D01*
X020723Y022569D01*
X019387Y021233D01*
G37*
D39*
G36*
X021060Y019622D02*
X020699Y019983D01*
X020748Y020032D01*
X021109Y019671D01*
X021060Y019622D01*
G37*
G36*
X020949Y019510D02*
X020588Y019871D01*
X020637Y019920D01*
X020998Y019559D01*
X020949Y019510D01*
G37*
G36*
X020837Y019399D02*
X020476Y019760D01*
X020525Y019809D01*
X020886Y019448D01*
X020837Y019399D01*
G37*
G36*
X020726Y019288D02*
X020365Y019649D01*
X020414Y019698D01*
X020775Y019337D01*
X020726Y019288D01*
G37*
G36*
X020615Y019176D02*
X020254Y019537D01*
X020303Y019586D01*
X020664Y019225D01*
X020615Y019176D01*
G37*
G36*
X020503Y019065D02*
X020142Y019426D01*
X020191Y019475D01*
X020552Y019114D01*
X020503Y019065D01*
G37*
G36*
X020392Y018954D02*
X020031Y019315D01*
X020080Y019364D01*
X020441Y019003D01*
X020392Y018954D01*
G37*
G36*
X020281Y018842D02*
X019920Y019203D01*
X019969Y019252D01*
X020330Y018891D01*
X020281Y018842D01*
G37*
G36*
X020169Y018731D02*
X019808Y019092D01*
X019857Y019141D01*
X020218Y018780D01*
X020169Y018731D01*
G37*
G36*
X020058Y018620D02*
X019697Y018981D01*
X019746Y019030D01*
X020107Y018669D01*
X020058Y018620D01*
G37*
G36*
X019947Y018508D02*
X019586Y018869D01*
X019635Y018918D01*
X019996Y018557D01*
X019947Y018508D01*
G37*
G36*
X019188Y018869D02*
X018827Y018508D01*
X018778Y018557D01*
X019139Y018918D01*
X019188Y018869D01*
G37*
G36*
X019077Y018981D02*
X018716Y018620D01*
X018667Y018669D01*
X019028Y019030D01*
X019077Y018981D01*
G37*
G36*
X018966Y019092D02*
X018605Y018731D01*
X018556Y018780D01*
X018917Y019141D01*
X018966Y019092D01*
G37*
G36*
X018854Y019203D02*
X018493Y018842D01*
X018444Y018891D01*
X018805Y019252D01*
X018854Y019203D01*
G37*
G36*
X018743Y019315D02*
X018382Y018954D01*
X018333Y019003D01*
X018694Y019364D01*
X018743Y019315D01*
G37*
G36*
X018631Y019426D02*
X018270Y019065D01*
X018221Y019114D01*
X018582Y019475D01*
X018631Y019426D01*
G37*
G36*
X018520Y019537D02*
X018159Y019176D01*
X018110Y019225D01*
X018471Y019586D01*
X018520Y019537D01*
G37*
G36*
X018409Y019649D02*
X018048Y019288D01*
X017999Y019337D01*
X018360Y019698D01*
X018409Y019649D01*
G37*
G36*
X018297Y019760D02*
X017936Y019399D01*
X017887Y019448D01*
X018248Y019809D01*
X018297Y019760D01*
G37*
G36*
X018186Y019871D02*
X017825Y019510D01*
X017776Y019559D01*
X018137Y019920D01*
X018186Y019871D01*
G37*
G36*
X018075Y019983D02*
X017714Y019622D01*
X017665Y019671D01*
X018026Y020032D01*
X018075Y019983D01*
G37*
G36*
X017963Y020094D02*
X017602Y019733D01*
X017553Y019782D01*
X017914Y020143D01*
X017963Y020094D01*
G37*
G36*
X017852Y020205D02*
X017491Y019844D01*
X017442Y019893D01*
X017803Y020254D01*
X017852Y020205D01*
G37*
G36*
X017741Y020317D02*
X017380Y019956D01*
X017331Y020005D01*
X017692Y020366D01*
X017741Y020317D01*
G37*
G36*
X017629Y020428D02*
X017268Y020067D01*
X017219Y020116D01*
X017580Y020477D01*
X017629Y020428D01*
G37*
G36*
X017518Y020540D02*
X017157Y020179D01*
X017108Y020228D01*
X017469Y020589D01*
X017518Y020540D01*
G37*
G36*
X017407Y020651D02*
X017046Y020290D01*
X016997Y020339D01*
X017358Y020700D01*
X017407Y020651D01*
G37*
G36*
X017295Y020762D02*
X016934Y020401D01*
X016885Y020450D01*
X017246Y020811D01*
X017295Y020762D01*
G37*
G36*
X017184Y020874D02*
X016823Y020513D01*
X016774Y020562D01*
X017135Y020923D01*
X017184Y020874D01*
G37*
G36*
X017072Y020985D02*
X016711Y020624D01*
X016662Y020673D01*
X017023Y021034D01*
X017072Y020985D01*
G37*
G36*
X016961Y021096D02*
X016600Y020735D01*
X016551Y020784D01*
X016912Y021145D01*
X016961Y021096D01*
G37*
G36*
X016850Y021208D02*
X016489Y020847D01*
X016440Y020896D01*
X016801Y021257D01*
X016850Y021208D01*
G37*
G36*
X016738Y021319D02*
X016377Y020958D01*
X016328Y021007D01*
X016689Y021368D01*
X016738Y021319D01*
G37*
G36*
X016627Y021430D02*
X016266Y021069D01*
X016217Y021118D01*
X016578Y021479D01*
X016627Y021430D01*
G37*
G36*
X016516Y021542D02*
X016155Y021181D01*
X016106Y021230D01*
X016467Y021591D01*
X016516Y021542D01*
G37*
G36*
X016404Y021653D02*
X016043Y021292D01*
X015994Y021341D01*
X016355Y021702D01*
X016404Y021653D01*
G37*
G36*
X016293Y021764D02*
X015932Y021403D01*
X015883Y021452D01*
X016244Y021813D01*
X016293Y021764D01*
G37*
G36*
X016182Y021876D02*
X015821Y021515D01*
X015772Y021564D01*
X016133Y021925D01*
X016182Y021876D01*
G37*
G36*
X016070Y021987D02*
X015709Y021626D01*
X015660Y021675D01*
X016021Y022036D01*
X016070Y021987D01*
G37*
G36*
X015959Y022099D02*
X015598Y021738D01*
X015549Y021787D01*
X015910Y022148D01*
X015959Y022099D01*
G37*
G36*
X015848Y022210D02*
X015487Y021849D01*
X015438Y021898D01*
X015799Y022259D01*
X015848Y022210D01*
G37*
G36*
X015736Y022321D02*
X015375Y021960D01*
X015326Y022009D01*
X015687Y022370D01*
X015736Y022321D01*
G37*
G36*
X015687Y022768D02*
X015326Y023129D01*
X015375Y023178D01*
X015736Y022817D01*
X015687Y022768D01*
G37*
G36*
X015799Y022879D02*
X015438Y023240D01*
X015487Y023289D01*
X015848Y022928D01*
X015799Y022879D01*
G37*
G36*
X015910Y022990D02*
X015549Y023351D01*
X015598Y023400D01*
X015959Y023039D01*
X015910Y022990D01*
G37*
G36*
X016021Y023102D02*
X015660Y023463D01*
X015709Y023512D01*
X016070Y023151D01*
X016021Y023102D01*
G37*
G36*
X016133Y023213D02*
X015772Y023574D01*
X015821Y023623D01*
X016182Y023262D01*
X016133Y023213D01*
G37*
G36*
X016244Y023324D02*
X015883Y023685D01*
X015932Y023734D01*
X016293Y023373D01*
X016244Y023324D01*
G37*
G36*
X016355Y023436D02*
X015994Y023797D01*
X016043Y023846D01*
X016404Y023485D01*
X016355Y023436D01*
G37*
G36*
X016467Y023547D02*
X016106Y023908D01*
X016155Y023957D01*
X016516Y023596D01*
X016467Y023547D01*
G37*
G36*
X016578Y023658D02*
X016217Y024019D01*
X016266Y024068D01*
X016627Y023707D01*
X016578Y023658D01*
G37*
G36*
X016689Y023770D02*
X016328Y024131D01*
X016377Y024180D01*
X016738Y023819D01*
X016689Y023770D01*
G37*
G36*
X016801Y023881D02*
X016440Y024242D01*
X016489Y024291D01*
X016850Y023930D01*
X016801Y023881D01*
G37*
G36*
X016912Y023992D02*
X016551Y024353D01*
X016600Y024402D01*
X016961Y024041D01*
X016912Y023992D01*
G37*
G36*
X017023Y024104D02*
X016662Y024465D01*
X016711Y024514D01*
X017072Y024153D01*
X017023Y024104D01*
G37*
G36*
X017135Y024215D02*
X016774Y024576D01*
X016823Y024625D01*
X017184Y024264D01*
X017135Y024215D01*
G37*
G36*
X017246Y024327D02*
X016885Y024688D01*
X016934Y024737D01*
X017295Y024376D01*
X017246Y024327D01*
G37*
G36*
X017358Y024438D02*
X016997Y024799D01*
X017046Y024848D01*
X017407Y024487D01*
X017358Y024438D01*
G37*
G36*
X017469Y024549D02*
X017108Y024910D01*
X017157Y024959D01*
X017518Y024598D01*
X017469Y024549D01*
G37*
G36*
X017580Y024661D02*
X017219Y025022D01*
X017268Y025071D01*
X017629Y024710D01*
X017580Y024661D01*
G37*
G36*
X017692Y024772D02*
X017331Y025133D01*
X017380Y025182D01*
X017741Y024821D01*
X017692Y024772D01*
G37*
G36*
X017803Y024883D02*
X017442Y025244D01*
X017491Y025293D01*
X017852Y024932D01*
X017803Y024883D01*
G37*
G36*
X017914Y024995D02*
X017553Y025356D01*
X017602Y025405D01*
X017963Y025044D01*
X017914Y024995D01*
G37*
G36*
X018026Y025106D02*
X017665Y025467D01*
X017714Y025516D01*
X018075Y025155D01*
X018026Y025106D01*
G37*
G36*
X018137Y025217D02*
X017776Y025578D01*
X017825Y025627D01*
X018186Y025266D01*
X018137Y025217D01*
G37*
G36*
X018248Y025329D02*
X017887Y025690D01*
X017936Y025739D01*
X018297Y025378D01*
X018248Y025329D01*
G37*
G36*
X018360Y025440D02*
X017999Y025801D01*
X018048Y025850D01*
X018409Y025489D01*
X018360Y025440D01*
G37*
G36*
X018471Y025551D02*
X018110Y025912D01*
X018159Y025961D01*
X018520Y025600D01*
X018471Y025551D01*
G37*
G36*
X018582Y025663D02*
X018221Y026024D01*
X018270Y026073D01*
X018631Y025712D01*
X018582Y025663D01*
G37*
G36*
X018694Y025774D02*
X018333Y026135D01*
X018382Y026184D01*
X018743Y025823D01*
X018694Y025774D01*
G37*
G36*
X018805Y025886D02*
X018444Y026247D01*
X018493Y026296D01*
X018854Y025935D01*
X018805Y025886D01*
G37*
G36*
X018917Y025997D02*
X018556Y026358D01*
X018605Y026407D01*
X018966Y026046D01*
X018917Y025997D01*
G37*
G36*
X019028Y026108D02*
X018667Y026469D01*
X018716Y026518D01*
X019077Y026157D01*
X019028Y026108D01*
G37*
G36*
X019139Y026220D02*
X018778Y026581D01*
X018827Y026630D01*
X019188Y026269D01*
X019139Y026220D01*
G37*
G36*
X019996Y026581D02*
X019635Y026220D01*
X019586Y026269D01*
X019947Y026630D01*
X019996Y026581D01*
G37*
G36*
X020107Y026469D02*
X019746Y026108D01*
X019697Y026157D01*
X020058Y026518D01*
X020107Y026469D01*
G37*
G36*
X020218Y026358D02*
X019857Y025997D01*
X019808Y026046D01*
X020169Y026407D01*
X020218Y026358D01*
G37*
G36*
X020330Y026247D02*
X019969Y025886D01*
X019920Y025935D01*
X020281Y026296D01*
X020330Y026247D01*
G37*
G36*
X020441Y026135D02*
X020080Y025774D01*
X020031Y025823D01*
X020392Y026184D01*
X020441Y026135D01*
G37*
G36*
X020552Y026024D02*
X020191Y025663D01*
X020142Y025712D01*
X020503Y026073D01*
X020552Y026024D01*
G37*
G36*
X020664Y025912D02*
X020303Y025551D01*
X020254Y025600D01*
X020615Y025961D01*
X020664Y025912D01*
G37*
G36*
X020775Y025801D02*
X020414Y025440D01*
X020365Y025489D01*
X020726Y025850D01*
X020775Y025801D01*
G37*
G36*
X020886Y025690D02*
X020525Y025329D01*
X020476Y025378D01*
X020837Y025739D01*
X020886Y025690D01*
G37*
G36*
X020998Y025578D02*
X020637Y025217D01*
X020588Y025266D01*
X020949Y025627D01*
X020998Y025578D01*
G37*
G36*
X021109Y025467D02*
X020748Y025106D01*
X020699Y025155D01*
X021060Y025516D01*
X021109Y025467D01*
G37*
G36*
X021220Y025356D02*
X020859Y024995D01*
X020810Y025044D01*
X021171Y025405D01*
X021220Y025356D01*
G37*
G36*
X021332Y025244D02*
X020971Y024883D01*
X020922Y024932D01*
X021283Y025293D01*
X021332Y025244D01*
G37*
G36*
X021443Y025133D02*
X021082Y024772D01*
X021033Y024821D01*
X021394Y025182D01*
X021443Y025133D01*
G37*
G36*
X021555Y025022D02*
X021194Y024661D01*
X021145Y024710D01*
X021506Y025071D01*
X021555Y025022D01*
G37*
G36*
X021666Y024910D02*
X021305Y024549D01*
X021256Y024598D01*
X021617Y024959D01*
X021666Y024910D01*
G37*
G36*
X021777Y024799D02*
X021416Y024438D01*
X021367Y024487D01*
X021728Y024848D01*
X021777Y024799D01*
G37*
G36*
X021889Y024688D02*
X021528Y024327D01*
X021479Y024376D01*
X021840Y024737D01*
X021889Y024688D01*
G37*
G36*
X022000Y024576D02*
X021639Y024215D01*
X021590Y024264D01*
X021951Y024625D01*
X022000Y024576D01*
G37*
G36*
X022111Y024465D02*
X021750Y024104D01*
X021701Y024153D01*
X022062Y024514D01*
X022111Y024465D01*
G37*
G36*
X022223Y024353D02*
X021862Y023992D01*
X021813Y024041D01*
X022174Y024402D01*
X022223Y024353D01*
G37*
G36*
X022334Y024242D02*
X021973Y023881D01*
X021924Y023930D01*
X022285Y024291D01*
X022334Y024242D01*
G37*
G36*
X022445Y024131D02*
X022084Y023770D01*
X022035Y023819D01*
X022396Y024180D01*
X022445Y024131D01*
G37*
G36*
X022557Y024019D02*
X022196Y023658D01*
X022147Y023707D01*
X022508Y024068D01*
X022557Y024019D01*
G37*
G36*
X022668Y023908D02*
X022307Y023547D01*
X022258Y023596D01*
X022619Y023957D01*
X022668Y023908D01*
G37*
G36*
X022779Y023797D02*
X022418Y023436D01*
X022369Y023485D01*
X022730Y023846D01*
X022779Y023797D01*
G37*
G36*
X022891Y023685D02*
X022530Y023324D01*
X022481Y023373D01*
X022842Y023734D01*
X022891Y023685D01*
G37*
G36*
X023002Y023574D02*
X022641Y023213D01*
X022592Y023262D01*
X022953Y023623D01*
X023002Y023574D01*
G37*
G36*
X023113Y023463D02*
X022752Y023102D01*
X022703Y023151D01*
X023064Y023512D01*
X023113Y023463D01*
G37*
G36*
X023225Y023351D02*
X022864Y022990D01*
X022815Y023039D01*
X023176Y023400D01*
X023225Y023351D01*
G37*
G36*
X023336Y023240D02*
X022975Y022879D01*
X022926Y022928D01*
X023287Y023289D01*
X023336Y023240D01*
G37*
G36*
X023448Y023129D02*
X023087Y022768D01*
X023038Y022817D01*
X023399Y023178D01*
X023448Y023129D01*
G37*
G36*
X023399Y021960D02*
X023038Y022321D01*
X023087Y022370D01*
X023448Y022009D01*
X023399Y021960D01*
G37*
G36*
X023287Y021849D02*
X022926Y022210D01*
X022975Y022259D01*
X023336Y021898D01*
X023287Y021849D01*
G37*
G36*
X023176Y021738D02*
X022815Y022099D01*
X022864Y022148D01*
X023225Y021787D01*
X023176Y021738D01*
G37*
G36*
X023064Y021626D02*
X022703Y021987D01*
X022752Y022036D01*
X023113Y021675D01*
X023064Y021626D01*
G37*
G36*
X022953Y021515D02*
X022592Y021876D01*
X022641Y021925D01*
X023002Y021564D01*
X022953Y021515D01*
G37*
G36*
X022842Y021403D02*
X022481Y021764D01*
X022530Y021813D01*
X022891Y021452D01*
X022842Y021403D01*
G37*
G36*
X022730Y021292D02*
X022369Y021653D01*
X022418Y021702D01*
X022779Y021341D01*
X022730Y021292D01*
G37*
G36*
X022619Y021181D02*
X022258Y021542D01*
X022307Y021591D01*
X022668Y021230D01*
X022619Y021181D01*
G37*
G36*
X022508Y021069D02*
X022147Y021430D01*
X022196Y021479D01*
X022557Y021118D01*
X022508Y021069D01*
G37*
G36*
X022396Y020958D02*
X022035Y021319D01*
X022084Y021368D01*
X022445Y021007D01*
X022396Y020958D01*
G37*
G36*
X022285Y020847D02*
X021924Y021208D01*
X021973Y021257D01*
X022334Y020896D01*
X022285Y020847D01*
G37*
G36*
X022174Y020735D02*
X021813Y021096D01*
X021862Y021145D01*
X022223Y020784D01*
X022174Y020735D01*
G37*
G36*
X022062Y020624D02*
X021701Y020985D01*
X021750Y021034D01*
X022111Y020673D01*
X022062Y020624D01*
G37*
G36*
X021951Y020513D02*
X021590Y020874D01*
X021639Y020923D01*
X022000Y020562D01*
X021951Y020513D01*
G37*
G36*
X021840Y020401D02*
X021479Y020762D01*
X021528Y020811D01*
X021889Y020450D01*
X021840Y020401D01*
G37*
G36*
X021728Y020290D02*
X021367Y020651D01*
X021416Y020700D01*
X021777Y020339D01*
X021728Y020290D01*
G37*
G36*
X021617Y020179D02*
X021256Y020540D01*
X021305Y020589D01*
X021666Y020228D01*
X021617Y020179D01*
G37*
G36*
X021506Y020067D02*
X021145Y020428D01*
X021194Y020477D01*
X021555Y020116D01*
X021506Y020067D01*
G37*
G36*
X021394Y019956D02*
X021033Y020317D01*
X021082Y020366D01*
X021443Y020005D01*
X021394Y019956D01*
G37*
G36*
X021283Y019844D02*
X020922Y020205D01*
X020971Y020254D01*
X021332Y019893D01*
X021283Y019844D01*
G37*
G36*
X021171Y019733D02*
X020810Y020094D01*
X020859Y020143D01*
X021220Y019782D01*
X021171Y019733D01*
G37*
D40*
X009537Y010894D03*
D41*
X008857Y010894D03*
X008857Y010144D03*
X009617Y010144D03*
D42*
X017511Y028394D03*
X018613Y028394D03*
D43*
X011655Y022225D03*
X011655Y021969D03*
X011655Y021713D03*
X010769Y021713D03*
X010769Y022225D03*
D44*
X019712Y028487D03*
X021712Y028487D03*
X023112Y028101D03*
X025112Y028101D03*
X025112Y026487D03*
X023112Y026487D03*
X021712Y030101D03*
X019712Y030101D03*
D45*
X005974Y012398D03*
X005974Y008540D03*
D46*
X007648Y008540D03*
X007648Y012398D03*
D47*
X007638Y011099D03*
X007638Y010784D03*
X007638Y010469D03*
X007638Y010154D03*
X007638Y009839D03*
D48*
G36*
X029445Y025378D02*
X029367Y025456D01*
X029833Y025922D01*
X029911Y025844D01*
X029445Y025378D01*
G37*
G36*
X029585Y025239D02*
X029507Y025317D01*
X029973Y025783D01*
X030051Y025705D01*
X029585Y025239D01*
G37*
G36*
X029724Y025100D02*
X029646Y025178D01*
X030112Y025644D01*
X030190Y025566D01*
X029724Y025100D01*
G37*
G36*
X029863Y024961D02*
X029785Y025039D01*
X030251Y025505D01*
X030329Y025427D01*
X029863Y024961D01*
G37*
G36*
X031089Y025039D02*
X031011Y024961D01*
X030545Y025427D01*
X030623Y025505D01*
X031089Y025039D01*
G37*
G36*
X031228Y025178D02*
X031150Y025100D01*
X030684Y025566D01*
X030762Y025644D01*
X031228Y025178D01*
G37*
G36*
X031367Y025317D02*
X031289Y025239D01*
X030823Y025705D01*
X030901Y025783D01*
X031367Y025317D01*
G37*
G36*
X031506Y025456D02*
X031428Y025378D01*
X030962Y025844D01*
X031040Y025922D01*
X031506Y025456D01*
G37*
G36*
X031646Y025596D02*
X031568Y025518D01*
X031102Y025984D01*
X031180Y026062D01*
X031646Y025596D01*
G37*
G36*
X031785Y025735D02*
X031707Y025657D01*
X031241Y026123D01*
X031319Y026201D01*
X031785Y025735D01*
G37*
G36*
X031924Y025874D02*
X031846Y025796D01*
X031380Y026262D01*
X031458Y026340D01*
X031924Y025874D01*
G37*
G36*
X032063Y026013D02*
X031985Y025935D01*
X031519Y026401D01*
X031597Y026479D01*
X032063Y026013D01*
G37*
G36*
X032202Y026152D02*
X032124Y026074D01*
X031658Y026540D01*
X031736Y026618D01*
X032202Y026152D01*
G37*
G36*
X032342Y026292D02*
X032264Y026214D01*
X031798Y026680D01*
X031876Y026758D01*
X032342Y026292D01*
G37*
G36*
X032481Y026431D02*
X032403Y026353D01*
X031937Y026819D01*
X032015Y026897D01*
X032481Y026431D01*
G37*
G36*
X032620Y026570D02*
X032542Y026492D01*
X032076Y026958D01*
X032154Y027036D01*
X032620Y026570D01*
G37*
G36*
X032154Y027252D02*
X032076Y027330D01*
X032542Y027796D01*
X032620Y027718D01*
X032154Y027252D01*
G37*
G36*
X032015Y027391D02*
X031937Y027469D01*
X032403Y027935D01*
X032481Y027857D01*
X032015Y027391D01*
G37*
G36*
X031876Y027530D02*
X031798Y027608D01*
X032264Y028074D01*
X032342Y027996D01*
X031876Y027530D01*
G37*
G36*
X031736Y027669D02*
X031658Y027747D01*
X032124Y028213D01*
X032202Y028135D01*
X031736Y027669D01*
G37*
G36*
X031597Y027809D02*
X031519Y027887D01*
X031985Y028353D01*
X032063Y028275D01*
X031597Y027809D01*
G37*
G36*
X031458Y027948D02*
X031380Y028026D01*
X031846Y028492D01*
X031924Y028414D01*
X031458Y027948D01*
G37*
G36*
X031319Y028087D02*
X031241Y028165D01*
X031707Y028631D01*
X031785Y028553D01*
X031319Y028087D01*
G37*
G36*
X031180Y028226D02*
X031102Y028304D01*
X031568Y028770D01*
X031646Y028692D01*
X031180Y028226D01*
G37*
G36*
X031040Y028365D02*
X030962Y028443D01*
X031428Y028909D01*
X031506Y028831D01*
X031040Y028365D01*
G37*
G36*
X030901Y028505D02*
X030823Y028583D01*
X031289Y029049D01*
X031367Y028971D01*
X030901Y028505D01*
G37*
G36*
X030762Y028644D02*
X030684Y028722D01*
X031150Y029188D01*
X031228Y029110D01*
X030762Y028644D01*
G37*
G36*
X030623Y028783D02*
X030545Y028861D01*
X031011Y029327D01*
X031089Y029249D01*
X030623Y028783D01*
G37*
G36*
X030329Y028861D02*
X030251Y028783D01*
X029785Y029249D01*
X029863Y029327D01*
X030329Y028861D01*
G37*
G36*
X030190Y028722D02*
X030112Y028644D01*
X029646Y029110D01*
X029724Y029188D01*
X030190Y028722D01*
G37*
G36*
X030051Y028583D02*
X029973Y028505D01*
X029507Y028971D01*
X029585Y029049D01*
X030051Y028583D01*
G37*
G36*
X029911Y028443D02*
X029833Y028365D01*
X029367Y028831D01*
X029445Y028909D01*
X029911Y028443D01*
G37*
G36*
X029772Y028304D02*
X029694Y028226D01*
X029228Y028692D01*
X029306Y028770D01*
X029772Y028304D01*
G37*
G36*
X029633Y028165D02*
X029555Y028087D01*
X029089Y028553D01*
X029167Y028631D01*
X029633Y028165D01*
G37*
G36*
X029494Y028026D02*
X029416Y027948D01*
X028950Y028414D01*
X029028Y028492D01*
X029494Y028026D01*
G37*
G36*
X029355Y027887D02*
X029277Y027809D01*
X028811Y028275D01*
X028889Y028353D01*
X029355Y027887D01*
G37*
G36*
X029215Y027747D02*
X029137Y027669D01*
X028671Y028135D01*
X028749Y028213D01*
X029215Y027747D01*
G37*
G36*
X029076Y027608D02*
X028998Y027530D01*
X028532Y027996D01*
X028610Y028074D01*
X029076Y027608D01*
G37*
G36*
X028937Y027469D02*
X028859Y027391D01*
X028393Y027857D01*
X028471Y027935D01*
X028937Y027469D01*
G37*
G36*
X028798Y027330D02*
X028720Y027252D01*
X028254Y027718D01*
X028332Y027796D01*
X028798Y027330D01*
G37*
G36*
X028332Y026492D02*
X028254Y026570D01*
X028720Y027036D01*
X028798Y026958D01*
X028332Y026492D01*
G37*
G36*
X028471Y026353D02*
X028393Y026431D01*
X028859Y026897D01*
X028937Y026819D01*
X028471Y026353D01*
G37*
G36*
X028610Y026214D02*
X028532Y026292D01*
X028998Y026758D01*
X029076Y026680D01*
X028610Y026214D01*
G37*
G36*
X028749Y026074D02*
X028671Y026152D01*
X029137Y026618D01*
X029215Y026540D01*
X028749Y026074D01*
G37*
G36*
X028889Y025935D02*
X028811Y026013D01*
X029277Y026479D01*
X029355Y026401D01*
X028889Y025935D01*
G37*
G36*
X029028Y025796D02*
X028950Y025874D01*
X029416Y026340D01*
X029494Y026262D01*
X029028Y025796D01*
G37*
G36*
X029167Y025657D02*
X029089Y025735D01*
X029555Y026201D01*
X029633Y026123D01*
X029167Y025657D01*
G37*
G36*
X029306Y025518D02*
X029228Y025596D01*
X029694Y026062D01*
X029772Y025984D01*
X029306Y025518D01*
G37*
D49*
G36*
X030437Y028256D02*
X031549Y027144D01*
X030437Y026032D01*
X029325Y027144D01*
X030437Y028256D01*
G37*
D50*
X033367Y034474D03*
X033367Y034724D03*
X033367Y034984D03*
X033367Y035234D03*
X035087Y035234D03*
X035087Y034984D03*
X035087Y034724D03*
X035087Y034474D03*
D51*
X034227Y034854D03*
D52*
X035602Y019314D03*
X035602Y019054D03*
X035602Y018804D03*
X035602Y018544D03*
X035602Y018284D03*
X035602Y018034D03*
X035602Y017774D03*
X037822Y017774D03*
X037822Y018034D03*
X037822Y018284D03*
X037822Y018544D03*
X037822Y018804D03*
X037822Y019054D03*
X037822Y019314D03*
D53*
X038591Y018169D03*
X039733Y018169D03*
X014083Y029794D03*
X012941Y029794D03*
D54*
X037412Y011791D03*
X037912Y011791D03*
X038412Y011791D03*
X038912Y011791D03*
X040562Y012741D03*
X041062Y012741D03*
X041562Y012741D03*
X042062Y012741D03*
X042062Y010497D03*
X041562Y010497D03*
X041062Y010497D03*
X040562Y010497D03*
X038912Y009547D03*
X038412Y009547D03*
X037912Y009547D03*
X037412Y009547D03*
D55*
X037737Y008451D03*
X039262Y008451D03*
X039262Y006837D03*
X037737Y006837D03*
D56*
X034913Y019686D03*
X033811Y019686D03*
X033811Y021852D03*
X034913Y021852D03*
D57*
X011618Y023497D03*
X011618Y023694D03*
X011618Y023891D03*
X011106Y023891D03*
X011106Y023694D03*
X011106Y023497D03*
X011068Y019641D03*
X011068Y019444D03*
X011068Y019247D03*
X010556Y019247D03*
X010556Y019444D03*
X010556Y019641D03*
D58*
X028805Y033337D03*
X031719Y033337D03*
X031719Y036251D03*
X028805Y036251D03*
M02*
