G75*
G70*
%OFA0B0*%
%FSLAX24Y24*%
%IPPOS*%
%LPD*%
%AMOC8*
5,1,8,0,0,1.08239X$1,22.5*
%
%ADD10C,0.0039*%
%ADD11C,0.0000*%
D10*
X005677Y003669D02*
X043866Y003669D01*
X043866Y003668D02*
X043912Y003670D01*
X043958Y003675D01*
X044004Y003684D01*
X044049Y003697D01*
X044092Y003713D01*
X044134Y003732D01*
X044175Y003755D01*
X044213Y003781D01*
X044250Y003810D01*
X044284Y003841D01*
X044315Y003875D01*
X044344Y003912D01*
X044370Y003950D01*
X044393Y003991D01*
X044412Y004033D01*
X044428Y004076D01*
X044441Y004121D01*
X044450Y004167D01*
X044455Y004213D01*
X044457Y004259D01*
X044457Y036543D01*
X044455Y036589D01*
X044450Y036635D01*
X044441Y036681D01*
X044428Y036726D01*
X044412Y036769D01*
X044393Y036811D01*
X044370Y036852D01*
X044344Y036890D01*
X044315Y036927D01*
X044284Y036961D01*
X044250Y036992D01*
X044213Y037021D01*
X044175Y037047D01*
X044134Y037070D01*
X044092Y037089D01*
X044049Y037105D01*
X044004Y037118D01*
X043958Y037127D01*
X043912Y037132D01*
X043866Y037134D01*
X043866Y037133D02*
X005677Y037133D01*
X005677Y037134D02*
X005631Y037132D01*
X005585Y037127D01*
X005539Y037118D01*
X005494Y037105D01*
X005451Y037089D01*
X005409Y037070D01*
X005368Y037047D01*
X005330Y037021D01*
X005293Y036992D01*
X005259Y036961D01*
X005228Y036927D01*
X005199Y036890D01*
X005173Y036852D01*
X005150Y036811D01*
X005131Y036769D01*
X005115Y036726D01*
X005102Y036681D01*
X005093Y036635D01*
X005088Y036589D01*
X005086Y036543D01*
X005087Y036543D02*
X005087Y004259D01*
X005086Y004259D02*
X005088Y004213D01*
X005093Y004167D01*
X005102Y004121D01*
X005115Y004076D01*
X005131Y004033D01*
X005150Y003991D01*
X005173Y003950D01*
X005199Y003912D01*
X005228Y003875D01*
X005259Y003841D01*
X005293Y003810D01*
X005330Y003781D01*
X005368Y003755D01*
X005409Y003732D01*
X005451Y003713D01*
X005494Y003697D01*
X005539Y003684D01*
X005585Y003675D01*
X005631Y003670D01*
X005677Y003668D01*
D11*
X006525Y009603D02*
X006527Y009630D01*
X006533Y009657D01*
X006542Y009683D01*
X006555Y009707D01*
X006571Y009730D01*
X006590Y009749D01*
X006612Y009766D01*
X006636Y009780D01*
X006661Y009790D01*
X006688Y009797D01*
X006715Y009800D01*
X006743Y009799D01*
X006770Y009794D01*
X006796Y009786D01*
X006820Y009774D01*
X006843Y009758D01*
X006864Y009740D01*
X006881Y009719D01*
X006896Y009695D01*
X006907Y009670D01*
X006915Y009644D01*
X006919Y009617D01*
X006919Y009589D01*
X006915Y009562D01*
X006907Y009536D01*
X006896Y009511D01*
X006881Y009487D01*
X006864Y009466D01*
X006843Y009448D01*
X006821Y009432D01*
X006796Y009420D01*
X006770Y009412D01*
X006743Y009407D01*
X006715Y009406D01*
X006688Y009409D01*
X006661Y009416D01*
X006636Y009426D01*
X006612Y009440D01*
X006590Y009457D01*
X006571Y009476D01*
X006555Y009499D01*
X006542Y009523D01*
X006533Y009549D01*
X006527Y009576D01*
X006525Y009603D01*
X006525Y011335D02*
X006527Y011362D01*
X006533Y011389D01*
X006542Y011415D01*
X006555Y011439D01*
X006571Y011462D01*
X006590Y011481D01*
X006612Y011498D01*
X006636Y011512D01*
X006661Y011522D01*
X006688Y011529D01*
X006715Y011532D01*
X006743Y011531D01*
X006770Y011526D01*
X006796Y011518D01*
X006820Y011506D01*
X006843Y011490D01*
X006864Y011472D01*
X006881Y011451D01*
X006896Y011427D01*
X006907Y011402D01*
X006915Y011376D01*
X006919Y011349D01*
X006919Y011321D01*
X006915Y011294D01*
X006907Y011268D01*
X006896Y011243D01*
X006881Y011219D01*
X006864Y011198D01*
X006843Y011180D01*
X006821Y011164D01*
X006796Y011152D01*
X006770Y011144D01*
X006743Y011139D01*
X006715Y011138D01*
X006688Y011141D01*
X006661Y011148D01*
X006636Y011158D01*
X006612Y011172D01*
X006590Y011189D01*
X006571Y011208D01*
X006555Y011231D01*
X006542Y011255D01*
X006533Y011281D01*
X006527Y011308D01*
X006525Y011335D01*
X040607Y025969D02*
X040609Y026019D01*
X040615Y026069D01*
X040625Y026118D01*
X040639Y026166D01*
X040656Y026213D01*
X040677Y026258D01*
X040702Y026302D01*
X040730Y026343D01*
X040762Y026382D01*
X040796Y026419D01*
X040833Y026453D01*
X040873Y026483D01*
X040915Y026510D01*
X040959Y026534D01*
X041005Y026555D01*
X041052Y026571D01*
X041100Y026584D01*
X041150Y026593D01*
X041199Y026598D01*
X041250Y026599D01*
X041300Y026596D01*
X041349Y026589D01*
X041398Y026578D01*
X041446Y026563D01*
X041492Y026545D01*
X041537Y026523D01*
X041580Y026497D01*
X041621Y026468D01*
X041660Y026436D01*
X041696Y026401D01*
X041728Y026363D01*
X041758Y026323D01*
X041785Y026280D01*
X041808Y026236D01*
X041827Y026190D01*
X041843Y026142D01*
X041855Y026093D01*
X041863Y026044D01*
X041867Y025994D01*
X041867Y025944D01*
X041863Y025894D01*
X041855Y025845D01*
X041843Y025796D01*
X041827Y025748D01*
X041808Y025702D01*
X041785Y025658D01*
X041758Y025615D01*
X041728Y025575D01*
X041696Y025537D01*
X041660Y025502D01*
X041621Y025470D01*
X041580Y025441D01*
X041537Y025415D01*
X041492Y025393D01*
X041446Y025375D01*
X041398Y025360D01*
X041349Y025349D01*
X041300Y025342D01*
X041250Y025339D01*
X041199Y025340D01*
X041150Y025345D01*
X041100Y025354D01*
X041052Y025367D01*
X041005Y025383D01*
X040959Y025404D01*
X040915Y025428D01*
X040873Y025455D01*
X040833Y025485D01*
X040796Y025519D01*
X040762Y025556D01*
X040730Y025595D01*
X040702Y025636D01*
X040677Y025680D01*
X040656Y025725D01*
X040639Y025772D01*
X040625Y025820D01*
X040615Y025869D01*
X040609Y025919D01*
X040607Y025969D01*
X040607Y030469D02*
X040609Y030519D01*
X040615Y030569D01*
X040625Y030618D01*
X040639Y030666D01*
X040656Y030713D01*
X040677Y030758D01*
X040702Y030802D01*
X040730Y030843D01*
X040762Y030882D01*
X040796Y030919D01*
X040833Y030953D01*
X040873Y030983D01*
X040915Y031010D01*
X040959Y031034D01*
X041005Y031055D01*
X041052Y031071D01*
X041100Y031084D01*
X041150Y031093D01*
X041199Y031098D01*
X041250Y031099D01*
X041300Y031096D01*
X041349Y031089D01*
X041398Y031078D01*
X041446Y031063D01*
X041492Y031045D01*
X041537Y031023D01*
X041580Y030997D01*
X041621Y030968D01*
X041660Y030936D01*
X041696Y030901D01*
X041728Y030863D01*
X041758Y030823D01*
X041785Y030780D01*
X041808Y030736D01*
X041827Y030690D01*
X041843Y030642D01*
X041855Y030593D01*
X041863Y030544D01*
X041867Y030494D01*
X041867Y030444D01*
X041863Y030394D01*
X041855Y030345D01*
X041843Y030296D01*
X041827Y030248D01*
X041808Y030202D01*
X041785Y030158D01*
X041758Y030115D01*
X041728Y030075D01*
X041696Y030037D01*
X041660Y030002D01*
X041621Y029970D01*
X041580Y029941D01*
X041537Y029915D01*
X041492Y029893D01*
X041446Y029875D01*
X041398Y029860D01*
X041349Y029849D01*
X041300Y029842D01*
X041250Y029839D01*
X041199Y029840D01*
X041150Y029845D01*
X041100Y029854D01*
X041052Y029867D01*
X041005Y029883D01*
X040959Y029904D01*
X040915Y029928D01*
X040873Y029955D01*
X040833Y029985D01*
X040796Y030019D01*
X040762Y030056D01*
X040730Y030095D01*
X040702Y030136D01*
X040677Y030180D01*
X040656Y030225D01*
X040639Y030272D01*
X040625Y030320D01*
X040615Y030369D01*
X040609Y030419D01*
X040607Y030469D01*
M02*
