G75*
G70*
%OFA0B0*%
%FSLAX24Y24*%
%IPPOS*%
%LPD*%
%AMOC8*
5,1,8,0,0,1.08239X$1,22.5*
%
%ADD10C,0.1190*%
%ADD11R,0.1190X0.1190*%
%ADD12C,0.0928*%
%ADD13C,0.0050*%
%ADD14OC8,0.0688*%
%ADD15OC8,0.0637*%
%ADD16C,0.0484*%
%ADD17C,0.0690*%
%ADD18R,0.0690X0.0690*%
%ADD19C,0.1350*%
%ADD20C,0.1090*%
%ADD21R,0.1271X0.1153*%
%ADD22R,0.0562X0.0208*%
%ADD23C,0.0790*%
%ADD24OC8,0.0790*%
%ADD25C,0.0688*%
%ADD26R,0.0681X0.0366*%
%ADD27R,0.1007X0.0661*%
%ADD28R,0.0681X0.0523*%
%ADD29C,0.2255*%
D10*
X006469Y026819D02*
X007569Y026819D01*
X008199Y028239D02*
X008199Y029339D01*
D11*
X005839Y028789D03*
D12*
X005839Y029089D03*
X005839Y028489D03*
X008199Y028489D03*
X008199Y029089D03*
X007319Y026819D03*
X006719Y026819D03*
D13*
X005371Y033295D02*
X005284Y033287D01*
X005197Y033295D01*
X005113Y033317D01*
X005034Y033354D01*
X004962Y033404D01*
X004901Y033466D01*
X004851Y033537D01*
X004814Y033616D01*
X004791Y033700D01*
X004784Y033787D01*
X004791Y033874D01*
X004814Y033958D01*
X004851Y034037D01*
X004901Y034108D01*
X004962Y034170D01*
X005034Y034220D01*
X005113Y034257D01*
X005197Y034279D01*
X005284Y034287D01*
X005371Y034279D01*
X005455Y034257D01*
X005534Y034220D01*
X005605Y034170D01*
X005667Y034108D01*
X005717Y034037D01*
X005754Y033958D01*
X005776Y033874D01*
X005784Y033787D01*
X005776Y033700D01*
X005754Y033616D01*
X005717Y033537D01*
X005667Y033466D01*
X005605Y033404D01*
X005534Y033354D01*
X005455Y033317D01*
X005371Y033295D01*
X005400Y033303D02*
X005167Y033303D01*
X005040Y033351D02*
X005527Y033351D01*
X005599Y033400D02*
X004969Y033400D01*
X004918Y033448D02*
X005649Y033448D01*
X005688Y033497D02*
X004879Y033497D01*
X004847Y033545D02*
X005720Y033545D01*
X005743Y033594D02*
X004824Y033594D01*
X004807Y033642D02*
X005761Y033642D01*
X005774Y033691D02*
X004794Y033691D01*
X004788Y033739D02*
X005780Y033739D01*
X005784Y033788D02*
X004784Y033788D01*
X004788Y033836D02*
X005779Y033836D01*
X005773Y033885D02*
X004794Y033885D01*
X004807Y033933D02*
X005760Y033933D01*
X005743Y033982D02*
X004825Y033982D01*
X004847Y034030D02*
X005720Y034030D01*
X005688Y034079D02*
X004880Y034079D01*
X004919Y034127D02*
X005648Y034127D01*
X005597Y034176D02*
X004970Y034176D01*
X005042Y034224D02*
X005525Y034224D01*
X005396Y034273D02*
X005171Y034273D01*
X042302Y007534D02*
X042364Y007595D01*
X042435Y007645D01*
X042514Y007682D01*
X042598Y007705D01*
X042685Y007712D01*
X042772Y007705D01*
X042856Y007682D01*
X042935Y007645D01*
X043007Y007595D01*
X043068Y007534D01*
X043118Y007462D01*
X043155Y007383D01*
X043178Y007299D01*
X043185Y007212D01*
X043178Y007125D01*
X043155Y007041D01*
X043118Y006962D01*
X043068Y006891D01*
X043007Y006829D01*
X042935Y006779D01*
X042856Y006742D01*
X042772Y006720D01*
X042685Y006712D01*
X042598Y006720D01*
X042514Y006742D01*
X042435Y006779D01*
X042364Y006829D01*
X042302Y006891D01*
X042252Y006962D01*
X042215Y007041D01*
X042193Y007125D01*
X042185Y007212D01*
X042193Y007299D01*
X042215Y007383D01*
X042252Y007462D01*
X042302Y007534D01*
X042318Y007549D02*
X043053Y007549D01*
X043092Y007500D02*
X042279Y007500D01*
X042247Y007452D02*
X043123Y007452D01*
X043146Y007403D02*
X042225Y007403D01*
X042208Y007355D02*
X043163Y007355D01*
X043176Y007306D02*
X042195Y007306D01*
X042189Y007258D02*
X043181Y007258D01*
X043185Y007209D02*
X042186Y007209D01*
X042190Y007161D02*
X043181Y007161D01*
X043174Y007112D02*
X042196Y007112D01*
X042209Y007064D02*
X043161Y007064D01*
X043143Y007015D02*
X042227Y007015D01*
X042250Y006967D02*
X043121Y006967D01*
X043088Y006918D02*
X042283Y006918D01*
X042323Y006870D02*
X043047Y006870D01*
X042996Y006821D02*
X042375Y006821D01*
X042449Y006773D02*
X042922Y006773D01*
X042789Y006724D02*
X042581Y006724D01*
X042367Y007597D02*
X043004Y007597D01*
X042934Y007646D02*
X042437Y007646D01*
X042560Y007694D02*
X042810Y007694D01*
D14*
X040124Y005544D03*
X039124Y005544D03*
X038124Y005544D03*
X037124Y005544D03*
X036124Y005544D03*
X035124Y005544D03*
X034124Y005544D03*
X034124Y004544D03*
X035124Y004544D03*
X036124Y004544D03*
X037124Y004544D03*
X038124Y004544D03*
X039124Y004544D03*
X040124Y004544D03*
X027924Y004544D03*
X026924Y004544D03*
X025924Y004544D03*
X024924Y004544D03*
X023924Y004544D03*
X023924Y005544D03*
X024924Y005544D03*
X025924Y005544D03*
X026924Y005544D03*
X027924Y005544D03*
X028249Y018694D03*
X027249Y018694D03*
X026249Y018694D03*
X025249Y018694D03*
X025249Y019694D03*
X026249Y019694D03*
X027249Y019694D03*
X028249Y019694D03*
X030249Y019269D03*
X031249Y019269D03*
X031249Y020269D03*
X030249Y020269D03*
X030249Y021269D03*
X031249Y021269D03*
X031249Y022269D03*
X030249Y022269D03*
X030249Y023269D03*
X031249Y023269D03*
X010474Y025219D03*
X009474Y025219D03*
X008474Y025219D03*
X008474Y026219D03*
X009474Y026219D03*
X010474Y026219D03*
D15*
X009099Y024269D03*
X008099Y024269D03*
X008099Y023269D03*
X009099Y023269D03*
X009099Y022269D03*
X008099Y022269D03*
X008099Y021269D03*
X008099Y020269D03*
X009099Y020269D03*
X009099Y021269D03*
X009099Y019269D03*
X008099Y019269D03*
X008099Y018269D03*
X008099Y017269D03*
X009099Y017269D03*
X009099Y018269D03*
X009099Y016269D03*
X008099Y016269D03*
X008099Y015269D03*
X009099Y015269D03*
D16*
X005935Y011335D03*
X005935Y009603D03*
D17*
X036949Y026969D03*
X036949Y027969D03*
X037949Y028469D03*
X037949Y029469D03*
X036949Y029969D03*
X036949Y028969D03*
X037949Y027469D03*
X041780Y026729D03*
X042449Y025729D03*
X042449Y029709D03*
X041780Y030709D03*
D18*
X037949Y026469D03*
D19*
X040449Y025969D03*
X040449Y030469D03*
D20*
X039249Y031270D03*
X039249Y025168D03*
D21*
X041724Y022599D03*
X041724Y017339D03*
D22*
X040976Y018099D03*
X040976Y018296D03*
X040976Y018493D03*
X040976Y018689D03*
X040976Y018886D03*
X040976Y019083D03*
X040976Y019280D03*
X040976Y019477D03*
X040976Y019674D03*
X040976Y019870D03*
X040976Y020067D03*
X040976Y020264D03*
X040976Y020461D03*
X040976Y020658D03*
X040976Y020855D03*
X040976Y021052D03*
X040976Y021248D03*
X040976Y021445D03*
X040976Y021642D03*
X040976Y021839D03*
D23*
X035281Y021969D03*
D24*
X039218Y021969D03*
D25*
X029974Y034495D02*
X029974Y035093D01*
X028974Y035093D02*
X028974Y034495D01*
D26*
X042460Y013327D03*
X042460Y012894D03*
X042460Y012461D03*
X042460Y012028D03*
X042460Y011595D03*
X042460Y011162D03*
X042460Y010729D03*
X042460Y010296D03*
D27*
X042240Y008819D03*
D28*
X037381Y009607D03*
X037381Y011300D03*
D29*
X005677Y005047D03*
X042292Y005047D03*
X042292Y035756D03*
X005677Y035756D03*
M02*
