G75*
G70*
%OFA0B0*%
%FSLAX24Y24*%
%IPPOS*%
%LPD*%
%AMOC8*
5,1,8,0,0,1.08239X$1,22.5*
%
%ADD10C,0.0040*%
%ADD11C,0.0100*%
%ADD12C,0.0010*%
%ADD13C,0.1100*%
%ADD14R,0.1100X0.1100*%
%ADD15C,0.0838*%
%ADD16C,0.0400*%
%ADD17OC8,0.0598*%
%ADD18OC8,0.0547*%
%ADD19C,0.0600*%
%ADD20R,0.0600X0.0600*%
%ADD21C,0.1000*%
%ADD22R,0.1181X0.1063*%
%ADD23R,0.0472X0.0118*%
%ADD24C,0.0700*%
%ADD25OC8,0.0700*%
%ADD26C,0.0598*%
%ADD27R,0.0591X0.0276*%
%ADD28R,0.0917X0.0571*%
%ADD29R,0.0591X0.0433*%
%ADD30C,0.2165*%
%ADD31R,0.0278X0.0278*%
%ADD32OC8,0.0278*%
%ADD33R,0.0396X0.0396*%
%ADD34C,0.0080*%
%ADD35R,0.0357X0.0357*%
%ADD36C,0.0060*%
%ADD37OC8,0.0396*%
%ADD38OC8,0.0357*%
%ADD39C,0.0160*%
%ADD40C,0.0240*%
D10*
X004944Y012839D02*
X004944Y013079D01*
X004944Y013207D02*
X004944Y013447D01*
X004944Y013576D02*
X004944Y013816D01*
X004944Y013576D02*
X005005Y013576D01*
X005245Y013816D01*
X005305Y013816D01*
X005305Y013576D01*
X005305Y013447D02*
X005305Y013207D01*
X004944Y013207D01*
X005125Y013207D02*
X005125Y013327D01*
X005305Y013079D02*
X005305Y012839D01*
X004944Y012839D01*
X005125Y012839D02*
X005125Y012959D01*
X005305Y014312D02*
X004944Y014552D01*
X004944Y014680D02*
X005305Y014680D01*
X005185Y014801D01*
X005305Y014921D01*
X004944Y014921D01*
X005005Y015049D02*
X004944Y015109D01*
X004944Y015229D01*
X005005Y015289D01*
X005245Y015289D01*
X005305Y015229D01*
X005305Y015109D01*
X005245Y015049D01*
X005005Y015049D01*
X005005Y015417D02*
X004944Y015477D01*
X004944Y015597D01*
X005005Y015657D01*
X005065Y015657D01*
X005125Y015597D01*
X005125Y015477D01*
X005185Y015417D01*
X005245Y015417D01*
X005305Y015477D01*
X005305Y015597D01*
X005245Y015657D01*
X005125Y016154D02*
X005185Y016214D01*
X005185Y016334D01*
X005125Y016394D01*
X005065Y016394D01*
X005065Y016154D01*
X005005Y016154D02*
X005125Y016154D01*
X005005Y016154D02*
X004944Y016214D01*
X004944Y016334D01*
X005185Y016522D02*
X004944Y016642D01*
X005185Y016762D01*
X005185Y016950D02*
X005185Y017071D01*
X005125Y017131D01*
X004944Y017131D01*
X004944Y016950D01*
X005005Y016890D01*
X005065Y016950D01*
X005065Y017131D01*
X004944Y017259D02*
X004944Y017379D01*
X004944Y017319D02*
X005305Y017319D01*
X005305Y017259D01*
X005185Y017504D02*
X005005Y017504D01*
X004944Y017564D01*
X004944Y017744D01*
X005185Y017744D01*
X005185Y017933D02*
X005185Y018053D01*
X005125Y018113D01*
X004944Y018113D01*
X004944Y017933D01*
X005005Y017873D01*
X005065Y017933D01*
X005065Y018113D01*
X005185Y018241D02*
X005185Y018361D01*
X005245Y018301D02*
X005005Y018301D01*
X004944Y018361D01*
X004944Y018486D02*
X004944Y018606D01*
X004944Y018546D02*
X005185Y018546D01*
X005185Y018486D01*
X005305Y018546D02*
X005365Y018546D01*
X005125Y018732D02*
X005005Y018732D01*
X004944Y018792D01*
X004944Y018912D01*
X005005Y018972D01*
X005125Y018972D01*
X005185Y018912D01*
X005185Y018792D01*
X005125Y018732D01*
X005185Y019100D02*
X005185Y019280D01*
X005125Y019340D01*
X004944Y019340D01*
X004944Y019100D02*
X005185Y019100D01*
X005185Y019837D02*
X005185Y020017D01*
X005125Y020077D01*
X005005Y020077D01*
X004944Y020017D01*
X004944Y019837D01*
X005305Y019837D01*
X005125Y020205D02*
X005005Y020205D01*
X004944Y020265D01*
X004944Y020385D01*
X005005Y020445D01*
X005125Y020445D01*
X005185Y020385D01*
X005185Y020265D01*
X005125Y020205D01*
X005005Y020574D02*
X005065Y020634D01*
X005065Y020814D01*
X005125Y020814D02*
X004944Y020814D01*
X004944Y020634D01*
X005005Y020574D01*
X005185Y020634D02*
X005185Y020754D01*
X005125Y020814D01*
X005185Y020942D02*
X004944Y020942D01*
X005065Y020942D02*
X005185Y021062D01*
X005185Y021122D01*
X005125Y021249D02*
X005185Y021309D01*
X005185Y021489D01*
X005305Y021489D02*
X004944Y021489D01*
X004944Y021309D01*
X005005Y021249D01*
X005125Y021249D01*
X005185Y021985D02*
X005305Y022105D01*
X005245Y022231D02*
X005305Y022291D01*
X005305Y022411D01*
X005245Y022471D01*
X005005Y022231D01*
X004944Y022291D01*
X004944Y022411D01*
X005005Y022471D01*
X005245Y022471D01*
X005125Y022599D02*
X005305Y022779D01*
X004944Y022779D01*
X004944Y022968D02*
X005305Y023208D01*
X005245Y023336D02*
X005305Y023396D01*
X005305Y023516D01*
X005245Y023576D01*
X005185Y023576D01*
X004944Y023336D01*
X004944Y023576D01*
X005005Y023704D02*
X005245Y023944D01*
X005005Y023944D01*
X004944Y023884D01*
X004944Y023764D01*
X005005Y023704D01*
X005245Y023704D01*
X005305Y023764D01*
X005305Y023884D01*
X005245Y023944D01*
X005185Y024072D02*
X005305Y024193D01*
X004944Y024193D01*
X004944Y024313D02*
X004944Y024072D01*
X005005Y024441D02*
X005065Y024441D01*
X005125Y024501D01*
X005125Y024621D01*
X005065Y024681D01*
X005005Y024681D01*
X004944Y024621D01*
X004944Y024501D01*
X005005Y024441D01*
X005125Y024501D02*
X005185Y024441D01*
X005245Y024441D01*
X005305Y024501D01*
X005305Y024621D01*
X005245Y024681D01*
X005185Y024681D01*
X005125Y024621D01*
X005185Y025177D02*
X004944Y025177D01*
X005065Y025177D02*
X005185Y025298D01*
X005185Y025358D01*
X005185Y025484D02*
X005305Y025604D01*
X004944Y025604D01*
X004944Y025484D02*
X004944Y025725D01*
X004944Y025853D02*
X004944Y026033D01*
X005005Y026093D01*
X005065Y026093D01*
X005125Y026033D01*
X005125Y025853D01*
X005305Y025853D02*
X004944Y025853D01*
X005125Y026033D02*
X005185Y026093D01*
X005245Y026093D01*
X005305Y026033D01*
X005305Y025853D01*
X005305Y026221D02*
X005125Y026221D01*
X005185Y026341D01*
X005185Y026401D01*
X005125Y026461D01*
X005005Y026461D01*
X004944Y026401D01*
X004944Y026281D01*
X005005Y026221D01*
X005305Y026221D02*
X005305Y026461D01*
X005305Y026589D02*
X005185Y026709D01*
X005065Y026709D01*
X004944Y026589D01*
X005125Y022839D02*
X005125Y022599D01*
X005005Y022231D02*
X005245Y022231D01*
X005185Y021985D02*
X005065Y021985D01*
X004944Y022105D01*
X006085Y021094D02*
X006326Y021094D01*
X006265Y020914D02*
X006265Y021274D01*
X006085Y021094D01*
X005305Y014552D02*
X004944Y014312D01*
D11*
X005749Y020719D02*
X005749Y022819D01*
X006649Y022819D01*
X006649Y020719D01*
X005749Y020719D01*
X017999Y029094D02*
X019074Y029094D01*
X019674Y029694D01*
X023024Y029694D01*
X027099Y027069D02*
X029524Y029494D01*
X030349Y028669D01*
X031324Y028669D01*
X031524Y028319D02*
X031524Y027694D01*
X032024Y027194D01*
X032099Y027269D01*
X032024Y027194D02*
X032549Y026669D01*
X036649Y026669D01*
X036949Y026969D01*
X037949Y026469D02*
X032449Y026469D01*
X032237Y026681D01*
X032124Y026569D01*
X032237Y026681D02*
X031224Y027694D01*
X030649Y027694D01*
X031774Y028619D02*
X035874Y028619D01*
X036724Y029469D01*
X037949Y029469D01*
X036949Y029969D02*
X035799Y028819D01*
X032299Y028819D01*
X032049Y029069D01*
X034374Y031169D02*
X028199Y031169D01*
X027649Y030344D02*
X027649Y035944D01*
X027174Y036419D01*
X034249Y034419D02*
X034249Y033744D01*
X034249Y034419D02*
X034824Y034994D01*
X041224Y031319D02*
X041299Y031244D01*
X041299Y023819D01*
X039899Y022419D01*
X039899Y020544D01*
X040573Y019870D01*
X040976Y019870D01*
X040976Y021248D02*
X041379Y021248D01*
X041499Y021369D01*
X041423Y021445D01*
X040976Y021445D01*
X040976Y021642D02*
X040526Y021642D01*
X040424Y021744D01*
X040520Y021839D01*
X040976Y021839D01*
X037381Y011300D02*
X037381Y010926D01*
X037374Y010919D01*
X035149Y009119D02*
X033799Y009119D01*
X033774Y008394D02*
X034824Y008394D01*
X032324Y007119D02*
X029874Y004669D01*
X031474Y004519D02*
X031474Y005369D01*
X032374Y006269D01*
X032324Y007119D02*
X032324Y010069D01*
X039624Y007219D02*
X039624Y005044D01*
X039124Y004544D01*
X040124Y004544D02*
X040124Y004669D01*
X040724Y005269D01*
X040724Y006944D01*
X041849Y008069D01*
X040474Y008069D02*
X039624Y007219D01*
X012049Y007894D02*
X012049Y006169D01*
X042069Y032841D02*
X042069Y033629D01*
X042266Y033629D02*
X042266Y032841D01*
X041068Y033235D02*
X041070Y033301D01*
X041076Y033366D01*
X041086Y033431D01*
X041099Y033496D01*
X041117Y033559D01*
X041138Y033622D01*
X041163Y033682D01*
X041192Y033742D01*
X041224Y033799D01*
X041259Y033855D01*
X041298Y033908D01*
X041340Y033959D01*
X041384Y034007D01*
X041432Y034052D01*
X041482Y034095D01*
X041535Y034134D01*
X041590Y034171D01*
X041647Y034204D01*
X041706Y034233D01*
X041766Y034259D01*
X041828Y034281D01*
X041891Y034300D01*
X041955Y034314D01*
X042020Y034325D01*
X042086Y034332D01*
X042152Y034335D01*
X042217Y034334D01*
X042283Y034329D01*
X042348Y034320D01*
X042413Y034307D01*
X042476Y034291D01*
X042539Y034271D01*
X042600Y034246D01*
X042660Y034219D01*
X042718Y034188D01*
X042774Y034153D01*
X042828Y034115D01*
X042879Y034074D01*
X042928Y034030D01*
X042974Y033983D01*
X043018Y033934D01*
X043058Y033882D01*
X043095Y033827D01*
X043129Y033771D01*
X043159Y033712D01*
X043186Y033652D01*
X043209Y033591D01*
X043228Y033528D01*
X043244Y033464D01*
X043256Y033399D01*
X043264Y033334D01*
X043268Y033268D01*
X043268Y033202D01*
X043264Y033136D01*
X043256Y033071D01*
X043244Y033006D01*
X043228Y032942D01*
X043209Y032879D01*
X043186Y032818D01*
X043159Y032758D01*
X043129Y032699D01*
X043095Y032643D01*
X043058Y032588D01*
X043018Y032536D01*
X042974Y032487D01*
X042928Y032440D01*
X042879Y032396D01*
X042828Y032355D01*
X042774Y032317D01*
X042718Y032282D01*
X042660Y032251D01*
X042600Y032224D01*
X042539Y032199D01*
X042476Y032179D01*
X042413Y032163D01*
X042348Y032150D01*
X042283Y032141D01*
X042217Y032136D01*
X042152Y032135D01*
X042086Y032138D01*
X042020Y032145D01*
X041955Y032156D01*
X041891Y032170D01*
X041828Y032189D01*
X041766Y032211D01*
X041706Y032237D01*
X041647Y032266D01*
X041590Y032299D01*
X041535Y032336D01*
X041482Y032375D01*
X041432Y032418D01*
X041384Y032463D01*
X041340Y032511D01*
X041298Y032562D01*
X041259Y032615D01*
X041224Y032671D01*
X041192Y032728D01*
X041163Y032788D01*
X041138Y032848D01*
X041117Y032911D01*
X041099Y032974D01*
X041086Y033039D01*
X041076Y033104D01*
X041070Y033169D01*
X041068Y033235D01*
X041754Y033156D02*
X042581Y033156D01*
X042581Y033314D02*
X041754Y033314D01*
D12*
X042114Y033633D02*
X042024Y033636D01*
X042025Y033636D02*
X042023Y033669D01*
X042018Y033701D01*
X042009Y033733D01*
X041996Y033764D01*
X041979Y033792D01*
X041959Y033819D01*
X041937Y033843D01*
X041911Y033864D01*
X041883Y033882D01*
X041854Y033897D01*
X041823Y033908D01*
X041790Y033915D01*
X041757Y033919D01*
X041724Y033918D01*
X041691Y033914D01*
X041659Y033906D01*
X041628Y033893D01*
X041599Y033878D01*
X041572Y033859D01*
X041547Y033837D01*
X041525Y033812D01*
X041506Y033785D01*
X041491Y033756D01*
X041478Y033725D01*
X041470Y033693D01*
X041466Y033660D01*
X041465Y033627D01*
X041469Y033594D01*
X041476Y033561D01*
X041487Y033530D01*
X041502Y033501D01*
X041520Y033473D01*
X041541Y033447D01*
X041565Y033425D01*
X041592Y033405D01*
X041620Y033388D01*
X041651Y033375D01*
X041683Y033366D01*
X041715Y033361D01*
X041748Y033359D01*
X041751Y033270D01*
X041751Y033269D01*
X041714Y033270D01*
X041677Y033275D01*
X041641Y033284D01*
X041605Y033296D01*
X041571Y033312D01*
X041539Y033331D01*
X041509Y033354D01*
X041482Y033379D01*
X041457Y033407D01*
X041435Y033437D01*
X041416Y033469D01*
X041401Y033503D01*
X041389Y033539D01*
X041381Y033575D01*
X041376Y033612D01*
X041375Y033649D01*
X041378Y033687D01*
X041385Y033723D01*
X041395Y033759D01*
X041409Y033794D01*
X041426Y033827D01*
X041447Y033858D01*
X041471Y033887D01*
X041497Y033913D01*
X041526Y033937D01*
X041557Y033958D01*
X041590Y033975D01*
X041625Y033989D01*
X041661Y033999D01*
X041697Y034006D01*
X041735Y034009D01*
X041772Y034008D01*
X041809Y034003D01*
X041845Y033995D01*
X041881Y033983D01*
X041915Y033968D01*
X041947Y033949D01*
X041977Y033927D01*
X042005Y033902D01*
X042030Y033875D01*
X042053Y033845D01*
X042072Y033813D01*
X042088Y033779D01*
X042100Y033743D01*
X042109Y033707D01*
X042114Y033670D01*
X042115Y033633D01*
X042106Y033633D01*
X042105Y033670D01*
X042100Y033707D01*
X042091Y033743D01*
X042078Y033778D01*
X042062Y033812D01*
X042042Y033844D01*
X042020Y033873D01*
X041994Y033900D01*
X041966Y033924D01*
X041935Y033946D01*
X041903Y033964D01*
X041869Y033978D01*
X041833Y033989D01*
X041796Y033996D01*
X041759Y034000D01*
X041722Y033999D01*
X041685Y033995D01*
X041649Y033987D01*
X041614Y033975D01*
X041580Y033960D01*
X041547Y033941D01*
X041517Y033919D01*
X041490Y033894D01*
X041465Y033867D01*
X041443Y033837D01*
X041424Y033804D01*
X041409Y033770D01*
X041397Y033735D01*
X041389Y033699D01*
X041385Y033662D01*
X041384Y033625D01*
X041388Y033588D01*
X041395Y033551D01*
X041406Y033515D01*
X041420Y033481D01*
X041438Y033449D01*
X041460Y033418D01*
X041484Y033390D01*
X041511Y033364D01*
X041540Y033342D01*
X041572Y033322D01*
X041606Y033306D01*
X041641Y033293D01*
X041677Y033284D01*
X041714Y033279D01*
X041751Y033278D01*
X041751Y033287D01*
X041714Y033288D01*
X041677Y033294D01*
X041641Y033303D01*
X041606Y033316D01*
X041573Y033332D01*
X041541Y033352D01*
X041512Y033375D01*
X041486Y033401D01*
X041462Y033429D01*
X041442Y033460D01*
X041425Y033493D01*
X041411Y033528D01*
X041401Y033563D01*
X041395Y033600D01*
X041393Y033637D01*
X041395Y033674D01*
X041400Y033711D01*
X041410Y033747D01*
X041423Y033781D01*
X041440Y033814D01*
X041460Y033846D01*
X041483Y033874D01*
X041510Y033901D01*
X041538Y033924D01*
X041570Y033944D01*
X041603Y033961D01*
X041637Y033974D01*
X041673Y033984D01*
X041710Y033989D01*
X041747Y033991D01*
X041784Y033989D01*
X041821Y033983D01*
X041856Y033973D01*
X041891Y033959D01*
X041924Y033942D01*
X041955Y033922D01*
X041983Y033898D01*
X042009Y033872D01*
X042032Y033843D01*
X042052Y033811D01*
X042068Y033778D01*
X042081Y033743D01*
X042090Y033707D01*
X042096Y033670D01*
X042097Y033633D01*
X042088Y033634D01*
X042087Y033670D01*
X042081Y033706D01*
X042073Y033741D01*
X042060Y033774D01*
X042044Y033807D01*
X042025Y033837D01*
X042002Y033866D01*
X041977Y033892D01*
X041949Y033915D01*
X041919Y033935D01*
X041887Y033951D01*
X041853Y033964D01*
X041819Y033974D01*
X041783Y033980D01*
X041747Y033982D01*
X041711Y033980D01*
X041675Y033975D01*
X041640Y033966D01*
X041606Y033953D01*
X041574Y033936D01*
X041544Y033917D01*
X041516Y033894D01*
X041490Y033868D01*
X041467Y033840D01*
X041448Y033810D01*
X041431Y033778D01*
X041418Y033744D01*
X041409Y033709D01*
X041404Y033673D01*
X041402Y033637D01*
X041404Y033601D01*
X041410Y033565D01*
X041420Y033531D01*
X041433Y033497D01*
X041449Y033465D01*
X041469Y033435D01*
X041492Y033407D01*
X041518Y033382D01*
X041547Y033359D01*
X041577Y033340D01*
X041610Y033324D01*
X041643Y033311D01*
X041678Y033303D01*
X041714Y033297D01*
X041750Y033296D01*
X041750Y033305D01*
X041714Y033306D01*
X041679Y033312D01*
X041644Y033321D01*
X041610Y033333D01*
X041578Y033350D01*
X041548Y033369D01*
X041520Y033392D01*
X041495Y033418D01*
X041472Y033446D01*
X041453Y033476D01*
X041437Y033509D01*
X041425Y033543D01*
X041417Y033578D01*
X041412Y033613D01*
X041411Y033649D01*
X041414Y033685D01*
X041421Y033720D01*
X041432Y033755D01*
X041446Y033788D01*
X041464Y033819D01*
X041485Y033848D01*
X041509Y033875D01*
X041536Y033899D01*
X041565Y033920D01*
X041596Y033938D01*
X041629Y033952D01*
X041664Y033963D01*
X041699Y033970D01*
X041735Y033973D01*
X041771Y033972D01*
X041806Y033967D01*
X041841Y033959D01*
X041875Y033947D01*
X041908Y033931D01*
X041938Y033912D01*
X041966Y033889D01*
X041992Y033864D01*
X042015Y033836D01*
X042034Y033806D01*
X042051Y033774D01*
X042063Y033740D01*
X042072Y033705D01*
X042078Y033670D01*
X042079Y033634D01*
X042070Y033634D01*
X042069Y033669D01*
X042063Y033704D01*
X042055Y033738D01*
X042042Y033770D01*
X042026Y033802D01*
X042007Y033831D01*
X041985Y033858D01*
X041960Y033883D01*
X041933Y033904D01*
X041903Y033923D01*
X041872Y033938D01*
X041839Y033950D01*
X041805Y033958D01*
X041770Y033963D01*
X041735Y033964D01*
X041700Y033961D01*
X041666Y033954D01*
X041632Y033944D01*
X041600Y033930D01*
X041570Y033913D01*
X041541Y033892D01*
X041515Y033869D01*
X041492Y033843D01*
X041471Y033814D01*
X041454Y033784D01*
X041440Y033752D01*
X041430Y033718D01*
X041423Y033684D01*
X041420Y033649D01*
X041421Y033614D01*
X041426Y033579D01*
X041434Y033545D01*
X041446Y033512D01*
X041461Y033481D01*
X041480Y033451D01*
X041501Y033424D01*
X041526Y033399D01*
X041553Y033377D01*
X041582Y033358D01*
X041614Y033342D01*
X041646Y033329D01*
X041680Y033321D01*
X041715Y033315D01*
X041750Y033314D01*
X041750Y033323D01*
X041715Y033324D01*
X041680Y033330D01*
X041647Y033339D01*
X041614Y033351D01*
X041583Y033367D01*
X041554Y033387D01*
X041528Y033409D01*
X041504Y033435D01*
X041483Y033462D01*
X041465Y033492D01*
X041451Y033524D01*
X041440Y033557D01*
X041433Y033591D01*
X041429Y033626D01*
X041430Y033661D01*
X041434Y033695D01*
X041442Y033729D01*
X041454Y033762D01*
X041469Y033793D01*
X041488Y033823D01*
X041510Y033850D01*
X041534Y033874D01*
X041561Y033896D01*
X041591Y033915D01*
X041622Y033930D01*
X041655Y033942D01*
X041689Y033950D01*
X041723Y033954D01*
X041758Y033955D01*
X041793Y033951D01*
X041827Y033944D01*
X041860Y033933D01*
X041892Y033919D01*
X041922Y033901D01*
X041949Y033880D01*
X041975Y033856D01*
X041997Y033830D01*
X042017Y033801D01*
X042033Y033770D01*
X042045Y033737D01*
X042054Y033704D01*
X042060Y033669D01*
X042061Y033634D01*
X042052Y033635D01*
X042051Y033668D01*
X042045Y033702D01*
X042037Y033735D01*
X042024Y033766D01*
X042009Y033796D01*
X041990Y033824D01*
X041968Y033850D01*
X041943Y033873D01*
X041916Y033894D01*
X041887Y033911D01*
X041857Y033925D01*
X041824Y033936D01*
X041791Y033942D01*
X041758Y033946D01*
X041724Y033945D01*
X041690Y033941D01*
X041657Y033933D01*
X041626Y033922D01*
X041595Y033907D01*
X041567Y033889D01*
X041540Y033868D01*
X041516Y033844D01*
X041495Y033817D01*
X041477Y033789D01*
X041462Y033758D01*
X041451Y033727D01*
X041443Y033694D01*
X041439Y033660D01*
X041438Y033626D01*
X041442Y033593D01*
X041448Y033560D01*
X041459Y033527D01*
X041473Y033497D01*
X041490Y033468D01*
X041511Y033441D01*
X041534Y033416D01*
X041560Y033394D01*
X041588Y033375D01*
X041618Y033360D01*
X041649Y033347D01*
X041682Y033339D01*
X041716Y033333D01*
X041749Y033332D01*
X041749Y033341D01*
X041715Y033342D01*
X041682Y033348D01*
X041650Y033357D01*
X041619Y033369D01*
X041589Y033385D01*
X041561Y033404D01*
X041536Y033426D01*
X041514Y033451D01*
X041494Y033479D01*
X041477Y033508D01*
X041464Y033539D01*
X041455Y033571D01*
X041449Y033604D01*
X041447Y033638D01*
X041449Y033671D01*
X041454Y033704D01*
X041463Y033737D01*
X041476Y033768D01*
X041492Y033797D01*
X041512Y033825D01*
X041534Y033850D01*
X041559Y033872D01*
X041587Y033892D01*
X041616Y033908D01*
X041647Y033921D01*
X041680Y033930D01*
X041713Y033935D01*
X041746Y033937D01*
X041780Y033935D01*
X041813Y033929D01*
X041845Y033920D01*
X041876Y033907D01*
X041905Y033890D01*
X041933Y033870D01*
X041958Y033848D01*
X041980Y033823D01*
X041999Y033795D01*
X042015Y033765D01*
X042027Y033734D01*
X042036Y033702D01*
X042042Y033669D01*
X042043Y033635D01*
X042034Y033635D01*
X042032Y033669D01*
X042027Y033702D01*
X042018Y033734D01*
X042005Y033765D01*
X041989Y033794D01*
X041970Y033821D01*
X041947Y033846D01*
X041922Y033867D01*
X041894Y033886D01*
X041865Y033902D01*
X041834Y033914D01*
X041802Y033922D01*
X041768Y033927D01*
X041735Y033928D01*
X041702Y033925D01*
X041669Y033918D01*
X041638Y033907D01*
X041607Y033893D01*
X041579Y033876D01*
X041553Y033855D01*
X041529Y033831D01*
X041508Y033805D01*
X041491Y033777D01*
X041477Y033746D01*
X041466Y033715D01*
X041459Y033682D01*
X041456Y033649D01*
X041457Y033616D01*
X041462Y033582D01*
X041470Y033550D01*
X041482Y033519D01*
X041498Y033490D01*
X041517Y033462D01*
X041538Y033437D01*
X041563Y033414D01*
X041590Y033395D01*
X041619Y033379D01*
X041650Y033366D01*
X041682Y033357D01*
X041715Y033352D01*
X041749Y033350D01*
X041751Y033200D02*
X041748Y033110D01*
X041748Y033111D02*
X041715Y033109D01*
X041683Y033104D01*
X041651Y033095D01*
X041620Y033082D01*
X041592Y033065D01*
X041565Y033045D01*
X041541Y033023D01*
X041520Y032997D01*
X041502Y032969D01*
X041487Y032940D01*
X041476Y032909D01*
X041469Y032876D01*
X041465Y032843D01*
X041466Y032810D01*
X041470Y032777D01*
X041478Y032745D01*
X041491Y032714D01*
X041506Y032685D01*
X041525Y032658D01*
X041547Y032633D01*
X041572Y032611D01*
X041599Y032592D01*
X041628Y032577D01*
X041659Y032564D01*
X041691Y032556D01*
X041724Y032552D01*
X041757Y032551D01*
X041790Y032555D01*
X041823Y032562D01*
X041854Y032573D01*
X041883Y032588D01*
X041911Y032606D01*
X041937Y032627D01*
X041959Y032651D01*
X041979Y032678D01*
X041996Y032706D01*
X042009Y032737D01*
X042018Y032769D01*
X042023Y032801D01*
X042025Y032834D01*
X042114Y032837D01*
X042115Y032837D01*
X042114Y032800D01*
X042109Y032763D01*
X042100Y032727D01*
X042088Y032691D01*
X042072Y032657D01*
X042053Y032625D01*
X042030Y032595D01*
X042005Y032568D01*
X041977Y032543D01*
X041947Y032521D01*
X041915Y032502D01*
X041881Y032487D01*
X041845Y032475D01*
X041809Y032467D01*
X041772Y032462D01*
X041735Y032461D01*
X041697Y032464D01*
X041661Y032471D01*
X041625Y032481D01*
X041590Y032495D01*
X041557Y032512D01*
X041526Y032533D01*
X041497Y032557D01*
X041471Y032583D01*
X041447Y032612D01*
X041426Y032643D01*
X041409Y032676D01*
X041395Y032711D01*
X041385Y032747D01*
X041378Y032783D01*
X041375Y032821D01*
X041376Y032858D01*
X041381Y032895D01*
X041389Y032931D01*
X041401Y032967D01*
X041416Y033001D01*
X041435Y033033D01*
X041457Y033063D01*
X041482Y033091D01*
X041509Y033116D01*
X041539Y033139D01*
X041571Y033158D01*
X041605Y033174D01*
X041641Y033186D01*
X041677Y033195D01*
X041714Y033200D01*
X041751Y033201D01*
X041751Y033192D01*
X041714Y033191D01*
X041677Y033186D01*
X041641Y033177D01*
X041606Y033164D01*
X041572Y033148D01*
X041540Y033128D01*
X041511Y033106D01*
X041484Y033080D01*
X041460Y033052D01*
X041438Y033021D01*
X041420Y032989D01*
X041406Y032955D01*
X041395Y032919D01*
X041388Y032882D01*
X041384Y032845D01*
X041385Y032808D01*
X041389Y032771D01*
X041397Y032735D01*
X041409Y032700D01*
X041424Y032666D01*
X041443Y032633D01*
X041465Y032603D01*
X041490Y032576D01*
X041517Y032551D01*
X041547Y032529D01*
X041580Y032510D01*
X041614Y032495D01*
X041649Y032483D01*
X041685Y032475D01*
X041722Y032471D01*
X041759Y032470D01*
X041796Y032474D01*
X041833Y032481D01*
X041869Y032492D01*
X041903Y032506D01*
X041935Y032524D01*
X041966Y032546D01*
X041994Y032570D01*
X042020Y032597D01*
X042042Y032626D01*
X042062Y032658D01*
X042078Y032692D01*
X042091Y032727D01*
X042100Y032763D01*
X042105Y032800D01*
X042106Y032837D01*
X042097Y032837D01*
X042096Y032800D01*
X042090Y032763D01*
X042081Y032727D01*
X042068Y032692D01*
X042052Y032659D01*
X042032Y032627D01*
X042009Y032598D01*
X041983Y032572D01*
X041955Y032548D01*
X041924Y032528D01*
X041891Y032511D01*
X041856Y032497D01*
X041821Y032487D01*
X041784Y032481D01*
X041747Y032479D01*
X041710Y032481D01*
X041673Y032486D01*
X041637Y032496D01*
X041603Y032509D01*
X041570Y032526D01*
X041538Y032546D01*
X041510Y032569D01*
X041483Y032596D01*
X041460Y032624D01*
X041440Y032656D01*
X041423Y032689D01*
X041410Y032723D01*
X041400Y032759D01*
X041395Y032796D01*
X041393Y032833D01*
X041395Y032870D01*
X041401Y032907D01*
X041411Y032942D01*
X041425Y032977D01*
X041442Y033010D01*
X041462Y033041D01*
X041486Y033069D01*
X041512Y033095D01*
X041541Y033118D01*
X041573Y033138D01*
X041606Y033154D01*
X041641Y033167D01*
X041677Y033176D01*
X041714Y033182D01*
X041751Y033183D01*
X041750Y033174D01*
X041714Y033173D01*
X041678Y033167D01*
X041643Y033159D01*
X041610Y033146D01*
X041577Y033130D01*
X041547Y033111D01*
X041518Y033088D01*
X041492Y033063D01*
X041469Y033035D01*
X041449Y033005D01*
X041433Y032973D01*
X041420Y032939D01*
X041410Y032905D01*
X041404Y032869D01*
X041402Y032833D01*
X041404Y032797D01*
X041409Y032761D01*
X041418Y032726D01*
X041431Y032692D01*
X041448Y032660D01*
X041467Y032630D01*
X041490Y032602D01*
X041516Y032576D01*
X041544Y032553D01*
X041574Y032534D01*
X041606Y032517D01*
X041640Y032504D01*
X041675Y032495D01*
X041711Y032490D01*
X041747Y032488D01*
X041783Y032490D01*
X041819Y032496D01*
X041853Y032506D01*
X041887Y032519D01*
X041919Y032535D01*
X041949Y032555D01*
X041977Y032578D01*
X042002Y032604D01*
X042025Y032633D01*
X042044Y032663D01*
X042060Y032696D01*
X042073Y032729D01*
X042081Y032764D01*
X042087Y032800D01*
X042088Y032836D01*
X042079Y032836D01*
X042078Y032800D01*
X042072Y032765D01*
X042063Y032730D01*
X042051Y032696D01*
X042034Y032664D01*
X042015Y032634D01*
X041992Y032606D01*
X041966Y032581D01*
X041938Y032558D01*
X041908Y032539D01*
X041875Y032523D01*
X041841Y032511D01*
X041806Y032503D01*
X041771Y032498D01*
X041735Y032497D01*
X041699Y032500D01*
X041664Y032507D01*
X041629Y032518D01*
X041596Y032532D01*
X041565Y032550D01*
X041536Y032571D01*
X041509Y032595D01*
X041485Y032622D01*
X041464Y032651D01*
X041446Y032682D01*
X041432Y032715D01*
X041421Y032750D01*
X041414Y032785D01*
X041411Y032821D01*
X041412Y032857D01*
X041417Y032892D01*
X041425Y032927D01*
X041437Y032961D01*
X041453Y032994D01*
X041472Y033024D01*
X041495Y033052D01*
X041520Y033078D01*
X041548Y033101D01*
X041578Y033120D01*
X041610Y033137D01*
X041644Y033149D01*
X041679Y033158D01*
X041714Y033164D01*
X041750Y033165D01*
X041750Y033156D01*
X041715Y033155D01*
X041680Y033149D01*
X041646Y033141D01*
X041614Y033128D01*
X041582Y033112D01*
X041553Y033093D01*
X041526Y033071D01*
X041501Y033046D01*
X041480Y033019D01*
X041461Y032989D01*
X041446Y032958D01*
X041434Y032925D01*
X041426Y032891D01*
X041421Y032856D01*
X041420Y032821D01*
X041423Y032786D01*
X041430Y032752D01*
X041440Y032718D01*
X041454Y032686D01*
X041471Y032656D01*
X041492Y032627D01*
X041515Y032601D01*
X041541Y032578D01*
X041570Y032557D01*
X041600Y032540D01*
X041632Y032526D01*
X041666Y032516D01*
X041700Y032509D01*
X041735Y032506D01*
X041770Y032507D01*
X041805Y032512D01*
X041839Y032520D01*
X041872Y032532D01*
X041903Y032547D01*
X041933Y032566D01*
X041960Y032587D01*
X041985Y032612D01*
X042007Y032639D01*
X042026Y032668D01*
X042042Y032700D01*
X042055Y032732D01*
X042063Y032766D01*
X042069Y032801D01*
X042070Y032836D01*
X042061Y032836D01*
X042060Y032801D01*
X042054Y032766D01*
X042045Y032733D01*
X042033Y032700D01*
X042017Y032669D01*
X041997Y032640D01*
X041975Y032614D01*
X041949Y032590D01*
X041922Y032569D01*
X041892Y032551D01*
X041860Y032537D01*
X041827Y032526D01*
X041793Y032519D01*
X041758Y032515D01*
X041723Y032516D01*
X041689Y032520D01*
X041655Y032528D01*
X041622Y032540D01*
X041591Y032555D01*
X041561Y032574D01*
X041534Y032596D01*
X041510Y032620D01*
X041488Y032647D01*
X041469Y032677D01*
X041454Y032708D01*
X041442Y032741D01*
X041434Y032775D01*
X041430Y032809D01*
X041429Y032844D01*
X041433Y032879D01*
X041440Y032913D01*
X041451Y032946D01*
X041465Y032978D01*
X041483Y033008D01*
X041504Y033035D01*
X041528Y033061D01*
X041554Y033083D01*
X041583Y033103D01*
X041614Y033119D01*
X041647Y033131D01*
X041680Y033140D01*
X041715Y033146D01*
X041750Y033147D01*
X041749Y033138D01*
X041716Y033137D01*
X041682Y033131D01*
X041649Y033123D01*
X041618Y033110D01*
X041588Y033095D01*
X041560Y033076D01*
X041534Y033054D01*
X041511Y033029D01*
X041490Y033002D01*
X041473Y032973D01*
X041459Y032943D01*
X041448Y032910D01*
X041442Y032877D01*
X041438Y032844D01*
X041439Y032810D01*
X041443Y032776D01*
X041451Y032743D01*
X041462Y032712D01*
X041477Y032681D01*
X041495Y032653D01*
X041516Y032626D01*
X041540Y032602D01*
X041567Y032581D01*
X041595Y032563D01*
X041626Y032548D01*
X041657Y032537D01*
X041690Y032529D01*
X041724Y032525D01*
X041758Y032524D01*
X041791Y032528D01*
X041824Y032534D01*
X041857Y032545D01*
X041887Y032559D01*
X041916Y032576D01*
X041943Y032597D01*
X041968Y032620D01*
X041990Y032646D01*
X042009Y032674D01*
X042024Y032704D01*
X042037Y032735D01*
X042045Y032768D01*
X042051Y032802D01*
X042052Y032835D01*
X042043Y032835D01*
X042042Y032801D01*
X042036Y032768D01*
X042027Y032736D01*
X042015Y032705D01*
X041999Y032675D01*
X041980Y032647D01*
X041958Y032622D01*
X041933Y032600D01*
X041905Y032580D01*
X041876Y032563D01*
X041845Y032550D01*
X041813Y032541D01*
X041780Y032535D01*
X041746Y032533D01*
X041713Y032535D01*
X041680Y032540D01*
X041647Y032549D01*
X041616Y032562D01*
X041587Y032578D01*
X041559Y032598D01*
X041534Y032620D01*
X041512Y032645D01*
X041492Y032673D01*
X041476Y032702D01*
X041463Y032733D01*
X041454Y032766D01*
X041449Y032799D01*
X041447Y032832D01*
X041449Y032866D01*
X041455Y032899D01*
X041464Y032931D01*
X041477Y032962D01*
X041494Y032991D01*
X041514Y033019D01*
X041536Y033044D01*
X041561Y033066D01*
X041589Y033085D01*
X041619Y033101D01*
X041650Y033113D01*
X041682Y033122D01*
X041715Y033128D01*
X041749Y033129D01*
X041749Y033120D01*
X041715Y033118D01*
X041682Y033113D01*
X041650Y033104D01*
X041619Y033091D01*
X041590Y033075D01*
X041563Y033056D01*
X041538Y033033D01*
X041517Y033008D01*
X041498Y032980D01*
X041482Y032951D01*
X041470Y032920D01*
X041462Y032888D01*
X041457Y032854D01*
X041456Y032821D01*
X041459Y032788D01*
X041466Y032755D01*
X041477Y032724D01*
X041491Y032693D01*
X041508Y032665D01*
X041529Y032639D01*
X041553Y032615D01*
X041579Y032594D01*
X041607Y032577D01*
X041638Y032563D01*
X041669Y032552D01*
X041702Y032545D01*
X041735Y032542D01*
X041768Y032543D01*
X041802Y032548D01*
X041834Y032556D01*
X041865Y032568D01*
X041894Y032584D01*
X041922Y032603D01*
X041947Y032624D01*
X041970Y032649D01*
X041989Y032676D01*
X042005Y032705D01*
X042018Y032736D01*
X042027Y032768D01*
X042032Y032801D01*
X042034Y032835D01*
X042222Y032837D02*
X042312Y032834D01*
X042311Y032834D02*
X042313Y032801D01*
X042318Y032769D01*
X042327Y032737D01*
X042340Y032706D01*
X042357Y032678D01*
X042377Y032651D01*
X042399Y032627D01*
X042425Y032606D01*
X042453Y032588D01*
X042482Y032573D01*
X042513Y032562D01*
X042546Y032555D01*
X042579Y032551D01*
X042612Y032552D01*
X042645Y032556D01*
X042677Y032564D01*
X042708Y032577D01*
X042737Y032592D01*
X042764Y032611D01*
X042789Y032633D01*
X042811Y032658D01*
X042830Y032685D01*
X042845Y032714D01*
X042858Y032745D01*
X042866Y032777D01*
X042870Y032810D01*
X042871Y032843D01*
X042867Y032876D01*
X042860Y032909D01*
X042849Y032940D01*
X042834Y032969D01*
X042816Y032997D01*
X042795Y033023D01*
X042771Y033045D01*
X042744Y033065D01*
X042716Y033082D01*
X042685Y033095D01*
X042653Y033104D01*
X042621Y033109D01*
X042588Y033111D01*
X042585Y033200D01*
X042585Y033201D01*
X042622Y033200D01*
X042659Y033195D01*
X042695Y033186D01*
X042731Y033174D01*
X042765Y033158D01*
X042797Y033139D01*
X042827Y033116D01*
X042854Y033091D01*
X042879Y033063D01*
X042901Y033033D01*
X042920Y033001D01*
X042935Y032967D01*
X042947Y032931D01*
X042955Y032895D01*
X042960Y032858D01*
X042961Y032821D01*
X042958Y032783D01*
X042951Y032747D01*
X042941Y032711D01*
X042927Y032676D01*
X042910Y032643D01*
X042889Y032612D01*
X042865Y032583D01*
X042839Y032557D01*
X042810Y032533D01*
X042779Y032512D01*
X042746Y032495D01*
X042711Y032481D01*
X042675Y032471D01*
X042639Y032464D01*
X042601Y032461D01*
X042564Y032462D01*
X042527Y032467D01*
X042491Y032475D01*
X042455Y032487D01*
X042421Y032502D01*
X042389Y032521D01*
X042359Y032543D01*
X042331Y032568D01*
X042306Y032595D01*
X042283Y032625D01*
X042264Y032657D01*
X042248Y032691D01*
X042236Y032727D01*
X042227Y032763D01*
X042222Y032800D01*
X042221Y032837D01*
X042230Y032837D01*
X042231Y032800D01*
X042236Y032763D01*
X042245Y032727D01*
X042258Y032692D01*
X042274Y032658D01*
X042294Y032626D01*
X042316Y032597D01*
X042342Y032570D01*
X042370Y032546D01*
X042401Y032524D01*
X042433Y032506D01*
X042467Y032492D01*
X042503Y032481D01*
X042540Y032474D01*
X042577Y032470D01*
X042614Y032471D01*
X042651Y032475D01*
X042687Y032483D01*
X042722Y032495D01*
X042756Y032510D01*
X042789Y032529D01*
X042819Y032551D01*
X042846Y032576D01*
X042871Y032603D01*
X042893Y032633D01*
X042912Y032666D01*
X042927Y032700D01*
X042939Y032735D01*
X042947Y032771D01*
X042951Y032808D01*
X042952Y032845D01*
X042948Y032882D01*
X042941Y032919D01*
X042930Y032955D01*
X042916Y032989D01*
X042898Y033021D01*
X042876Y033052D01*
X042852Y033080D01*
X042825Y033106D01*
X042796Y033128D01*
X042764Y033148D01*
X042730Y033164D01*
X042695Y033177D01*
X042659Y033186D01*
X042622Y033191D01*
X042585Y033192D01*
X042585Y033183D01*
X042622Y033182D01*
X042659Y033176D01*
X042695Y033167D01*
X042730Y033154D01*
X042763Y033138D01*
X042795Y033118D01*
X042824Y033095D01*
X042850Y033069D01*
X042874Y033041D01*
X042894Y033010D01*
X042911Y032977D01*
X042925Y032942D01*
X042935Y032907D01*
X042941Y032870D01*
X042943Y032833D01*
X042941Y032796D01*
X042936Y032759D01*
X042926Y032723D01*
X042913Y032689D01*
X042896Y032656D01*
X042876Y032624D01*
X042853Y032596D01*
X042826Y032569D01*
X042798Y032546D01*
X042766Y032526D01*
X042733Y032509D01*
X042699Y032496D01*
X042663Y032486D01*
X042626Y032481D01*
X042589Y032479D01*
X042552Y032481D01*
X042515Y032487D01*
X042480Y032497D01*
X042445Y032511D01*
X042412Y032528D01*
X042381Y032548D01*
X042353Y032572D01*
X042327Y032598D01*
X042304Y032627D01*
X042284Y032659D01*
X042268Y032692D01*
X042255Y032727D01*
X042246Y032763D01*
X042240Y032800D01*
X042239Y032837D01*
X042248Y032836D01*
X042249Y032800D01*
X042255Y032764D01*
X042263Y032729D01*
X042276Y032696D01*
X042292Y032663D01*
X042311Y032633D01*
X042334Y032604D01*
X042359Y032578D01*
X042387Y032555D01*
X042417Y032535D01*
X042449Y032519D01*
X042483Y032506D01*
X042517Y032496D01*
X042553Y032490D01*
X042589Y032488D01*
X042625Y032490D01*
X042661Y032495D01*
X042696Y032504D01*
X042730Y032517D01*
X042762Y032534D01*
X042792Y032553D01*
X042820Y032576D01*
X042846Y032602D01*
X042869Y032630D01*
X042888Y032660D01*
X042905Y032692D01*
X042918Y032726D01*
X042927Y032761D01*
X042932Y032797D01*
X042934Y032833D01*
X042932Y032869D01*
X042926Y032905D01*
X042916Y032939D01*
X042903Y032973D01*
X042887Y033005D01*
X042867Y033035D01*
X042844Y033063D01*
X042818Y033088D01*
X042789Y033111D01*
X042759Y033130D01*
X042726Y033146D01*
X042693Y033159D01*
X042658Y033167D01*
X042622Y033173D01*
X042586Y033174D01*
X042586Y033165D01*
X042622Y033164D01*
X042657Y033158D01*
X042692Y033149D01*
X042726Y033137D01*
X042758Y033120D01*
X042788Y033101D01*
X042816Y033078D01*
X042841Y033052D01*
X042864Y033024D01*
X042883Y032994D01*
X042899Y032961D01*
X042911Y032927D01*
X042919Y032892D01*
X042924Y032857D01*
X042925Y032821D01*
X042922Y032785D01*
X042915Y032750D01*
X042904Y032715D01*
X042890Y032682D01*
X042872Y032651D01*
X042851Y032622D01*
X042827Y032595D01*
X042800Y032571D01*
X042771Y032550D01*
X042740Y032532D01*
X042707Y032518D01*
X042672Y032507D01*
X042637Y032500D01*
X042601Y032497D01*
X042565Y032498D01*
X042530Y032503D01*
X042495Y032511D01*
X042461Y032523D01*
X042428Y032539D01*
X042398Y032558D01*
X042370Y032581D01*
X042344Y032606D01*
X042321Y032634D01*
X042302Y032664D01*
X042285Y032696D01*
X042273Y032730D01*
X042264Y032765D01*
X042258Y032800D01*
X042257Y032836D01*
X042266Y032836D01*
X042267Y032801D01*
X042273Y032766D01*
X042281Y032732D01*
X042294Y032700D01*
X042310Y032668D01*
X042329Y032639D01*
X042351Y032612D01*
X042376Y032587D01*
X042403Y032566D01*
X042433Y032547D01*
X042464Y032532D01*
X042497Y032520D01*
X042531Y032512D01*
X042566Y032507D01*
X042601Y032506D01*
X042636Y032509D01*
X042670Y032516D01*
X042704Y032526D01*
X042736Y032540D01*
X042766Y032557D01*
X042795Y032578D01*
X042821Y032601D01*
X042844Y032627D01*
X042865Y032656D01*
X042882Y032686D01*
X042896Y032718D01*
X042906Y032752D01*
X042913Y032786D01*
X042916Y032821D01*
X042915Y032856D01*
X042910Y032891D01*
X042902Y032925D01*
X042890Y032958D01*
X042875Y032989D01*
X042856Y033019D01*
X042835Y033046D01*
X042810Y033071D01*
X042783Y033093D01*
X042754Y033112D01*
X042722Y033128D01*
X042690Y033141D01*
X042656Y033149D01*
X042621Y033155D01*
X042586Y033156D01*
X042586Y033147D01*
X042621Y033146D01*
X042656Y033140D01*
X042689Y033131D01*
X042722Y033119D01*
X042753Y033103D01*
X042782Y033083D01*
X042808Y033061D01*
X042832Y033035D01*
X042853Y033008D01*
X042871Y032978D01*
X042885Y032946D01*
X042896Y032913D01*
X042903Y032879D01*
X042907Y032844D01*
X042906Y032809D01*
X042902Y032775D01*
X042894Y032741D01*
X042882Y032708D01*
X042867Y032677D01*
X042848Y032647D01*
X042826Y032620D01*
X042802Y032596D01*
X042775Y032574D01*
X042745Y032555D01*
X042714Y032540D01*
X042681Y032528D01*
X042647Y032520D01*
X042613Y032516D01*
X042578Y032515D01*
X042543Y032519D01*
X042509Y032526D01*
X042476Y032537D01*
X042444Y032551D01*
X042414Y032569D01*
X042387Y032590D01*
X042361Y032614D01*
X042339Y032640D01*
X042319Y032669D01*
X042303Y032700D01*
X042291Y032733D01*
X042282Y032766D01*
X042276Y032801D01*
X042275Y032836D01*
X042284Y032835D01*
X042285Y032802D01*
X042291Y032768D01*
X042299Y032735D01*
X042312Y032704D01*
X042327Y032674D01*
X042346Y032646D01*
X042368Y032620D01*
X042393Y032597D01*
X042420Y032576D01*
X042449Y032559D01*
X042479Y032545D01*
X042512Y032534D01*
X042545Y032528D01*
X042578Y032524D01*
X042612Y032525D01*
X042646Y032529D01*
X042679Y032537D01*
X042710Y032548D01*
X042741Y032563D01*
X042769Y032581D01*
X042796Y032602D01*
X042820Y032626D01*
X042841Y032653D01*
X042859Y032681D01*
X042874Y032712D01*
X042885Y032743D01*
X042893Y032776D01*
X042897Y032810D01*
X042898Y032844D01*
X042894Y032877D01*
X042888Y032910D01*
X042877Y032943D01*
X042863Y032973D01*
X042846Y033002D01*
X042825Y033029D01*
X042802Y033054D01*
X042776Y033076D01*
X042748Y033095D01*
X042718Y033110D01*
X042687Y033123D01*
X042654Y033131D01*
X042620Y033137D01*
X042587Y033138D01*
X042587Y033129D01*
X042621Y033128D01*
X042654Y033122D01*
X042686Y033113D01*
X042717Y033101D01*
X042747Y033085D01*
X042775Y033066D01*
X042800Y033044D01*
X042822Y033019D01*
X042842Y032991D01*
X042859Y032962D01*
X042872Y032931D01*
X042881Y032899D01*
X042887Y032866D01*
X042889Y032832D01*
X042887Y032799D01*
X042882Y032766D01*
X042873Y032733D01*
X042860Y032702D01*
X042844Y032673D01*
X042824Y032645D01*
X042802Y032620D01*
X042777Y032598D01*
X042749Y032578D01*
X042720Y032562D01*
X042689Y032549D01*
X042656Y032540D01*
X042623Y032535D01*
X042590Y032533D01*
X042556Y032535D01*
X042523Y032541D01*
X042491Y032550D01*
X042460Y032563D01*
X042431Y032580D01*
X042403Y032600D01*
X042378Y032622D01*
X042356Y032647D01*
X042337Y032675D01*
X042321Y032705D01*
X042309Y032736D01*
X042300Y032768D01*
X042294Y032801D01*
X042293Y032835D01*
X042302Y032835D01*
X042304Y032801D01*
X042309Y032768D01*
X042318Y032736D01*
X042331Y032705D01*
X042347Y032676D01*
X042366Y032649D01*
X042389Y032624D01*
X042414Y032603D01*
X042442Y032584D01*
X042471Y032568D01*
X042502Y032556D01*
X042534Y032548D01*
X042568Y032543D01*
X042601Y032542D01*
X042634Y032545D01*
X042667Y032552D01*
X042698Y032563D01*
X042729Y032577D01*
X042757Y032594D01*
X042783Y032615D01*
X042807Y032639D01*
X042828Y032665D01*
X042845Y032693D01*
X042859Y032724D01*
X042870Y032755D01*
X042877Y032788D01*
X042880Y032821D01*
X042879Y032854D01*
X042874Y032888D01*
X042866Y032920D01*
X042854Y032951D01*
X042838Y032980D01*
X042819Y033008D01*
X042798Y033033D01*
X042773Y033056D01*
X042746Y033075D01*
X042717Y033091D01*
X042686Y033104D01*
X042654Y033113D01*
X042621Y033118D01*
X042587Y033120D01*
X042585Y033270D02*
X042588Y033360D01*
X042588Y033359D02*
X042621Y033361D01*
X042653Y033366D01*
X042685Y033375D01*
X042716Y033388D01*
X042744Y033405D01*
X042771Y033425D01*
X042795Y033447D01*
X042816Y033473D01*
X042834Y033501D01*
X042849Y033530D01*
X042860Y033561D01*
X042867Y033594D01*
X042871Y033627D01*
X042870Y033660D01*
X042866Y033693D01*
X042858Y033725D01*
X042845Y033756D01*
X042830Y033785D01*
X042811Y033812D01*
X042789Y033837D01*
X042764Y033859D01*
X042737Y033878D01*
X042708Y033893D01*
X042677Y033906D01*
X042645Y033914D01*
X042612Y033918D01*
X042579Y033919D01*
X042546Y033915D01*
X042513Y033908D01*
X042482Y033897D01*
X042453Y033882D01*
X042425Y033864D01*
X042399Y033843D01*
X042377Y033819D01*
X042357Y033792D01*
X042340Y033764D01*
X042327Y033733D01*
X042318Y033701D01*
X042313Y033669D01*
X042311Y033636D01*
X042222Y033633D01*
X042221Y033633D01*
X042222Y033670D01*
X042227Y033707D01*
X042236Y033743D01*
X042248Y033779D01*
X042264Y033813D01*
X042283Y033845D01*
X042306Y033875D01*
X042331Y033902D01*
X042359Y033927D01*
X042389Y033949D01*
X042421Y033968D01*
X042455Y033983D01*
X042491Y033995D01*
X042527Y034003D01*
X042564Y034008D01*
X042601Y034009D01*
X042639Y034006D01*
X042675Y033999D01*
X042711Y033989D01*
X042746Y033975D01*
X042779Y033958D01*
X042810Y033937D01*
X042839Y033913D01*
X042865Y033887D01*
X042889Y033858D01*
X042910Y033827D01*
X042927Y033794D01*
X042941Y033759D01*
X042951Y033723D01*
X042958Y033687D01*
X042961Y033649D01*
X042960Y033612D01*
X042955Y033575D01*
X042947Y033539D01*
X042935Y033503D01*
X042920Y033469D01*
X042901Y033437D01*
X042879Y033407D01*
X042854Y033379D01*
X042827Y033354D01*
X042797Y033331D01*
X042765Y033312D01*
X042731Y033296D01*
X042695Y033284D01*
X042659Y033275D01*
X042622Y033270D01*
X042585Y033269D01*
X042585Y033278D01*
X042622Y033279D01*
X042659Y033284D01*
X042695Y033293D01*
X042730Y033306D01*
X042764Y033322D01*
X042796Y033342D01*
X042825Y033364D01*
X042852Y033390D01*
X042876Y033418D01*
X042898Y033449D01*
X042916Y033481D01*
X042930Y033515D01*
X042941Y033551D01*
X042948Y033588D01*
X042952Y033625D01*
X042951Y033662D01*
X042947Y033699D01*
X042939Y033735D01*
X042927Y033770D01*
X042912Y033804D01*
X042893Y033837D01*
X042871Y033867D01*
X042846Y033894D01*
X042819Y033919D01*
X042789Y033941D01*
X042756Y033960D01*
X042722Y033975D01*
X042687Y033987D01*
X042651Y033995D01*
X042614Y033999D01*
X042577Y034000D01*
X042540Y033996D01*
X042503Y033989D01*
X042467Y033978D01*
X042433Y033964D01*
X042401Y033946D01*
X042370Y033924D01*
X042342Y033900D01*
X042316Y033873D01*
X042294Y033844D01*
X042274Y033812D01*
X042258Y033778D01*
X042245Y033743D01*
X042236Y033707D01*
X042231Y033670D01*
X042230Y033633D01*
X042239Y033633D01*
X042240Y033670D01*
X042246Y033707D01*
X042255Y033743D01*
X042268Y033778D01*
X042284Y033811D01*
X042304Y033843D01*
X042327Y033872D01*
X042353Y033898D01*
X042381Y033922D01*
X042412Y033942D01*
X042445Y033959D01*
X042480Y033973D01*
X042515Y033983D01*
X042552Y033989D01*
X042589Y033991D01*
X042626Y033989D01*
X042663Y033984D01*
X042699Y033974D01*
X042733Y033961D01*
X042766Y033944D01*
X042798Y033924D01*
X042826Y033901D01*
X042853Y033874D01*
X042876Y033846D01*
X042896Y033814D01*
X042913Y033781D01*
X042926Y033747D01*
X042936Y033711D01*
X042941Y033674D01*
X042943Y033637D01*
X042941Y033600D01*
X042935Y033563D01*
X042925Y033528D01*
X042911Y033493D01*
X042894Y033460D01*
X042874Y033429D01*
X042850Y033401D01*
X042824Y033375D01*
X042795Y033352D01*
X042763Y033332D01*
X042730Y033316D01*
X042695Y033303D01*
X042659Y033294D01*
X042622Y033288D01*
X042585Y033287D01*
X042586Y033296D01*
X042622Y033297D01*
X042658Y033303D01*
X042693Y033311D01*
X042726Y033324D01*
X042759Y033340D01*
X042789Y033359D01*
X042818Y033382D01*
X042844Y033407D01*
X042867Y033435D01*
X042887Y033465D01*
X042903Y033497D01*
X042916Y033531D01*
X042926Y033565D01*
X042932Y033601D01*
X042934Y033637D01*
X042932Y033673D01*
X042927Y033709D01*
X042918Y033744D01*
X042905Y033778D01*
X042888Y033810D01*
X042869Y033840D01*
X042846Y033868D01*
X042820Y033894D01*
X042792Y033917D01*
X042762Y033936D01*
X042730Y033953D01*
X042696Y033966D01*
X042661Y033975D01*
X042625Y033980D01*
X042589Y033982D01*
X042553Y033980D01*
X042517Y033974D01*
X042483Y033964D01*
X042449Y033951D01*
X042417Y033935D01*
X042387Y033915D01*
X042359Y033892D01*
X042334Y033866D01*
X042311Y033837D01*
X042292Y033807D01*
X042276Y033774D01*
X042263Y033741D01*
X042255Y033706D01*
X042249Y033670D01*
X042248Y033634D01*
X042257Y033634D01*
X042258Y033670D01*
X042264Y033705D01*
X042273Y033740D01*
X042285Y033774D01*
X042302Y033806D01*
X042321Y033836D01*
X042344Y033864D01*
X042370Y033889D01*
X042398Y033912D01*
X042428Y033931D01*
X042461Y033947D01*
X042495Y033959D01*
X042530Y033967D01*
X042565Y033972D01*
X042601Y033973D01*
X042637Y033970D01*
X042672Y033963D01*
X042707Y033952D01*
X042740Y033938D01*
X042771Y033920D01*
X042800Y033899D01*
X042827Y033875D01*
X042851Y033848D01*
X042872Y033819D01*
X042890Y033788D01*
X042904Y033755D01*
X042915Y033720D01*
X042922Y033685D01*
X042925Y033649D01*
X042924Y033613D01*
X042919Y033578D01*
X042911Y033543D01*
X042899Y033509D01*
X042883Y033476D01*
X042864Y033446D01*
X042841Y033418D01*
X042816Y033392D01*
X042788Y033369D01*
X042758Y033350D01*
X042726Y033333D01*
X042692Y033321D01*
X042657Y033312D01*
X042622Y033306D01*
X042586Y033305D01*
X042586Y033314D01*
X042621Y033315D01*
X042656Y033321D01*
X042690Y033329D01*
X042722Y033342D01*
X042754Y033358D01*
X042783Y033377D01*
X042810Y033399D01*
X042835Y033424D01*
X042856Y033451D01*
X042875Y033481D01*
X042890Y033512D01*
X042902Y033545D01*
X042910Y033579D01*
X042915Y033614D01*
X042916Y033649D01*
X042913Y033684D01*
X042906Y033718D01*
X042896Y033752D01*
X042882Y033784D01*
X042865Y033814D01*
X042844Y033843D01*
X042821Y033869D01*
X042795Y033892D01*
X042766Y033913D01*
X042736Y033930D01*
X042704Y033944D01*
X042670Y033954D01*
X042636Y033961D01*
X042601Y033964D01*
X042566Y033963D01*
X042531Y033958D01*
X042497Y033950D01*
X042464Y033938D01*
X042433Y033923D01*
X042403Y033904D01*
X042376Y033883D01*
X042351Y033858D01*
X042329Y033831D01*
X042310Y033802D01*
X042294Y033770D01*
X042281Y033738D01*
X042273Y033704D01*
X042267Y033669D01*
X042266Y033634D01*
X042275Y033634D01*
X042276Y033669D01*
X042282Y033704D01*
X042291Y033737D01*
X042303Y033770D01*
X042319Y033801D01*
X042339Y033830D01*
X042361Y033856D01*
X042387Y033880D01*
X042414Y033901D01*
X042444Y033919D01*
X042476Y033933D01*
X042509Y033944D01*
X042543Y033951D01*
X042578Y033955D01*
X042613Y033954D01*
X042647Y033950D01*
X042681Y033942D01*
X042714Y033930D01*
X042745Y033915D01*
X042775Y033896D01*
X042802Y033874D01*
X042826Y033850D01*
X042848Y033823D01*
X042867Y033793D01*
X042882Y033762D01*
X042894Y033729D01*
X042902Y033695D01*
X042906Y033661D01*
X042907Y033626D01*
X042903Y033591D01*
X042896Y033557D01*
X042885Y033524D01*
X042871Y033492D01*
X042853Y033462D01*
X042832Y033435D01*
X042808Y033409D01*
X042782Y033387D01*
X042753Y033367D01*
X042722Y033351D01*
X042689Y033339D01*
X042656Y033330D01*
X042621Y033324D01*
X042586Y033323D01*
X042587Y033332D01*
X042620Y033333D01*
X042654Y033339D01*
X042687Y033347D01*
X042718Y033360D01*
X042748Y033375D01*
X042776Y033394D01*
X042802Y033416D01*
X042825Y033441D01*
X042846Y033468D01*
X042863Y033497D01*
X042877Y033527D01*
X042888Y033560D01*
X042894Y033593D01*
X042898Y033626D01*
X042897Y033660D01*
X042893Y033694D01*
X042885Y033727D01*
X042874Y033758D01*
X042859Y033789D01*
X042841Y033817D01*
X042820Y033844D01*
X042796Y033868D01*
X042769Y033889D01*
X042741Y033907D01*
X042710Y033922D01*
X042679Y033933D01*
X042646Y033941D01*
X042612Y033945D01*
X042578Y033946D01*
X042545Y033942D01*
X042512Y033936D01*
X042479Y033925D01*
X042449Y033911D01*
X042420Y033894D01*
X042393Y033873D01*
X042368Y033850D01*
X042346Y033824D01*
X042327Y033796D01*
X042312Y033766D01*
X042299Y033735D01*
X042291Y033702D01*
X042285Y033668D01*
X042284Y033635D01*
X042293Y033635D01*
X042294Y033669D01*
X042300Y033702D01*
X042309Y033734D01*
X042321Y033765D01*
X042337Y033795D01*
X042356Y033823D01*
X042378Y033848D01*
X042403Y033870D01*
X042431Y033890D01*
X042460Y033907D01*
X042491Y033920D01*
X042523Y033929D01*
X042556Y033935D01*
X042590Y033937D01*
X042623Y033935D01*
X042656Y033930D01*
X042689Y033921D01*
X042720Y033908D01*
X042749Y033892D01*
X042777Y033872D01*
X042802Y033850D01*
X042824Y033825D01*
X042844Y033797D01*
X042860Y033768D01*
X042873Y033737D01*
X042882Y033704D01*
X042887Y033671D01*
X042889Y033638D01*
X042887Y033604D01*
X042881Y033571D01*
X042872Y033539D01*
X042859Y033508D01*
X042842Y033479D01*
X042822Y033451D01*
X042800Y033426D01*
X042775Y033404D01*
X042747Y033385D01*
X042717Y033369D01*
X042686Y033357D01*
X042654Y033348D01*
X042621Y033342D01*
X042587Y033341D01*
X042587Y033350D01*
X042621Y033352D01*
X042654Y033357D01*
X042686Y033366D01*
X042717Y033379D01*
X042746Y033395D01*
X042773Y033414D01*
X042798Y033437D01*
X042819Y033462D01*
X042838Y033490D01*
X042854Y033519D01*
X042866Y033550D01*
X042874Y033582D01*
X042879Y033616D01*
X042880Y033649D01*
X042877Y033682D01*
X042870Y033715D01*
X042859Y033746D01*
X042845Y033777D01*
X042828Y033805D01*
X042807Y033831D01*
X042783Y033855D01*
X042757Y033876D01*
X042729Y033893D01*
X042698Y033907D01*
X042667Y033918D01*
X042634Y033925D01*
X042601Y033928D01*
X042568Y033927D01*
X042534Y033922D01*
X042502Y033914D01*
X042471Y033902D01*
X042442Y033886D01*
X042414Y033867D01*
X042389Y033846D01*
X042366Y033821D01*
X042347Y033794D01*
X042331Y033765D01*
X042318Y033734D01*
X042309Y033702D01*
X042304Y033669D01*
X042302Y033635D01*
D13*
X008199Y029339D02*
X008199Y028239D01*
X007569Y026819D02*
X006469Y026819D01*
D14*
X005839Y028789D03*
D15*
X005839Y029089D03*
X005839Y028489D03*
X008199Y028489D03*
X008199Y029089D03*
X007319Y026819D03*
X006719Y026819D03*
D16*
X005284Y033787D03*
X042685Y007212D03*
D17*
X040124Y005544D03*
X039124Y005544D03*
X038124Y005544D03*
X037124Y005544D03*
X036124Y005544D03*
X035124Y005544D03*
X034124Y005544D03*
X034124Y004544D03*
X035124Y004544D03*
X036124Y004544D03*
X037124Y004544D03*
X038124Y004544D03*
X039124Y004544D03*
X040124Y004544D03*
X027924Y004544D03*
X026924Y004544D03*
X025924Y004544D03*
X024924Y004544D03*
X023924Y004544D03*
X023924Y005544D03*
X024924Y005544D03*
X025924Y005544D03*
X026924Y005544D03*
X027924Y005544D03*
X028249Y018694D03*
X027249Y018694D03*
X026249Y018694D03*
X025249Y018694D03*
X025249Y019694D03*
X026249Y019694D03*
X027249Y019694D03*
X028249Y019694D03*
X030249Y019269D03*
X031249Y019269D03*
X031249Y020269D03*
X030249Y020269D03*
X030249Y021269D03*
X031249Y021269D03*
X031249Y022269D03*
X030249Y022269D03*
X030249Y023269D03*
X031249Y023269D03*
X010474Y025219D03*
X009474Y025219D03*
X008474Y025219D03*
X008474Y026219D03*
X009474Y026219D03*
X010474Y026219D03*
D18*
X009099Y024269D03*
X008099Y024269D03*
X008099Y023269D03*
X009099Y023269D03*
X009099Y022269D03*
X008099Y022269D03*
X008099Y021269D03*
X008099Y020269D03*
X009099Y020269D03*
X009099Y021269D03*
X009099Y019269D03*
X008099Y019269D03*
X008099Y018269D03*
X008099Y017269D03*
X009099Y017269D03*
X009099Y018269D03*
X009099Y016269D03*
X008099Y016269D03*
X008099Y015269D03*
X009099Y015269D03*
D19*
X036949Y026969D03*
X036949Y027969D03*
X037949Y028469D03*
X037949Y029469D03*
X036949Y029969D03*
X036949Y028969D03*
X037949Y027469D03*
X041780Y026729D03*
X042449Y025729D03*
X042449Y029709D03*
X041780Y030709D03*
D20*
X037949Y026469D03*
D21*
X039249Y025168D03*
X039249Y031270D03*
D22*
X041724Y022599D03*
X041724Y017339D03*
D23*
X040976Y018099D03*
X040976Y018296D03*
X040976Y018493D03*
X040976Y018689D03*
X040976Y018886D03*
X040976Y019083D03*
X040976Y019280D03*
X040976Y019477D03*
X040976Y019674D03*
X040976Y019870D03*
X040976Y020067D03*
X040976Y020264D03*
X040976Y020461D03*
X040976Y020658D03*
X040976Y020855D03*
X040976Y021052D03*
X040976Y021248D03*
X040976Y021445D03*
X040976Y021642D03*
X040976Y021839D03*
D24*
X035281Y021969D03*
D25*
X039218Y021969D03*
D26*
X029974Y034495D02*
X029974Y035093D01*
X028974Y035093D02*
X028974Y034495D01*
D27*
X042460Y013327D03*
X042460Y012894D03*
X042460Y012461D03*
X042460Y012028D03*
X042460Y011595D03*
X042460Y011162D03*
X042460Y010729D03*
X042460Y010296D03*
D28*
X042240Y008819D03*
D29*
X037381Y009607D03*
X037381Y011300D03*
D30*
X005677Y005047D03*
X042292Y005047D03*
X042292Y035756D03*
X005677Y035756D03*
D31*
X007399Y035344D03*
X007399Y035094D03*
X007974Y033919D03*
X007974Y033644D03*
X007974Y033394D03*
X008524Y033394D03*
X008524Y033669D03*
X008524Y033919D03*
X009674Y034544D03*
X010849Y033744D03*
X010849Y033469D03*
X011824Y032594D03*
X012949Y033369D03*
X012949Y033644D03*
X012949Y033919D03*
X013499Y033919D03*
X013499Y033644D03*
X013499Y033369D03*
X014724Y034544D03*
X015799Y033744D03*
X015799Y033469D03*
X016874Y032594D03*
X018099Y033369D03*
X018099Y033644D03*
X018099Y033919D03*
X018649Y033919D03*
X018649Y033644D03*
X018649Y033369D03*
X019874Y034544D03*
X020924Y033744D03*
X020924Y033469D03*
X022024Y032594D03*
X022824Y033744D03*
X022024Y034544D03*
X022024Y036519D03*
X020374Y036519D03*
X016874Y036544D03*
X015224Y036544D03*
X016874Y034544D03*
X011824Y034544D03*
X011824Y036544D03*
X010249Y036544D03*
X016024Y029844D03*
X013524Y028569D03*
X012949Y028219D03*
X013699Y027494D03*
X015574Y026329D03*
X014799Y025044D03*
X014024Y024369D03*
X013399Y023669D03*
X013349Y022319D03*
X013874Y020919D03*
X013899Y019119D03*
X013874Y018219D03*
X015424Y018794D03*
X016099Y018494D03*
X016824Y017869D03*
X015849Y017044D03*
X017149Y016244D03*
X019099Y016219D03*
X019199Y017219D03*
X020399Y017119D03*
X021799Y018894D03*
X021749Y019819D03*
X022424Y019944D03*
X023249Y020919D03*
X024124Y021694D03*
X023824Y022869D03*
X023849Y024719D03*
X022174Y025794D03*
X021574Y026644D03*
X023824Y026469D03*
X026099Y026769D03*
X026374Y028744D03*
X028899Y027144D03*
X029649Y027144D03*
X029649Y026394D03*
X027749Y024919D03*
X032249Y025869D03*
X035674Y028344D03*
X035674Y029969D03*
X032399Y029769D03*
X031049Y030769D03*
X030379Y030779D03*
X029599Y031444D03*
X028824Y030794D03*
X033199Y032469D03*
X035899Y033584D03*
X033599Y034634D03*
X033274Y034634D03*
X033274Y035059D03*
X033599Y035059D03*
X031374Y034459D03*
X026099Y036369D03*
X023024Y031419D03*
X021899Y029144D03*
X022749Y028869D03*
X018874Y029544D03*
X010549Y022269D03*
X010799Y020769D03*
X010299Y019819D03*
X014449Y016494D03*
X011749Y016144D03*
X009349Y012869D03*
X009049Y011019D03*
X009149Y009469D03*
X008224Y009194D03*
X010474Y008344D03*
X012499Y008894D03*
X012674Y008119D03*
X014149Y009044D03*
X016074Y008919D03*
X017099Y009019D03*
X016574Y010469D03*
X016574Y011869D03*
X018149Y011919D03*
X020074Y010969D03*
X020674Y011869D03*
X022449Y011444D03*
X024024Y013169D03*
X025099Y012369D03*
X026349Y013219D03*
X027724Y012794D03*
X028574Y013869D03*
X031524Y014419D03*
X031749Y015769D03*
X034799Y017569D03*
X038349Y019669D03*
X041449Y019669D03*
X041449Y018394D03*
X041874Y015744D03*
X042299Y015744D03*
X041274Y013269D03*
X040274Y013269D03*
X042874Y012019D03*
X042249Y009219D03*
X038124Y011044D03*
X037374Y010919D03*
X031374Y010219D03*
X030749Y010119D03*
X031249Y009094D03*
X031249Y008069D03*
X031249Y007094D03*
X028824Y007919D03*
X028724Y009494D03*
X025924Y009694D03*
X025724Y010394D03*
X023399Y009119D03*
X022274Y009119D03*
X023149Y007369D03*
X024099Y006819D03*
X025899Y006669D03*
X025899Y007419D03*
X018324Y007194D03*
X018299Y005394D03*
X016924Y005394D03*
X015249Y005394D03*
X013774Y005404D03*
X013174Y005404D03*
X015374Y007194D03*
X011599Y010794D03*
X011599Y011544D03*
X012449Y011819D03*
X007699Y006969D03*
X007424Y006969D03*
X008124Y005569D03*
X008124Y005294D03*
X009599Y006319D03*
X009874Y006319D03*
X010149Y006319D03*
X022899Y014244D03*
X023874Y016519D03*
X023849Y017169D03*
X026249Y017469D03*
X026649Y016844D03*
X028374Y017719D03*
X040624Y033459D03*
X039799Y034859D03*
X038474Y033984D03*
X037849Y035259D03*
D32*
X039474Y034279D03*
X036624Y032669D03*
X034249Y033744D03*
X034824Y034994D03*
X031399Y035204D03*
X031624Y032179D03*
X032424Y030819D03*
X032899Y030819D03*
X034374Y031169D03*
X032049Y029069D03*
X031774Y028619D03*
X031524Y028319D03*
X031324Y028669D03*
X031274Y029119D03*
X030924Y029269D03*
X029524Y029494D03*
X029249Y028244D03*
X028999Y027919D03*
X029649Y027894D03*
X030649Y027694D03*
X030399Y027144D03*
X032099Y027269D03*
X032124Y026569D03*
X031799Y025644D03*
X029024Y024519D03*
X028424Y024904D03*
X026924Y025869D03*
X027099Y027069D03*
X025249Y026169D03*
X024949Y025894D03*
X023674Y025719D03*
X023274Y025769D03*
X022899Y025669D03*
X022649Y025369D03*
X021749Y024419D03*
X022124Y024269D03*
X022649Y023794D03*
X023024Y022869D03*
X022074Y022669D03*
X021674Y022669D03*
X021299Y021819D03*
X021099Y021494D03*
X020399Y021294D03*
X019874Y021944D03*
X020649Y022069D03*
X020374Y022594D03*
X020799Y023119D03*
X020774Y023519D03*
X020399Y023519D03*
X020774Y023894D03*
X020263Y023919D03*
X020174Y024494D03*
X019799Y024444D03*
X019424Y024419D03*
X019424Y024819D03*
X019124Y025044D03*
X019249Y025444D03*
X018893Y025869D03*
X018524Y025919D03*
X018499Y025494D03*
X017849Y025344D03*
X017599Y025069D03*
X017624Y024694D03*
X018349Y024569D03*
X018599Y023669D03*
X018074Y023144D03*
X018599Y022569D03*
X019149Y023144D03*
X019699Y022569D03*
X019949Y023144D03*
X021174Y023544D03*
X020924Y025194D03*
X021274Y025694D03*
X020443Y025894D03*
X020099Y026294D03*
X020549Y026994D03*
X020224Y027594D03*
X020874Y027944D03*
X021849Y028094D03*
X023324Y027594D03*
X023399Y028844D03*
X023024Y029694D03*
X023874Y030919D03*
X024874Y029319D03*
X024924Y028919D03*
X026124Y030304D03*
X027649Y030344D03*
X028199Y031169D03*
X027749Y029319D03*
X027899Y028969D03*
X027974Y028594D03*
X027374Y028504D03*
X021624Y032144D03*
X021224Y031819D03*
X021199Y031044D03*
X021424Y034044D03*
X020374Y034044D03*
X021174Y035094D03*
X021524Y035094D03*
X021524Y035944D03*
X021174Y035944D03*
X023174Y036429D03*
X026799Y033779D03*
X027174Y036419D03*
X016374Y035944D03*
X016024Y035944D03*
X016024Y035094D03*
X016374Y035094D03*
X016274Y034044D03*
X015224Y034119D03*
X016099Y031819D03*
X016099Y031044D03*
X014124Y029344D03*
X015324Y028944D03*
X016874Y026319D03*
X017049Y025969D03*
X017424Y026344D03*
X016574Y025669D03*
X015874Y025444D03*
X016149Y025069D03*
X015574Y024494D03*
X015049Y024069D03*
X014749Y023669D03*
X013774Y022844D03*
X015499Y022199D03*
X015859Y022054D03*
X016174Y021369D03*
X016799Y020994D03*
X017499Y020619D03*
X017874Y020619D03*
X018624Y020344D03*
X019249Y020494D03*
X019524Y020769D03*
X019549Y021144D03*
X019724Y020194D03*
X019074Y019669D03*
X018399Y019219D03*
X017824Y019769D03*
X017679Y020119D03*
X018199Y019819D03*
X016724Y019494D03*
X016774Y019119D03*
X016349Y019569D03*
X016249Y019944D03*
X015124Y020869D03*
X014849Y021344D03*
X013099Y020419D03*
X012499Y021044D03*
X011724Y021019D03*
X010249Y020769D03*
X009824Y020369D03*
X009749Y019869D03*
X009724Y019069D03*
X010874Y019744D03*
X011249Y019794D03*
X012874Y018619D03*
X014474Y017819D03*
X013449Y016619D03*
X013449Y016244D03*
X013174Y015319D03*
X014049Y015444D03*
X014374Y015169D03*
X014674Y015394D03*
X015299Y015244D03*
X015674Y015094D03*
X015949Y015344D03*
X016249Y015094D03*
X016874Y015344D03*
X017524Y015019D03*
X017774Y015294D03*
X018474Y015444D03*
X018724Y015119D03*
X019074Y015294D03*
X019574Y014819D03*
X019249Y014469D03*
X018674Y014069D03*
X017874Y013919D03*
X017524Y013769D03*
X016874Y013569D03*
X016199Y013044D03*
X015874Y013469D03*
X015574Y013219D03*
X015299Y012894D03*
X014924Y012894D03*
X014674Y012619D03*
X014699Y011869D03*
X014324Y011894D03*
X014999Y011069D03*
X015574Y011919D03*
X015949Y011944D03*
X016949Y011894D03*
X017424Y011919D03*
X018274Y012669D03*
X018699Y012669D03*
X019074Y012769D03*
X018649Y012119D03*
X018449Y011094D03*
X018649Y010769D03*
X019024Y010794D03*
X019374Y009869D03*
X019024Y009644D03*
X018724Y009269D03*
X017874Y009019D03*
X017374Y008669D03*
X018874Y008569D03*
X019699Y008969D03*
X020099Y008969D03*
X020949Y010769D03*
X021299Y011119D03*
X021474Y010744D03*
X021824Y011119D03*
X022324Y010244D03*
X022774Y010244D03*
X023699Y010244D03*
X024549Y009644D03*
X024199Y008794D03*
X024024Y008419D03*
X022924Y007769D03*
X022649Y007394D03*
X022274Y007494D03*
X021024Y006794D03*
X020399Y005344D03*
X019974Y005344D03*
X018949Y006469D03*
X018499Y006769D03*
X016099Y009569D03*
X016049Y010419D03*
X017249Y010469D03*
X017774Y010669D03*
X018049Y010419D03*
X020124Y011919D03*
X020374Y012244D03*
X020549Y012594D03*
X021524Y012894D03*
X021824Y013719D03*
X022474Y013569D03*
X022899Y012869D03*
X023624Y012019D03*
X023949Y011619D03*
X023999Y012619D03*
X025124Y012744D03*
X025349Y012019D03*
X025599Y011469D03*
X027174Y012744D03*
X027674Y013619D03*
X026299Y014544D03*
X026274Y014919D03*
X026649Y015069D03*
X027174Y014994D03*
X027124Y015794D03*
X027599Y015794D03*
X028899Y014894D03*
X029999Y015244D03*
X030499Y015244D03*
X030999Y016244D03*
X031249Y016619D03*
X031624Y016669D03*
X031499Y017194D03*
X030999Y017194D03*
X029399Y018044D03*
X032299Y019494D03*
X032324Y020044D03*
X032099Y020469D03*
X031949Y020869D03*
X032324Y021094D03*
X031949Y021469D03*
X032999Y020794D03*
X035524Y020119D03*
X036074Y021344D03*
X036474Y018344D03*
X036174Y018044D03*
X037024Y017569D03*
X038974Y018519D03*
X040499Y019469D03*
X041449Y019269D03*
X040899Y017919D03*
X042924Y014269D03*
X041574Y011894D03*
X039049Y011519D03*
X035149Y009119D03*
X034824Y008394D03*
X033774Y008394D03*
X033799Y009119D03*
X032324Y010069D03*
X030774Y010544D03*
X030524Y010844D03*
X030149Y010969D03*
X029924Y011269D03*
X029924Y012094D03*
X029274Y012694D03*
X029899Y012919D03*
X030199Y013169D03*
X030474Y012819D03*
X030749Y013069D03*
X031274Y012069D03*
X031274Y011419D03*
X032134Y011384D03*
X033149Y012869D03*
X033524Y013044D03*
X033924Y013094D03*
X032849Y014419D03*
X033249Y015194D03*
X035024Y015794D03*
X033774Y018019D03*
X034289Y018284D03*
X029624Y013644D03*
X025949Y014369D03*
X025099Y014919D03*
X025949Y015394D03*
X025124Y015894D03*
X024849Y016219D03*
X025649Y017044D03*
X025424Y017344D03*
X025574Y018094D03*
X024224Y018044D03*
X023224Y018994D03*
X022574Y019369D03*
X023474Y019794D03*
X023299Y020419D03*
X024474Y020694D03*
X024524Y019769D03*
X026099Y020544D03*
X026949Y020569D03*
X027199Y020844D03*
X027249Y021769D03*
X026824Y022369D03*
X026124Y022019D03*
X025349Y021819D03*
X024874Y021794D03*
X025249Y022594D03*
X025599Y022844D03*
X026124Y023194D03*
X026524Y022944D03*
X025424Y023719D03*
X025024Y023694D03*
X024574Y023669D03*
X024624Y024069D03*
X024174Y023919D03*
X024799Y022944D03*
X022899Y021694D03*
X021924Y020919D03*
X021649Y020669D03*
X021199Y020194D03*
X020654Y019549D03*
X020374Y019069D03*
X020899Y018469D03*
X020649Y018194D03*
X020649Y017819D03*
X020224Y017869D03*
X019974Y018144D03*
X019724Y018419D03*
X019429Y018199D03*
X018949Y018244D03*
X018274Y018394D03*
X017574Y018369D03*
X017474Y018744D03*
X017299Y018069D03*
X017149Y017544D03*
X016874Y017144D03*
X016574Y016144D03*
X018149Y016144D03*
X018149Y017494D03*
X020224Y017494D03*
X020674Y016219D03*
X021649Y017444D03*
X021649Y017819D03*
X021974Y018244D03*
X022274Y017994D03*
X022699Y017669D03*
X022374Y016694D03*
X022374Y016144D03*
X022874Y015194D03*
X023849Y014919D03*
X023674Y015894D03*
X021849Y015169D03*
X021849Y014394D03*
X025149Y013519D03*
X027999Y010619D03*
X028599Y010569D03*
X029499Y009444D03*
X030074Y010119D03*
X034299Y011919D03*
X040474Y008069D03*
X041849Y008069D03*
X032374Y006269D03*
X031474Y004519D03*
X029874Y004669D03*
X024024Y007444D03*
X014924Y009019D03*
X014499Y008669D03*
X012499Y009569D03*
X012174Y009994D03*
X012399Y010319D03*
X012724Y010569D03*
X013374Y010719D03*
X011524Y009469D03*
X012049Y007894D03*
X012824Y006794D03*
X012049Y006169D03*
X009649Y008069D03*
X008449Y010144D03*
X007849Y010669D03*
X009074Y011919D03*
X009874Y011694D03*
X008149Y012644D03*
X008999Y013769D03*
X009673Y013970D03*
X007824Y014444D03*
X011574Y012319D03*
X013124Y014519D03*
X013449Y014319D03*
X013824Y014344D03*
X012474Y016144D03*
X018599Y021469D03*
X018074Y021994D03*
X017499Y022569D03*
X016924Y023034D03*
X016874Y024269D03*
X019174Y022044D03*
X013574Y024444D03*
X012349Y025044D03*
X012349Y025419D03*
X011974Y025169D03*
X011749Y024869D03*
X011049Y023969D03*
X010449Y024569D03*
X010199Y024269D03*
X010224Y023419D03*
X011024Y031119D03*
X011024Y031894D03*
X011349Y034044D03*
X011424Y035094D03*
X011099Y035094D03*
X010274Y034119D03*
X008524Y035519D03*
X011099Y035944D03*
X011424Y035944D03*
X028849Y023119D03*
X041224Y031319D03*
D33*
X040424Y021744D03*
X013274Y027409D03*
X013274Y027759D03*
X011549Y030119D03*
X011174Y030119D03*
X010799Y030119D03*
D34*
X013374Y022844D02*
X012774Y022244D01*
X012774Y018619D01*
X010649Y016494D01*
X010649Y009069D01*
X009649Y008069D01*
X009874Y011694D02*
X010474Y012294D01*
X010474Y016569D01*
X012499Y018594D01*
X012499Y021044D01*
X013374Y022844D02*
X013774Y022844D01*
X030924Y029269D02*
X032424Y030769D01*
X032424Y030819D01*
X032899Y030819D02*
X032899Y030744D01*
X031274Y029119D01*
X040976Y019674D02*
X041445Y019674D01*
X041449Y019669D01*
X041449Y018394D02*
X041351Y018296D01*
X040976Y018296D01*
X040976Y018099D02*
X040899Y018022D01*
X040899Y017919D01*
D35*
X017999Y027794D03*
X017649Y027794D03*
X016724Y027794D03*
X016724Y029069D03*
X017649Y029094D03*
X017999Y029094D03*
D36*
X017249Y029494D02*
X014274Y029494D01*
X014124Y029344D01*
X014174Y029394D01*
X015624Y031044D02*
X014024Y032644D01*
X014024Y033344D01*
X013724Y033644D01*
X013499Y033644D01*
X014599Y033621D02*
X016999Y033621D01*
X016999Y033563D02*
X014599Y033563D01*
X014599Y033504D02*
X016999Y033504D01*
X016999Y033446D02*
X014599Y033446D01*
X014599Y033387D02*
X016999Y033387D01*
X016999Y033329D02*
X014599Y033329D01*
X014599Y033270D02*
X016999Y033270D01*
X016999Y033212D02*
X014599Y033212D01*
X014599Y033153D02*
X016999Y033153D01*
X016999Y033095D02*
X014599Y033095D01*
X014599Y033036D02*
X016999Y033036D01*
X016999Y032978D02*
X014599Y032978D01*
X014599Y032919D02*
X016999Y032919D01*
X016999Y032861D02*
X014599Y032861D01*
X014599Y032802D02*
X016999Y032802D01*
X016999Y032744D02*
X014599Y032744D01*
X014599Y032685D02*
X016999Y032685D01*
X016999Y032627D02*
X014599Y032627D01*
X014599Y032569D02*
X014599Y036669D01*
X016999Y036669D01*
X016999Y032469D01*
X014699Y032469D01*
X014599Y032569D01*
X014600Y032568D02*
X016999Y032568D01*
X016999Y032510D02*
X014659Y032510D01*
X014174Y032719D02*
X014174Y034869D01*
X013574Y035469D01*
X014599Y035493D02*
X016999Y035493D01*
X016999Y035435D02*
X014599Y035435D01*
X014599Y035376D02*
X016999Y035376D01*
X016999Y035318D02*
X016531Y035318D01*
X016486Y035363D02*
X016263Y035363D01*
X016199Y035299D01*
X016136Y035363D01*
X015913Y035363D01*
X015755Y035205D01*
X015755Y034982D01*
X015913Y034825D01*
X016136Y034825D01*
X016199Y034888D01*
X016263Y034825D01*
X016486Y034825D01*
X016644Y034982D01*
X016644Y035205D01*
X016486Y035363D01*
X016590Y035259D02*
X016999Y035259D01*
X016999Y035201D02*
X016644Y035201D01*
X016644Y035142D02*
X016999Y035142D01*
X016999Y035084D02*
X016644Y035084D01*
X016644Y035025D02*
X016999Y035025D01*
X016999Y034967D02*
X016628Y034967D01*
X016569Y034908D02*
X016999Y034908D01*
X016999Y034850D02*
X016511Y034850D01*
X016238Y034850D02*
X016161Y034850D01*
X015888Y034850D02*
X014599Y034850D01*
X014599Y034908D02*
X015830Y034908D01*
X015771Y034967D02*
X014599Y034967D01*
X014599Y035025D02*
X015755Y035025D01*
X015755Y035084D02*
X014599Y035084D01*
X014599Y035142D02*
X015755Y035142D01*
X015755Y035201D02*
X014599Y035201D01*
X014599Y035259D02*
X015809Y035259D01*
X015868Y035318D02*
X014599Y035318D01*
X014599Y035552D02*
X016999Y035552D01*
X016999Y035610D02*
X014599Y035610D01*
X014599Y035669D02*
X016999Y035669D01*
X016999Y035727D02*
X016538Y035727D01*
X016486Y035675D02*
X016644Y035832D01*
X016644Y036055D01*
X016486Y036213D01*
X016263Y036213D01*
X016199Y036149D01*
X016136Y036213D01*
X015913Y036213D01*
X015755Y036055D01*
X015755Y035832D01*
X015913Y035675D01*
X016136Y035675D01*
X016199Y035738D01*
X016263Y035675D01*
X016486Y035675D01*
X016597Y035786D02*
X016999Y035786D01*
X016999Y035844D02*
X016644Y035844D01*
X016644Y035903D02*
X016999Y035903D01*
X016999Y035961D02*
X016644Y035961D01*
X016644Y036020D02*
X016999Y036020D01*
X016999Y036078D02*
X016621Y036078D01*
X016562Y036137D02*
X016999Y036137D01*
X016999Y036195D02*
X016504Y036195D01*
X016245Y036195D02*
X016154Y036195D01*
X015895Y036195D02*
X014599Y036195D01*
X014599Y036137D02*
X015837Y036137D01*
X015778Y036078D02*
X014599Y036078D01*
X014599Y036020D02*
X015755Y036020D01*
X015755Y035961D02*
X014599Y035961D01*
X014599Y035903D02*
X015755Y035903D01*
X015755Y035844D02*
X014599Y035844D01*
X014599Y035786D02*
X015802Y035786D01*
X015861Y035727D02*
X014599Y035727D01*
X014599Y036254D02*
X016999Y036254D01*
X016999Y036312D02*
X014599Y036312D01*
X014599Y036371D02*
X016999Y036371D01*
X016999Y036429D02*
X014599Y036429D01*
X014599Y036488D02*
X016999Y036488D01*
X016999Y036546D02*
X014599Y036546D01*
X014599Y036605D02*
X016999Y036605D01*
X016999Y036663D02*
X014599Y036663D01*
X016188Y035727D02*
X016211Y035727D01*
X016218Y035318D02*
X016181Y035318D01*
X016999Y034791D02*
X014599Y034791D01*
X014599Y034733D02*
X016999Y034733D01*
X016999Y034674D02*
X014599Y034674D01*
X014599Y034616D02*
X016999Y034616D01*
X016999Y034557D02*
X014599Y034557D01*
X014599Y034499D02*
X016999Y034499D01*
X016999Y034440D02*
X014599Y034440D01*
X014599Y034382D02*
X015107Y034382D01*
X015113Y034388D02*
X014955Y034230D01*
X014955Y034007D01*
X015113Y033850D01*
X015336Y033850D01*
X015494Y034007D01*
X015494Y034230D01*
X015336Y034388D01*
X015113Y034388D01*
X015048Y034323D02*
X014599Y034323D01*
X014599Y034265D02*
X014990Y034265D01*
X014955Y034206D02*
X014599Y034206D01*
X014599Y034148D02*
X014955Y034148D01*
X014955Y034089D02*
X014599Y034089D01*
X014599Y034031D02*
X014955Y034031D01*
X014991Y033972D02*
X014599Y033972D01*
X014599Y033914D02*
X015049Y033914D01*
X015108Y033855D02*
X014599Y033855D01*
X014599Y033797D02*
X016141Y033797D01*
X016163Y033775D02*
X016386Y033775D01*
X016544Y033932D01*
X016544Y034155D01*
X016386Y034313D01*
X016163Y034313D01*
X016005Y034155D01*
X016005Y033932D01*
X016163Y033775D01*
X016083Y033855D02*
X015341Y033855D01*
X015400Y033914D02*
X016024Y033914D01*
X016005Y033972D02*
X015458Y033972D01*
X015494Y034031D02*
X016005Y034031D01*
X016005Y034089D02*
X015494Y034089D01*
X015494Y034148D02*
X016005Y034148D01*
X016056Y034206D02*
X015494Y034206D01*
X015459Y034265D02*
X016115Y034265D01*
X016434Y034265D02*
X016999Y034265D01*
X016999Y034323D02*
X015401Y034323D01*
X015342Y034382D02*
X016999Y034382D01*
X016999Y034206D02*
X016493Y034206D01*
X016544Y034148D02*
X016999Y034148D01*
X016999Y034089D02*
X016544Y034089D01*
X016544Y034031D02*
X016999Y034031D01*
X016999Y033972D02*
X016544Y033972D01*
X016525Y033914D02*
X016999Y033914D01*
X016999Y033855D02*
X016466Y033855D01*
X016408Y033797D02*
X016999Y033797D01*
X016999Y033738D02*
X014599Y033738D01*
X014599Y033680D02*
X016999Y033680D01*
X018649Y033644D02*
X018974Y033644D01*
X019199Y033419D01*
X019199Y032369D01*
X020524Y031044D01*
X021199Y031044D01*
X021624Y030969D02*
X021624Y032144D01*
X021224Y031819D02*
X019974Y031819D01*
X019349Y032444D01*
X019349Y034969D01*
X018724Y035594D01*
X019749Y035610D02*
X022149Y035610D01*
X022149Y035552D02*
X019749Y035552D01*
X019749Y035493D02*
X022149Y035493D01*
X022149Y035435D02*
X019749Y035435D01*
X019749Y035376D02*
X022149Y035376D01*
X022149Y035318D02*
X021681Y035318D01*
X021636Y035363D02*
X021413Y035363D01*
X021349Y035299D01*
X021286Y035363D01*
X021063Y035363D01*
X020905Y035205D01*
X020905Y034982D01*
X021063Y034825D01*
X021286Y034825D01*
X021349Y034888D01*
X021413Y034825D01*
X021636Y034825D01*
X021794Y034982D01*
X021794Y035205D01*
X021636Y035363D01*
X021740Y035259D02*
X022149Y035259D01*
X022149Y035201D02*
X021794Y035201D01*
X021794Y035142D02*
X022149Y035142D01*
X022149Y035084D02*
X021794Y035084D01*
X021794Y035025D02*
X022149Y035025D01*
X022149Y034967D02*
X021778Y034967D01*
X021719Y034908D02*
X022149Y034908D01*
X022149Y034850D02*
X021661Y034850D01*
X021388Y034850D02*
X021311Y034850D01*
X021038Y034850D02*
X019749Y034850D01*
X019749Y034908D02*
X020980Y034908D01*
X020921Y034967D02*
X019749Y034967D01*
X019749Y035025D02*
X020905Y035025D01*
X020905Y035084D02*
X019749Y035084D01*
X019749Y035142D02*
X020905Y035142D01*
X020905Y035201D02*
X019749Y035201D01*
X019749Y035259D02*
X020959Y035259D01*
X021018Y035318D02*
X019749Y035318D01*
X019749Y035669D02*
X022149Y035669D01*
X022149Y035727D02*
X021688Y035727D01*
X021636Y035675D02*
X021794Y035832D01*
X021794Y036055D01*
X021636Y036213D01*
X021413Y036213D01*
X021349Y036149D01*
X021286Y036213D01*
X021063Y036213D01*
X020905Y036055D01*
X020905Y035832D01*
X021063Y035675D01*
X021286Y035675D01*
X021349Y035738D01*
X021413Y035675D01*
X021636Y035675D01*
X021747Y035786D02*
X022149Y035786D01*
X022149Y035844D02*
X021794Y035844D01*
X021794Y035903D02*
X022149Y035903D01*
X022149Y035961D02*
X021794Y035961D01*
X021794Y036020D02*
X022149Y036020D01*
X022149Y036078D02*
X021771Y036078D01*
X021712Y036137D02*
X022149Y036137D01*
X022149Y036195D02*
X021654Y036195D01*
X021395Y036195D02*
X021304Y036195D01*
X021045Y036195D02*
X019749Y036195D01*
X019749Y036137D02*
X020987Y036137D01*
X020928Y036078D02*
X019749Y036078D01*
X019749Y036020D02*
X020905Y036020D01*
X020905Y035961D02*
X019749Y035961D01*
X019749Y035903D02*
X020905Y035903D01*
X020905Y035844D02*
X019749Y035844D01*
X019749Y035786D02*
X020952Y035786D01*
X021011Y035727D02*
X019749Y035727D01*
X019749Y036254D02*
X022149Y036254D01*
X022149Y036312D02*
X019749Y036312D01*
X019749Y036371D02*
X022149Y036371D01*
X022149Y036429D02*
X019749Y036429D01*
X019749Y036488D02*
X022149Y036488D01*
X022149Y036546D02*
X019749Y036546D01*
X019749Y036605D02*
X022149Y036605D01*
X022149Y036663D02*
X019749Y036663D01*
X019749Y036669D02*
X022149Y036669D01*
X022149Y032469D01*
X019749Y032469D01*
X019749Y036669D01*
X021338Y035727D02*
X021361Y035727D01*
X021368Y035318D02*
X021331Y035318D01*
X022149Y034791D02*
X019749Y034791D01*
X019749Y034733D02*
X022149Y034733D01*
X022149Y034674D02*
X019749Y034674D01*
X019749Y034616D02*
X022149Y034616D01*
X022149Y034557D02*
X019749Y034557D01*
X019749Y034499D02*
X022149Y034499D01*
X022149Y034440D02*
X019749Y034440D01*
X019749Y034382D02*
X022149Y034382D01*
X022149Y034323D02*
X019749Y034323D01*
X019749Y034265D02*
X020215Y034265D01*
X020263Y034313D02*
X020105Y034155D01*
X020105Y033932D01*
X020263Y033775D01*
X020486Y033775D01*
X020644Y033932D01*
X020644Y034155D01*
X020486Y034313D01*
X020263Y034313D01*
X020156Y034206D02*
X019749Y034206D01*
X019749Y034148D02*
X020105Y034148D01*
X020105Y034089D02*
X019749Y034089D01*
X019749Y034031D02*
X020105Y034031D01*
X020105Y033972D02*
X019749Y033972D01*
X019749Y033914D02*
X020124Y033914D01*
X020183Y033855D02*
X019749Y033855D01*
X019749Y033797D02*
X020241Y033797D01*
X020508Y033797D02*
X021291Y033797D01*
X021313Y033775D02*
X021536Y033775D01*
X021694Y033932D01*
X021694Y034155D01*
X021536Y034313D01*
X021313Y034313D01*
X021155Y034155D01*
X021155Y033932D01*
X021313Y033775D01*
X021233Y033855D02*
X020566Y033855D01*
X020625Y033914D02*
X021174Y033914D01*
X021155Y033972D02*
X020644Y033972D01*
X020644Y034031D02*
X021155Y034031D01*
X021155Y034089D02*
X020644Y034089D01*
X020644Y034148D02*
X021155Y034148D01*
X021206Y034206D02*
X020593Y034206D01*
X020534Y034265D02*
X021265Y034265D01*
X021584Y034265D02*
X022149Y034265D01*
X022149Y034206D02*
X021643Y034206D01*
X021694Y034148D02*
X022149Y034148D01*
X022149Y034089D02*
X021694Y034089D01*
X021694Y034031D02*
X022149Y034031D01*
X022149Y033972D02*
X021694Y033972D01*
X021675Y033914D02*
X022149Y033914D01*
X022149Y033855D02*
X021616Y033855D01*
X021558Y033797D02*
X022149Y033797D01*
X022149Y033738D02*
X019749Y033738D01*
X019749Y033680D02*
X022149Y033680D01*
X022149Y033621D02*
X019749Y033621D01*
X019749Y033563D02*
X022149Y033563D01*
X022149Y033504D02*
X019749Y033504D01*
X019749Y033446D02*
X022149Y033446D01*
X022149Y033387D02*
X019749Y033387D01*
X019749Y033329D02*
X022149Y033329D01*
X022149Y033270D02*
X019749Y033270D01*
X019749Y033212D02*
X022149Y033212D01*
X022149Y033153D02*
X019749Y033153D01*
X019749Y033095D02*
X022149Y033095D01*
X022149Y033036D02*
X019749Y033036D01*
X019749Y032978D02*
X022149Y032978D01*
X022149Y032919D02*
X019749Y032919D01*
X019749Y032861D02*
X022149Y032861D01*
X022149Y032802D02*
X019749Y032802D01*
X019749Y032744D02*
X022149Y032744D01*
X022149Y032685D02*
X019749Y032685D01*
X019749Y032627D02*
X022149Y032627D01*
X022149Y032568D02*
X019749Y032568D01*
X019749Y032510D02*
X022149Y032510D01*
X021624Y030969D02*
X020924Y030269D01*
X018024Y030269D01*
X017249Y029494D01*
X016099Y031044D02*
X015624Y031044D01*
X016099Y031819D02*
X015074Y031819D01*
X014174Y032719D01*
X011949Y032744D02*
X009549Y032744D01*
X009549Y032802D02*
X011949Y032802D01*
X011949Y032861D02*
X009549Y032861D01*
X009549Y032919D02*
X011949Y032919D01*
X011949Y032978D02*
X009549Y032978D01*
X009549Y033036D02*
X011949Y033036D01*
X011949Y033095D02*
X009549Y033095D01*
X009549Y033153D02*
X011949Y033153D01*
X011949Y033212D02*
X009549Y033212D01*
X009549Y033270D02*
X011949Y033270D01*
X011949Y033329D02*
X009549Y033329D01*
X009549Y033387D02*
X011949Y033387D01*
X011949Y033446D02*
X009549Y033446D01*
X009549Y033504D02*
X011949Y033504D01*
X011949Y033563D02*
X009549Y033563D01*
X009549Y033621D02*
X011949Y033621D01*
X011949Y033680D02*
X009549Y033680D01*
X009549Y033738D02*
X011949Y033738D01*
X011949Y033797D02*
X011483Y033797D01*
X011461Y033775D02*
X011619Y033932D01*
X011619Y034155D01*
X011461Y034313D01*
X011238Y034313D01*
X011080Y034155D01*
X011080Y033932D01*
X011238Y033775D01*
X011461Y033775D01*
X011541Y033855D02*
X011949Y033855D01*
X011949Y033914D02*
X011600Y033914D01*
X011619Y033972D02*
X011949Y033972D01*
X011949Y034031D02*
X011619Y034031D01*
X011619Y034089D02*
X011949Y034089D01*
X011949Y034148D02*
X011619Y034148D01*
X011568Y034206D02*
X011949Y034206D01*
X011949Y034265D02*
X011509Y034265D01*
X011190Y034265D02*
X010509Y034265D01*
X010544Y034230D02*
X010386Y034388D01*
X010163Y034388D01*
X010005Y034230D01*
X010005Y034007D01*
X010163Y033850D01*
X010386Y033850D01*
X010544Y034007D01*
X010544Y034230D01*
X010544Y034206D02*
X011131Y034206D01*
X011080Y034148D02*
X010544Y034148D01*
X010544Y034089D02*
X011080Y034089D01*
X011080Y034031D02*
X010544Y034031D01*
X010508Y033972D02*
X011080Y033972D01*
X011099Y033914D02*
X010450Y033914D01*
X010391Y033855D02*
X011158Y033855D01*
X011216Y033797D02*
X009549Y033797D01*
X009549Y033855D02*
X010158Y033855D01*
X010099Y033914D02*
X009549Y033914D01*
X009549Y033972D02*
X010041Y033972D01*
X010005Y034031D02*
X009549Y034031D01*
X009549Y034089D02*
X010005Y034089D01*
X010005Y034148D02*
X009549Y034148D01*
X009549Y034206D02*
X010005Y034206D01*
X010040Y034265D02*
X009549Y034265D01*
X009549Y034323D02*
X010098Y034323D01*
X010157Y034382D02*
X009549Y034382D01*
X009549Y034440D02*
X011949Y034440D01*
X011949Y034382D02*
X010392Y034382D01*
X010451Y034323D02*
X011949Y034323D01*
X011949Y034499D02*
X009549Y034499D01*
X009549Y034557D02*
X011949Y034557D01*
X011949Y034616D02*
X009549Y034616D01*
X009549Y034674D02*
X011949Y034674D01*
X011949Y034733D02*
X009549Y034733D01*
X009549Y034791D02*
X011949Y034791D01*
X011949Y034850D02*
X011561Y034850D01*
X011536Y034825D02*
X011694Y034982D01*
X011694Y035205D01*
X011536Y035363D01*
X011313Y035363D01*
X011262Y035312D01*
X011211Y035363D01*
X010988Y035363D01*
X010830Y035205D01*
X010830Y034982D01*
X010988Y034825D01*
X011211Y034825D01*
X011262Y034876D01*
X011313Y034825D01*
X011536Y034825D01*
X011619Y034908D02*
X011949Y034908D01*
X011949Y034967D02*
X011678Y034967D01*
X011694Y035025D02*
X011949Y035025D01*
X011949Y035084D02*
X011694Y035084D01*
X011694Y035142D02*
X011949Y035142D01*
X011949Y035201D02*
X011694Y035201D01*
X011640Y035259D02*
X011949Y035259D01*
X011949Y035318D02*
X011581Y035318D01*
X011268Y035318D02*
X011256Y035318D01*
X010943Y035318D02*
X009549Y035318D01*
X009549Y035376D02*
X011949Y035376D01*
X011949Y035435D02*
X009549Y035435D01*
X009549Y035493D02*
X011949Y035493D01*
X011949Y035552D02*
X009549Y035552D01*
X009549Y035610D02*
X011949Y035610D01*
X011949Y035669D02*
X009549Y035669D01*
X009549Y035727D02*
X010936Y035727D01*
X010988Y035675D02*
X010830Y035832D01*
X010830Y036055D01*
X010988Y036213D01*
X011211Y036213D01*
X011262Y036162D01*
X011313Y036213D01*
X011536Y036213D01*
X011694Y036055D01*
X011694Y035832D01*
X011536Y035675D01*
X011313Y035675D01*
X011262Y035726D01*
X011211Y035675D01*
X010988Y035675D01*
X010877Y035786D02*
X009549Y035786D01*
X009549Y035844D02*
X010830Y035844D01*
X010830Y035903D02*
X009549Y035903D01*
X009549Y035961D02*
X010830Y035961D01*
X010830Y036020D02*
X009549Y036020D01*
X009549Y036078D02*
X010853Y036078D01*
X010912Y036137D02*
X009549Y036137D01*
X009549Y036195D02*
X010970Y036195D01*
X011229Y036195D02*
X011295Y036195D01*
X011554Y036195D02*
X011949Y036195D01*
X011949Y036137D02*
X011612Y036137D01*
X011671Y036078D02*
X011949Y036078D01*
X011949Y036020D02*
X011694Y036020D01*
X011694Y035961D02*
X011949Y035961D01*
X011949Y035903D02*
X011694Y035903D01*
X011694Y035844D02*
X011949Y035844D01*
X011949Y035786D02*
X011647Y035786D01*
X011588Y035727D02*
X011949Y035727D01*
X011949Y036254D02*
X009549Y036254D01*
X009549Y036312D02*
X011949Y036312D01*
X011949Y036371D02*
X009549Y036371D01*
X009549Y036429D02*
X011949Y036429D01*
X011949Y036488D02*
X009549Y036488D01*
X009549Y036546D02*
X011949Y036546D01*
X011949Y036605D02*
X009549Y036605D01*
X009549Y036663D02*
X011949Y036663D01*
X011949Y036669D02*
X009549Y036669D01*
X009549Y032569D01*
X009649Y032469D01*
X011949Y032469D01*
X011949Y036669D01*
X010884Y035259D02*
X009549Y035259D01*
X009549Y035201D02*
X010830Y035201D01*
X010830Y035142D02*
X009549Y035142D01*
X009549Y035084D02*
X010830Y035084D01*
X010830Y035025D02*
X009549Y035025D01*
X009549Y034967D02*
X010846Y034967D01*
X010905Y034908D02*
X009549Y034908D01*
X009549Y034850D02*
X010963Y034850D01*
X011236Y034850D02*
X011288Y034850D01*
X009149Y034894D02*
X008524Y035519D01*
X009149Y034894D02*
X009149Y032669D01*
X009924Y031894D01*
X011024Y031894D01*
X011024Y031119D02*
X010499Y031119D01*
X008999Y032619D01*
X008999Y033419D01*
X008749Y033669D01*
X008524Y033669D01*
X009549Y032685D02*
X011949Y032685D01*
X011949Y032627D02*
X009549Y032627D01*
X009550Y032568D02*
X011949Y032568D01*
X011949Y032510D02*
X009609Y032510D01*
X015374Y026594D02*
X014999Y026219D01*
X011724Y026219D01*
X011224Y025719D01*
X009974Y025719D01*
X009474Y025219D01*
X010474Y025219D02*
X010924Y025219D01*
X011774Y026069D01*
X016824Y026069D01*
X016924Y025969D01*
X017049Y025969D01*
X016724Y025919D02*
X015674Y025919D01*
X015657Y025917D01*
X015640Y025913D01*
X015624Y025906D01*
X015610Y025896D01*
X015597Y025883D01*
X015587Y025869D01*
X015580Y025853D01*
X015576Y025836D01*
X015574Y025819D01*
X015572Y025802D01*
X015568Y025785D01*
X015561Y025769D01*
X015551Y025755D01*
X015538Y025742D01*
X015524Y025732D01*
X015508Y025725D01*
X015491Y025721D01*
X015474Y025719D01*
X015457Y025721D01*
X015440Y025725D01*
X015424Y025732D01*
X015410Y025742D01*
X015397Y025755D01*
X015387Y025769D01*
X015380Y025785D01*
X015376Y025802D01*
X015374Y025819D01*
X015372Y025836D01*
X015368Y025853D01*
X015361Y025869D01*
X015351Y025883D01*
X015338Y025896D01*
X015324Y025906D01*
X015308Y025913D01*
X015291Y025917D01*
X015274Y025919D01*
X015257Y025917D01*
X015240Y025913D01*
X015224Y025906D01*
X015210Y025896D01*
X015197Y025883D01*
X015187Y025869D01*
X015180Y025853D01*
X015176Y025836D01*
X015174Y025819D01*
X015172Y025802D01*
X015168Y025785D01*
X015161Y025769D01*
X015151Y025755D01*
X015138Y025742D01*
X015124Y025732D01*
X015108Y025725D01*
X015091Y025721D01*
X015074Y025719D01*
X015057Y025721D01*
X015040Y025725D01*
X015024Y025732D01*
X015010Y025742D01*
X014997Y025755D01*
X014987Y025769D01*
X014980Y025785D01*
X014976Y025802D01*
X014974Y025819D01*
X014972Y025836D01*
X014968Y025853D01*
X014961Y025869D01*
X014951Y025883D01*
X014938Y025896D01*
X014924Y025906D01*
X014908Y025913D01*
X014891Y025917D01*
X014874Y025919D01*
X014857Y025917D01*
X014840Y025913D01*
X014824Y025906D01*
X014810Y025896D01*
X014797Y025883D01*
X014787Y025869D01*
X014780Y025853D01*
X014776Y025836D01*
X014774Y025819D01*
X014772Y025802D01*
X014768Y025785D01*
X014761Y025769D01*
X014751Y025755D01*
X014738Y025742D01*
X014724Y025732D01*
X014708Y025725D01*
X014691Y025721D01*
X014674Y025719D01*
X014657Y025721D01*
X014640Y025725D01*
X014624Y025732D01*
X014610Y025742D01*
X014597Y025755D01*
X014587Y025769D01*
X014580Y025785D01*
X014576Y025802D01*
X014574Y025819D01*
X014572Y025836D01*
X014568Y025853D01*
X014561Y025869D01*
X014551Y025883D01*
X014538Y025896D01*
X014524Y025906D01*
X014508Y025913D01*
X014491Y025917D01*
X014474Y025919D01*
X014457Y025917D01*
X014440Y025913D01*
X014424Y025906D01*
X014410Y025896D01*
X014397Y025883D01*
X014387Y025869D01*
X014380Y025853D01*
X014376Y025836D01*
X014374Y025819D01*
X014372Y025802D01*
X014368Y025785D01*
X014361Y025769D01*
X014351Y025755D01*
X014338Y025742D01*
X014324Y025732D01*
X014308Y025725D01*
X014291Y025721D01*
X014274Y025719D01*
X014257Y025721D01*
X014240Y025725D01*
X014224Y025732D01*
X014210Y025742D01*
X014197Y025755D01*
X014187Y025769D01*
X014180Y025785D01*
X014176Y025802D01*
X014174Y025819D01*
X014172Y025836D01*
X014168Y025853D01*
X014161Y025869D01*
X014151Y025883D01*
X014138Y025896D01*
X014124Y025906D01*
X014108Y025913D01*
X014091Y025917D01*
X014074Y025919D01*
X014057Y025917D01*
X014040Y025913D01*
X014024Y025906D01*
X014010Y025896D01*
X013997Y025883D01*
X013987Y025869D01*
X013980Y025853D01*
X013976Y025836D01*
X013974Y025819D01*
X013972Y025802D01*
X013968Y025785D01*
X013961Y025769D01*
X013951Y025755D01*
X013938Y025742D01*
X013924Y025732D01*
X013908Y025725D01*
X013891Y025721D01*
X013874Y025719D01*
X013857Y025721D01*
X013840Y025725D01*
X013824Y025732D01*
X013810Y025742D01*
X013797Y025755D01*
X013787Y025769D01*
X013780Y025785D01*
X013776Y025802D01*
X013774Y025819D01*
X013772Y025836D01*
X013768Y025853D01*
X013761Y025869D01*
X013751Y025883D01*
X013738Y025896D01*
X013724Y025906D01*
X013708Y025913D01*
X013691Y025917D01*
X013674Y025919D01*
X013657Y025917D01*
X013640Y025913D01*
X013624Y025906D01*
X013610Y025896D01*
X013597Y025883D01*
X013587Y025869D01*
X013580Y025853D01*
X013576Y025836D01*
X013574Y025819D01*
X013572Y025802D01*
X013568Y025785D01*
X013561Y025769D01*
X013551Y025755D01*
X013538Y025742D01*
X013524Y025732D01*
X013508Y025725D01*
X013491Y025721D01*
X013474Y025719D01*
X013457Y025721D01*
X013440Y025725D01*
X013424Y025732D01*
X013410Y025742D01*
X013397Y025755D01*
X013387Y025769D01*
X013380Y025785D01*
X013376Y025802D01*
X013374Y025819D01*
X013372Y025836D01*
X013368Y025853D01*
X013361Y025869D01*
X013351Y025883D01*
X013338Y025896D01*
X013324Y025906D01*
X013308Y025913D01*
X013291Y025917D01*
X013274Y025919D01*
X013257Y025917D01*
X013240Y025913D01*
X013224Y025906D01*
X013210Y025896D01*
X013197Y025883D01*
X013187Y025869D01*
X013180Y025853D01*
X013176Y025836D01*
X013174Y025819D01*
X013172Y025802D01*
X013168Y025785D01*
X013161Y025769D01*
X013151Y025755D01*
X013138Y025742D01*
X013124Y025732D01*
X013108Y025725D01*
X013091Y025721D01*
X013074Y025719D01*
X013057Y025721D01*
X013040Y025725D01*
X013024Y025732D01*
X013010Y025742D01*
X012997Y025755D01*
X012987Y025769D01*
X012980Y025785D01*
X012976Y025802D01*
X012974Y025819D01*
X012972Y025836D01*
X012968Y025853D01*
X012961Y025869D01*
X012951Y025883D01*
X012938Y025896D01*
X012924Y025906D01*
X012908Y025913D01*
X012891Y025917D01*
X012874Y025919D01*
X012857Y025917D01*
X012840Y025913D01*
X012824Y025906D01*
X012810Y025896D01*
X012797Y025883D01*
X012787Y025869D01*
X012780Y025853D01*
X012776Y025836D01*
X012774Y025819D01*
X012772Y025802D01*
X012768Y025785D01*
X012761Y025769D01*
X012751Y025755D01*
X012738Y025742D01*
X012724Y025732D01*
X012708Y025725D01*
X012691Y025721D01*
X012674Y025719D01*
X012657Y025721D01*
X012640Y025725D01*
X012624Y025732D01*
X012610Y025742D01*
X012597Y025755D01*
X012587Y025769D01*
X012580Y025785D01*
X012576Y025802D01*
X012574Y025819D01*
X012572Y025836D01*
X012568Y025853D01*
X012561Y025869D01*
X012551Y025883D01*
X012538Y025896D01*
X012524Y025906D01*
X012508Y025913D01*
X012491Y025917D01*
X012474Y025919D01*
X011824Y025919D01*
X011049Y025144D01*
X011049Y024944D01*
X010674Y024569D01*
X010449Y024569D01*
X010574Y024269D02*
X010199Y024269D01*
X010574Y024269D02*
X011199Y024894D01*
X011199Y025094D01*
X011799Y025694D01*
X012449Y025694D01*
X012599Y025544D01*
X015574Y025544D01*
X015724Y025694D01*
X016124Y025694D01*
X016749Y025069D01*
X017599Y025069D01*
X017899Y025019D02*
X017899Y024594D01*
X017574Y024269D01*
X016874Y024269D01*
X017574Y024744D02*
X017624Y024694D01*
X017574Y024744D02*
X013874Y024744D01*
X013574Y024444D01*
X012349Y025044D02*
X012324Y025044D01*
X011899Y024619D01*
X011899Y023919D01*
X011249Y023269D01*
X011249Y019794D01*
X011099Y020019D02*
X011099Y023319D01*
X011749Y023969D01*
X011749Y024869D01*
X011499Y024794D02*
X011499Y024994D01*
X011649Y025144D01*
X011949Y025144D01*
X011974Y025169D01*
X011724Y025419D02*
X011349Y025044D01*
X011349Y024844D01*
X010324Y023819D01*
X010024Y023819D01*
X009674Y023469D01*
X009674Y020594D01*
X009574Y020494D01*
X009574Y020244D01*
X009749Y020069D01*
X009749Y019869D01*
X009824Y020369D02*
X009824Y023419D01*
X010074Y023669D01*
X010374Y023669D01*
X011499Y024794D01*
X011724Y025419D02*
X012349Y025419D01*
X014774Y025819D02*
X014776Y025836D01*
X014780Y025853D01*
X014787Y025869D01*
X014797Y025883D01*
X014810Y025896D01*
X014824Y025906D01*
X014840Y025913D01*
X014857Y025917D01*
X014874Y025919D01*
X015174Y025819D02*
X015176Y025836D01*
X015180Y025853D01*
X015187Y025869D01*
X015197Y025883D01*
X015210Y025896D01*
X015224Y025906D01*
X015240Y025913D01*
X015257Y025917D01*
X015274Y025919D01*
X015374Y026594D02*
X017199Y026594D01*
X017424Y026344D01*
X018099Y026069D02*
X018099Y025219D01*
X017899Y025019D01*
X018049Y024969D02*
X018049Y024159D01*
X016924Y023034D01*
X015859Y022054D02*
X015724Y021919D01*
X015374Y021919D01*
X015324Y021969D01*
X015074Y021969D01*
X014349Y021244D01*
X014349Y020419D01*
X013599Y019669D01*
X013599Y016844D01*
X013699Y016744D01*
X013699Y016494D01*
X013449Y016244D01*
X013424Y016219D01*
X013424Y015694D01*
X013599Y015519D01*
X013599Y014569D01*
X013824Y014344D01*
X013449Y014319D02*
X013449Y015469D01*
X013274Y015644D01*
X013274Y016019D01*
X013174Y016119D01*
X013174Y016344D01*
X013449Y016619D01*
X013449Y019719D01*
X014199Y020469D01*
X014199Y021294D01*
X015104Y022199D01*
X015499Y022199D01*
X016799Y020994D02*
X016799Y019569D01*
X016724Y019494D01*
X017524Y019219D02*
X017524Y019969D01*
X017679Y020119D01*
X017749Y020369D02*
X017499Y020619D01*
X017749Y020369D02*
X018024Y020369D01*
X018474Y019919D01*
X019199Y019919D01*
X019349Y019769D01*
X019349Y019194D01*
X020224Y018319D01*
X020224Y017869D01*
X020374Y018094D02*
X020649Y017819D01*
X020649Y018194D02*
X020649Y018319D01*
X019649Y019319D01*
X019649Y019869D01*
X019299Y020219D01*
X018749Y020219D01*
X018624Y020344D01*
X018524Y020069D02*
X017974Y020619D01*
X017874Y020619D01*
X018524Y020069D02*
X019249Y020069D01*
X019499Y019819D01*
X019499Y019244D01*
X020374Y018369D01*
X020374Y018094D01*
X019974Y018144D02*
X019974Y012444D01*
X018724Y011194D01*
X018724Y010844D01*
X018649Y010769D01*
X018399Y010769D01*
X018224Y010944D01*
X015124Y010944D01*
X014999Y011069D01*
X014899Y010794D02*
X014324Y011369D01*
X014324Y011894D01*
X014699Y011869D02*
X015474Y011094D01*
X018449Y011094D01*
X018449Y011144D01*
X019824Y012519D01*
X019824Y017844D01*
X019724Y017944D01*
X019724Y018419D01*
X018949Y018244D02*
X018424Y017719D01*
X018424Y015869D01*
X018224Y015669D01*
X018224Y015319D01*
X018324Y015219D01*
X018324Y014194D01*
X018399Y014119D01*
X018399Y013519D01*
X019074Y012844D01*
X019074Y012769D01*
X018699Y012669D02*
X018699Y013019D01*
X018249Y013469D01*
X018249Y014044D01*
X018024Y014269D01*
X018024Y015569D01*
X017874Y015719D01*
X017874Y017594D01*
X018274Y017994D01*
X018274Y018394D01*
X018674Y018169D02*
X018674Y019294D01*
X019074Y019669D01*
X020124Y019719D02*
X020799Y019044D01*
X020799Y018544D01*
X020874Y018469D01*
X020899Y018469D01*
X021149Y018594D02*
X021149Y018344D01*
X020949Y018144D01*
X020949Y015719D01*
X020849Y015619D01*
X020849Y014744D01*
X020974Y014619D01*
X020974Y012569D01*
X021274Y012269D01*
X021274Y011469D01*
X020949Y011144D01*
X020949Y010769D01*
X021299Y011119D02*
X021424Y011244D01*
X021424Y012319D01*
X021124Y012619D01*
X021124Y014669D01*
X020999Y014794D01*
X020999Y015569D01*
X021099Y015669D01*
X021099Y018094D01*
X021299Y018294D01*
X021299Y018644D01*
X021099Y018844D01*
X021099Y019694D01*
X020699Y020094D01*
X020699Y021644D01*
X020374Y021969D01*
X020374Y022594D01*
X020124Y022594D02*
X019699Y023019D01*
X019699Y023569D01*
X018674Y024594D01*
X018674Y025319D01*
X018499Y025494D01*
X018824Y025569D02*
X018524Y025869D01*
X018524Y025919D01*
X018249Y026019D02*
X018249Y025169D01*
X018049Y024969D01*
X017849Y025344D02*
X017299Y025344D01*
X016724Y025919D01*
X018099Y026069D02*
X019624Y027594D01*
X020224Y027594D01*
X019574Y027344D02*
X018249Y026019D01*
X018824Y025569D02*
X018824Y024644D01*
X020349Y023119D01*
X020349Y022994D01*
X021074Y022269D01*
X024899Y022269D01*
X025349Y021819D01*
X025599Y021469D02*
X026749Y020319D01*
X026749Y018194D01*
X028124Y016819D01*
X028124Y011144D01*
X028599Y010669D01*
X028599Y010569D01*
X029624Y009569D02*
X029499Y009444D01*
X029624Y009569D02*
X029624Y013644D01*
X029999Y013344D02*
X029999Y015244D01*
X030499Y015244D02*
X030499Y013469D01*
X030199Y013169D01*
X030199Y012719D01*
X030449Y012469D01*
X030449Y011269D01*
X030149Y010969D01*
X029924Y011269D02*
X029924Y012094D01*
X029349Y012744D02*
X029274Y012694D01*
X029349Y012744D02*
X029349Y017219D01*
X030774Y018644D01*
X030774Y019794D01*
X031249Y020269D01*
X030824Y020844D02*
X031249Y021269D01*
X030824Y020844D02*
X027574Y020844D01*
X026524Y021894D01*
X026524Y022944D01*
X026374Y022719D02*
X026124Y022969D01*
X026124Y023194D01*
X025599Y022844D02*
X025599Y021469D01*
X026124Y021869D02*
X026124Y022019D01*
X026124Y021869D02*
X026949Y021044D01*
X026949Y020569D01*
X027199Y020844D02*
X027199Y020994D01*
X026374Y021819D01*
X026374Y022719D01*
X026824Y022369D02*
X026924Y022469D01*
X026924Y025869D01*
X026299Y027044D02*
X027849Y028594D01*
X027974Y028594D01*
X027899Y028969D02*
X027449Y028969D01*
X025674Y027194D01*
X021174Y027194D01*
X020274Y026294D01*
X020099Y026294D01*
X019624Y025444D02*
X019249Y025444D01*
X019224Y025144D02*
X019124Y025044D01*
X019224Y025144D02*
X020474Y025144D01*
X020774Y025444D01*
X022324Y025444D01*
X022549Y025669D01*
X022899Y025669D01*
X023274Y025769D02*
X023274Y025519D01*
X022874Y025119D01*
X021249Y025119D01*
X021024Y024894D01*
X019499Y024894D01*
X019424Y024819D01*
X019724Y024744D02*
X019424Y024444D01*
X019424Y024419D01*
X019799Y024444D02*
X020024Y024219D01*
X020274Y024219D01*
X020374Y024319D01*
X021049Y024319D01*
X021399Y024669D01*
X023349Y024669D01*
X024574Y025894D01*
X024949Y025894D01*
X024824Y025894D01*
X024649Y026169D02*
X025249Y026169D01*
X024649Y026169D02*
X023299Y024819D01*
X021349Y024819D01*
X021024Y024494D01*
X020174Y024494D01*
X020324Y024494D01*
X020513Y024169D02*
X020263Y023919D01*
X020513Y024169D02*
X020874Y024169D01*
X021049Y023994D01*
X022274Y023994D01*
X022324Y024044D01*
X024049Y024044D01*
X024174Y023919D01*
X024499Y024194D02*
X024624Y024069D01*
X024499Y024194D02*
X022599Y024194D01*
X022274Y024519D01*
X021849Y024519D01*
X021749Y024419D01*
X021299Y024969D02*
X022924Y024969D01*
X023674Y025719D01*
X022649Y025369D02*
X022549Y025269D01*
X020999Y025269D01*
X020924Y025194D01*
X021299Y024969D02*
X021074Y024744D01*
X019724Y024744D01*
X019624Y025444D02*
X021224Y027044D01*
X026299Y027044D01*
X024924Y028744D02*
X023524Y027344D01*
X019574Y027344D01*
X023324Y027594D02*
X023874Y028144D01*
X023874Y030919D01*
X024874Y029319D02*
X027749Y029319D01*
X029249Y028244D02*
X029724Y028244D01*
X030749Y027219D01*
X030749Y026694D01*
X031799Y025644D01*
X029024Y024519D02*
X029024Y023294D01*
X028849Y023119D01*
X029274Y022244D02*
X030249Y021269D01*
X029274Y022244D02*
X029274Y027644D01*
X028999Y027919D01*
X024924Y028744D02*
X024924Y028919D01*
X018349Y024569D02*
X018349Y023469D01*
X019874Y021944D01*
X020649Y022069D02*
X020849Y021869D01*
X020849Y020144D01*
X021249Y019744D01*
X021249Y018894D01*
X021449Y018694D01*
X021449Y018244D01*
X021249Y018044D01*
X021249Y015619D01*
X021149Y015519D01*
X021149Y014844D01*
X021274Y014719D01*
X021274Y012669D01*
X021574Y012369D01*
X021574Y010844D01*
X021474Y010744D01*
X021824Y011119D02*
X021824Y012319D01*
X021599Y012544D01*
X021599Y012819D01*
X021524Y012894D01*
X020949Y012244D02*
X020599Y012594D01*
X020549Y012594D01*
X020374Y012244D02*
X020399Y012219D01*
X020399Y009669D01*
X019699Y008969D01*
X020099Y008969D02*
X020099Y008994D01*
X020649Y009544D01*
X020649Y011169D01*
X020949Y011469D01*
X020949Y012244D01*
X020124Y011919D02*
X020124Y017394D01*
X020224Y017494D01*
X021549Y017344D02*
X021649Y017444D01*
X021549Y017344D02*
X021549Y015494D01*
X021449Y015394D01*
X021449Y014969D01*
X021574Y014844D01*
X021574Y013969D01*
X021824Y013719D01*
X022474Y013569D02*
X022474Y016044D01*
X022374Y016144D01*
X022799Y015569D02*
X022799Y017569D01*
X022699Y017669D01*
X022749Y017619D01*
X022949Y017794D02*
X022824Y017919D01*
X022824Y020419D01*
X021699Y021544D01*
X021149Y021544D01*
X021099Y021494D01*
X021299Y021819D02*
X021624Y021819D01*
X022974Y020469D01*
X022974Y017969D01*
X023099Y017844D01*
X023099Y015669D01*
X023299Y015469D01*
X023299Y011969D01*
X023449Y011819D01*
X023449Y009644D01*
X020274Y006469D01*
X018949Y006469D01*
X018499Y006769D02*
X020374Y006769D01*
X023299Y009694D01*
X023299Y011769D01*
X023149Y011919D01*
X023149Y015419D01*
X022949Y015619D01*
X022949Y017794D01*
X023124Y018044D02*
X023124Y018894D01*
X023224Y018994D01*
X023399Y018744D02*
X023474Y018819D01*
X023474Y019794D01*
X022574Y019369D02*
X022574Y017919D01*
X022424Y017769D01*
X022424Y017569D01*
X022649Y017344D01*
X022649Y015344D01*
X022624Y015319D01*
X022624Y013819D01*
X022899Y013544D01*
X022899Y012869D01*
X023449Y012394D02*
X023449Y015519D01*
X023249Y015719D01*
X023249Y017919D01*
X023124Y018044D01*
X023399Y018744D02*
X023399Y015769D01*
X023599Y015569D01*
X023599Y012469D01*
X023949Y012119D01*
X023949Y011619D01*
X023624Y012019D02*
X023624Y012219D01*
X023449Y012394D01*
X023999Y012619D02*
X024124Y012744D01*
X025124Y012744D01*
X025349Y012494D02*
X025449Y012594D01*
X025449Y013919D01*
X025374Y013994D01*
X025374Y016719D01*
X024224Y017869D01*
X024224Y018044D01*
X024674Y018094D02*
X025424Y017344D01*
X025399Y017319D01*
X025399Y016919D01*
X025524Y016794D01*
X025524Y014119D01*
X025599Y014044D01*
X025599Y011469D01*
X024199Y010069D01*
X024199Y008794D01*
X024024Y008419D02*
X024024Y007444D01*
X022924Y007769D02*
X022099Y007769D01*
X021399Y007069D01*
X021399Y006744D01*
X019999Y005344D01*
X019974Y005344D01*
X020399Y005344D02*
X020599Y005344D01*
X022649Y007394D01*
X022624Y007369D01*
X023699Y005769D02*
X023924Y005544D01*
X023699Y005769D02*
X023699Y010244D01*
X022774Y010244D02*
X022774Y011619D01*
X022474Y011919D01*
X022474Y013569D01*
X021849Y014394D02*
X021849Y014794D01*
X021599Y015044D01*
X021599Y015319D01*
X021699Y015419D01*
X021699Y017119D01*
X021924Y017344D01*
X021924Y017544D01*
X021649Y017819D01*
X021974Y017919D02*
X021974Y018244D01*
X021974Y017919D02*
X022074Y017819D01*
X022074Y017294D01*
X021849Y017069D01*
X021849Y015169D01*
X022874Y015194D02*
X022874Y015494D01*
X022799Y015569D01*
X023674Y015894D02*
X025124Y015894D01*
X025849Y015294D02*
X025949Y015394D01*
X025849Y015294D02*
X025849Y014769D01*
X025949Y014669D01*
X025949Y014369D01*
X025899Y014319D01*
X025899Y011744D01*
X026174Y011469D01*
X026174Y006469D01*
X025449Y005744D01*
X025449Y005019D01*
X025924Y004544D01*
X026449Y005019D02*
X026924Y004544D01*
X026449Y005019D02*
X026449Y005969D01*
X026949Y006469D01*
X026949Y012344D01*
X026749Y012544D01*
X026749Y014594D01*
X026424Y014919D01*
X026374Y014919D01*
X026274Y014919D01*
X026374Y014919D02*
X026374Y015244D01*
X026649Y015519D01*
X027324Y015519D01*
X027599Y015794D01*
X027124Y015794D02*
X026999Y015669D01*
X026599Y015669D01*
X025999Y015069D01*
X025999Y014819D01*
X026274Y014544D01*
X026299Y014544D01*
X026299Y014344D01*
X026049Y014094D01*
X026049Y011794D01*
X026324Y011519D01*
X026324Y006319D01*
X025924Y005919D01*
X025924Y005544D01*
X026924Y005544D02*
X027099Y005719D01*
X027099Y012444D01*
X026924Y012619D01*
X026924Y014794D01*
X026649Y015069D01*
X027174Y014994D02*
X027174Y012744D01*
X027174Y012619D01*
X027249Y012544D01*
X027249Y006244D01*
X027449Y006044D01*
X027449Y005019D01*
X027924Y004544D01*
X027924Y005544D02*
X027924Y005769D01*
X027399Y006294D01*
X027399Y012594D01*
X027449Y012644D01*
X027449Y013394D01*
X027674Y013619D01*
X025749Y014144D02*
X025674Y014219D01*
X025674Y017019D01*
X025649Y017044D01*
X024674Y018094D02*
X024674Y019044D01*
X023299Y020419D01*
X024874Y021769D02*
X026099Y020544D01*
X024874Y021769D02*
X024874Y021794D01*
X025074Y022419D02*
X025249Y022594D01*
X025074Y022419D02*
X021124Y022419D01*
X020499Y023044D01*
X020499Y023419D01*
X020399Y023519D01*
X020774Y023519D02*
X021049Y023244D01*
X024774Y023244D01*
X024974Y023444D01*
X025149Y023444D01*
X025424Y023719D01*
X025024Y023694D02*
X024724Y023394D01*
X022249Y023394D01*
X022099Y023544D01*
X021174Y023544D01*
X020824Y023844D02*
X020774Y023894D01*
X020824Y023844D02*
X022024Y023844D01*
X022324Y023544D01*
X024449Y023544D01*
X024574Y023669D01*
X020549Y021144D02*
X020399Y021294D01*
X020549Y021144D02*
X020549Y020044D01*
X020949Y019644D01*
X020949Y018794D01*
X021149Y018594D01*
X022224Y017944D02*
X022274Y017994D01*
X022224Y017944D02*
X022224Y017244D01*
X022099Y017119D01*
X022099Y011294D01*
X022299Y011094D01*
X022299Y010269D01*
X022324Y010244D01*
X019374Y009869D02*
X019274Y009969D01*
X014774Y009969D01*
X014449Y010294D01*
X013224Y010294D01*
X012949Y010569D01*
X012724Y010569D01*
X012999Y010319D02*
X012399Y010319D01*
X012174Y009994D02*
X014349Y009994D01*
X015074Y009269D01*
X018724Y009269D01*
X019024Y009644D02*
X018849Y009819D01*
X014724Y009819D01*
X014399Y010144D01*
X013174Y010144D01*
X012999Y010319D01*
X014899Y010794D02*
X017649Y010794D01*
X017774Y010669D01*
X018049Y010419D02*
X017849Y010219D01*
X016249Y010219D01*
X016049Y010419D01*
X016074Y011694D02*
X016224Y011844D01*
X016224Y012019D01*
X016599Y012394D01*
X016599Y015794D01*
X016824Y016019D01*
X016824Y016719D01*
X017149Y017044D01*
X017149Y017544D01*
X016874Y017144D02*
X016799Y017119D01*
X015074Y015394D01*
X014674Y015394D01*
X014674Y013519D01*
X015299Y012894D01*
X014924Y012894D02*
X014924Y013044D01*
X014524Y013444D01*
X014524Y015019D01*
X014374Y015169D01*
X014374Y015469D01*
X014549Y015644D01*
X015124Y015644D01*
X016549Y017069D01*
X016549Y018044D01*
X017249Y018744D01*
X017474Y018744D01*
X017574Y018369D02*
X017574Y015669D01*
X017274Y015369D01*
X017274Y012069D01*
X017424Y011919D01*
X016949Y011894D02*
X016949Y013269D01*
X017124Y013444D01*
X017124Y015419D01*
X017424Y015719D01*
X017424Y017944D01*
X017299Y018069D01*
X017724Y018144D02*
X017824Y018244D01*
X017824Y019769D01*
X017524Y019219D02*
X016399Y018094D01*
X016399Y017119D01*
X015074Y015794D01*
X014474Y015794D01*
X014124Y015444D01*
X014049Y015444D01*
X014124Y015369D01*
X014124Y015044D01*
X014374Y014794D01*
X014374Y013394D01*
X014674Y013094D01*
X014674Y012619D01*
X015574Y013219D02*
X015574Y014794D01*
X015299Y015069D01*
X015299Y015244D01*
X015674Y015094D02*
X015774Y014994D01*
X015774Y013569D01*
X015874Y013469D01*
X015949Y013769D02*
X016199Y013519D01*
X016199Y013044D01*
X016449Y012444D02*
X016449Y014894D01*
X016249Y015094D01*
X015949Y015344D02*
X015949Y013769D01*
X016874Y013569D02*
X016874Y015344D01*
X017524Y015419D02*
X017524Y015019D01*
X017524Y013769D01*
X017774Y014019D02*
X017874Y013919D01*
X017774Y014019D02*
X017774Y015294D01*
X017524Y015419D02*
X017724Y015619D01*
X017724Y018144D01*
X018149Y017644D02*
X018149Y017494D01*
X018149Y017644D02*
X018674Y018169D01*
X020124Y019719D02*
X020124Y022594D01*
X012874Y018619D02*
X012774Y018619D01*
X011099Y020019D02*
X010874Y019794D01*
X010874Y019744D01*
X013174Y015319D02*
X013174Y014569D01*
X013124Y014519D01*
X015949Y011944D02*
X016449Y012444D01*
X016074Y011694D02*
X015824Y011694D01*
X015599Y011919D01*
X015574Y011919D01*
X018274Y012669D02*
X018649Y012294D01*
X018649Y012119D01*
X018674Y014069D02*
X018474Y014269D01*
X018474Y015444D01*
X018724Y015119D02*
X019249Y014594D01*
X019249Y014469D01*
X019549Y014819D02*
X019074Y015294D01*
X019549Y014819D02*
X019574Y014819D01*
X023849Y014919D02*
X025099Y014919D01*
X025749Y014144D02*
X025749Y011694D01*
X025849Y011594D01*
X025849Y011094D01*
X025249Y010494D01*
X025249Y006469D01*
X024424Y005644D01*
X024424Y005044D01*
X023924Y004544D01*
X017374Y008669D02*
X014499Y008669D01*
X009673Y013970D02*
X009199Y014444D01*
X007824Y014444D01*
X025349Y012494D02*
X025349Y012019D01*
X029899Y012919D02*
X029899Y013244D01*
X029999Y013344D01*
X030474Y013244D02*
X030474Y012819D01*
X030599Y012694D01*
X030599Y010919D01*
X030524Y010844D01*
X030774Y010544D02*
X030774Y013044D01*
X030749Y013069D01*
X030899Y013219D01*
X030899Y015769D01*
X031499Y016369D01*
X031499Y016669D01*
X031624Y016669D01*
X031499Y016669D02*
X031499Y017194D01*
X031499Y017369D01*
X031849Y017719D01*
X031849Y020769D01*
X031949Y020869D01*
X032099Y020469D02*
X031999Y020369D01*
X031999Y017694D01*
X032134Y017559D01*
X032134Y011384D01*
X031274Y011419D02*
X031274Y012069D01*
X030474Y013244D02*
X030749Y013519D01*
X030749Y016369D01*
X030999Y016619D01*
X030999Y017194D01*
X031249Y017319D02*
X031699Y017769D01*
X031699Y021819D01*
X031249Y022269D01*
X031949Y021469D02*
X032324Y021469D01*
X032549Y021244D01*
X033124Y021244D01*
X033449Y020919D01*
X038624Y020919D01*
X040460Y019083D01*
X040976Y019083D01*
X040976Y018886D02*
X040457Y018886D01*
X038574Y020769D01*
X033399Y020769D01*
X033074Y021094D01*
X032324Y021094D01*
X032999Y020794D02*
X033174Y020619D01*
X038524Y020619D01*
X040454Y018689D01*
X040976Y018689D01*
X040976Y018493D02*
X040451Y018493D01*
X038474Y020469D01*
X032749Y020469D01*
X032324Y020044D01*
X032299Y019494D02*
X032299Y015494D01*
X033524Y014269D01*
X033524Y013044D01*
X033924Y013094D02*
X034289Y013459D01*
X034289Y018284D01*
X033774Y018019D02*
X033374Y017619D01*
X033374Y015319D01*
X033249Y015194D01*
X035024Y015794D02*
X035524Y016294D01*
X035524Y020119D01*
X036074Y021344D02*
X038499Y023769D01*
X038499Y030794D01*
X036624Y032669D01*
X040499Y019469D02*
X040969Y019469D01*
X040976Y019477D01*
X040976Y019280D02*
X041449Y019280D01*
X041449Y019269D01*
X037024Y017569D02*
X037024Y015819D01*
X040382Y012461D01*
X042460Y012461D01*
X042460Y012028D02*
X042865Y012028D01*
X042874Y012019D01*
X042460Y011595D02*
X041048Y011595D01*
X036874Y015769D01*
X036874Y017344D01*
X036474Y017744D01*
X036474Y018344D01*
X036174Y018044D02*
X036324Y017894D01*
X036324Y017694D01*
X036724Y017294D01*
X036724Y015719D01*
X041714Y010729D01*
X042460Y010729D01*
X042460Y010296D02*
X035923Y010296D01*
X034299Y011919D01*
X033149Y012644D02*
X036186Y009607D01*
X037381Y009607D01*
X033149Y012644D02*
X033149Y012869D01*
X031249Y016619D02*
X031249Y017319D01*
X042249Y009219D02*
X042249Y008829D01*
X042240Y008819D01*
D37*
X041499Y021369D03*
D38*
X018724Y035594D03*
X018024Y035594D03*
X013574Y035469D03*
X013574Y035819D03*
X012874Y035819D03*
X012874Y035469D03*
X012849Y031319D03*
X008624Y031319D03*
X018049Y031319D03*
D39*
X042924Y014269D02*
X043199Y013994D01*
X043199Y011394D01*
X042968Y011162D01*
X042460Y011162D01*
X009074Y011919D02*
X008349Y012644D01*
X008149Y012644D01*
D40*
X009824Y030119D02*
X008624Y031319D01*
X009824Y030119D02*
X010799Y030119D01*
X011174Y030119D02*
X011174Y030344D01*
X012149Y031319D01*
X012849Y031319D01*
X011799Y030369D02*
X011549Y030119D01*
X011799Y030369D02*
X017099Y030369D01*
X018049Y031319D01*
M02*
