G75*
G70*
%OFA0B0*%
%FSLAX24Y24*%
%IPPOS*%
%LPD*%
%AMOC8*
5,1,8,0,0,1.08239X$1,22.5*
%
%ADD10C,0.0040*%
%ADD11R,0.0170X0.0650*%
%ADD12R,0.0157X0.0335*%
%ADD13C,0.1100*%
%ADD14R,0.1100X0.1100*%
%ADD15C,0.0827*%
%ADD16R,0.0580X0.0220*%
%ADD17R,0.0709X0.0669*%
%ADD18R,0.1063X0.0630*%
%ADD19R,0.0512X0.0591*%
%ADD20R,0.0220X0.0580*%
%ADD21R,0.0394X0.0433*%
%ADD22R,0.0689X0.0591*%
%ADD23R,0.0300X0.1130*%
%ADD24R,0.0630X0.0710*%
%ADD25R,0.0709X0.0630*%
%ADD26R,0.0472X0.0472*%
%ADD27R,0.0591X0.0512*%
%ADD28R,0.1063X0.1181*%
%ADD29R,0.0118X0.0472*%
%ADD30R,0.0433X0.0394*%
%ADD31R,0.0551X0.0551*%
%ADD32C,0.0400*%
%ADD33R,0.0138X0.0630*%
%ADD34C,0.0083*%
%ADD35R,0.0220X0.0780*%
%ADD36R,0.0197X0.0472*%
%ADD37R,0.0630X0.0138*%
%ADD38R,0.0460X0.0100*%
%ADD39OC8,0.0591*%
%ADD40R,0.1890X0.1890*%
%ADD41R,0.0512X0.0071*%
%ADD42OC8,0.0540*%
%ADD43R,0.0370X0.0520*%
%ADD44R,0.0220X0.0620*%
%ADD45R,0.0630X0.1063*%
%ADD46R,0.0335X0.0157*%
%ADD47R,0.0748X0.0787*%
%ADD48R,0.1575X0.0807*%
%ADD49R,0.1378X0.0807*%
%ADD50R,0.0886X0.0197*%
%ADD51R,0.0110X0.0660*%
%ADD52R,0.1575X0.1575*%
%ADD53R,0.0560X0.0170*%
%ADD54R,0.0620X0.0740*%
%ADD55C,0.0600*%
%ADD56R,0.0600X0.0600*%
%ADD57C,0.1000*%
%ADD58R,0.0591X0.0472*%
%ADD59C,0.0700*%
%ADD60OC8,0.0700*%
%ADD61R,0.0236X0.0689*%
%ADD62R,0.0669X0.0709*%
%ADD63R,0.0472X0.0591*%
%ADD64R,0.0630X0.0354*%
%ADD65R,0.0710X0.0630*%
%ADD66R,0.0257X0.0118*%
%ADD67R,0.0630X0.0630*%
%ADD68C,0.0591*%
%ADD69R,0.0580X0.0140*%
%ADD70R,0.0520X0.0220*%
%ADD71C,0.2165*%
%ADD72R,0.0278X0.0278*%
%ADD73C,0.0100*%
%ADD74C,0.0160*%
%ADD75OC8,0.0278*%
%ADD76C,0.0080*%
%ADD77R,0.0396X0.0396*%
%ADD78R,0.0357X0.0357*%
%ADD79C,0.0060*%
%ADD80C,0.0120*%
%ADD81OC8,0.0396*%
%ADD82OC8,0.0357*%
%ADD83C,0.0240*%
%ADD84C,0.0600*%
D10*
X006085Y022339D02*
X006326Y022339D01*
X006205Y022339D02*
X006205Y022699D01*
X006085Y022579D01*
D11*
X021599Y009674D03*
X021849Y009674D03*
X022109Y009674D03*
X022369Y009674D03*
X022619Y009674D03*
X022879Y009674D03*
X023129Y009674D03*
X023389Y009674D03*
X023649Y009674D03*
X023899Y009674D03*
X023899Y006814D03*
X023649Y006814D03*
X023389Y006814D03*
X023129Y006814D03*
X022879Y006814D03*
X022619Y006814D03*
X022369Y006814D03*
X022109Y006814D03*
X021849Y006814D03*
X021599Y006814D03*
X031114Y010764D03*
X031364Y010764D03*
X031624Y010764D03*
X031874Y010764D03*
X032134Y010764D03*
X032394Y010764D03*
X032644Y010764D03*
X032904Y010764D03*
X033154Y010764D03*
X033414Y010764D03*
X033674Y010764D03*
X033924Y010764D03*
X034184Y010764D03*
X034434Y010764D03*
X034434Y013624D03*
X034184Y013624D03*
X033924Y013624D03*
X033674Y013624D03*
X033414Y013624D03*
X033154Y013624D03*
X032904Y013624D03*
X032644Y013624D03*
X032394Y013624D03*
X032134Y013624D03*
X031874Y013624D03*
X031624Y013624D03*
X031364Y013624D03*
X031114Y013624D03*
D12*
X009805Y007662D03*
X009294Y007662D03*
X009294Y006776D03*
X009549Y006776D03*
X009805Y006776D03*
X040044Y033176D03*
X040299Y033176D03*
X040555Y033176D03*
X040555Y034062D03*
X040044Y034062D03*
D13*
X008199Y029339D02*
X008199Y028239D01*
X007569Y026819D02*
X006469Y026819D01*
D14*
X005839Y028789D03*
D15*
X005839Y029089D03*
X005839Y028489D03*
X008199Y028489D03*
X008199Y029089D03*
X007319Y026819D03*
X006719Y026819D03*
D16*
X014009Y028195D03*
X014009Y028569D03*
X014009Y028943D03*
X014889Y028943D03*
X014889Y028569D03*
X014889Y028195D03*
D17*
X012757Y027594D03*
X011142Y027594D03*
X031717Y009094D03*
X031717Y008119D03*
X031717Y007119D03*
X033332Y007119D03*
X033332Y008119D03*
X033332Y009094D03*
D18*
X042099Y014243D03*
X042099Y015345D03*
X009724Y027468D03*
X009724Y028570D03*
D19*
X012200Y028619D03*
X012948Y028619D03*
X014075Y027519D03*
X014823Y027519D03*
X014823Y029769D03*
X014075Y029769D03*
X014975Y031044D03*
X015723Y031044D03*
X015723Y031819D03*
X014975Y031819D03*
X010698Y031894D03*
X009950Y031894D03*
X009950Y031119D03*
X010698Y031119D03*
X020125Y031044D03*
X020873Y031044D03*
X020873Y031819D03*
X020125Y031819D03*
X022750Y032094D03*
X023498Y032094D03*
X026510Y031079D03*
X027258Y031079D03*
X027258Y030304D03*
X026510Y030304D03*
X026510Y029529D03*
X027258Y029529D03*
X032550Y029094D03*
X033298Y029094D03*
X033298Y028319D03*
X032550Y028319D03*
X032400Y027369D03*
X033148Y027369D03*
X033148Y026594D03*
X032400Y026594D03*
X034750Y024969D03*
X035498Y024969D03*
X028283Y023154D03*
X027535Y023154D03*
X025573Y020694D03*
X024825Y020694D03*
X023698Y023969D03*
X022950Y023969D03*
X014573Y019519D03*
X013825Y019519D03*
X012473Y020419D03*
X011725Y020419D03*
X011223Y012319D03*
X010475Y012319D03*
X010475Y011544D03*
X011223Y011544D03*
X011223Y010769D03*
X010475Y010769D03*
X010325Y009469D03*
X011073Y009469D03*
X013725Y010719D03*
X014473Y010719D03*
X011223Y006944D03*
X010475Y006944D03*
X024775Y006644D03*
X025523Y006644D03*
X025523Y007419D03*
X024775Y007419D03*
X024825Y008894D03*
X025573Y008894D03*
X025573Y009669D03*
X024825Y009669D03*
X035675Y012794D03*
X036423Y012794D03*
X035498Y031294D03*
X034750Y031294D03*
X035150Y033194D03*
X035898Y033194D03*
X035898Y033969D03*
X035150Y033969D03*
X033828Y033739D03*
X033080Y033739D03*
X035150Y035269D03*
X035898Y035269D03*
X035898Y036044D03*
X035150Y036044D03*
X033813Y035954D03*
X033065Y035954D03*
X036700Y036044D03*
X037448Y036044D03*
X037448Y035269D03*
X036700Y035269D03*
X038250Y035269D03*
X038998Y035269D03*
X038998Y036044D03*
X038250Y036044D03*
X039800Y036044D03*
X040548Y036044D03*
X040548Y035269D03*
X039800Y035269D03*
D20*
X023398Y031034D03*
X023024Y031034D03*
X022650Y031034D03*
X022650Y030154D03*
X023024Y030154D03*
X023398Y030154D03*
X020698Y032729D03*
X020324Y032729D03*
X019950Y032729D03*
X019950Y033609D03*
X020324Y033609D03*
X020698Y033609D03*
X015548Y033609D03*
X015174Y033609D03*
X014800Y033609D03*
X014800Y032729D03*
X015174Y032729D03*
X015548Y032729D03*
X010623Y032729D03*
X010249Y032729D03*
X009875Y032729D03*
X009875Y033609D03*
X010249Y033609D03*
X010623Y033609D03*
X015100Y017589D03*
X015848Y017589D03*
X015848Y016649D03*
X015474Y016649D03*
X015100Y016649D03*
X009723Y013389D03*
X008975Y013389D03*
X008975Y012449D03*
X009349Y012449D03*
X009723Y012449D03*
D21*
X009474Y010129D03*
X009474Y009459D03*
X008759Y008694D03*
X008090Y008694D03*
X012799Y008909D03*
X012799Y009579D03*
X015774Y009579D03*
X015774Y008909D03*
X020699Y016509D03*
X020699Y017179D03*
X019499Y017209D03*
X019499Y017879D03*
X016749Y018209D03*
X016749Y018879D03*
X016074Y018834D03*
X015399Y019134D03*
X016074Y019504D03*
X015399Y019804D03*
X013349Y021234D03*
X013349Y021904D03*
X013740Y025494D03*
X014409Y025494D03*
X014409Y026169D03*
X013740Y026169D03*
X017215Y027144D03*
X017884Y027144D03*
X018790Y027019D03*
X019459Y027019D03*
X019459Y027694D03*
X018790Y027694D03*
X020599Y026654D03*
X021274Y026654D03*
X021274Y025984D03*
X020599Y025984D03*
X022174Y025404D03*
X022174Y024734D03*
X025290Y028094D03*
X025959Y028094D03*
X030374Y029784D03*
X031049Y029784D03*
X031724Y029784D03*
X031724Y030454D03*
X031049Y030454D03*
X030374Y030454D03*
X035684Y029644D03*
X035684Y028974D03*
X035684Y028019D03*
X035684Y027349D03*
X021424Y033034D03*
X021424Y033704D03*
X016274Y033704D03*
X016274Y033034D03*
X015699Y029829D03*
X015699Y029159D03*
X011349Y033034D03*
X011349Y033704D03*
X014449Y017504D03*
X014449Y016834D03*
X028899Y014579D03*
X028899Y013909D03*
D22*
X009914Y005094D03*
X008634Y005094D03*
X009985Y035519D03*
X011265Y035519D03*
X014910Y035519D03*
X016190Y035519D03*
X020060Y035519D03*
X021340Y035519D03*
D23*
X018374Y036024D03*
X018374Y034464D03*
X018374Y032874D03*
X018374Y031314D03*
X013224Y031314D03*
X013224Y032874D03*
X013224Y034464D03*
X013224Y036024D03*
X008249Y036024D03*
X008249Y034464D03*
X008249Y032874D03*
X008249Y031314D03*
D24*
X010490Y007894D03*
X011609Y007894D03*
D25*
X007574Y006570D03*
X007574Y005468D03*
X029599Y029918D03*
X029599Y031020D03*
D26*
X026789Y035606D03*
X026789Y036432D03*
X022824Y036432D03*
X022824Y035606D03*
X029499Y005332D03*
X029499Y004506D03*
X031099Y004506D03*
X031099Y005332D03*
X032699Y005332D03*
X032699Y004506D03*
D27*
X034299Y007020D03*
X034299Y007768D03*
X035074Y007768D03*
X035849Y007768D03*
X035849Y007020D03*
X035074Y007020D03*
X030374Y006795D03*
X030374Y007543D03*
X029599Y007543D03*
X028824Y007543D03*
X028824Y006795D03*
X029599Y006795D03*
X035649Y010945D03*
X035649Y011693D03*
X039049Y011895D03*
X039049Y012643D03*
X041999Y012643D03*
X041999Y011895D03*
X041099Y007743D03*
X041099Y006995D03*
X039799Y006970D03*
X039799Y007718D03*
X028924Y015570D03*
X028924Y016318D03*
X024099Y018820D03*
X024099Y019568D03*
X013724Y017868D03*
X013724Y017120D03*
X012499Y021395D03*
X011724Y021395D03*
X011724Y022143D03*
X012499Y022143D03*
X021899Y029495D03*
X021899Y030243D03*
X024274Y030295D03*
X024274Y031043D03*
X022824Y034120D03*
X022824Y034868D03*
X026789Y034878D03*
X026789Y034130D03*
X031774Y034435D03*
X031774Y035183D03*
X032434Y032108D03*
X033209Y032108D03*
X033209Y031360D03*
X032434Y031360D03*
X039249Y020268D03*
X039249Y019520D03*
X020474Y008263D03*
X020474Y007594D03*
X020474Y006925D03*
X018874Y007470D03*
X018874Y008218D03*
X012674Y007743D03*
X012674Y006995D03*
D28*
X012026Y005119D03*
X021223Y005119D03*
D29*
X020463Y005867D03*
X020266Y005867D03*
X020069Y005867D03*
X019873Y005867D03*
X019676Y005867D03*
X019479Y005867D03*
X019282Y005867D03*
X019085Y005867D03*
X018888Y005867D03*
X018691Y005867D03*
X018495Y005867D03*
X018298Y005867D03*
X018101Y005867D03*
X017904Y005867D03*
X017707Y005867D03*
X017510Y005867D03*
X017313Y005867D03*
X017117Y005867D03*
X016920Y005867D03*
X016723Y005867D03*
X016526Y005867D03*
X016329Y005867D03*
X016132Y005867D03*
X015935Y005867D03*
X015739Y005867D03*
X015542Y005867D03*
X015345Y005867D03*
X015148Y005867D03*
X014951Y005867D03*
X014754Y005867D03*
X014558Y005867D03*
X014361Y005867D03*
X014164Y005867D03*
X013967Y005867D03*
X013770Y005867D03*
X013573Y005867D03*
X013376Y005867D03*
X013180Y005867D03*
X012983Y005867D03*
X012786Y005867D03*
D30*
X016565Y010769D03*
X017234Y010769D03*
X019290Y010769D03*
X019959Y010769D03*
X024715Y010394D03*
X025384Y010394D03*
X025240Y013219D03*
X025909Y013219D03*
X024859Y016494D03*
X024190Y016494D03*
X025565Y017769D03*
X026234Y017769D03*
X028715Y017719D03*
X029384Y017719D03*
X031865Y014419D03*
X032534Y014419D03*
X030759Y009819D03*
X030090Y009819D03*
X018984Y016469D03*
X018315Y016469D03*
X017234Y016469D03*
X016565Y016469D03*
X012409Y016469D03*
X011740Y016469D03*
X014190Y020919D03*
X014859Y020919D03*
X014359Y023694D03*
X013690Y023694D03*
X014315Y024369D03*
X014984Y024369D03*
X015015Y025019D03*
X015684Y025019D03*
X015865Y026269D03*
X016534Y026269D03*
X022840Y024719D03*
X023509Y024719D03*
X023190Y023144D03*
X023859Y023144D03*
X023809Y021719D03*
X023140Y021719D03*
X022984Y020919D03*
X022315Y020919D03*
X022434Y020244D03*
X021765Y020244D03*
X021734Y019569D03*
X021065Y019569D03*
X021384Y018894D03*
X020715Y018894D03*
X027755Y024634D03*
X028424Y024634D03*
X027084Y026769D03*
X026415Y026769D03*
X026705Y028809D03*
X027374Y028809D03*
X028834Y029799D03*
X028834Y030469D03*
X031624Y031134D03*
X031624Y031804D03*
X032740Y029819D03*
X033409Y029819D03*
X033259Y025869D03*
X032590Y025869D03*
X037690Y019344D03*
X038359Y019344D03*
X023409Y029169D03*
X022740Y029169D03*
X010784Y021069D03*
X010115Y021069D03*
X008149Y012404D03*
X008149Y011734D03*
X038815Y033994D03*
X039484Y033994D03*
D31*
X010749Y006192D03*
X010749Y004696D03*
D32*
X042685Y007212D03*
X005284Y033787D03*
D33*
X027739Y012246D03*
X027995Y012246D03*
X028250Y012246D03*
X028506Y012246D03*
X028762Y012246D03*
X029018Y012246D03*
X029274Y012246D03*
X029530Y012246D03*
X029530Y010042D03*
X029274Y010042D03*
X029018Y010042D03*
X028762Y010042D03*
X028506Y010042D03*
X028250Y010042D03*
X027995Y010042D03*
X027739Y010042D03*
X018135Y009571D03*
X017879Y009571D03*
X017623Y009571D03*
X017368Y009571D03*
X017112Y009571D03*
X016856Y009571D03*
X016600Y009571D03*
X016344Y009571D03*
X015185Y009571D03*
X014929Y009571D03*
X014673Y009571D03*
X014418Y009571D03*
X014162Y009571D03*
X013906Y009571D03*
X013650Y009571D03*
X013394Y009571D03*
X013394Y007367D03*
X013650Y007367D03*
X013906Y007367D03*
X014162Y007367D03*
X014418Y007367D03*
X014673Y007367D03*
X014929Y007367D03*
X015185Y007367D03*
X016344Y007367D03*
X016600Y007367D03*
X016856Y007367D03*
X017112Y007367D03*
X017368Y007367D03*
X017623Y007367D03*
X017879Y007367D03*
X018135Y007367D03*
D34*
X023730Y032693D02*
X023730Y033437D01*
X024198Y033437D01*
X024198Y032693D01*
X023730Y032693D01*
X023730Y032775D02*
X024198Y032775D01*
X024198Y032857D02*
X023730Y032857D01*
X023730Y032939D02*
X024198Y032939D01*
X024198Y033021D02*
X023730Y033021D01*
X023730Y033103D02*
X024198Y033103D01*
X024198Y033185D02*
X023730Y033185D01*
X023730Y033267D02*
X024198Y033267D01*
X024198Y033349D02*
X023730Y033349D01*
X023730Y033431D02*
X024198Y033431D01*
X025501Y033437D02*
X025501Y032693D01*
X025501Y033437D02*
X025969Y033437D01*
X025969Y032693D01*
X025501Y032693D01*
X025501Y032775D02*
X025969Y032775D01*
X025969Y032857D02*
X025501Y032857D01*
X025501Y032939D02*
X025969Y032939D01*
X025969Y033021D02*
X025501Y033021D01*
X025501Y033103D02*
X025969Y033103D01*
X025969Y033185D02*
X025501Y033185D01*
X025501Y033267D02*
X025969Y033267D01*
X025969Y033349D02*
X025501Y033349D01*
X025501Y033431D02*
X025969Y033431D01*
X025501Y036000D02*
X025501Y036744D01*
X025969Y036744D01*
X025969Y036000D01*
X025501Y036000D01*
X025501Y036082D02*
X025969Y036082D01*
X025969Y036164D02*
X025501Y036164D01*
X025501Y036246D02*
X025969Y036246D01*
X025969Y036328D02*
X025501Y036328D01*
X025501Y036410D02*
X025969Y036410D01*
X025969Y036492D02*
X025501Y036492D01*
X025501Y036574D02*
X025969Y036574D01*
X025969Y036656D02*
X025501Y036656D01*
X025501Y036738D02*
X025969Y036738D01*
X024615Y036744D02*
X024615Y036000D01*
X024615Y036744D02*
X025083Y036744D01*
X025083Y036000D01*
X024615Y036000D01*
X024615Y036082D02*
X025083Y036082D01*
X025083Y036164D02*
X024615Y036164D01*
X024615Y036246D02*
X025083Y036246D01*
X025083Y036328D02*
X024615Y036328D01*
X024615Y036410D02*
X025083Y036410D01*
X025083Y036492D02*
X024615Y036492D01*
X024615Y036574D02*
X025083Y036574D01*
X025083Y036656D02*
X024615Y036656D01*
X024615Y036738D02*
X025083Y036738D01*
X023730Y036744D02*
X023730Y036000D01*
X023730Y036744D02*
X024198Y036744D01*
X024198Y036000D01*
X023730Y036000D01*
X023730Y036082D02*
X024198Y036082D01*
X024198Y036164D02*
X023730Y036164D01*
X023730Y036246D02*
X024198Y036246D01*
X024198Y036328D02*
X023730Y036328D01*
X023730Y036410D02*
X024198Y036410D01*
X024198Y036492D02*
X023730Y036492D01*
X023730Y036574D02*
X024198Y036574D01*
X024198Y036656D02*
X023730Y036656D01*
X023730Y036738D02*
X024198Y036738D01*
D35*
X029999Y017689D03*
X030499Y017689D03*
X030999Y017689D03*
X031499Y017689D03*
X031499Y015749D03*
X030999Y015749D03*
X030499Y015749D03*
X029999Y015749D03*
X028149Y016339D03*
X027649Y016339D03*
X027149Y016339D03*
X026649Y016339D03*
X026649Y014399D03*
X027149Y014399D03*
X027649Y014399D03*
X028149Y014399D03*
D36*
X020669Y015785D03*
X020354Y015785D03*
X020039Y015785D03*
X019724Y015785D03*
X019409Y015785D03*
X019094Y015785D03*
X018779Y015785D03*
X018464Y015785D03*
X018149Y015785D03*
X017834Y015785D03*
X017519Y015785D03*
X017204Y015785D03*
X016889Y015785D03*
X016574Y015785D03*
X016260Y015785D03*
X015945Y015785D03*
X015630Y015785D03*
X015315Y015785D03*
X015000Y015785D03*
X014685Y015785D03*
X014370Y015785D03*
X014055Y015785D03*
X013740Y015785D03*
X013425Y015785D03*
X013110Y015785D03*
X012795Y015785D03*
X012480Y015785D03*
X012480Y011453D03*
X012795Y011453D03*
X013110Y011453D03*
X013425Y011453D03*
X013740Y011453D03*
X014055Y011453D03*
X014370Y011453D03*
X014685Y011453D03*
X015000Y011453D03*
X015315Y011453D03*
X015630Y011453D03*
X015945Y011453D03*
X016260Y011453D03*
X016574Y011453D03*
X016889Y011453D03*
X017204Y011453D03*
X017519Y011453D03*
X017834Y011453D03*
X018149Y011453D03*
X018464Y011453D03*
X018779Y011453D03*
X019094Y011453D03*
X019409Y011453D03*
X019724Y011453D03*
X020039Y011453D03*
X020354Y011453D03*
X020669Y011453D03*
D37*
X022347Y011633D03*
X022347Y011889D03*
X022347Y012145D03*
X022347Y012401D03*
X022347Y012657D03*
X022347Y012913D03*
X022347Y013169D03*
X022347Y013424D03*
X022322Y014158D03*
X022322Y014414D03*
X022322Y014670D03*
X022322Y014926D03*
X022322Y015182D03*
X022322Y015438D03*
X022322Y015694D03*
X022322Y015949D03*
X024527Y015949D03*
X024527Y015694D03*
X024527Y015438D03*
X024527Y015182D03*
X024527Y014926D03*
X024527Y014670D03*
X024527Y014414D03*
X024527Y014158D03*
X024552Y013424D03*
X024552Y013169D03*
X024552Y012913D03*
X024552Y012657D03*
X024552Y012401D03*
X024552Y012145D03*
X024552Y011889D03*
X024552Y011633D03*
D38*
X024939Y017324D03*
X024939Y017520D03*
X024939Y017717D03*
X024939Y017914D03*
X023859Y017914D03*
X023859Y017717D03*
X023859Y017520D03*
X023859Y017324D03*
D39*
X025249Y018694D03*
X025249Y019694D03*
X026249Y019694D03*
X026249Y018694D03*
X027249Y018694D03*
X027249Y019694D03*
X028249Y019694D03*
X028249Y018694D03*
X030249Y019269D03*
X031249Y019269D03*
X031249Y020269D03*
X030249Y020269D03*
X030249Y021269D03*
X031249Y021269D03*
X031249Y022269D03*
X030249Y022269D03*
X030249Y023269D03*
X031249Y023269D03*
X010474Y025219D03*
X009474Y025219D03*
X008474Y025219D03*
X008474Y026219D03*
X009474Y026219D03*
X010474Y026219D03*
X023924Y005544D03*
X023924Y004544D03*
X024924Y004544D03*
X024924Y005544D03*
X025924Y005544D03*
X025924Y004544D03*
X026924Y004544D03*
X026924Y005544D03*
X027924Y005544D03*
X027924Y004544D03*
X034124Y004544D03*
X034124Y005544D03*
X035124Y005544D03*
X035124Y004544D03*
X036124Y004544D03*
X036124Y005544D03*
X037124Y005544D03*
X038124Y005544D03*
X038124Y004544D03*
X037124Y004544D03*
X039124Y004544D03*
X039124Y005544D03*
X040124Y005544D03*
X040124Y004544D03*
D40*
G36*
X018599Y021233D02*
X017263Y022569D01*
X018599Y023905D01*
X019935Y022569D01*
X018599Y021233D01*
G37*
D41*
G36*
X017287Y019983D02*
X016926Y019622D01*
X016877Y019671D01*
X017238Y020032D01*
X017287Y019983D01*
G37*
G36*
X017399Y019871D02*
X017038Y019510D01*
X016989Y019559D01*
X017350Y019920D01*
X017399Y019871D01*
G37*
G36*
X017510Y019760D02*
X017149Y019399D01*
X017100Y019448D01*
X017461Y019809D01*
X017510Y019760D01*
G37*
G36*
X017621Y019649D02*
X017260Y019288D01*
X017211Y019337D01*
X017572Y019698D01*
X017621Y019649D01*
G37*
G36*
X017733Y019537D02*
X017372Y019176D01*
X017323Y019225D01*
X017684Y019586D01*
X017733Y019537D01*
G37*
G36*
X017844Y019426D02*
X017483Y019065D01*
X017434Y019114D01*
X017795Y019475D01*
X017844Y019426D01*
G37*
G36*
X017955Y019315D02*
X017594Y018954D01*
X017545Y019003D01*
X017906Y019364D01*
X017955Y019315D01*
G37*
G36*
X018067Y019203D02*
X017706Y018842D01*
X017657Y018891D01*
X018018Y019252D01*
X018067Y019203D01*
G37*
G36*
X018178Y019092D02*
X017817Y018731D01*
X017768Y018780D01*
X018129Y019141D01*
X018178Y019092D01*
G37*
G36*
X018289Y018981D02*
X017928Y018620D01*
X017879Y018669D01*
X018240Y019030D01*
X018289Y018981D01*
G37*
G36*
X018401Y018869D02*
X018040Y018508D01*
X017991Y018557D01*
X018352Y018918D01*
X018401Y018869D01*
G37*
G36*
X019159Y018508D02*
X018798Y018869D01*
X018847Y018918D01*
X019208Y018557D01*
X019159Y018508D01*
G37*
G36*
X019270Y018620D02*
X018909Y018981D01*
X018958Y019030D01*
X019319Y018669D01*
X019270Y018620D01*
G37*
G36*
X019382Y018731D02*
X019021Y019092D01*
X019070Y019141D01*
X019431Y018780D01*
X019382Y018731D01*
G37*
G36*
X019493Y018842D02*
X019132Y019203D01*
X019181Y019252D01*
X019542Y018891D01*
X019493Y018842D01*
G37*
G36*
X019605Y018954D02*
X019244Y019315D01*
X019293Y019364D01*
X019654Y019003D01*
X019605Y018954D01*
G37*
G36*
X019716Y019065D02*
X019355Y019426D01*
X019404Y019475D01*
X019765Y019114D01*
X019716Y019065D01*
G37*
G36*
X019827Y019176D02*
X019466Y019537D01*
X019515Y019586D01*
X019876Y019225D01*
X019827Y019176D01*
G37*
G36*
X019939Y019288D02*
X019578Y019649D01*
X019627Y019698D01*
X019988Y019337D01*
X019939Y019288D01*
G37*
G36*
X020050Y019399D02*
X019689Y019760D01*
X019738Y019809D01*
X020099Y019448D01*
X020050Y019399D01*
G37*
G36*
X020161Y019510D02*
X019800Y019871D01*
X019849Y019920D01*
X020210Y019559D01*
X020161Y019510D01*
G37*
G36*
X020273Y019622D02*
X019912Y019983D01*
X019961Y020032D01*
X020322Y019671D01*
X020273Y019622D01*
G37*
G36*
X020384Y019733D02*
X020023Y020094D01*
X020072Y020143D01*
X020433Y019782D01*
X020384Y019733D01*
G37*
G36*
X020495Y019844D02*
X020134Y020205D01*
X020183Y020254D01*
X020544Y019893D01*
X020495Y019844D01*
G37*
G36*
X020607Y019956D02*
X020246Y020317D01*
X020295Y020366D01*
X020656Y020005D01*
X020607Y019956D01*
G37*
G36*
X020718Y020067D02*
X020357Y020428D01*
X020406Y020477D01*
X020767Y020116D01*
X020718Y020067D01*
G37*
G36*
X020829Y020179D02*
X020468Y020540D01*
X020517Y020589D01*
X020878Y020228D01*
X020829Y020179D01*
G37*
G36*
X020941Y020290D02*
X020580Y020651D01*
X020629Y020700D01*
X020990Y020339D01*
X020941Y020290D01*
G37*
G36*
X021052Y020401D02*
X020691Y020762D01*
X020740Y020811D01*
X021101Y020450D01*
X021052Y020401D01*
G37*
G36*
X021164Y020513D02*
X020803Y020874D01*
X020852Y020923D01*
X021213Y020562D01*
X021164Y020513D01*
G37*
G36*
X021275Y020624D02*
X020914Y020985D01*
X020963Y021034D01*
X021324Y020673D01*
X021275Y020624D01*
G37*
G36*
X021386Y020735D02*
X021025Y021096D01*
X021074Y021145D01*
X021435Y020784D01*
X021386Y020735D01*
G37*
G36*
X021498Y020847D02*
X021137Y021208D01*
X021186Y021257D01*
X021547Y020896D01*
X021498Y020847D01*
G37*
G36*
X021609Y020958D02*
X021248Y021319D01*
X021297Y021368D01*
X021658Y021007D01*
X021609Y020958D01*
G37*
G36*
X021720Y021069D02*
X021359Y021430D01*
X021408Y021479D01*
X021769Y021118D01*
X021720Y021069D01*
G37*
G36*
X021832Y021181D02*
X021471Y021542D01*
X021520Y021591D01*
X021881Y021230D01*
X021832Y021181D01*
G37*
G36*
X021943Y021292D02*
X021582Y021653D01*
X021631Y021702D01*
X021992Y021341D01*
X021943Y021292D01*
G37*
G36*
X022054Y021403D02*
X021693Y021764D01*
X021742Y021813D01*
X022103Y021452D01*
X022054Y021403D01*
G37*
G36*
X022166Y021515D02*
X021805Y021876D01*
X021854Y021925D01*
X022215Y021564D01*
X022166Y021515D01*
G37*
G36*
X022277Y021626D02*
X021916Y021987D01*
X021965Y022036D01*
X022326Y021675D01*
X022277Y021626D01*
G37*
G36*
X022388Y021738D02*
X022027Y022099D01*
X022076Y022148D01*
X022437Y021787D01*
X022388Y021738D01*
G37*
G36*
X022500Y021849D02*
X022139Y022210D01*
X022188Y022259D01*
X022549Y021898D01*
X022500Y021849D01*
G37*
G36*
X022611Y021960D02*
X022250Y022321D01*
X022299Y022370D01*
X022660Y022009D01*
X022611Y021960D01*
G37*
G36*
X022660Y023129D02*
X022299Y022768D01*
X022250Y022817D01*
X022611Y023178D01*
X022660Y023129D01*
G37*
G36*
X022549Y023240D02*
X022188Y022879D01*
X022139Y022928D01*
X022500Y023289D01*
X022549Y023240D01*
G37*
G36*
X022437Y023351D02*
X022076Y022990D01*
X022027Y023039D01*
X022388Y023400D01*
X022437Y023351D01*
G37*
G36*
X022326Y023463D02*
X021965Y023102D01*
X021916Y023151D01*
X022277Y023512D01*
X022326Y023463D01*
G37*
G36*
X022215Y023574D02*
X021854Y023213D01*
X021805Y023262D01*
X022166Y023623D01*
X022215Y023574D01*
G37*
G36*
X022103Y023685D02*
X021742Y023324D01*
X021693Y023373D01*
X022054Y023734D01*
X022103Y023685D01*
G37*
G36*
X021992Y023797D02*
X021631Y023436D01*
X021582Y023485D01*
X021943Y023846D01*
X021992Y023797D01*
G37*
G36*
X021881Y023908D02*
X021520Y023547D01*
X021471Y023596D01*
X021832Y023957D01*
X021881Y023908D01*
G37*
G36*
X021769Y024019D02*
X021408Y023658D01*
X021359Y023707D01*
X021720Y024068D01*
X021769Y024019D01*
G37*
G36*
X021658Y024131D02*
X021297Y023770D01*
X021248Y023819D01*
X021609Y024180D01*
X021658Y024131D01*
G37*
G36*
X021547Y024242D02*
X021186Y023881D01*
X021137Y023930D01*
X021498Y024291D01*
X021547Y024242D01*
G37*
G36*
X021435Y024353D02*
X021074Y023992D01*
X021025Y024041D01*
X021386Y024402D01*
X021435Y024353D01*
G37*
G36*
X021324Y024465D02*
X020963Y024104D01*
X020914Y024153D01*
X021275Y024514D01*
X021324Y024465D01*
G37*
G36*
X021213Y024576D02*
X020852Y024215D01*
X020803Y024264D01*
X021164Y024625D01*
X021213Y024576D01*
G37*
G36*
X021101Y024688D02*
X020740Y024327D01*
X020691Y024376D01*
X021052Y024737D01*
X021101Y024688D01*
G37*
G36*
X020990Y024799D02*
X020629Y024438D01*
X020580Y024487D01*
X020941Y024848D01*
X020990Y024799D01*
G37*
G36*
X020878Y024910D02*
X020517Y024549D01*
X020468Y024598D01*
X020829Y024959D01*
X020878Y024910D01*
G37*
G36*
X020767Y025022D02*
X020406Y024661D01*
X020357Y024710D01*
X020718Y025071D01*
X020767Y025022D01*
G37*
G36*
X020656Y025133D02*
X020295Y024772D01*
X020246Y024821D01*
X020607Y025182D01*
X020656Y025133D01*
G37*
G36*
X020544Y025244D02*
X020183Y024883D01*
X020134Y024932D01*
X020495Y025293D01*
X020544Y025244D01*
G37*
G36*
X020433Y025356D02*
X020072Y024995D01*
X020023Y025044D01*
X020384Y025405D01*
X020433Y025356D01*
G37*
G36*
X020322Y025467D02*
X019961Y025106D01*
X019912Y025155D01*
X020273Y025516D01*
X020322Y025467D01*
G37*
G36*
X020210Y025578D02*
X019849Y025217D01*
X019800Y025266D01*
X020161Y025627D01*
X020210Y025578D01*
G37*
G36*
X020099Y025690D02*
X019738Y025329D01*
X019689Y025378D01*
X020050Y025739D01*
X020099Y025690D01*
G37*
G36*
X019988Y025801D02*
X019627Y025440D01*
X019578Y025489D01*
X019939Y025850D01*
X019988Y025801D01*
G37*
G36*
X019876Y025912D02*
X019515Y025551D01*
X019466Y025600D01*
X019827Y025961D01*
X019876Y025912D01*
G37*
G36*
X019765Y026024D02*
X019404Y025663D01*
X019355Y025712D01*
X019716Y026073D01*
X019765Y026024D01*
G37*
G36*
X019654Y026135D02*
X019293Y025774D01*
X019244Y025823D01*
X019605Y026184D01*
X019654Y026135D01*
G37*
G36*
X019542Y026247D02*
X019181Y025886D01*
X019132Y025935D01*
X019493Y026296D01*
X019542Y026247D01*
G37*
G36*
X019431Y026358D02*
X019070Y025997D01*
X019021Y026046D01*
X019382Y026407D01*
X019431Y026358D01*
G37*
G36*
X019319Y026469D02*
X018958Y026108D01*
X018909Y026157D01*
X019270Y026518D01*
X019319Y026469D01*
G37*
G36*
X019208Y026581D02*
X018847Y026220D01*
X018798Y026269D01*
X019159Y026630D01*
X019208Y026581D01*
G37*
G36*
X018352Y026220D02*
X017991Y026581D01*
X018040Y026630D01*
X018401Y026269D01*
X018352Y026220D01*
G37*
G36*
X018240Y026108D02*
X017879Y026469D01*
X017928Y026518D01*
X018289Y026157D01*
X018240Y026108D01*
G37*
G36*
X018129Y025997D02*
X017768Y026358D01*
X017817Y026407D01*
X018178Y026046D01*
X018129Y025997D01*
G37*
G36*
X018018Y025886D02*
X017657Y026247D01*
X017706Y026296D01*
X018067Y025935D01*
X018018Y025886D01*
G37*
G36*
X017906Y025774D02*
X017545Y026135D01*
X017594Y026184D01*
X017955Y025823D01*
X017906Y025774D01*
G37*
G36*
X017795Y025663D02*
X017434Y026024D01*
X017483Y026073D01*
X017844Y025712D01*
X017795Y025663D01*
G37*
G36*
X017684Y025551D02*
X017323Y025912D01*
X017372Y025961D01*
X017733Y025600D01*
X017684Y025551D01*
G37*
G36*
X017572Y025440D02*
X017211Y025801D01*
X017260Y025850D01*
X017621Y025489D01*
X017572Y025440D01*
G37*
G36*
X017461Y025329D02*
X017100Y025690D01*
X017149Y025739D01*
X017510Y025378D01*
X017461Y025329D01*
G37*
G36*
X017350Y025217D02*
X016989Y025578D01*
X017038Y025627D01*
X017399Y025266D01*
X017350Y025217D01*
G37*
G36*
X017238Y025106D02*
X016877Y025467D01*
X016926Y025516D01*
X017287Y025155D01*
X017238Y025106D01*
G37*
G36*
X017127Y024995D02*
X016766Y025356D01*
X016815Y025405D01*
X017176Y025044D01*
X017127Y024995D01*
G37*
G36*
X017016Y024883D02*
X016655Y025244D01*
X016704Y025293D01*
X017065Y024932D01*
X017016Y024883D01*
G37*
G36*
X016904Y024772D02*
X016543Y025133D01*
X016592Y025182D01*
X016953Y024821D01*
X016904Y024772D01*
G37*
G36*
X016793Y024661D02*
X016432Y025022D01*
X016481Y025071D01*
X016842Y024710D01*
X016793Y024661D01*
G37*
G36*
X016681Y024549D02*
X016320Y024910D01*
X016369Y024959D01*
X016730Y024598D01*
X016681Y024549D01*
G37*
G36*
X016570Y024438D02*
X016209Y024799D01*
X016258Y024848D01*
X016619Y024487D01*
X016570Y024438D01*
G37*
G36*
X016459Y024327D02*
X016098Y024688D01*
X016147Y024737D01*
X016508Y024376D01*
X016459Y024327D01*
G37*
G36*
X016347Y024215D02*
X015986Y024576D01*
X016035Y024625D01*
X016396Y024264D01*
X016347Y024215D01*
G37*
G36*
X016236Y024104D02*
X015875Y024465D01*
X015924Y024514D01*
X016285Y024153D01*
X016236Y024104D01*
G37*
G36*
X016125Y023992D02*
X015764Y024353D01*
X015813Y024402D01*
X016174Y024041D01*
X016125Y023992D01*
G37*
G36*
X016013Y023881D02*
X015652Y024242D01*
X015701Y024291D01*
X016062Y023930D01*
X016013Y023881D01*
G37*
G36*
X015902Y023770D02*
X015541Y024131D01*
X015590Y024180D01*
X015951Y023819D01*
X015902Y023770D01*
G37*
G36*
X015791Y023658D02*
X015430Y024019D01*
X015479Y024068D01*
X015840Y023707D01*
X015791Y023658D01*
G37*
G36*
X015679Y023547D02*
X015318Y023908D01*
X015367Y023957D01*
X015728Y023596D01*
X015679Y023547D01*
G37*
G36*
X015568Y023436D02*
X015207Y023797D01*
X015256Y023846D01*
X015617Y023485D01*
X015568Y023436D01*
G37*
G36*
X015457Y023324D02*
X015096Y023685D01*
X015145Y023734D01*
X015506Y023373D01*
X015457Y023324D01*
G37*
G36*
X015345Y023213D02*
X014984Y023574D01*
X015033Y023623D01*
X015394Y023262D01*
X015345Y023213D01*
G37*
G36*
X015234Y023102D02*
X014873Y023463D01*
X014922Y023512D01*
X015283Y023151D01*
X015234Y023102D01*
G37*
G36*
X015123Y022990D02*
X014762Y023351D01*
X014811Y023400D01*
X015172Y023039D01*
X015123Y022990D01*
G37*
G36*
X015011Y022879D02*
X014650Y023240D01*
X014699Y023289D01*
X015060Y022928D01*
X015011Y022879D01*
G37*
G36*
X014900Y022768D02*
X014539Y023129D01*
X014588Y023178D01*
X014949Y022817D01*
X014900Y022768D01*
G37*
G36*
X014949Y022321D02*
X014588Y021960D01*
X014539Y022009D01*
X014900Y022370D01*
X014949Y022321D01*
G37*
G36*
X015060Y022210D02*
X014699Y021849D01*
X014650Y021898D01*
X015011Y022259D01*
X015060Y022210D01*
G37*
G36*
X015172Y022099D02*
X014811Y021738D01*
X014762Y021787D01*
X015123Y022148D01*
X015172Y022099D01*
G37*
G36*
X015283Y021987D02*
X014922Y021626D01*
X014873Y021675D01*
X015234Y022036D01*
X015283Y021987D01*
G37*
G36*
X015394Y021876D02*
X015033Y021515D01*
X014984Y021564D01*
X015345Y021925D01*
X015394Y021876D01*
G37*
G36*
X015506Y021764D02*
X015145Y021403D01*
X015096Y021452D01*
X015457Y021813D01*
X015506Y021764D01*
G37*
G36*
X015617Y021653D02*
X015256Y021292D01*
X015207Y021341D01*
X015568Y021702D01*
X015617Y021653D01*
G37*
G36*
X015728Y021542D02*
X015367Y021181D01*
X015318Y021230D01*
X015679Y021591D01*
X015728Y021542D01*
G37*
G36*
X015840Y021430D02*
X015479Y021069D01*
X015430Y021118D01*
X015791Y021479D01*
X015840Y021430D01*
G37*
G36*
X015951Y021319D02*
X015590Y020958D01*
X015541Y021007D01*
X015902Y021368D01*
X015951Y021319D01*
G37*
G36*
X016062Y021208D02*
X015701Y020847D01*
X015652Y020896D01*
X016013Y021257D01*
X016062Y021208D01*
G37*
G36*
X016174Y021096D02*
X015813Y020735D01*
X015764Y020784D01*
X016125Y021145D01*
X016174Y021096D01*
G37*
G36*
X016285Y020985D02*
X015924Y020624D01*
X015875Y020673D01*
X016236Y021034D01*
X016285Y020985D01*
G37*
G36*
X016396Y020874D02*
X016035Y020513D01*
X015986Y020562D01*
X016347Y020923D01*
X016396Y020874D01*
G37*
G36*
X016508Y020762D02*
X016147Y020401D01*
X016098Y020450D01*
X016459Y020811D01*
X016508Y020762D01*
G37*
G36*
X016619Y020651D02*
X016258Y020290D01*
X016209Y020339D01*
X016570Y020700D01*
X016619Y020651D01*
G37*
G36*
X016730Y020540D02*
X016369Y020179D01*
X016320Y020228D01*
X016681Y020589D01*
X016730Y020540D01*
G37*
G36*
X016842Y020428D02*
X016481Y020067D01*
X016432Y020116D01*
X016793Y020477D01*
X016842Y020428D01*
G37*
G36*
X016953Y020317D02*
X016592Y019956D01*
X016543Y020005D01*
X016904Y020366D01*
X016953Y020317D01*
G37*
G36*
X017065Y020205D02*
X016704Y019844D01*
X016655Y019893D01*
X017016Y020254D01*
X017065Y020205D01*
G37*
G36*
X017176Y020094D02*
X016815Y019733D01*
X016766Y019782D01*
X017127Y020143D01*
X017176Y020094D01*
G37*
D42*
X009099Y020269D03*
X008099Y020269D03*
X008099Y021269D03*
X009099Y021269D03*
X009099Y022269D03*
X008099Y022269D03*
X008099Y023269D03*
X008099Y024269D03*
X009099Y024269D03*
X009099Y023269D03*
X009099Y019269D03*
X008099Y019269D03*
X008099Y018269D03*
X008099Y017269D03*
X009099Y017269D03*
X009099Y018269D03*
X009099Y016269D03*
X008099Y016269D03*
X008099Y015269D03*
X009099Y015269D03*
D43*
X008749Y010894D03*
D44*
X008069Y010894D03*
X008069Y010144D03*
X008829Y010144D03*
D45*
X016723Y028394D03*
X017826Y028394D03*
D46*
X010867Y022225D03*
X010867Y021969D03*
X010867Y021713D03*
X009982Y021713D03*
X009982Y022225D03*
D47*
X018924Y028487D03*
X018924Y030101D03*
X020924Y030101D03*
X020924Y028487D03*
X022324Y028101D03*
X024324Y028101D03*
X024324Y026487D03*
X022324Y026487D03*
D48*
X005187Y012398D03*
X005187Y008540D03*
D49*
X006860Y008540D03*
X006860Y012398D03*
D50*
X006850Y011099D03*
X006850Y010784D03*
X006850Y010469D03*
X006850Y010154D03*
X006850Y009839D03*
D51*
G36*
X028658Y025378D02*
X028580Y025456D01*
X029046Y025922D01*
X029124Y025844D01*
X028658Y025378D01*
G37*
G36*
X028797Y025239D02*
X028719Y025317D01*
X029185Y025783D01*
X029263Y025705D01*
X028797Y025239D01*
G37*
G36*
X028936Y025100D02*
X028858Y025178D01*
X029324Y025644D01*
X029402Y025566D01*
X028936Y025100D01*
G37*
G36*
X029076Y024961D02*
X028998Y025039D01*
X029464Y025505D01*
X029542Y025427D01*
X029076Y024961D01*
G37*
G36*
X030301Y025039D02*
X030223Y024961D01*
X029757Y025427D01*
X029835Y025505D01*
X030301Y025039D01*
G37*
G36*
X030441Y025178D02*
X030363Y025100D01*
X029897Y025566D01*
X029975Y025644D01*
X030441Y025178D01*
G37*
G36*
X030580Y025317D02*
X030502Y025239D01*
X030036Y025705D01*
X030114Y025783D01*
X030580Y025317D01*
G37*
G36*
X030719Y025456D02*
X030641Y025378D01*
X030175Y025844D01*
X030253Y025922D01*
X030719Y025456D01*
G37*
G36*
X030858Y025596D02*
X030780Y025518D01*
X030314Y025984D01*
X030392Y026062D01*
X030858Y025596D01*
G37*
G36*
X030997Y025735D02*
X030919Y025657D01*
X030453Y026123D01*
X030531Y026201D01*
X030997Y025735D01*
G37*
G36*
X031137Y025874D02*
X031059Y025796D01*
X030593Y026262D01*
X030671Y026340D01*
X031137Y025874D01*
G37*
G36*
X031276Y026013D02*
X031198Y025935D01*
X030732Y026401D01*
X030810Y026479D01*
X031276Y026013D01*
G37*
G36*
X031415Y026152D02*
X031337Y026074D01*
X030871Y026540D01*
X030949Y026618D01*
X031415Y026152D01*
G37*
G36*
X031554Y026292D02*
X031476Y026214D01*
X031010Y026680D01*
X031088Y026758D01*
X031554Y026292D01*
G37*
G36*
X031693Y026431D02*
X031615Y026353D01*
X031149Y026819D01*
X031227Y026897D01*
X031693Y026431D01*
G37*
G36*
X031833Y026570D02*
X031755Y026492D01*
X031289Y026958D01*
X031367Y027036D01*
X031833Y026570D01*
G37*
G36*
X031367Y027252D02*
X031289Y027330D01*
X031755Y027796D01*
X031833Y027718D01*
X031367Y027252D01*
G37*
G36*
X031227Y027391D02*
X031149Y027469D01*
X031615Y027935D01*
X031693Y027857D01*
X031227Y027391D01*
G37*
G36*
X031088Y027530D02*
X031010Y027608D01*
X031476Y028074D01*
X031554Y027996D01*
X031088Y027530D01*
G37*
G36*
X030949Y027669D02*
X030871Y027747D01*
X031337Y028213D01*
X031415Y028135D01*
X030949Y027669D01*
G37*
G36*
X030810Y027809D02*
X030732Y027887D01*
X031198Y028353D01*
X031276Y028275D01*
X030810Y027809D01*
G37*
G36*
X030671Y027948D02*
X030593Y028026D01*
X031059Y028492D01*
X031137Y028414D01*
X030671Y027948D01*
G37*
G36*
X030531Y028087D02*
X030453Y028165D01*
X030919Y028631D01*
X030997Y028553D01*
X030531Y028087D01*
G37*
G36*
X030392Y028226D02*
X030314Y028304D01*
X030780Y028770D01*
X030858Y028692D01*
X030392Y028226D01*
G37*
G36*
X030253Y028365D02*
X030175Y028443D01*
X030641Y028909D01*
X030719Y028831D01*
X030253Y028365D01*
G37*
G36*
X030114Y028505D02*
X030036Y028583D01*
X030502Y029049D01*
X030580Y028971D01*
X030114Y028505D01*
G37*
G36*
X029975Y028644D02*
X029897Y028722D01*
X030363Y029188D01*
X030441Y029110D01*
X029975Y028644D01*
G37*
G36*
X029835Y028783D02*
X029757Y028861D01*
X030223Y029327D01*
X030301Y029249D01*
X029835Y028783D01*
G37*
G36*
X029542Y028861D02*
X029464Y028783D01*
X028998Y029249D01*
X029076Y029327D01*
X029542Y028861D01*
G37*
G36*
X029402Y028722D02*
X029324Y028644D01*
X028858Y029110D01*
X028936Y029188D01*
X029402Y028722D01*
G37*
G36*
X029263Y028583D02*
X029185Y028505D01*
X028719Y028971D01*
X028797Y029049D01*
X029263Y028583D01*
G37*
G36*
X029124Y028443D02*
X029046Y028365D01*
X028580Y028831D01*
X028658Y028909D01*
X029124Y028443D01*
G37*
G36*
X028985Y028304D02*
X028907Y028226D01*
X028441Y028692D01*
X028519Y028770D01*
X028985Y028304D01*
G37*
G36*
X028846Y028165D02*
X028768Y028087D01*
X028302Y028553D01*
X028380Y028631D01*
X028846Y028165D01*
G37*
G36*
X028706Y028026D02*
X028628Y027948D01*
X028162Y028414D01*
X028240Y028492D01*
X028706Y028026D01*
G37*
G36*
X028567Y027887D02*
X028489Y027809D01*
X028023Y028275D01*
X028101Y028353D01*
X028567Y027887D01*
G37*
G36*
X028428Y027747D02*
X028350Y027669D01*
X027884Y028135D01*
X027962Y028213D01*
X028428Y027747D01*
G37*
G36*
X028289Y027608D02*
X028211Y027530D01*
X027745Y027996D01*
X027823Y028074D01*
X028289Y027608D01*
G37*
G36*
X028150Y027469D02*
X028072Y027391D01*
X027606Y027857D01*
X027684Y027935D01*
X028150Y027469D01*
G37*
G36*
X028010Y027330D02*
X027932Y027252D01*
X027466Y027718D01*
X027544Y027796D01*
X028010Y027330D01*
G37*
G36*
X027544Y026492D02*
X027466Y026570D01*
X027932Y027036D01*
X028010Y026958D01*
X027544Y026492D01*
G37*
G36*
X027684Y026353D02*
X027606Y026431D01*
X028072Y026897D01*
X028150Y026819D01*
X027684Y026353D01*
G37*
G36*
X027823Y026214D02*
X027745Y026292D01*
X028211Y026758D01*
X028289Y026680D01*
X027823Y026214D01*
G37*
G36*
X027962Y026074D02*
X027884Y026152D01*
X028350Y026618D01*
X028428Y026540D01*
X027962Y026074D01*
G37*
G36*
X028101Y025935D02*
X028023Y026013D01*
X028489Y026479D01*
X028567Y026401D01*
X028101Y025935D01*
G37*
G36*
X028240Y025796D02*
X028162Y025874D01*
X028628Y026340D01*
X028706Y026262D01*
X028240Y025796D01*
G37*
G36*
X028380Y025657D02*
X028302Y025735D01*
X028768Y026201D01*
X028846Y026123D01*
X028380Y025657D01*
G37*
G36*
X028519Y025518D02*
X028441Y025596D01*
X028907Y026062D01*
X028985Y025984D01*
X028519Y025518D01*
G37*
D52*
G36*
X029649Y028256D02*
X030761Y027144D01*
X029649Y026032D01*
X028537Y027144D01*
X029649Y028256D01*
G37*
D53*
X032579Y034474D03*
X032579Y034724D03*
X032579Y034984D03*
X032579Y035234D03*
X034299Y035234D03*
X034299Y034984D03*
X034299Y034724D03*
X034299Y034474D03*
D54*
X033439Y034854D03*
D55*
X036949Y029969D03*
X037949Y029469D03*
X037949Y028469D03*
X036949Y028969D03*
X036949Y027969D03*
X036949Y026969D03*
X037949Y027469D03*
X041780Y026729D03*
X042449Y025729D03*
X042449Y029709D03*
X041780Y030709D03*
D56*
X037949Y026469D03*
D57*
X039249Y025168D03*
X039249Y031270D03*
D58*
X038945Y018169D03*
X037804Y018169D03*
X013295Y029794D03*
X012154Y029794D03*
D59*
X035281Y021969D03*
D60*
X039218Y021969D03*
D61*
X039774Y012741D03*
X040274Y012741D03*
X040774Y012741D03*
X041274Y012741D03*
X041274Y010497D03*
X040774Y010497D03*
X040274Y010497D03*
X039774Y010497D03*
X038124Y009547D03*
X037624Y009547D03*
X037124Y009547D03*
X036624Y009547D03*
X036624Y011791D03*
X037124Y011791D03*
X037624Y011791D03*
X038124Y011791D03*
D62*
X038474Y008451D03*
X036949Y008451D03*
X036949Y006837D03*
X038474Y006837D03*
D63*
X039799Y008548D03*
X041099Y008548D03*
X041099Y009690D03*
X039799Y009690D03*
D64*
X034126Y019686D03*
X033023Y019686D03*
X033023Y021852D03*
X034126Y021852D03*
D65*
X008474Y007829D03*
X008474Y006709D03*
D66*
X009769Y019247D03*
X009769Y019444D03*
X009769Y019641D03*
X010280Y019641D03*
X010280Y019444D03*
X010280Y019247D03*
X010319Y023497D03*
X010319Y023694D03*
X010319Y023891D03*
X010830Y023891D03*
X010830Y023694D03*
X010830Y023497D03*
D67*
X028018Y033337D03*
X030931Y033337D03*
X030931Y036251D03*
X028018Y036251D03*
D68*
X028974Y035089D02*
X028974Y034499D01*
X029974Y034499D02*
X029974Y035089D01*
D69*
X034814Y019314D03*
X034814Y019054D03*
X034814Y018804D03*
X034814Y018544D03*
X034814Y018284D03*
X034814Y018034D03*
X034814Y017774D03*
X037034Y017774D03*
X037034Y018034D03*
X037034Y018284D03*
X037034Y018544D03*
X037034Y018804D03*
X037034Y019054D03*
X037034Y019314D03*
D70*
X011154Y029074D03*
X011154Y029814D03*
X010294Y029444D03*
D71*
X005677Y005047D03*
X042292Y005047D03*
X042292Y035756D03*
X005677Y035756D03*
D72*
X007399Y035344D03*
X007399Y035094D03*
X007974Y033919D03*
X007974Y033644D03*
X007974Y033394D03*
X008524Y033394D03*
X008524Y033669D03*
X008524Y033919D03*
X009674Y034544D03*
X010849Y033744D03*
X010849Y033469D03*
X011824Y032594D03*
X012949Y033369D03*
X012949Y033644D03*
X012949Y033919D03*
X013499Y033919D03*
X013499Y033644D03*
X013499Y033369D03*
X014724Y034544D03*
X015799Y033744D03*
X015799Y033469D03*
X016874Y032594D03*
X018099Y033369D03*
X018099Y033644D03*
X018099Y033919D03*
X018649Y033919D03*
X018649Y033644D03*
X018649Y033369D03*
X019874Y034544D03*
X020924Y033744D03*
X020924Y033469D03*
X022024Y032594D03*
X022824Y033744D03*
X022024Y034544D03*
X022024Y036519D03*
X020374Y036519D03*
X016874Y036544D03*
X015224Y036544D03*
X016874Y034544D03*
X011824Y034544D03*
X011824Y036544D03*
X010249Y036544D03*
X016024Y029844D03*
X013524Y028569D03*
X012949Y028219D03*
X013699Y027494D03*
X015574Y026329D03*
X014799Y025044D03*
X014024Y024369D03*
X013399Y023669D03*
X013349Y022319D03*
X013874Y020919D03*
X013899Y019119D03*
X013874Y018219D03*
X015424Y018794D03*
X016099Y018494D03*
X016824Y017869D03*
X015849Y017044D03*
X017149Y016244D03*
X019099Y016219D03*
X019199Y017219D03*
X020399Y017119D03*
X021799Y018894D03*
X021749Y019819D03*
X022424Y019944D03*
X023249Y020919D03*
X024124Y021694D03*
X023824Y022869D03*
X023849Y024719D03*
X022174Y025794D03*
X021574Y026644D03*
X023824Y026469D03*
X026099Y026769D03*
X026374Y028744D03*
X028899Y027144D03*
X029649Y027144D03*
X029649Y026394D03*
X027749Y024919D03*
X032249Y025869D03*
X035674Y028344D03*
X035674Y029969D03*
X032399Y029769D03*
X031049Y030769D03*
X030379Y030779D03*
X029599Y031444D03*
X028824Y030794D03*
X033199Y032469D03*
X035899Y033584D03*
X033599Y034634D03*
X033274Y034634D03*
X033274Y035059D03*
X033599Y035059D03*
X031374Y034459D03*
X026099Y036369D03*
X023024Y031419D03*
X021899Y029144D03*
X022749Y028869D03*
X018874Y029544D03*
X010549Y022269D03*
X010799Y020769D03*
X010299Y019819D03*
X014449Y016494D03*
X011749Y016144D03*
X009349Y012869D03*
X009049Y011019D03*
X009149Y009469D03*
X008224Y009194D03*
X010474Y008344D03*
X012499Y008894D03*
X012674Y008119D03*
X014149Y009044D03*
X016074Y008919D03*
X017099Y009019D03*
X016574Y010469D03*
X016574Y011869D03*
X018149Y011919D03*
X020074Y010969D03*
X020674Y011869D03*
X022449Y011444D03*
X024024Y013169D03*
X025099Y012369D03*
X026349Y013219D03*
X027724Y012794D03*
X028574Y013869D03*
X031524Y014419D03*
X031749Y015769D03*
X034799Y017569D03*
X038349Y019669D03*
X041449Y019669D03*
X041449Y018394D03*
X041874Y015744D03*
X042299Y015744D03*
X041274Y013269D03*
X040274Y013269D03*
X042874Y012019D03*
X042249Y009219D03*
X038124Y011044D03*
X037374Y010919D03*
X031374Y010219D03*
X030749Y010119D03*
X031249Y009094D03*
X031249Y008069D03*
X031249Y007094D03*
X028824Y007919D03*
X028724Y009494D03*
X025924Y009694D03*
X025724Y010394D03*
X023399Y009119D03*
X022274Y009119D03*
X023149Y007369D03*
X024099Y006819D03*
X025899Y006669D03*
X025899Y007419D03*
X018324Y007194D03*
X018299Y005394D03*
X016924Y005394D03*
X015249Y005394D03*
X013774Y005404D03*
X013174Y005404D03*
X015374Y007194D03*
X011599Y010794D03*
X011599Y011544D03*
X012449Y011819D03*
X007699Y006969D03*
X007424Y006969D03*
X008124Y005569D03*
X008124Y005294D03*
X009599Y006319D03*
X009874Y006319D03*
X010149Y006319D03*
X022899Y014244D03*
X023874Y016519D03*
X023849Y017169D03*
X026249Y017469D03*
X026649Y016844D03*
X028374Y017719D03*
X040624Y033459D03*
X039799Y034859D03*
X038474Y033984D03*
X037849Y035259D03*
D73*
X037859Y035269D01*
X038250Y035269D01*
X037849Y035259D02*
X037839Y035269D01*
X037448Y035269D01*
X036700Y035269D02*
X035898Y035269D01*
X035150Y035269D02*
X034865Y034984D01*
X034299Y034984D01*
X034299Y035234D02*
X034289Y035244D01*
X034074Y035244D01*
X034099Y035269D01*
X034099Y035719D01*
X033864Y035954D01*
X033813Y035954D01*
X033065Y035954D02*
X032909Y035954D01*
X032579Y035624D01*
X032579Y035234D01*
X032409Y035234D01*
X032399Y035244D01*
X032424Y034469D02*
X032574Y034469D01*
X032579Y034474D01*
X032574Y034469D02*
X032724Y034469D01*
X032724Y034044D01*
X033029Y033739D01*
X033080Y033739D01*
X033828Y033739D02*
X034244Y033739D01*
X034249Y033744D01*
X034674Y033519D02*
X034674Y034099D01*
X034299Y034474D01*
X034299Y034724D02*
X034744Y034724D01*
X035150Y034318D01*
X035150Y033969D01*
X034674Y033519D02*
X034999Y033194D01*
X035149Y033194D01*
X035150Y033194D01*
X033209Y032459D02*
X033209Y032108D01*
X032434Y032108D01*
X033199Y032469D02*
X033209Y032459D01*
X033209Y031360D02*
X033209Y031129D01*
X032899Y030819D01*
X032434Y030829D02*
X032424Y030819D01*
X032434Y030829D02*
X032434Y031360D01*
X031624Y031804D02*
X031624Y032179D01*
X031049Y030769D02*
X031049Y030454D01*
X031724Y030454D01*
X031374Y030119D02*
X031049Y029794D01*
X031049Y029784D01*
X031049Y029769D01*
X030924Y029269D02*
X030924Y029115D01*
X030447Y028637D01*
X030586Y028498D02*
X031207Y029119D01*
X031274Y029119D01*
X031324Y028674D02*
X031324Y028669D01*
X031314Y028669D01*
X030865Y028220D01*
X030870Y028220D01*
X031004Y028081D02*
X030649Y027726D01*
X030649Y027694D01*
X030649Y027169D02*
X031282Y027802D01*
X031421Y027663D02*
X031799Y028041D01*
X031799Y028044D01*
X031824Y028069D01*
X031824Y028569D01*
X031774Y028619D01*
X031524Y028319D02*
X031520Y028319D01*
X031143Y027941D01*
X031561Y027524D02*
X032049Y028013D01*
X032049Y028319D01*
X032550Y028319D01*
X032049Y028319D02*
X032049Y029069D01*
X032400Y029193D02*
X032550Y029094D01*
X033298Y029094D02*
X033298Y029708D01*
X033409Y029819D01*
X032749Y029819D02*
X032740Y029809D01*
X032740Y029819D01*
X032740Y029809D02*
X032699Y029769D01*
X032399Y029769D01*
X032174Y030119D02*
X032449Y030394D01*
X031724Y029784D02*
X031615Y029784D01*
X031599Y029769D01*
X030449Y029709D02*
X030374Y029784D01*
X030359Y029769D01*
X029748Y029769D01*
X029599Y029918D01*
X030374Y030454D02*
X030374Y030774D01*
X030379Y030779D01*
X029599Y031020D02*
X029599Y031444D01*
X028199Y031169D02*
X027348Y031169D01*
X027258Y031079D01*
X025735Y033065D02*
X025735Y036372D01*
X025739Y036369D01*
X026099Y036369D01*
X025735Y036372D02*
X024849Y036372D01*
X023964Y036372D02*
X023964Y033065D01*
X023296Y033065D01*
X022749Y032519D01*
X022750Y032518D01*
X022750Y032094D01*
X022650Y031844D01*
X022650Y031034D01*
X023024Y031034D02*
X023024Y031419D01*
X023498Y031893D01*
X023498Y032094D01*
X022750Y032094D02*
X022750Y032252D01*
X023398Y031034D02*
X024269Y031034D01*
X024274Y031043D01*
X024274Y030295D02*
X024030Y030154D01*
X023398Y030154D01*
X023024Y030154D02*
X023024Y029694D01*
X022650Y030154D02*
X022561Y030243D01*
X021899Y030243D01*
X021899Y029495D02*
X021899Y029144D01*
X022740Y029169D02*
X022749Y029159D01*
X022749Y028869D01*
X024324Y028101D02*
X025093Y028101D01*
X025290Y028094D01*
X025959Y028094D02*
X027725Y028094D01*
X028017Y027802D01*
X027880Y027663D02*
X028224Y027319D01*
X028724Y027319D01*
X028899Y027144D01*
X028874Y027119D01*
X028149Y027119D01*
X027745Y027524D01*
X027738Y027524D01*
X027878Y027663D02*
X027880Y027663D01*
X028849Y027094D02*
X028899Y027144D01*
X029649Y027894D02*
X029789Y027894D01*
X030024Y027658D01*
X030024Y027594D01*
X030024Y027658D02*
X030725Y028359D01*
X030649Y027169D02*
X030624Y027169D01*
X030599Y027144D01*
X030399Y027144D01*
X029674Y026394D02*
X029649Y026394D01*
X029649Y025919D01*
X029130Y025375D01*
X029130Y025372D01*
X029270Y025233D02*
X028941Y024904D01*
X028424Y024904D01*
X028424Y024829D01*
X028424Y024634D01*
X027755Y024634D02*
X027749Y024639D01*
X027749Y024919D01*
X032249Y025869D02*
X032590Y025869D01*
X033259Y025869D02*
X033259Y026483D01*
X033148Y026594D01*
X033148Y027369D01*
X032400Y027369D02*
X032199Y027369D01*
X032099Y027269D01*
X032124Y026569D02*
X032375Y026569D01*
X032400Y026594D01*
X033298Y028319D02*
X033298Y029094D01*
X035684Y029644D02*
X035684Y029959D01*
X035674Y029969D01*
X034750Y031294D02*
X034374Y031169D01*
X038474Y033984D02*
X038805Y033984D01*
X038815Y033994D01*
X039484Y033994D02*
X039552Y034062D01*
X039532Y034062D01*
X039474Y034119D01*
X039474Y034279D01*
X039552Y034062D02*
X040044Y034062D01*
X040548Y034069D02*
X040555Y034062D01*
X040548Y034069D02*
X040548Y035269D01*
X040548Y036044D01*
X039800Y036044D02*
X038998Y036044D01*
X038998Y035269D01*
X039799Y035268D02*
X039799Y034859D01*
X039799Y035268D02*
X039800Y035269D01*
X038250Y036044D02*
X037448Y036044D01*
X036700Y036044D02*
X035898Y036044D01*
X035150Y036044D02*
X034949Y036044D01*
X034449Y035544D01*
X034449Y035244D01*
X034439Y035234D01*
X034299Y035234D01*
X040299Y033176D02*
X040299Y032644D01*
X041224Y031719D01*
X041224Y031319D01*
X040555Y033176D02*
X040555Y033403D01*
X040624Y033459D01*
X026789Y034878D02*
X026789Y035606D01*
X022824Y035606D02*
X022824Y034868D01*
X022824Y034120D02*
X022824Y033744D01*
X017999Y029094D02*
X017649Y029094D01*
X018790Y028352D02*
X018924Y028487D01*
X018790Y028352D02*
X018790Y027694D01*
X014889Y027535D02*
X014823Y027519D01*
X014889Y027535D02*
X014889Y028195D01*
X014889Y028569D02*
X014889Y028943D01*
X014890Y028944D02*
X014890Y029702D01*
X014823Y029769D01*
X014075Y029769D02*
X014009Y029703D01*
X014009Y029294D01*
X014009Y028943D01*
X014009Y028569D02*
X013524Y028569D01*
X012948Y028619D02*
X012948Y028220D01*
X012949Y028219D01*
X012874Y027734D02*
X013274Y027759D01*
X012874Y027734D02*
X012757Y027594D01*
X013699Y027494D02*
X014024Y027494D01*
X014074Y027444D01*
X014074Y027469D01*
X012200Y028619D02*
X012200Y029025D01*
X012249Y029074D01*
X012575Y029074D01*
X013295Y029794D01*
X012154Y029794D02*
X011874Y029794D01*
X011549Y030119D01*
X011154Y029074D02*
X012249Y029074D01*
X006649Y022819D02*
X005749Y022819D01*
X005749Y020719D01*
X006649Y020719D01*
X006649Y022819D01*
X011724Y021395D02*
X011724Y021019D01*
X013349Y021904D02*
X013349Y022319D01*
X013825Y019519D02*
X013899Y019119D01*
X013874Y018219D02*
X013724Y017868D01*
X015849Y017044D02*
X015853Y016644D01*
X015848Y016649D01*
X011740Y016469D02*
X011740Y016154D01*
X011749Y016144D01*
X009723Y012449D02*
X009673Y012319D01*
X010475Y012319D01*
X010475Y011544D02*
X009899Y011544D01*
X009874Y011569D01*
X009874Y011694D01*
X009899Y011544D02*
X009474Y011544D01*
X009449Y011544D01*
X010440Y011354D02*
X010449Y011344D01*
X010475Y011370D01*
X010475Y011544D01*
X010475Y010769D01*
X010475Y010943D01*
X010474Y010944D01*
X011223Y010769D02*
X011574Y010769D01*
X011599Y010794D01*
X011599Y011544D02*
X011223Y011544D01*
X011609Y007894D02*
X012049Y007894D01*
X012674Y007743D02*
X012674Y008119D01*
X012674Y006995D02*
X012824Y006845D01*
X012824Y006794D01*
X013376Y006242D01*
X013376Y005867D01*
X012983Y005867D02*
X012983Y006236D01*
X012674Y006544D01*
X011974Y006544D01*
X012049Y006169D02*
X012599Y006169D01*
X012786Y005982D01*
X012786Y005867D01*
X016099Y009569D02*
X016102Y009571D01*
X016344Y009571D01*
X019974Y007494D02*
X020074Y007594D01*
X020474Y007594D01*
X019974Y007494D02*
X019974Y006544D01*
X019676Y006245D01*
X019676Y005867D01*
X023924Y005544D02*
X024924Y005544D01*
X028824Y006007D02*
X029499Y005332D01*
X029663Y004669D02*
X029499Y004506D01*
X029663Y004669D02*
X029874Y004669D01*
X030861Y005332D02*
X031099Y005332D01*
X030861Y005332D02*
X029599Y006594D01*
X029599Y006795D01*
X028824Y006795D02*
X028824Y006007D01*
X030374Y006795D02*
X030798Y006795D01*
X032261Y005332D01*
X032699Y005332D01*
X033124Y005669D02*
X033124Y004931D01*
X032699Y004506D01*
X033624Y005044D02*
X034124Y004544D01*
X033624Y005044D02*
X033624Y006019D01*
X034299Y006694D01*
X034299Y007020D01*
X034299Y007768D02*
X034299Y009119D01*
X033414Y010004D01*
X033414Y010764D01*
X033154Y010764D02*
X033154Y010099D01*
X032799Y009744D01*
X032799Y005994D01*
X033124Y005669D01*
X032374Y006269D02*
X032574Y006469D01*
X032574Y009844D01*
X032904Y010174D01*
X032904Y010764D01*
X032644Y010764D02*
X032644Y010389D01*
X032324Y010069D01*
X033332Y009094D02*
X033357Y009119D01*
X033799Y009119D01*
X033774Y008394D02*
X033499Y008119D01*
X033332Y008119D01*
X033981Y007768D02*
X033332Y007119D01*
X033981Y007768D02*
X034299Y007768D01*
X035074Y007768D02*
X035074Y008394D01*
X034824Y008394D01*
X035074Y008394D02*
X035074Y008669D01*
X033674Y010069D01*
X033674Y010764D01*
X033924Y010764D02*
X033924Y010169D01*
X034974Y009119D01*
X035149Y009119D01*
X035849Y008419D01*
X035849Y007768D01*
X036424Y007769D02*
X036424Y006344D01*
X036599Y006169D01*
X036599Y005069D01*
X037124Y004544D01*
X037624Y005044D02*
X037624Y007094D01*
X037924Y007394D01*
X037924Y008469D01*
X037942Y008451D01*
X038474Y008451D01*
X037924Y008469D02*
X037924Y008869D01*
X037624Y009169D01*
X037624Y009547D01*
X037124Y009547D02*
X037124Y009269D01*
X037599Y008794D01*
X037599Y007487D01*
X036949Y006837D01*
X037124Y006662D01*
X037124Y005544D01*
X037624Y005044D02*
X038124Y004544D01*
X038124Y005544D02*
X038474Y005894D01*
X038474Y006837D01*
X039149Y007512D01*
X039149Y008794D01*
X038397Y009547D01*
X038124Y009547D01*
X036624Y009547D02*
X036624Y008776D01*
X036949Y008451D01*
X036949Y008294D01*
X036424Y007769D01*
X035849Y007020D02*
X035750Y007020D01*
X035649Y006919D01*
X035649Y005019D01*
X036124Y004544D01*
X035124Y004544D02*
X034599Y005069D01*
X034599Y006219D01*
X035074Y006694D01*
X035074Y007020D01*
X039124Y005544D02*
X039799Y006219D01*
X039799Y006970D01*
X039799Y007718D02*
X039799Y008548D01*
X040474Y008069D02*
X040474Y009794D01*
X040274Y009994D01*
X040274Y010497D01*
X039799Y010472D02*
X039774Y010497D01*
X039799Y010472D02*
X039799Y009690D01*
X040774Y010015D02*
X041099Y009690D01*
X040774Y010015D02*
X040774Y010497D01*
X041274Y010497D02*
X041274Y010344D01*
X041274Y010497D02*
X041849Y009922D01*
X041849Y008069D01*
X041099Y007743D02*
X041099Y008548D01*
X041099Y006995D02*
X041099Y006519D01*
X040124Y005544D01*
X035468Y010764D02*
X034434Y010764D01*
X034184Y010764D02*
X034184Y011303D01*
X035675Y012794D01*
X036423Y012794D02*
X037399Y012794D01*
X038124Y012069D01*
X038124Y011791D01*
X037624Y011791D02*
X037624Y011544D01*
X038124Y011044D01*
X037924Y011244D01*
X036824Y011244D01*
X036624Y011444D01*
X036624Y011791D01*
X037124Y011791D02*
X037124Y012169D01*
X036999Y012294D01*
X036074Y012294D01*
X035649Y011869D01*
X035649Y011693D01*
X035649Y010945D02*
X035468Y010764D01*
X039049Y011519D02*
X039049Y011895D01*
X039049Y012643D02*
X039148Y012741D01*
X039774Y012741D01*
X039774Y014119D01*
X039174Y014719D01*
X036024Y014719D01*
X034929Y013624D01*
X034434Y013624D01*
X034184Y013624D02*
X034184Y014079D01*
X034299Y014194D01*
X035149Y014194D01*
X035899Y014944D01*
X039699Y014944D01*
X040774Y013869D01*
X040774Y013619D01*
X041649Y013619D01*
X041999Y013269D01*
X041999Y012643D01*
X041274Y012741D02*
X041274Y013269D01*
X040774Y013619D02*
X040774Y012741D01*
X040274Y012741D02*
X040274Y013269D01*
X041574Y011894D02*
X041999Y011895D01*
X042024Y015295D02*
X041874Y015744D01*
X042299Y015744D02*
X042399Y015295D01*
X042099Y015345D01*
X039249Y020268D02*
X039249Y021937D01*
X039218Y021969D01*
X025574Y018094D02*
X025574Y017779D01*
X025565Y017769D01*
X025420Y017914D01*
X024939Y017914D01*
X024099Y019568D02*
X024099Y019769D01*
X024524Y019769D01*
X023199Y023144D02*
X022899Y023144D01*
X022349Y023694D01*
X030074Y010119D02*
X030090Y010104D01*
X030090Y009819D01*
X029997Y010042D02*
X030074Y010119D01*
X029997Y010042D02*
X029530Y010042D01*
X028824Y007919D02*
X028824Y007543D01*
X031113Y004519D02*
X031099Y004506D01*
X031113Y004519D02*
X031474Y004519D01*
D74*
X030374Y007543D02*
X029599Y007543D01*
X028824Y007543D01*
X031249Y009094D02*
X031699Y009094D01*
X021024Y006794D02*
X020624Y006794D01*
X020487Y006931D01*
X020480Y006925D01*
X020474Y006925D01*
X020487Y006931D02*
X020474Y006944D01*
X016099Y009569D02*
X016090Y009579D01*
X015774Y009579D01*
X017249Y010469D02*
X017234Y010769D01*
X017204Y010799D01*
X017204Y011453D01*
X016574Y011453D02*
X016574Y011869D01*
X018149Y011919D02*
X018149Y011453D01*
X018149Y011453D01*
X019094Y011453D02*
X019094Y010890D01*
X019290Y010769D01*
X019190Y010794D01*
X019024Y010794D01*
X020039Y011029D02*
X020039Y011453D01*
X020024Y011467D01*
X020039Y011029D02*
X020074Y010969D01*
X020674Y011433D02*
X020669Y011453D01*
X020674Y011433D02*
X020674Y011869D01*
X020669Y015785D02*
X020669Y016263D01*
X020674Y016219D01*
X020674Y016394D01*
X020749Y016419D01*
X020774Y016444D01*
X020815Y016444D01*
X020699Y016509D01*
X020749Y016419D02*
X020299Y016419D01*
X020039Y016158D01*
X020039Y015785D01*
X019094Y015785D02*
X019094Y016214D01*
X019099Y016219D01*
X019099Y016354D01*
X018984Y016469D01*
X018315Y016469D02*
X018149Y016303D01*
X018149Y016144D01*
X018149Y016144D01*
X018149Y015785D01*
X017204Y015785D02*
X017204Y016189D01*
X017149Y016244D01*
X017224Y016479D01*
X017234Y016469D01*
X016565Y016469D02*
X016565Y016154D01*
X016574Y016144D01*
X016574Y015785D01*
X014449Y016494D02*
X014449Y016834D01*
X014449Y017504D02*
X014474Y017529D01*
X014474Y017819D01*
X014535Y017589D02*
X014449Y017504D01*
X014535Y017589D02*
X015100Y017589D01*
X016099Y018494D02*
X016074Y018834D01*
X015424Y018794D02*
X015399Y019134D01*
X015524Y019944D02*
X016249Y019944D01*
X014190Y020919D02*
X013874Y020919D01*
X010799Y021054D02*
X010799Y020769D01*
X010799Y021054D02*
X010784Y021069D01*
X010249Y021019D02*
X010249Y020769D01*
X010249Y021019D02*
X010199Y021069D01*
X010115Y021069D01*
X009982Y021202D01*
X009982Y021713D01*
X013399Y023669D02*
X013424Y023694D01*
X013690Y023694D01*
X014024Y024369D02*
X014315Y024369D01*
X014984Y024369D02*
X015034Y024334D01*
X015049Y024334D01*
X015049Y024069D01*
X015015Y025019D02*
X014799Y025044D01*
X015674Y024994D02*
X015749Y025069D01*
X016149Y025069D01*
X015865Y026269D02*
X015574Y026329D01*
X016584Y026244D02*
X016659Y026319D01*
X016874Y026319D01*
X017999Y027794D02*
X017999Y029094D01*
X017999Y028469D01*
X017924Y028394D01*
X017826Y028394D01*
X016723Y028394D02*
X016723Y028970D01*
X016724Y029069D01*
X015699Y029159D02*
X015484Y028944D01*
X015324Y028944D01*
X014890Y028944D01*
X014889Y028943D01*
X015699Y029829D02*
X016024Y029844D01*
X018374Y032874D02*
X018374Y033369D01*
X018099Y033369D01*
X018099Y033919D02*
X018374Y033919D01*
X018374Y034464D01*
X018374Y035594D02*
X018374Y036024D01*
X016190Y035519D02*
X016024Y035354D01*
X016024Y035094D01*
X016274Y034044D02*
X016274Y033704D01*
X015799Y033469D02*
X015659Y033609D01*
X015548Y033609D01*
X015174Y033609D02*
X015174Y034069D01*
X015224Y034119D01*
X013224Y034269D02*
X013224Y033944D01*
X013199Y033919D01*
X012949Y033919D01*
X012949Y033369D02*
X013224Y033369D01*
X013224Y032874D01*
X011349Y033704D02*
X011349Y034044D01*
X010274Y034119D02*
X010249Y034094D01*
X010249Y033609D01*
X011099Y035094D02*
X011099Y035354D01*
X011265Y035519D01*
X011174Y030119D02*
X011174Y030099D01*
X011154Y030099D01*
X011154Y029814D01*
X020324Y033609D02*
X020324Y033994D01*
X020374Y034044D01*
X021424Y034044D02*
X021424Y033704D01*
X021524Y035094D02*
X021524Y035334D01*
X021340Y035519D01*
X028018Y036251D02*
X028574Y035694D01*
X029974Y035694D01*
X029974Y034794D01*
X029974Y035694D02*
X032149Y035694D01*
X032399Y035444D01*
X032399Y035244D01*
X032579Y034984D02*
X031973Y034984D01*
X031774Y035183D01*
X031753Y035204D01*
X031399Y035204D01*
X031374Y034459D02*
X031750Y034459D01*
X031774Y034435D01*
X032063Y034724D01*
X032579Y034724D01*
X032424Y034469D02*
X032399Y034444D01*
X032399Y034169D01*
X032099Y033869D01*
X028949Y033869D01*
X028974Y033894D01*
X028974Y034794D01*
X028949Y033869D02*
X028549Y033869D01*
X028018Y033337D01*
X033439Y034854D02*
X033599Y035014D01*
X033599Y035059D01*
X023409Y029169D02*
X023399Y029159D01*
X023399Y028844D01*
X022324Y028101D02*
X021849Y028094D01*
X020874Y027944D02*
X020924Y028487D01*
X021274Y026654D02*
X021574Y026644D01*
X021274Y025984D02*
X021274Y025694D01*
X021274Y024894D01*
X022174Y024734D02*
X022174Y024319D01*
X022124Y024269D01*
X022649Y023794D02*
X022750Y023794D01*
X022950Y023969D01*
X023509Y024719D02*
X023849Y024719D01*
X022174Y025404D02*
X022174Y025794D01*
X023824Y026469D02*
X024324Y026487D01*
X023809Y021719D02*
X024124Y021694D01*
X023249Y020919D02*
X022984Y020919D01*
X022315Y020919D02*
X021924Y020919D01*
X021765Y020244D02*
X021249Y020244D01*
X021199Y020194D01*
X021036Y020194D01*
X021749Y019819D02*
X021734Y019569D01*
X022424Y019944D02*
X022434Y020244D01*
X020549Y018894D02*
X020374Y019069D01*
X020549Y018894D02*
X020715Y018894D01*
X021384Y018894D02*
X021799Y018894D01*
X019499Y017209D02*
X019199Y017219D01*
X020399Y017119D02*
X020699Y017179D01*
X016824Y017869D02*
X016749Y018209D01*
X012474Y016404D02*
X012409Y016469D01*
X012474Y016404D02*
X012474Y016144D01*
X012480Y016138D01*
X012480Y015785D01*
X008999Y013769D02*
X008999Y013413D01*
X008975Y013389D01*
X009349Y012869D02*
X009349Y012449D01*
X008975Y012449D02*
X008975Y012018D01*
X009074Y011919D01*
X009474Y011519D01*
X009474Y010129D01*
X009459Y010144D01*
X008829Y010144D01*
X008069Y010144D02*
X007899Y010144D01*
X007574Y010469D01*
X006850Y010469D01*
X006850Y010784D02*
X007959Y010784D01*
X007354Y011099D02*
X007924Y011669D01*
X008134Y011669D01*
X008149Y011734D01*
X008149Y012404D02*
X008149Y012644D01*
X006860Y012398D02*
X005187Y012398D01*
X005187Y008540D01*
X006860Y008540D01*
X006860Y008694D01*
X008090Y008694D01*
X007999Y009194D02*
X008224Y009194D01*
X008499Y009194D01*
X008759Y008934D01*
X008759Y008694D01*
X007999Y009194D02*
X007354Y009839D01*
X006850Y009839D01*
X007014Y008694D02*
X006860Y008540D01*
X007141Y008259D01*
X008474Y007829D02*
X008641Y007662D01*
X009294Y007662D01*
X009415Y009459D02*
X009149Y009469D01*
X009415Y009459D02*
X009474Y009459D01*
X008749Y010894D02*
X008724Y011019D01*
X009049Y011019D01*
X007354Y011099D02*
X006850Y011099D01*
X012480Y011453D02*
X012499Y011472D01*
X012449Y011819D01*
X029384Y017719D02*
X029969Y017719D01*
X029999Y017689D01*
X042099Y014243D02*
X042251Y014269D01*
X042924Y014269D01*
D75*
X042924Y014269D03*
X041574Y011894D03*
X039049Y011519D03*
X035149Y009119D03*
X034824Y008394D03*
X033774Y008394D03*
X033799Y009119D03*
X032324Y010069D03*
X030774Y010544D03*
X030524Y010844D03*
X030149Y010969D03*
X029924Y011269D03*
X029924Y012094D03*
X029274Y012694D03*
X029899Y012919D03*
X030199Y013169D03*
X030474Y012819D03*
X030749Y013069D03*
X031274Y012069D03*
X031274Y011419D03*
X032134Y011384D03*
X033149Y012869D03*
X033524Y013044D03*
X033924Y013094D03*
X032849Y014419D03*
X033249Y015194D03*
X035024Y015794D03*
X037024Y017569D03*
X036174Y018044D03*
X036474Y018344D03*
X035524Y020119D03*
X036074Y021344D03*
X032999Y020794D03*
X032324Y021094D03*
X031949Y020869D03*
X032099Y020469D03*
X032324Y020044D03*
X032299Y019494D03*
X033774Y018019D03*
X034289Y018284D03*
X031499Y017194D03*
X030999Y017194D03*
X031249Y016619D03*
X031624Y016669D03*
X030999Y016244D03*
X030499Y015244D03*
X029999Y015244D03*
X028899Y014894D03*
X029624Y013644D03*
X027674Y013619D03*
X027174Y012744D03*
X025349Y012019D03*
X025599Y011469D03*
X025124Y012744D03*
X025149Y013519D03*
X025949Y014369D03*
X026299Y014544D03*
X026274Y014919D03*
X026649Y015069D03*
X027174Y014994D03*
X027124Y015794D03*
X027599Y015794D03*
X025949Y015394D03*
X025124Y015894D03*
X024849Y016219D03*
X025649Y017044D03*
X025424Y017344D03*
X025574Y018094D03*
X024224Y018044D03*
X023224Y018994D03*
X022574Y019369D03*
X023474Y019794D03*
X023299Y020419D03*
X024474Y020694D03*
X024524Y019769D03*
X026099Y020544D03*
X026949Y020569D03*
X027199Y020844D03*
X027249Y021769D03*
X026824Y022369D03*
X026124Y022019D03*
X025349Y021819D03*
X024874Y021794D03*
X025249Y022594D03*
X025599Y022844D03*
X026124Y023194D03*
X026524Y022944D03*
X025424Y023719D03*
X025024Y023694D03*
X024574Y023669D03*
X024624Y024069D03*
X024174Y023919D03*
X024799Y022944D03*
X023024Y022869D03*
X022074Y022669D03*
X021674Y022669D03*
X021299Y021819D03*
X021099Y021494D03*
X020399Y021294D03*
X019874Y021944D03*
X020649Y022069D03*
X020374Y022594D03*
X020799Y023119D03*
X020774Y023519D03*
X020399Y023519D03*
X020774Y023894D03*
X020263Y023919D03*
X020174Y024494D03*
X019799Y024444D03*
X019424Y024419D03*
X019424Y024819D03*
X019124Y025044D03*
X019249Y025444D03*
X018893Y025869D03*
X018524Y025919D03*
X018499Y025494D03*
X017849Y025344D03*
X017599Y025069D03*
X017624Y024694D03*
X018349Y024569D03*
X018599Y023669D03*
X018074Y023144D03*
X018599Y022569D03*
X019149Y023144D03*
X019699Y022569D03*
X019949Y023144D03*
X021174Y023544D03*
X021749Y024419D03*
X022124Y024269D03*
X022649Y023794D03*
X022649Y025369D03*
X022899Y025669D03*
X023274Y025769D03*
X023674Y025719D03*
X024949Y025894D03*
X025249Y026169D03*
X026924Y025869D03*
X027099Y027069D03*
X027374Y028504D03*
X027974Y028594D03*
X027899Y028969D03*
X027749Y029319D03*
X027649Y030344D03*
X028199Y031169D03*
X026124Y030304D03*
X024874Y029319D03*
X024924Y028919D03*
X023399Y028844D03*
X023024Y029694D03*
X023874Y030919D03*
X021624Y032144D03*
X021224Y031819D03*
X021199Y031044D03*
X021424Y034044D03*
X020374Y034044D03*
X021174Y035094D03*
X021524Y035094D03*
X021524Y035944D03*
X021174Y035944D03*
X023174Y036429D03*
X026799Y033779D03*
X027174Y036419D03*
X031399Y035204D03*
X034249Y033744D03*
X034824Y034994D03*
X036624Y032669D03*
X034374Y031169D03*
X032899Y030819D03*
X032424Y030819D03*
X031624Y032179D03*
X030924Y029269D03*
X031274Y029119D03*
X031324Y028669D03*
X031524Y028319D03*
X031774Y028619D03*
X032049Y029069D03*
X030649Y027694D03*
X030399Y027144D03*
X029649Y027894D03*
X029249Y028244D03*
X028999Y027919D03*
X029524Y029494D03*
X032099Y027269D03*
X032124Y026569D03*
X031799Y025644D03*
X029024Y024519D03*
X028424Y024904D03*
X028849Y023119D03*
X031949Y021469D03*
X029399Y018044D03*
X025099Y014919D03*
X023849Y014919D03*
X022874Y015194D03*
X021849Y015169D03*
X021849Y014394D03*
X021824Y013719D03*
X022474Y013569D03*
X022899Y012869D03*
X023624Y012019D03*
X023949Y011619D03*
X023999Y012619D03*
X021524Y012894D03*
X020549Y012594D03*
X020374Y012244D03*
X020124Y011919D03*
X021299Y011119D03*
X021474Y010744D03*
X021824Y011119D03*
X020949Y010769D03*
X022324Y010244D03*
X022774Y010244D03*
X023699Y010244D03*
X024549Y009644D03*
X024199Y008794D03*
X024024Y008419D03*
X022924Y007769D03*
X022649Y007394D03*
X022274Y007494D03*
X021024Y006794D03*
X020399Y005344D03*
X019974Y005344D03*
X018949Y006469D03*
X018499Y006769D03*
X018874Y008569D03*
X018724Y009269D03*
X019024Y009644D03*
X019374Y009869D03*
X019699Y008969D03*
X020099Y008969D03*
X019024Y010794D03*
X018649Y010769D03*
X018449Y011094D03*
X017774Y010669D03*
X018049Y010419D03*
X017249Y010469D03*
X016049Y010419D03*
X016099Y009569D03*
X014924Y009019D03*
X014499Y008669D03*
X012499Y009569D03*
X012174Y009994D03*
X012399Y010319D03*
X012724Y010569D03*
X013374Y010719D03*
X014324Y011894D03*
X014699Y011869D03*
X015574Y011919D03*
X015949Y011944D03*
X016949Y011894D03*
X017424Y011919D03*
X018274Y012669D03*
X018699Y012669D03*
X019074Y012769D03*
X018649Y012119D03*
X017524Y013769D03*
X017874Y013919D03*
X018674Y014069D03*
X019249Y014469D03*
X019574Y014819D03*
X019074Y015294D03*
X018724Y015119D03*
X018474Y015444D03*
X017774Y015294D03*
X017524Y015019D03*
X016874Y015344D03*
X016249Y015094D03*
X015949Y015344D03*
X015674Y015094D03*
X015299Y015244D03*
X014674Y015394D03*
X014374Y015169D03*
X014049Y015444D03*
X013174Y015319D03*
X013449Y016244D03*
X013449Y016619D03*
X012474Y016144D03*
X014474Y017819D03*
X012874Y018619D03*
X011249Y019794D03*
X010874Y019744D03*
X009749Y019869D03*
X009824Y020369D03*
X010249Y020769D03*
X011724Y021019D03*
X012499Y021044D03*
X013099Y020419D03*
X014849Y021344D03*
X015124Y020869D03*
X016174Y021369D03*
X016799Y020994D03*
X017499Y020619D03*
X017874Y020619D03*
X018624Y020344D03*
X019249Y020494D03*
X019524Y020769D03*
X019549Y021144D03*
X019724Y020194D03*
X019074Y019669D03*
X018399Y019219D03*
X017824Y019769D03*
X017679Y020119D03*
X018199Y019819D03*
X016724Y019494D03*
X016774Y019119D03*
X016349Y019569D03*
X016249Y019944D03*
X017474Y018744D03*
X017574Y018369D03*
X017299Y018069D03*
X018274Y018394D03*
X018949Y018244D03*
X019429Y018199D03*
X019724Y018419D03*
X019974Y018144D03*
X020224Y017869D03*
X020224Y017494D03*
X020649Y017819D03*
X020649Y018194D03*
X020899Y018469D03*
X020374Y019069D03*
X020654Y019549D03*
X021199Y020194D03*
X021649Y020669D03*
X021924Y020919D03*
X022899Y021694D03*
X019174Y022044D03*
X018599Y021469D03*
X018074Y021994D03*
X017499Y022569D03*
X016924Y023034D03*
X015859Y022054D03*
X015499Y022199D03*
X013774Y022844D03*
X014749Y023669D03*
X015049Y024069D03*
X015574Y024494D03*
X016149Y025069D03*
X015874Y025444D03*
X016574Y025669D03*
X017049Y025969D03*
X016874Y026319D03*
X017424Y026344D03*
X020099Y026294D03*
X020443Y025894D03*
X021274Y025694D03*
X020924Y025194D03*
X020549Y026994D03*
X020224Y027594D03*
X020874Y027944D03*
X021849Y028094D03*
X023324Y027594D03*
X016874Y024269D03*
X013574Y024444D03*
X012349Y025044D03*
X012349Y025419D03*
X011974Y025169D03*
X011749Y024869D03*
X011049Y023969D03*
X010449Y024569D03*
X010199Y024269D03*
X010224Y023419D03*
X009724Y019069D03*
X007824Y014444D03*
X008999Y013769D03*
X009673Y013970D03*
X008149Y012644D03*
X009074Y011919D03*
X009874Y011694D03*
X007849Y010669D03*
X008449Y010144D03*
X009649Y008069D03*
X011524Y009469D03*
X012049Y007894D03*
X012824Y006794D03*
X012049Y006169D03*
X017374Y008669D03*
X017874Y009019D03*
X014999Y011069D03*
X014674Y012619D03*
X014924Y012894D03*
X015299Y012894D03*
X015574Y013219D03*
X015874Y013469D03*
X016199Y013044D03*
X016874Y013569D03*
X013824Y014344D03*
X013449Y014319D03*
X013124Y014519D03*
X011574Y012319D03*
X016574Y016144D03*
X016874Y017144D03*
X017149Y017544D03*
X018149Y017494D03*
X018149Y016144D03*
X020674Y016219D03*
X021649Y017444D03*
X021649Y017819D03*
X021974Y018244D03*
X022274Y017994D03*
X022699Y017669D03*
X022374Y016694D03*
X022374Y016144D03*
X023674Y015894D03*
X027999Y010619D03*
X028599Y010569D03*
X029499Y009444D03*
X030074Y010119D03*
X034299Y011919D03*
X040474Y008069D03*
X041849Y008069D03*
X032374Y006269D03*
X031474Y004519D03*
X029874Y004669D03*
X024024Y007444D03*
X038974Y018519D03*
X040499Y019469D03*
X041449Y019269D03*
X040899Y017919D03*
X041224Y031319D03*
X039474Y034279D03*
X016374Y035094D03*
X016024Y035094D03*
X016274Y034044D03*
X015224Y034119D03*
X016024Y035944D03*
X016374Y035944D03*
X011424Y035944D03*
X011099Y035944D03*
X011099Y035094D03*
X011424Y035094D03*
X011349Y034044D03*
X010274Y034119D03*
X008524Y035519D03*
X011024Y031894D03*
X011024Y031119D03*
X014124Y029344D03*
X015324Y028944D03*
X016099Y031044D03*
X016099Y031819D03*
D76*
X026099Y026769D02*
X026415Y026769D01*
X027084Y026769D02*
X027099Y026784D01*
X027099Y027069D01*
X027084Y026769D02*
X027733Y026769D01*
X027738Y026764D01*
X028288Y028081D02*
X028295Y028081D01*
X028852Y028637D02*
X028852Y028641D01*
X027824Y029669D01*
X027424Y029669D01*
X027274Y029519D01*
X028199Y029844D02*
X028199Y031169D01*
X028824Y030794D02*
X028834Y030784D01*
X028834Y030469D01*
X029599Y029918D02*
X029599Y029569D01*
X029524Y029494D01*
X029624Y028969D02*
X028834Y029759D01*
X028834Y029799D01*
X028199Y029844D02*
X029128Y028916D01*
X029130Y028916D01*
X028991Y028777D02*
X027464Y030304D01*
X027258Y030304D01*
X027609Y030304D01*
X027649Y030344D01*
X026510Y030304D02*
X026510Y029529D01*
X026695Y028819D02*
X026705Y028809D01*
X026695Y028819D02*
X026374Y028744D01*
X027374Y028809D02*
X027374Y028809D01*
X027374Y028504D01*
X028991Y028777D02*
X028991Y028777D01*
X029624Y028969D02*
X029943Y028969D01*
X030029Y029055D01*
X030169Y028916D02*
X030449Y029197D01*
X030449Y029709D01*
X030624Y029344D02*
X031049Y029769D01*
X031549Y029609D02*
X031724Y029784D01*
X031549Y029609D02*
X031549Y029019D01*
X031314Y028783D01*
X031314Y028669D01*
X031724Y028669D02*
X031774Y028619D01*
X031724Y028669D02*
X031724Y029219D01*
X031849Y029344D01*
X032300Y029344D01*
X032550Y029094D01*
X030624Y029093D02*
X030308Y028777D01*
X030624Y029093D02*
X030624Y029344D01*
X026510Y030304D02*
X026510Y031079D01*
X026510Y030304D02*
X026124Y030304D01*
X026799Y033779D02*
X026799Y034120D01*
X026789Y034130D01*
X026803Y036419D02*
X026789Y036432D01*
X026803Y036419D02*
X027174Y036419D01*
X035498Y031294D02*
X037949Y031294D01*
X039574Y029669D01*
X042399Y029669D01*
X042440Y029709D01*
X042449Y029709D01*
X041674Y026819D02*
X039324Y026819D01*
X037474Y024969D01*
X035498Y024969D01*
X041674Y026819D02*
X041765Y026729D01*
X041780Y026729D01*
X035899Y033194D02*
X035899Y033584D01*
X035899Y033969D01*
X035898Y033969D01*
X035898Y033194D02*
X035899Y033194D01*
X038349Y019669D02*
X038359Y019659D01*
X038359Y019344D01*
X037690Y019344D02*
X037690Y018919D01*
X039074Y018919D01*
X039249Y019094D01*
X039249Y019520D01*
X038974Y018519D02*
X038974Y018194D01*
X038949Y018169D01*
X038945Y018169D01*
X037804Y018169D02*
X037690Y018283D01*
X037690Y018919D01*
X037660Y019314D02*
X037690Y019344D01*
X037660Y019314D02*
X037034Y019314D01*
X031749Y015769D02*
X031519Y015769D01*
X031499Y015749D01*
X030499Y017689D02*
X029999Y017689D01*
X029384Y017719D02*
X029384Y018029D01*
X029399Y018044D01*
X028715Y017719D02*
X028374Y017719D01*
X026649Y016844D02*
X026649Y016339D01*
X028149Y016339D02*
X028903Y016339D01*
X028924Y016318D01*
X028924Y015570D02*
X028924Y014919D01*
X028899Y014894D01*
X026649Y015069D02*
X026649Y014399D01*
X024939Y017717D02*
X023859Y017717D01*
X024939Y017717D02*
X024939Y017914D01*
X016889Y015785D02*
X016874Y015770D01*
X016874Y015344D01*
X016260Y015785D02*
X016249Y015775D01*
X011574Y012319D02*
X011224Y012318D01*
X011223Y012319D01*
X009723Y012449D02*
X009674Y012448D01*
X007414Y010154D02*
X006850Y010154D01*
X007414Y010154D02*
X008074Y009494D01*
X008599Y009494D01*
X009024Y009069D01*
X009799Y009069D01*
X010224Y009494D01*
X010300Y009494D01*
X010325Y009469D01*
X011073Y009469D02*
X011524Y009469D01*
X013374Y010719D02*
X013725Y010719D01*
X014473Y010719D02*
X015099Y010719D01*
X015315Y010934D01*
X015315Y011453D01*
X015000Y011453D02*
X014999Y011452D01*
X014999Y011069D01*
X014374Y011457D02*
X014370Y011453D01*
X015945Y011453D02*
X015945Y011864D01*
X015949Y011944D01*
X016599Y009571D02*
X016600Y009571D01*
X015185Y007367D02*
X015185Y007194D01*
X015374Y007194D01*
X015345Y005867D02*
X015345Y005489D01*
X015249Y005394D01*
X015148Y005495D01*
X015148Y005867D01*
X013967Y005867D02*
X013967Y005596D01*
X013774Y005404D01*
X013573Y005605D01*
X013573Y005867D01*
X013770Y005867D02*
X013774Y005863D01*
X013774Y005404D01*
X013180Y005409D02*
X013180Y005867D01*
X013180Y005409D02*
X013174Y005404D01*
X011099Y007394D02*
X011599Y007894D01*
X011099Y007394D02*
X010074Y007394D01*
X009805Y007125D01*
X009805Y006776D01*
X016723Y005867D02*
X016723Y005595D01*
X016924Y005394D01*
X017117Y005586D01*
X017117Y005867D01*
X016920Y005867D02*
X016920Y005399D01*
X016924Y005394D01*
X018298Y005396D02*
X018299Y005394D01*
X018298Y005396D02*
X018298Y005867D01*
X018324Y007194D02*
X018135Y007194D01*
X018135Y007367D01*
X023399Y009119D02*
X023399Y009664D01*
X023389Y009674D01*
X013349Y021234D02*
X013349Y021269D01*
X012499Y022119D01*
X012499Y022143D01*
X011724Y022143D02*
X011724Y021969D01*
X010867Y021969D01*
X013774Y022844D02*
X014699Y022844D01*
X014774Y022919D01*
D77*
X013274Y027409D03*
X013274Y027759D03*
X011549Y030119D03*
X011174Y030119D03*
X010799Y030119D03*
X040424Y021744D03*
D78*
X017999Y027794D03*
X017649Y027794D03*
X016724Y027794D03*
X016724Y029069D03*
X017649Y029094D03*
X017999Y029094D03*
D79*
X018874Y029544D02*
X018874Y030051D01*
X018924Y030101D01*
X019499Y030769D02*
X017424Y030769D01*
X017299Y030894D01*
X017299Y031894D01*
X017499Y032094D01*
X018724Y032094D01*
X018924Y032294D01*
X018924Y034169D01*
X019024Y034269D01*
X019949Y034269D01*
X020049Y034169D01*
X020049Y033294D01*
X019949Y033194D01*
X019724Y033194D01*
X019624Y033094D01*
X019624Y030894D01*
X019499Y030769D01*
X019544Y030813D02*
X017380Y030813D01*
X017322Y030872D02*
X019602Y030872D01*
X019624Y030930D02*
X017299Y030930D01*
X017299Y030989D02*
X019624Y030989D01*
X019624Y031047D02*
X017299Y031047D01*
X017299Y031106D02*
X019624Y031106D01*
X019624Y031164D02*
X017299Y031164D01*
X017299Y031223D02*
X019624Y031223D01*
X019624Y031281D02*
X017299Y031281D01*
X017299Y031340D02*
X019624Y031340D01*
X019624Y031398D02*
X017299Y031398D01*
X017299Y031457D02*
X019624Y031457D01*
X019624Y031515D02*
X017299Y031515D01*
X017299Y031574D02*
X019624Y031574D01*
X019624Y031632D02*
X017299Y031632D01*
X017299Y031691D02*
X019624Y031691D01*
X019624Y031749D02*
X017299Y031749D01*
X017299Y031808D02*
X019624Y031808D01*
X019624Y031866D02*
X017299Y031866D01*
X017330Y031925D02*
X019624Y031925D01*
X019624Y031983D02*
X017389Y031983D01*
X017447Y032042D02*
X019624Y032042D01*
X019624Y032100D02*
X018731Y032100D01*
X018789Y032159D02*
X019624Y032159D01*
X019624Y032217D02*
X018848Y032217D01*
X018906Y032276D02*
X019624Y032276D01*
X019624Y032334D02*
X018924Y032334D01*
X018924Y032393D02*
X019624Y032393D01*
X019624Y032451D02*
X018924Y032451D01*
X018924Y032510D02*
X019624Y032510D01*
X019624Y032568D02*
X018924Y032568D01*
X018924Y032627D02*
X019624Y032627D01*
X019624Y032685D02*
X018924Y032685D01*
X018924Y032744D02*
X019624Y032744D01*
X019624Y032802D02*
X018924Y032802D01*
X018924Y032861D02*
X019624Y032861D01*
X019624Y032919D02*
X018924Y032919D01*
X018924Y032978D02*
X019624Y032978D01*
X019624Y033036D02*
X018924Y033036D01*
X018924Y033095D02*
X019625Y033095D01*
X019684Y033153D02*
X018924Y033153D01*
X018924Y033212D02*
X019967Y033212D01*
X020026Y033270D02*
X018924Y033270D01*
X018924Y033329D02*
X020049Y033329D01*
X020049Y033387D02*
X018924Y033387D01*
X018924Y033446D02*
X020049Y033446D01*
X020049Y033504D02*
X018924Y033504D01*
X018924Y033563D02*
X020049Y033563D01*
X020049Y033621D02*
X018924Y033621D01*
X018924Y033680D02*
X020049Y033680D01*
X020049Y033738D02*
X018924Y033738D01*
X018924Y033797D02*
X020049Y033797D01*
X020049Y033855D02*
X018924Y033855D01*
X018924Y033914D02*
X020049Y033914D01*
X020049Y033972D02*
X018924Y033972D01*
X018924Y034031D02*
X020049Y034031D01*
X020049Y034089D02*
X018924Y034089D01*
X018924Y034148D02*
X020049Y034148D01*
X020012Y034206D02*
X018962Y034206D01*
X019020Y034265D02*
X019954Y034265D01*
X019999Y034969D02*
X018654Y034969D01*
X018654Y035083D01*
X018578Y035159D01*
X018171Y035159D01*
X018094Y035083D01*
X018094Y034969D01*
X017399Y034969D01*
X017299Y035069D01*
X017299Y036369D01*
X017424Y036494D01*
X019974Y036494D01*
X020099Y036369D01*
X020099Y035069D01*
X019999Y034969D01*
X020056Y035025D02*
X018654Y035025D01*
X018654Y035084D02*
X020099Y035084D01*
X020099Y035142D02*
X018595Y035142D01*
X018154Y035142D02*
X017299Y035142D01*
X017299Y035084D02*
X018095Y035084D01*
X018094Y035025D02*
X017343Y035025D01*
X017299Y035201D02*
X020099Y035201D01*
X020099Y035259D02*
X017299Y035259D01*
X017299Y035318D02*
X020099Y035318D01*
X020099Y035376D02*
X017299Y035376D01*
X017299Y035435D02*
X020099Y035435D01*
X020099Y035493D02*
X017299Y035493D01*
X017299Y035552D02*
X020099Y035552D01*
X020099Y035610D02*
X017299Y035610D01*
X017299Y035669D02*
X020099Y035669D01*
X020099Y035727D02*
X017299Y035727D01*
X017299Y035786D02*
X020099Y035786D01*
X020099Y035844D02*
X017299Y035844D01*
X017299Y035903D02*
X020099Y035903D01*
X020099Y035961D02*
X017299Y035961D01*
X017299Y036020D02*
X020099Y036020D01*
X020099Y036078D02*
X017299Y036078D01*
X017299Y036137D02*
X020099Y036137D01*
X020099Y036195D02*
X017299Y036195D01*
X017299Y036254D02*
X020099Y036254D01*
X020099Y036312D02*
X017299Y036312D01*
X017301Y036371D02*
X020098Y036371D01*
X020039Y036429D02*
X017360Y036429D01*
X017418Y036488D02*
X019981Y036488D01*
X018749Y034019D02*
X017999Y034019D01*
X017974Y033269D01*
X018724Y033269D01*
X018749Y034019D01*
X018748Y033972D02*
X017998Y033972D01*
X017996Y033914D02*
X018746Y033914D01*
X018744Y033855D02*
X017994Y033855D01*
X017992Y033797D02*
X018742Y033797D01*
X018740Y033738D02*
X017990Y033738D01*
X017988Y033680D02*
X018738Y033680D01*
X018736Y033621D02*
X017986Y033621D01*
X017984Y033563D02*
X018734Y033563D01*
X018732Y033504D02*
X017982Y033504D01*
X017980Y033446D02*
X018730Y033446D01*
X018728Y033387D02*
X017978Y033387D01*
X017976Y033329D02*
X018726Y033329D01*
X018725Y033270D02*
X017975Y033270D01*
X019950Y032729D02*
X019950Y031993D01*
X020124Y031819D01*
X020125Y031819D02*
X020125Y031044D01*
X020873Y031044D02*
X021199Y031044D01*
X021224Y031819D02*
X020873Y031819D01*
X020449Y032269D02*
X020324Y032394D01*
X020324Y032729D01*
X020449Y032269D02*
X021499Y032269D01*
X021624Y032144D01*
X023874Y031044D02*
X023874Y030919D01*
X023874Y031044D02*
X024259Y031044D01*
X024274Y031043D01*
X025224Y030994D02*
X027049Y032819D01*
X033999Y032819D01*
X034549Y032269D01*
X036849Y032269D01*
X037224Y032644D01*
X040299Y032644D01*
X036624Y032669D02*
X035549Y032669D01*
X035149Y033069D01*
X035149Y033194D01*
X032174Y030119D02*
X031374Y030119D01*
X029249Y028244D02*
X029245Y028244D01*
X028852Y028637D01*
X028745Y028498D02*
X028999Y028244D01*
X028999Y027919D01*
X028574Y028359D02*
X027964Y028969D01*
X027899Y028969D01*
X027924Y029319D02*
X027749Y029319D01*
X027924Y029319D02*
X028713Y028531D01*
X028713Y028498D01*
X028745Y028498D01*
X028424Y028245D02*
X028074Y028594D01*
X027974Y028594D01*
X028024Y028344D02*
X027534Y028344D01*
X027374Y028504D01*
X028024Y028344D02*
X028288Y028081D01*
X028424Y028220D02*
X028424Y028245D01*
X028424Y028220D02*
X028434Y028220D01*
X027878Y026625D02*
X027855Y026625D01*
X027524Y026294D01*
X025374Y026294D01*
X025249Y026169D01*
X025349Y025894D02*
X024949Y025894D01*
X025349Y025894D02*
X025599Y026144D01*
X027674Y026144D01*
X028016Y026486D01*
X028017Y026486D01*
X028295Y026207D02*
X027857Y025769D01*
X026999Y025769D01*
X026949Y025819D01*
X026924Y025869D01*
X028274Y025619D02*
X023774Y025619D01*
X023674Y025719D01*
X023549Y025469D02*
X023274Y025744D01*
X023274Y025769D01*
X022899Y025669D02*
X023249Y025319D01*
X028524Y025319D01*
X028852Y025646D01*
X028852Y025650D01*
X028713Y025782D02*
X028399Y025469D01*
X023549Y025469D01*
X022849Y025169D02*
X022649Y025369D01*
X022849Y025169D02*
X028649Y025169D01*
X028991Y025511D01*
X028713Y025782D02*
X028713Y025790D01*
X028574Y025918D02*
X028274Y025619D01*
X028574Y025918D02*
X028574Y025929D01*
X029899Y025369D02*
X030029Y025239D01*
X030029Y025233D01*
X029315Y024519D01*
X029024Y024519D01*
X029749Y024269D02*
X024799Y024269D01*
X024749Y024319D01*
X024499Y024319D01*
X024174Y023994D01*
X024174Y023919D01*
X024574Y023669D02*
X024624Y023669D01*
X024924Y023969D01*
X029849Y023969D01*
X030749Y024869D01*
X030749Y025344D01*
X030447Y025646D01*
X030447Y025650D01*
X030586Y025782D02*
X030586Y025790D01*
X030899Y025476D01*
X030899Y024819D01*
X029899Y023819D01*
X025524Y023819D01*
X025424Y023719D01*
X025549Y023469D02*
X025274Y023469D01*
X025049Y023694D01*
X025024Y023694D01*
X024624Y024069D02*
X024674Y024119D01*
X029799Y024119D01*
X030599Y024919D01*
X030599Y025220D01*
X030308Y025511D01*
X030307Y025511D01*
X030169Y025372D02*
X030169Y025350D01*
X030194Y025350D01*
X030449Y025094D01*
X030449Y024969D01*
X029749Y024269D01*
X029974Y023669D02*
X025749Y023669D01*
X025549Y023469D01*
X025699Y023119D02*
X024974Y023119D01*
X024799Y022944D01*
X024899Y022619D02*
X025124Y022844D01*
X025599Y022844D01*
X025874Y022944D02*
X025699Y023119D01*
X025874Y022944D02*
X026524Y022944D01*
X026625Y022594D02*
X027185Y023154D01*
X027535Y023154D01*
X027524Y022669D02*
X029549Y022669D01*
X029724Y022844D01*
X030949Y022844D01*
X031049Y022744D01*
X031424Y022744D01*
X032524Y021644D01*
X032524Y021269D01*
X032999Y020794D01*
X032324Y021094D02*
X032324Y021519D01*
X031999Y021844D01*
X027324Y021844D01*
X027249Y021769D01*
X027549Y021694D02*
X027099Y021244D01*
X022040Y021244D01*
X021787Y021497D01*
X021676Y021386D02*
X021299Y021762D01*
X021299Y021819D01*
X021295Y021544D02*
X021149Y021544D01*
X021099Y021494D01*
X021295Y021544D02*
X021564Y021274D01*
X021453Y021163D02*
X021697Y020919D01*
X021924Y020919D01*
X021649Y020669D02*
X021574Y020669D01*
X021374Y020469D01*
X021256Y020469D01*
X021008Y020718D01*
X020785Y020495D02*
X020999Y020280D01*
X020999Y020194D01*
X021199Y020194D01*
X020999Y020194D02*
X020863Y020194D01*
X020673Y020384D01*
X020451Y020161D02*
X020674Y019937D01*
X020674Y019569D01*
X020374Y019124D02*
X019894Y019604D01*
X019671Y019381D02*
X019384Y019669D01*
X019074Y019669D01*
X018674Y019344D02*
X018524Y019494D01*
X018308Y019494D01*
X017862Y019047D01*
X017973Y018936D02*
X018256Y019219D01*
X018399Y019219D01*
X018674Y019344D02*
X018674Y017869D01*
X018999Y017544D01*
X020174Y017544D01*
X020224Y017494D01*
X020524Y017569D02*
X020224Y017869D01*
X019974Y018144D02*
X019974Y018855D01*
X019560Y019270D01*
X019449Y019159D02*
X019724Y018883D01*
X019724Y018419D01*
X019474Y018244D02*
X019429Y018199D01*
X019499Y018129D01*
X019499Y017879D01*
X019474Y018244D02*
X019474Y018687D01*
X019226Y018936D01*
X019337Y019047D02*
X018316Y020069D01*
X017724Y020069D01*
X017679Y020119D01*
X017799Y020369D02*
X017374Y020369D01*
X017224Y020519D01*
X017224Y021159D01*
X015934Y022449D01*
X015379Y022449D01*
X015249Y022319D01*
X015249Y022225D01*
X014967Y021943D01*
X015078Y021831D02*
X014849Y021603D01*
X014849Y021344D01*
X014949Y021244D01*
X015124Y021244D01*
X015324Y021044D01*
X015404Y021044D01*
X015635Y021274D01*
X015746Y021163D02*
X015452Y020869D01*
X015124Y020869D01*
X015199Y020869D01*
X015324Y020744D01*
X015772Y020744D01*
X015969Y020940D01*
X016080Y020829D02*
X015845Y020594D01*
X013674Y020594D01*
X013349Y020919D01*
X013349Y021234D01*
X013569Y020439D02*
X010079Y016949D01*
X010079Y015449D01*
X008499Y013869D01*
X008499Y011469D01*
X008299Y011269D01*
X008299Y010374D01*
X008069Y010144D01*
X008449Y010144D02*
X008449Y011219D01*
X008649Y011419D01*
X008649Y013819D01*
X010224Y015394D01*
X010224Y016895D01*
X013628Y020299D01*
X015995Y020299D01*
X016303Y020606D01*
X016414Y020495D02*
X016063Y020144D01*
X015149Y020144D01*
X014573Y019568D01*
X014573Y019519D01*
X013569Y020439D02*
X015913Y020439D01*
X016191Y020718D01*
X015857Y021052D02*
X016149Y021344D01*
X016174Y021369D01*
X016329Y021654D02*
X015784Y021654D01*
X015706Y021576D01*
X015706Y021569D01*
X015523Y021386D01*
X015412Y021497D02*
X015634Y021719D01*
X015634Y021719D01*
X015719Y021804D01*
X016379Y021804D01*
X017074Y021109D01*
X017074Y020369D01*
X017674Y019769D01*
X017824Y019769D01*
X018199Y019819D02*
X018199Y019608D01*
X017750Y019159D01*
X017639Y019270D02*
X017424Y019055D01*
X017424Y018794D01*
X017474Y018744D01*
X017224Y018594D02*
X017449Y018369D01*
X017574Y018369D01*
X017849Y018244D02*
X017149Y017544D01*
X016874Y017144D02*
X017799Y017144D01*
X018149Y017494D01*
X018074Y016844D02*
X021649Y016844D01*
X022074Y016419D01*
X023524Y016419D01*
X023924Y016019D01*
X023924Y015419D01*
X024162Y015182D01*
X024527Y015182D01*
X024527Y015438D02*
X025906Y015438D01*
X025949Y015394D01*
X025824Y015894D02*
X025124Y015894D01*
X025824Y015894D02*
X026649Y015069D01*
X026274Y014919D02*
X025099Y014919D01*
X025949Y014369D02*
X025999Y014369D01*
X026499Y013869D01*
X027574Y013869D01*
X027649Y013944D01*
X027649Y014399D01*
X027174Y014374D02*
X027149Y014399D01*
X027149Y014969D01*
X027174Y014994D01*
X027899Y014944D02*
X027899Y013844D01*
X027674Y013619D01*
X027574Y013719D01*
X025349Y013719D01*
X025299Y013769D01*
X023750Y013769D01*
X023149Y013169D01*
X022347Y013169D01*
X022353Y013419D02*
X022347Y013424D01*
X022353Y013419D02*
X022474Y013569D01*
X021924Y013819D02*
X023174Y013819D01*
X023514Y014158D01*
X024527Y014158D01*
X024527Y014414D02*
X023520Y014414D01*
X023074Y013969D01*
X018774Y013969D01*
X018674Y014069D01*
X018574Y014169D01*
X015224Y014169D01*
X012795Y011739D01*
X012795Y011453D01*
X013110Y011453D02*
X013110Y011854D01*
X015274Y014019D01*
X017774Y014019D01*
X017874Y013919D01*
X017524Y013769D02*
X017424Y013869D01*
X015324Y013869D01*
X013425Y011969D01*
X013425Y011453D01*
X013740Y011453D02*
X013740Y012084D01*
X015374Y013719D01*
X016724Y013719D01*
X016874Y013569D01*
X016499Y013319D02*
X021474Y013319D01*
X021874Y012919D01*
X022341Y012919D01*
X022347Y012913D01*
X022335Y012669D02*
X022347Y012657D01*
X022687Y012657D01*
X022899Y012869D01*
X022949Y012619D02*
X023999Y012619D01*
X024534Y012419D02*
X024552Y012401D01*
X025068Y012401D01*
X025099Y012369D01*
X024873Y012145D02*
X024999Y012019D01*
X025349Y012019D01*
X025574Y011819D02*
X024924Y011169D01*
X024299Y011169D01*
X024074Y010944D01*
X022049Y010944D01*
X021549Y010444D01*
X021399Y010444D01*
X020849Y009894D01*
X019399Y009894D01*
X019374Y009869D01*
X019049Y009619D02*
X019024Y009644D01*
X019049Y009619D02*
X020774Y009619D01*
X021449Y010294D01*
X021599Y010294D01*
X022099Y010794D01*
X024124Y010794D01*
X024349Y011019D01*
X025524Y011019D01*
X026024Y011519D01*
X031174Y011519D01*
X031274Y011419D01*
X031399Y011669D02*
X031874Y011194D01*
X031874Y010764D01*
X031624Y010764D02*
X031364Y010764D01*
X031364Y010229D01*
X031374Y010219D01*
X031354Y010764D02*
X031364Y010764D01*
X031354Y010764D02*
X031349Y010769D01*
X031119Y010769D01*
X031114Y010764D01*
X030774Y010544D02*
X029199Y010544D01*
X029018Y010363D01*
X029018Y010042D01*
X029018Y009338D01*
X028849Y009169D01*
X028024Y009169D01*
X026874Y008019D01*
X022374Y008019D01*
X022024Y007669D01*
X022024Y007294D01*
X022109Y007209D01*
X022109Y006814D01*
X022369Y006814D02*
X022369Y007399D01*
X022274Y007494D01*
X022624Y007369D02*
X022649Y007394D01*
X022624Y007369D02*
X022624Y006819D01*
X022619Y006814D01*
X022879Y006814D02*
X022879Y006899D01*
X022899Y006919D01*
X022899Y007744D01*
X022924Y007769D01*
X024574Y007769D01*
X024775Y007568D01*
X024775Y007419D01*
X024149Y007294D02*
X024024Y007294D01*
X024024Y007444D01*
X024024Y007294D02*
X023799Y007294D01*
X023649Y007144D01*
X023649Y006814D01*
X023649Y006444D01*
X023424Y006219D01*
X020349Y006219D01*
X020266Y006136D01*
X020266Y005867D01*
X020069Y005867D02*
X020069Y005439D01*
X019974Y005344D01*
X020399Y005344D02*
X020463Y005407D01*
X020463Y005867D01*
X019873Y005867D02*
X019873Y006167D01*
X020074Y006369D01*
X023274Y006369D01*
X023374Y006469D01*
X023374Y006799D01*
X023389Y006814D01*
X023149Y006834D02*
X023129Y006814D01*
X023129Y006799D01*
X023124Y006794D01*
X023149Y006834D02*
X023149Y007369D01*
X023899Y006814D02*
X024099Y006819D01*
X024149Y007294D02*
X024775Y006668D01*
X024775Y006644D01*
X025523Y006644D02*
X025899Y006669D01*
X025899Y007419D02*
X025523Y007419D01*
X025449Y008369D02*
X024074Y008369D01*
X024024Y008419D01*
X024024Y008794D02*
X023549Y008319D01*
X020530Y008319D01*
X020474Y008263D01*
X019774Y008644D02*
X020099Y008969D01*
X019699Y008969D02*
X019599Y008869D01*
X019599Y006744D01*
X019085Y006230D01*
X019085Y005867D01*
X018888Y005867D02*
X018888Y006408D01*
X018949Y006469D01*
X018774Y006669D02*
X018774Y007370D01*
X018874Y007470D01*
X018499Y006769D02*
X018495Y006764D01*
X018495Y005867D01*
X018691Y005867D02*
X018691Y006586D01*
X018774Y006669D01*
X019282Y006176D02*
X019774Y006669D01*
X019774Y008644D01*
X018874Y008569D02*
X018874Y008218D01*
X018374Y009144D02*
X017899Y008669D01*
X017374Y008669D01*
X017368Y008676D01*
X017368Y009571D01*
X017623Y009571D02*
X017623Y010168D01*
X017624Y010169D01*
X018174Y010169D01*
X018274Y010269D01*
X020824Y010269D01*
X021224Y010669D01*
X021224Y011044D01*
X021299Y011119D01*
X021474Y010744D02*
X021474Y010719D01*
X020874Y010119D01*
X018749Y010119D01*
X018374Y009744D01*
X018374Y009144D01*
X018724Y009269D02*
X020624Y009269D01*
X021499Y010144D01*
X021649Y010144D01*
X022149Y010644D01*
X024174Y010644D01*
X024399Y010869D01*
X027349Y010869D01*
X027674Y011194D01*
X029849Y011194D01*
X029924Y011269D01*
X029774Y011044D02*
X027724Y011044D01*
X027399Y010719D01*
X024449Y010719D01*
X024224Y010494D01*
X022199Y010494D01*
X021849Y010144D01*
X021849Y009674D01*
X022109Y009674D02*
X022109Y010029D01*
X022324Y010244D01*
X022774Y010244D02*
X023699Y010244D01*
X023649Y009674D02*
X023899Y009674D01*
X023389Y009674D02*
X023129Y009674D01*
X022879Y009674D02*
X022879Y009039D01*
X023099Y008819D01*
X023774Y008819D01*
X024024Y009069D01*
X024824Y009069D01*
X024825Y009068D01*
X024825Y008894D01*
X024824Y008894D01*
X024199Y008794D02*
X024024Y008794D01*
X025449Y008369D02*
X025573Y008493D01*
X025573Y008894D01*
X026824Y008169D02*
X028250Y009595D01*
X028250Y010042D01*
X028250Y010620D01*
X028474Y010844D01*
X028724Y010844D01*
X028849Y010719D01*
X030274Y010719D01*
X030399Y010844D01*
X030524Y010844D01*
X030149Y010969D02*
X029849Y010969D01*
X029774Y011044D01*
X029074Y011819D02*
X029018Y011875D01*
X029018Y012246D01*
X028774Y012258D02*
X028762Y012246D01*
X028774Y012258D02*
X028774Y012669D01*
X029049Y012944D01*
X029874Y012944D01*
X029899Y012919D01*
X029699Y013094D02*
X031349Y014744D01*
X033374Y014744D01*
X034099Y015469D01*
X037499Y015469D01*
X040499Y018469D01*
X040499Y019469D01*
X041449Y019269D02*
X041449Y019194D01*
X037524Y015269D01*
X034349Y015269D01*
X033414Y014334D01*
X033414Y013624D01*
X033154Y013624D02*
X033154Y012874D01*
X033149Y012869D01*
X032904Y013099D02*
X031874Y012069D01*
X031274Y012069D01*
X031174Y012344D02*
X030924Y012094D01*
X029924Y012094D01*
X029530Y012246D02*
X029530Y012324D01*
X029574Y012369D01*
X030999Y012369D01*
X031874Y013244D01*
X031874Y013624D01*
X031624Y013624D02*
X031624Y013219D01*
X031299Y012894D01*
X030949Y012894D01*
X030874Y012819D01*
X030474Y012819D01*
X030749Y013069D02*
X031274Y013069D01*
X031364Y013159D01*
X031364Y013624D01*
X031114Y013624D02*
X031114Y013379D01*
X031124Y013369D01*
X031124Y013344D01*
X030374Y013344D01*
X030199Y013169D01*
X029699Y013094D02*
X028999Y013094D01*
X028506Y012601D01*
X028506Y012246D01*
X028250Y012246D02*
X028250Y012570D01*
X028924Y013244D01*
X029649Y013244D01*
X031299Y014894D01*
X033324Y014894D01*
X034099Y015669D01*
X034899Y015669D01*
X035024Y015794D01*
X034699Y016619D02*
X031949Y016619D01*
X031749Y016419D01*
X031449Y016419D01*
X031249Y016619D01*
X030899Y016619D01*
X030499Y016219D01*
X030499Y015749D01*
X030499Y015244D01*
X029999Y015244D02*
X029999Y015749D01*
X030999Y015749D02*
X030999Y016244D01*
X031624Y016669D02*
X031799Y016669D01*
X031899Y016769D01*
X034649Y016769D01*
X035874Y017994D01*
X036124Y017994D01*
X036174Y018044D01*
X036184Y018034D01*
X037034Y018034D01*
X037034Y018284D02*
X036534Y018284D01*
X036474Y018344D01*
X036024Y018344D01*
X034599Y016919D01*
X031274Y016919D01*
X030999Y017194D01*
X030999Y017689D01*
X030999Y018169D01*
X030774Y018394D01*
X030774Y019269D01*
X031249Y019269D01*
X030774Y019269D02*
X030774Y019594D01*
X030574Y019794D01*
X029074Y019794D01*
X028574Y020294D01*
X026349Y020294D01*
X026099Y020544D01*
X025573Y020694D02*
X025573Y020370D01*
X026249Y019694D01*
X026449Y019194D02*
X023749Y019194D01*
X023574Y019019D01*
X023574Y018169D01*
X022749Y017344D01*
X022124Y017344D01*
X021649Y017819D01*
X020649Y017819D01*
X020524Y017569D02*
X021524Y017569D01*
X021649Y017444D01*
X022174Y017669D02*
X022699Y017669D01*
X022174Y017669D02*
X021649Y018194D01*
X020649Y018194D01*
X020899Y018469D02*
X020949Y018519D01*
X022074Y018519D01*
X022274Y018319D01*
X022274Y017994D01*
X022499Y016819D02*
X025399Y016819D01*
X025499Y016719D01*
X026049Y016719D01*
X026599Y017269D01*
X026599Y018344D01*
X026249Y018694D01*
X026449Y019194D02*
X026949Y018694D01*
X027249Y018694D01*
X026234Y017769D02*
X026234Y017454D01*
X026249Y017469D01*
X025649Y017044D02*
X025219Y017044D01*
X024939Y017324D01*
X024939Y017520D02*
X025198Y017520D01*
X025374Y017344D01*
X025424Y017344D01*
X024224Y018044D02*
X024095Y017914D01*
X023859Y017914D01*
X023855Y017919D01*
X024224Y018044D02*
X024224Y018695D01*
X024099Y018820D01*
X023474Y019794D02*
X023474Y020019D01*
X023674Y020219D01*
X024724Y020219D01*
X025249Y019694D01*
X024825Y020694D02*
X024474Y020694D01*
X024874Y021794D02*
X024624Y022044D01*
X022874Y022044D01*
X022549Y021719D01*
X022456Y021719D01*
X022232Y021943D01*
X022344Y022054D02*
X022129Y022269D01*
X021024Y022269D01*
X020824Y022069D01*
X020649Y022069D01*
X020874Y022344D02*
X020249Y022344D01*
X020099Y022494D01*
X020099Y022619D01*
X018549Y024169D01*
X017334Y024169D01*
X016637Y024866D01*
X016748Y024977D02*
X016506Y025219D01*
X016399Y025219D01*
X016174Y025444D01*
X015874Y025444D01*
X016124Y025719D02*
X014824Y025719D01*
X014599Y025494D01*
X014409Y025494D01*
X014659Y025919D02*
X014409Y026169D01*
X014659Y025919D02*
X016699Y025919D01*
X016772Y025846D01*
X016772Y025844D01*
X017194Y025422D01*
X017305Y025534D02*
X017599Y025239D01*
X017599Y025069D01*
X017718Y025344D02*
X017849Y025344D01*
X017718Y025344D02*
X017416Y025645D01*
X017528Y025756D02*
X017340Y025944D01*
X017049Y025944D01*
X017049Y025969D01*
X017299Y026094D02*
X017074Y026319D01*
X016874Y026319D01*
X016584Y026244D02*
X016534Y026269D01*
X016599Y026894D02*
X013449Y026894D01*
X011974Y025419D01*
X011974Y025169D01*
X011724Y025369D02*
X011724Y024894D01*
X011749Y024869D01*
X011724Y025369D02*
X013399Y027044D01*
X016524Y027044D01*
X016974Y027494D01*
X018124Y027494D01*
X018624Y026994D01*
X018790Y027019D01*
X018874Y026294D02*
X018024Y027144D01*
X017884Y027144D01*
X017876Y026744D02*
X013524Y026744D01*
X012349Y025569D01*
X012349Y025419D01*
X012599Y025294D02*
X012349Y025044D01*
X012599Y025294D02*
X012599Y025619D01*
X013574Y026594D01*
X017804Y026594D01*
X018084Y026313D01*
X017973Y026202D02*
X018256Y025919D01*
X018524Y025919D01*
X018893Y025869D02*
X019226Y026202D01*
X019337Y026091D02*
X019599Y026353D01*
X019599Y026519D01*
X019849Y026769D01*
X019849Y027369D01*
X019549Y027669D01*
X019459Y027694D01*
X020224Y027594D02*
X022849Y027594D01*
X024574Y029319D01*
X024874Y029319D01*
X025224Y029219D02*
X024924Y028919D01*
X025224Y029219D02*
X025224Y030994D01*
X023324Y027594D02*
X023174Y027444D01*
X020449Y027444D01*
X020174Y027169D01*
X020174Y026744D01*
X019799Y026369D01*
X019799Y026330D01*
X019449Y025979D01*
X019174Y025705D01*
X019111Y025705D01*
X018174Y024769D01*
X018174Y024694D01*
X018224Y024694D01*
X018349Y024569D01*
X018174Y024694D02*
X017624Y024694D01*
X017629Y024319D02*
X016860Y025088D01*
X016971Y025200D02*
X016752Y025419D01*
X016424Y025419D01*
X016124Y025719D01*
X016574Y025669D02*
X016724Y025669D01*
X017082Y025311D01*
X016525Y024754D02*
X016186Y025094D01*
X016149Y025069D01*
X016149Y024908D01*
X016414Y024643D01*
X016303Y024532D02*
X016515Y024319D01*
X016824Y024319D01*
X016874Y024269D01*
X017629Y024319D02*
X018599Y024319D01*
X019774Y023144D01*
X019949Y023144D01*
X020399Y023519D02*
X020524Y023644D01*
X020524Y024019D01*
X020574Y024069D01*
X020574Y024433D01*
X020785Y024643D01*
X020896Y024532D02*
X021259Y024894D01*
X021274Y024894D01*
X021274Y024687D01*
X021008Y024420D01*
X021119Y024309D02*
X021379Y024569D01*
X021599Y024569D01*
X021749Y024419D01*
X021970Y024269D02*
X021564Y023863D01*
X021676Y023752D02*
X021449Y023526D01*
X021449Y023419D01*
X021149Y023119D01*
X020799Y023119D01*
X020774Y023519D02*
X020799Y023544D01*
X021342Y024086D01*
X021453Y023975D02*
X021411Y023931D01*
X021453Y023975D02*
X021174Y023696D01*
X021174Y023544D01*
X020927Y023894D02*
X020774Y023894D01*
X020927Y023894D02*
X021230Y024197D01*
X021787Y023641D02*
X022140Y023994D01*
X022249Y023994D01*
X022649Y024394D01*
X022824Y024394D01*
X022840Y024409D01*
X022840Y024719D01*
X022824Y024394D02*
X023273Y024394D01*
X023698Y023969D01*
X023859Y023144D02*
X023824Y023109D01*
X023824Y022869D01*
X023190Y023144D02*
X023024Y022979D01*
X023024Y022869D01*
X022809Y022619D02*
X022455Y022973D01*
X022344Y023084D02*
X022074Y022815D01*
X022074Y022669D01*
X022254Y022494D02*
X022474Y022494D01*
X022549Y022419D01*
X025049Y022419D01*
X025174Y022294D01*
X026749Y022294D01*
X026824Y022369D01*
X026625Y022594D02*
X025249Y022594D01*
X024899Y022619D02*
X022809Y022619D01*
X022451Y022194D02*
X025074Y022194D01*
X025149Y022119D01*
X026024Y022119D01*
X026124Y022019D01*
X026599Y021744D02*
X025424Y021744D01*
X025349Y021819D01*
X026449Y021394D02*
X027574Y022519D01*
X029624Y022519D01*
X029799Y022694D01*
X030824Y022694D01*
X031249Y022269D01*
X031574Y021694D02*
X027549Y021694D01*
X026599Y021744D02*
X027524Y022669D01*
X028283Y023154D02*
X028318Y023119D01*
X028849Y023119D01*
X029974Y023669D02*
X031049Y024744D01*
X031049Y025605D01*
X030725Y025929D01*
X030725Y025918D01*
X030750Y025918D01*
X030029Y025233D02*
X030029Y025224D01*
X031799Y025644D02*
X032474Y024969D01*
X034750Y024969D01*
X031574Y021694D02*
X031799Y021469D01*
X031949Y021469D01*
X031549Y021269D02*
X031949Y020869D01*
X031874Y020469D02*
X032099Y020469D01*
X031874Y020469D02*
X031499Y020844D01*
X027199Y020844D01*
X027424Y020694D02*
X027299Y020569D01*
X026949Y020569D01*
X027424Y020694D02*
X031424Y020694D01*
X032074Y020044D01*
X032324Y020044D01*
X032049Y019744D02*
X032299Y019494D01*
X032049Y019744D02*
X030999Y019744D01*
X030474Y020269D01*
X030249Y020269D01*
X031249Y021269D02*
X031549Y021269D01*
X033023Y019686D02*
X033182Y019686D01*
X033814Y019054D01*
X034814Y019054D01*
X034814Y019314D02*
X034304Y019314D01*
X034124Y019494D01*
X034124Y019685D01*
X034126Y019686D01*
X035524Y020119D02*
X036074Y020669D01*
X036074Y021344D01*
X034814Y018284D02*
X034289Y018284D01*
X033789Y018034D02*
X033774Y018019D01*
X033789Y018034D02*
X034814Y018034D01*
X034814Y017774D02*
X034824Y017764D01*
X034799Y017569D01*
X034699Y016619D02*
X035854Y017774D01*
X037034Y017774D01*
X037034Y017579D01*
X037024Y017569D01*
X033249Y015194D02*
X033099Y015044D01*
X031249Y015044D01*
X029849Y013644D01*
X029624Y013644D01*
X029274Y012694D02*
X029274Y012619D01*
X029274Y012246D01*
X029074Y011819D02*
X034199Y011819D01*
X034299Y011919D01*
X033524Y013044D02*
X033674Y013194D01*
X033674Y013624D01*
X033924Y013624D02*
X033924Y013094D01*
X032904Y013099D02*
X032904Y013624D01*
X032644Y013624D02*
X032644Y013114D01*
X031874Y012344D01*
X031174Y012344D01*
X031399Y011669D02*
X025824Y011669D01*
X025624Y011469D01*
X025599Y011469D01*
X025574Y011819D02*
X027874Y011819D01*
X027995Y011939D01*
X027995Y012246D01*
X027174Y012744D02*
X025124Y012744D01*
X024552Y013169D02*
X024149Y013169D01*
X024149Y013169D01*
X024024Y013169D01*
X022949Y012619D02*
X022731Y012401D01*
X022347Y012401D01*
X022347Y012145D02*
X022346Y012144D01*
X021774Y012144D01*
X020899Y013019D01*
X016249Y013019D01*
X016224Y013044D01*
X016199Y013044D01*
X015999Y013219D02*
X016099Y013319D01*
X016299Y013319D01*
X016449Y013169D01*
X021249Y013169D01*
X021524Y012894D01*
X021824Y013719D02*
X021924Y013819D01*
X021849Y014394D02*
X021870Y014414D01*
X022322Y014414D01*
X022322Y014670D02*
X019800Y014670D01*
X019599Y014469D01*
X019249Y014469D01*
X019574Y014819D02*
X019899Y014819D01*
X020518Y015438D01*
X022322Y015438D01*
X022322Y015694D02*
X023474Y015694D01*
X023674Y015894D01*
X024074Y015819D02*
X024074Y016379D01*
X024190Y016494D01*
X023874Y016519D01*
X023849Y017169D02*
X023849Y017314D01*
X023859Y017324D01*
X022499Y016819D02*
X022374Y016694D01*
X022374Y016144D02*
X022322Y016142D01*
X022322Y015949D01*
X022322Y015182D02*
X021862Y015182D01*
X021849Y015169D01*
X022322Y014926D02*
X023843Y014926D01*
X023849Y014919D01*
X023949Y015194D02*
X024218Y014926D01*
X024527Y014926D01*
X024527Y014670D02*
X026173Y014670D01*
X026299Y014544D01*
X027899Y014944D02*
X028149Y015194D01*
X028149Y016339D01*
X027649Y016339D02*
X027649Y015844D01*
X027599Y015794D01*
X027149Y015819D02*
X027149Y016339D01*
X027149Y015819D02*
X027124Y015794D01*
X024527Y015694D02*
X024200Y015694D01*
X024074Y015819D01*
X023949Y015194D02*
X022874Y015194D01*
X020354Y015548D02*
X020049Y015244D01*
X019624Y015244D01*
X018699Y014319D01*
X014174Y014319D01*
X013949Y014094D01*
X013674Y014094D01*
X013449Y014319D01*
X013224Y014619D02*
X013124Y014519D01*
X013224Y014619D02*
X018599Y014619D01*
X019074Y015094D01*
X019074Y015294D01*
X019224Y015294D01*
X019409Y015479D01*
X019409Y015785D01*
X019424Y015770D01*
X019724Y015785D02*
X019749Y015569D01*
X018649Y014469D01*
X013949Y014469D01*
X013824Y014344D01*
X013349Y014769D02*
X012799Y015319D01*
X012799Y015794D01*
X013110Y015785D02*
X013110Y015383D01*
X013174Y015319D01*
X013425Y015785D02*
X013425Y016244D01*
X013449Y016244D01*
X013740Y016329D02*
X013449Y016619D01*
X013699Y016644D02*
X013699Y017094D01*
X013724Y017119D01*
X013699Y016644D02*
X014149Y016194D01*
X014874Y016194D01*
X015000Y016069D01*
X015000Y015785D01*
X015315Y015785D02*
X015315Y015259D01*
X015299Y015244D01*
X015630Y015139D02*
X015674Y015094D01*
X015630Y015139D02*
X015630Y015785D01*
X015630Y015989D01*
X015374Y016244D01*
X015274Y016244D01*
X015100Y016418D01*
X015100Y016649D01*
X015474Y016649D02*
X015499Y016624D01*
X015499Y016344D01*
X015624Y016219D01*
X015824Y016219D01*
X015945Y016099D01*
X015945Y015785D01*
X015945Y015349D01*
X015949Y015344D01*
X016249Y015094D02*
X016249Y015775D01*
X016260Y015785D02*
X016260Y016134D01*
X016124Y016269D01*
X016124Y017419D01*
X016023Y017520D01*
X015848Y017520D01*
X015848Y017589D01*
X016424Y017194D02*
X016424Y019194D01*
X016724Y019494D01*
X016379Y019569D02*
X016860Y020049D01*
X016525Y020384D02*
X016249Y020108D01*
X016249Y019944D01*
X016349Y019569D02*
X016140Y019569D01*
X016074Y019504D01*
X016349Y019569D02*
X016379Y019569D01*
X016774Y019119D02*
X016774Y018904D01*
X016749Y018879D01*
X016774Y019119D02*
X016820Y019119D01*
X017305Y019604D01*
X017416Y019493D02*
X017074Y019151D01*
X017074Y018294D01*
X017299Y018069D01*
X017174Y018194D01*
X017224Y018144D02*
X017299Y018069D01*
X017224Y018594D02*
X017224Y019078D01*
X017528Y019381D01*
X018084Y018825D02*
X017849Y018590D01*
X017849Y018244D01*
X018074Y018594D02*
X018194Y018713D01*
X018196Y018713D01*
X018238Y018755D01*
X018074Y018594D02*
X018274Y018394D01*
X018949Y018244D02*
X019099Y018244D01*
X019324Y018469D01*
X019324Y018615D01*
X019114Y018825D01*
X020374Y019069D02*
X020374Y019124D01*
X019724Y020194D02*
X019149Y020194D01*
X018749Y020594D01*
X018389Y020594D01*
X016114Y022869D01*
X015070Y022869D01*
X014855Y023084D01*
X014744Y022973D02*
X014786Y022930D01*
X014774Y022919D01*
X014967Y023195D02*
X015143Y023019D01*
X016164Y023019D01*
X018439Y020744D01*
X018799Y020744D01*
X019049Y020494D01*
X019249Y020494D01*
X019524Y020769D02*
X019399Y020894D01*
X018489Y020894D01*
X016214Y023169D01*
X015438Y023169D01*
X015189Y023418D01*
X015078Y023307D02*
X014749Y023635D01*
X014749Y023669D01*
X014724Y023694D01*
X014359Y023694D01*
X015049Y024069D02*
X015429Y024069D01*
X015635Y023863D01*
X015301Y023529D02*
X015511Y023319D01*
X016264Y023319D01*
X018539Y021044D01*
X019449Y021044D01*
X019549Y021144D01*
X020399Y021294D02*
X021174Y022069D01*
X021883Y022069D01*
X022121Y021831D01*
X022010Y021720D02*
X022186Y021544D01*
X022724Y021544D01*
X022899Y021694D01*
X023140Y021719D01*
X022455Y022165D02*
X022451Y022194D01*
X022179Y022419D02*
X022254Y022494D01*
X022179Y022419D02*
X020949Y022419D01*
X020874Y022344D01*
X021124Y022594D02*
X020374Y022594D01*
X021124Y022594D02*
X021474Y022944D01*
X021758Y022944D01*
X022121Y023307D01*
X022010Y023418D02*
X022274Y023683D01*
X022274Y023719D01*
X022324Y023719D01*
X022349Y023694D01*
X022274Y023719D02*
X022088Y023719D01*
X021898Y023529D01*
X022232Y023195D02*
X021706Y022669D01*
X021674Y022669D01*
X021898Y021608D02*
X022113Y021394D01*
X026449Y021394D01*
X022124Y024269D02*
X021970Y024269D01*
X020673Y024754D02*
X020424Y024505D01*
X020424Y024342D01*
X020263Y024180D01*
X020263Y023919D01*
X020190Y024494D02*
X020174Y024494D01*
X020190Y024494D02*
X020562Y024866D01*
X020451Y024977D02*
X020218Y024744D01*
X019999Y024744D01*
X019799Y024544D01*
X019799Y024444D01*
X019424Y024444D02*
X019424Y024419D01*
X019424Y024444D02*
X019849Y024869D01*
X020124Y024869D01*
X020298Y025042D01*
X020339Y025088D01*
X020228Y025200D02*
X020047Y025019D01*
X020047Y025017D01*
X020024Y024994D01*
X019599Y024994D01*
X019424Y024819D01*
X019199Y025119D02*
X019124Y025044D01*
X019199Y025119D02*
X019925Y025119D01*
X020025Y025219D01*
X020117Y025311D01*
X020025Y025219D02*
X020024Y025219D01*
X019961Y025381D02*
X020005Y025422D01*
X020227Y025644D01*
X020474Y025644D01*
X020924Y025194D01*
X020228Y025200D02*
X020186Y025156D01*
X019894Y025534D02*
X020254Y025894D01*
X020443Y025894D01*
X020534Y025819D01*
X020599Y025984D01*
X020099Y025962D02*
X020099Y026294D01*
X019799Y026330D02*
X019799Y026330D01*
X019459Y026658D02*
X019114Y026313D01*
X019003Y026425D02*
X018961Y026381D01*
X018874Y026294D01*
X019449Y025979D02*
X019560Y025868D01*
X019560Y025868D01*
X019671Y025756D02*
X019359Y025444D01*
X019249Y025444D01*
X019783Y025645D02*
X020099Y025962D01*
X020599Y026654D02*
X020599Y026994D01*
X020549Y026994D01*
X019459Y027019D02*
X019459Y026658D01*
X018196Y026425D02*
X017876Y026744D01*
X017424Y026344D02*
X017424Y026305D01*
X017750Y025979D01*
X017639Y025868D02*
X017413Y026094D01*
X017299Y026094D01*
X017862Y026091D02*
X018458Y025494D01*
X018499Y025494D01*
X017215Y027144D02*
X016849Y027144D01*
X016599Y026894D01*
X014074Y027469D02*
X014074Y027518D01*
X014075Y027519D01*
X013740Y026169D02*
X013424Y025854D01*
X013424Y025594D01*
X013124Y025294D01*
X013112Y025279D01*
X013102Y025262D01*
X013094Y025244D01*
X013090Y025225D01*
X013088Y025206D01*
X013090Y025187D01*
X013094Y025168D01*
X013102Y025150D01*
X013112Y025133D01*
X013124Y025118D01*
X013125Y025119D02*
X013137Y025104D01*
X013147Y025087D01*
X013155Y025069D01*
X013159Y025050D01*
X013161Y025031D01*
X013159Y025012D01*
X013155Y024993D01*
X013147Y024975D01*
X013137Y024958D01*
X013125Y024943D01*
X013110Y024931D01*
X013093Y024921D01*
X013075Y024913D01*
X013056Y024909D01*
X013037Y024907D01*
X013018Y024909D01*
X012999Y024913D01*
X012981Y024921D01*
X012964Y024931D01*
X012949Y024943D01*
X012950Y024944D02*
X012935Y024956D01*
X012918Y024966D01*
X012900Y024974D01*
X012881Y024978D01*
X012862Y024980D01*
X012843Y024978D01*
X012824Y024974D01*
X012806Y024966D01*
X012789Y024956D01*
X012774Y024944D01*
X012762Y024929D01*
X012752Y024912D01*
X012744Y024894D01*
X012740Y024875D01*
X012738Y024856D01*
X012740Y024837D01*
X012744Y024818D01*
X012752Y024800D01*
X012762Y024783D01*
X012774Y024768D01*
X012775Y024769D02*
X012787Y024754D01*
X012797Y024737D01*
X012805Y024719D01*
X012809Y024700D01*
X012811Y024681D01*
X012809Y024662D01*
X012805Y024643D01*
X012797Y024625D01*
X012787Y024608D01*
X012775Y024593D01*
X012760Y024581D01*
X012743Y024571D01*
X012725Y024563D01*
X012706Y024559D01*
X012687Y024557D01*
X012668Y024559D01*
X012649Y024563D01*
X012631Y024571D01*
X012614Y024581D01*
X012599Y024593D01*
X012600Y024594D02*
X012585Y024606D01*
X012568Y024616D01*
X012550Y024624D01*
X012531Y024628D01*
X012512Y024630D01*
X012493Y024628D01*
X012474Y024624D01*
X012456Y024616D01*
X012439Y024606D01*
X012424Y024594D01*
X012412Y024579D01*
X012402Y024562D01*
X012394Y024544D01*
X012390Y024525D01*
X012388Y024506D01*
X012390Y024487D01*
X012394Y024468D01*
X012402Y024450D01*
X012412Y024433D01*
X012424Y024418D01*
X012425Y024419D02*
X012437Y024404D01*
X012447Y024387D01*
X012455Y024369D01*
X012459Y024350D01*
X012461Y024331D01*
X012459Y024312D01*
X012455Y024293D01*
X012447Y024275D01*
X012437Y024258D01*
X012425Y024243D01*
X012410Y024231D01*
X012393Y024221D01*
X012375Y024213D01*
X012356Y024209D01*
X012337Y024207D01*
X012318Y024209D01*
X012299Y024213D01*
X012281Y024221D01*
X012264Y024231D01*
X012249Y024243D01*
X012250Y024244D02*
X012235Y024256D01*
X012218Y024266D01*
X012200Y024274D01*
X012181Y024278D01*
X012162Y024280D01*
X012143Y024278D01*
X012124Y024274D01*
X012106Y024266D01*
X012089Y024256D01*
X012074Y024244D01*
X012062Y024229D01*
X012052Y024212D01*
X012044Y024194D01*
X012040Y024175D01*
X012038Y024156D01*
X012040Y024137D01*
X012044Y024118D01*
X012052Y024100D01*
X012062Y024083D01*
X012074Y024068D01*
X012075Y024069D02*
X012087Y024054D01*
X012097Y024037D01*
X012105Y024019D01*
X012109Y024000D01*
X012111Y023981D01*
X012109Y023962D01*
X012105Y023943D01*
X012097Y023925D01*
X012087Y023908D01*
X012075Y023893D01*
X012060Y023881D01*
X012043Y023871D01*
X012025Y023863D01*
X012006Y023859D01*
X011987Y023857D01*
X011968Y023859D01*
X011949Y023863D01*
X011931Y023871D01*
X011914Y023881D01*
X011899Y023893D01*
X011900Y023894D02*
X011885Y023906D01*
X011868Y023916D01*
X011850Y023924D01*
X011831Y023928D01*
X011812Y023930D01*
X011793Y023928D01*
X011774Y023924D01*
X011756Y023916D01*
X011739Y023906D01*
X011724Y023894D01*
X011524Y023694D01*
X010830Y023694D01*
X010674Y023694D01*
X010574Y023594D01*
X010574Y023369D01*
X010049Y022844D01*
X008824Y022844D01*
X008524Y022544D01*
X008524Y019694D01*
X008099Y019269D01*
X009099Y019269D02*
X009274Y019444D01*
X009769Y019444D01*
X009924Y019444D01*
X010024Y019544D01*
X010024Y020169D01*
X009824Y020369D01*
X009499Y020469D02*
X009099Y020869D01*
X009099Y021269D01*
X009399Y021969D02*
X009099Y022269D01*
X009399Y021969D02*
X010867Y021969D01*
X010301Y022544D02*
X009982Y022225D01*
X010301Y022544D02*
X011649Y022544D01*
X013549Y024444D01*
X013574Y024444D01*
X013699Y025269D02*
X013699Y025494D01*
X013740Y025494D01*
X013699Y025269D02*
X011928Y023497D01*
X010830Y023497D01*
X010830Y023425D01*
X010099Y022694D01*
X008899Y022694D01*
X008674Y022469D01*
X008674Y017844D01*
X008099Y017269D01*
X009099Y017269D02*
X009099Y017444D01*
X010199Y018544D01*
X010199Y019219D01*
X010224Y019244D01*
X010274Y019244D01*
X010280Y019247D02*
X010628Y019247D01*
X010849Y019469D01*
X011024Y019469D01*
X011249Y019694D01*
X011249Y019794D01*
X010874Y019744D02*
X010874Y019694D01*
X010624Y019444D01*
X010280Y019444D01*
X010124Y019444D01*
X010024Y019344D01*
X010024Y018569D01*
X009724Y018269D01*
X009099Y018269D01*
X009724Y019069D02*
X009724Y019203D01*
X009769Y019247D01*
X009769Y019641D02*
X009749Y019660D01*
X009749Y019869D01*
X009774Y019647D02*
X009769Y019641D01*
X009765Y019644D01*
X009574Y019644D01*
X009499Y019719D01*
X009499Y020469D01*
X010280Y019800D02*
X010299Y019819D01*
X010280Y019800D02*
X010280Y019641D01*
X012473Y020419D02*
X013099Y020419D01*
X012499Y021044D02*
X012499Y021395D01*
X014744Y022165D02*
X014922Y022344D01*
X014924Y022344D01*
X014924Y022394D01*
X015259Y022729D01*
X016054Y022729D01*
X017874Y020909D01*
X017874Y020619D01*
X017799Y020369D02*
X017949Y020219D01*
X018499Y020219D01*
X018624Y020344D01*
X017499Y020619D02*
X017499Y021084D01*
X015994Y022589D01*
X015319Y022589D01*
X015099Y022369D01*
X015099Y022298D01*
X014855Y022054D01*
X015189Y021720D02*
X015499Y022030D01*
X015499Y022199D01*
X015746Y022054D02*
X015859Y022054D01*
X015746Y022054D02*
X015301Y021608D01*
X015124Y020869D02*
X014909Y020869D01*
X014859Y020919D01*
X016329Y021654D02*
X016799Y021184D01*
X016799Y020994D01*
X016191Y024420D02*
X015968Y024644D01*
X015724Y024644D01*
X015574Y024494D01*
X015674Y024594D01*
X011524Y027294D02*
X010799Y027294D01*
X010799Y027894D01*
X010699Y027994D01*
X009349Y027994D01*
X009174Y028169D01*
X009174Y029644D01*
X009299Y029769D01*
X010449Y029769D01*
X010524Y029694D01*
X010524Y028969D01*
X010824Y028669D01*
X011524Y028669D01*
X011524Y027294D01*
X011524Y027303D02*
X010799Y027303D01*
X010799Y027361D02*
X011524Y027361D01*
X011524Y027420D02*
X010799Y027420D01*
X010799Y027478D02*
X011524Y027478D01*
X011524Y027537D02*
X010799Y027537D01*
X010799Y027595D02*
X011524Y027595D01*
X011524Y027654D02*
X010799Y027654D01*
X010799Y027712D02*
X011524Y027712D01*
X011524Y027771D02*
X010799Y027771D01*
X010799Y027829D02*
X011524Y027829D01*
X011524Y027888D02*
X010799Y027888D01*
X010747Y027946D02*
X011524Y027946D01*
X011524Y028005D02*
X009338Y028005D01*
X009280Y028064D02*
X011524Y028064D01*
X011524Y028122D02*
X009221Y028122D01*
X009174Y028181D02*
X011524Y028181D01*
X011524Y028239D02*
X009174Y028239D01*
X009174Y028298D02*
X011524Y028298D01*
X011524Y028356D02*
X009174Y028356D01*
X009174Y028415D02*
X011524Y028415D01*
X011524Y028473D02*
X009174Y028473D01*
X009174Y028532D02*
X011524Y028532D01*
X011524Y028590D02*
X009174Y028590D01*
X009174Y028649D02*
X011524Y028649D01*
X010786Y028707D02*
X009174Y028707D01*
X009174Y028766D02*
X010728Y028766D01*
X010669Y028824D02*
X009174Y028824D01*
X009174Y028883D02*
X010611Y028883D01*
X010552Y028941D02*
X009174Y028941D01*
X009174Y029000D02*
X010524Y029000D01*
X010524Y029058D02*
X009174Y029058D01*
X009174Y029117D02*
X010524Y029117D01*
X010524Y029175D02*
X009174Y029175D01*
X009174Y029234D02*
X010524Y029234D01*
X010524Y029292D02*
X009174Y029292D01*
X009174Y029351D02*
X010524Y029351D01*
X010524Y029409D02*
X009174Y029409D01*
X009174Y029468D02*
X010524Y029468D01*
X010524Y029526D02*
X009174Y029526D01*
X009174Y029585D02*
X010524Y029585D01*
X010524Y029643D02*
X009174Y029643D01*
X009232Y029702D02*
X010517Y029702D01*
X010458Y029760D02*
X009291Y029760D01*
X007899Y030544D02*
X006899Y029544D01*
X006899Y028444D01*
X005449Y026994D01*
X005449Y016819D01*
X007824Y014444D01*
X009673Y013970D02*
X009723Y013920D01*
X009723Y013389D01*
X011324Y013389D01*
X012149Y012564D01*
X012149Y010819D01*
X012399Y010569D01*
X012724Y010569D01*
X012399Y010319D02*
X011974Y010744D01*
X011974Y012419D01*
X011474Y012919D01*
X010824Y012919D01*
X010475Y012570D01*
X010475Y012319D01*
X009474Y011544D02*
X009474Y011519D01*
X008069Y010894D02*
X007959Y010784D01*
X007959Y010779D01*
X007849Y010669D01*
X010325Y009595D02*
X010325Y009469D01*
X010349Y009469D01*
X010325Y009595D02*
X010724Y009994D01*
X012174Y009994D01*
X013649Y009571D02*
X013649Y008944D01*
X013199Y008494D01*
X013199Y006994D01*
X013699Y006494D01*
X013899Y006494D01*
X014164Y006230D01*
X014164Y005867D01*
X014361Y005867D02*
X014361Y006233D01*
X013949Y006644D01*
X013749Y006644D01*
X013394Y006999D01*
X013394Y007367D01*
X013649Y007366D02*
X013649Y006944D01*
X013799Y006794D01*
X013999Y006794D01*
X014558Y006236D01*
X014558Y005867D01*
X014754Y005867D02*
X014754Y006239D01*
X014049Y006944D01*
X013949Y006944D01*
X013906Y006988D01*
X013906Y007367D01*
X014162Y007367D02*
X014162Y007032D01*
X014951Y006242D01*
X014951Y005867D01*
X015542Y005867D02*
X015542Y006202D01*
X015149Y006594D01*
X014799Y006594D01*
X014418Y006976D01*
X014418Y007367D01*
X014673Y007367D02*
X014673Y006970D01*
X014899Y006744D01*
X015199Y006744D01*
X015739Y006205D01*
X015739Y005867D01*
X015935Y005867D02*
X015935Y006208D01*
X015249Y006894D01*
X015024Y006894D01*
X014929Y006989D01*
X014929Y007367D01*
X016132Y007727D02*
X016132Y005867D01*
X016329Y005867D02*
X016329Y007352D01*
X016344Y007367D01*
X016600Y007367D02*
X016600Y006944D01*
X016524Y006869D01*
X016524Y005869D01*
X016526Y005867D01*
X017313Y005867D02*
X017313Y006330D01*
X016856Y006788D01*
X016856Y007367D01*
X017112Y007367D02*
X017112Y006732D01*
X017510Y006333D01*
X017510Y005867D01*
X017707Y005867D02*
X017707Y006336D01*
X017368Y006676D01*
X017368Y007367D01*
X017623Y007367D02*
X017623Y006620D01*
X017904Y006339D01*
X017904Y005867D01*
X018101Y005867D02*
X018101Y006343D01*
X017879Y006564D01*
X017879Y007367D01*
X016600Y008194D02*
X016132Y007727D01*
X016600Y008194D02*
X016600Y009571D01*
X016856Y009571D02*
X016856Y009888D01*
X016724Y010019D01*
X015324Y010019D01*
X015185Y009880D01*
X015185Y009571D01*
X014929Y009571D02*
X014929Y009024D01*
X014924Y009019D01*
X014499Y008669D02*
X014418Y008751D01*
X014418Y009571D01*
X014673Y009571D02*
X014673Y009993D01*
X014849Y010169D01*
X017624Y010169D01*
X018049Y010419D02*
X020599Y010419D01*
X020949Y010769D01*
X021824Y011119D02*
X021899Y011194D01*
X023159Y011194D01*
X023854Y011889D01*
X024552Y011889D01*
X024552Y012145D02*
X024873Y012145D01*
X024552Y011633D02*
X023964Y011633D01*
X023949Y011619D01*
X023624Y012019D02*
X023499Y011894D01*
X022352Y011894D01*
X022347Y011889D01*
X022347Y011633D02*
X022324Y011610D01*
X022449Y011444D01*
X020549Y012594D02*
X019249Y012594D01*
X019074Y012769D01*
X018799Y012669D02*
X019024Y012444D01*
X020174Y012444D01*
X020374Y012244D01*
X020124Y011919D02*
X020354Y011689D01*
X020354Y011453D01*
X020074Y010969D02*
X020049Y010859D01*
X019959Y010769D01*
X019724Y011453D02*
X019724Y011694D01*
X019499Y011919D01*
X019349Y011919D01*
X018849Y012419D01*
X018149Y012419D01*
X017924Y012644D01*
X015024Y012644D01*
X014924Y012744D01*
X014924Y012894D01*
X014674Y012619D02*
X014799Y012494D01*
X017249Y012494D01*
X017834Y011909D01*
X017834Y011453D01*
X017524Y011458D02*
X017524Y011819D01*
X017424Y011919D01*
X017524Y011458D02*
X017519Y011453D01*
X017524Y011448D01*
X017524Y011169D01*
X017774Y010919D01*
X017774Y010669D01*
X018449Y011094D02*
X018464Y011109D01*
X018464Y011453D01*
X018779Y011453D02*
X018779Y010899D01*
X018649Y010769D01*
X019409Y011453D02*
X019409Y011659D01*
X018949Y012119D01*
X018649Y012119D01*
X018699Y012669D02*
X018799Y012669D01*
X018274Y012669D02*
X018149Y012794D01*
X015399Y012794D01*
X015299Y012894D01*
X015574Y013219D02*
X015999Y013219D01*
X015874Y013469D02*
X016349Y013469D01*
X016499Y013319D01*
X016649Y012344D02*
X016949Y012044D01*
X016949Y011894D01*
X016889Y011834D01*
X016889Y011453D01*
X016565Y010769D02*
X016574Y010759D01*
X016574Y010469D01*
X016049Y010419D02*
X014899Y010419D01*
X014499Y010019D01*
X013974Y010019D01*
X013906Y009950D01*
X013906Y009571D01*
X014162Y009571D02*
X014162Y009056D01*
X014149Y009044D01*
X013650Y009571D02*
X013649Y009571D01*
X015774Y008909D02*
X016074Y008919D01*
X017099Y009019D02*
X017099Y009559D01*
X017112Y009571D01*
X017874Y009566D02*
X017874Y009019D01*
X017874Y009566D02*
X017879Y009571D01*
X015630Y011453D02*
X015630Y011864D01*
X015574Y011919D01*
X014699Y011869D02*
X014699Y011467D01*
X014685Y011453D01*
X014370Y011453D02*
X014370Y011849D01*
X014324Y011894D01*
X014055Y011999D02*
X014055Y011453D01*
X014055Y011999D02*
X014399Y012344D01*
X016649Y012344D01*
X018524Y014769D02*
X013349Y014769D01*
X014055Y015424D02*
X014049Y015444D01*
X014055Y015424D02*
X014055Y015785D01*
X014370Y015785D02*
X014370Y015174D01*
X014374Y015169D01*
X014674Y015394D02*
X014674Y015775D01*
X014685Y015785D01*
X013740Y015785D02*
X013740Y016329D01*
X016424Y017194D02*
X016899Y016719D01*
X016899Y015795D01*
X016889Y015785D01*
X017519Y015785D02*
X017519Y015024D01*
X017524Y015019D01*
X017774Y015294D02*
X017834Y015354D01*
X017834Y015785D01*
X017834Y016604D01*
X018074Y016844D01*
X018464Y015785D02*
X018474Y015775D01*
X018474Y015444D01*
X018779Y015174D02*
X018724Y015119D01*
X018724Y014969D01*
X018524Y014769D01*
X018779Y015174D02*
X018779Y015785D01*
X020354Y015785D02*
X020354Y015548D01*
X027995Y010614D02*
X027995Y010042D01*
X028506Y010042D02*
X028506Y010476D01*
X028599Y010569D01*
X027999Y010619D02*
X027995Y010614D01*
X028762Y010042D02*
X028762Y009532D01*
X028724Y009494D01*
X029274Y009544D02*
X029374Y009444D01*
X029499Y009444D01*
X029274Y009544D02*
X029274Y010042D01*
X030749Y010119D02*
X030759Y010109D01*
X030759Y009819D01*
X032134Y010764D02*
X032134Y011384D01*
X032134Y010764D02*
X032394Y010764D01*
X031717Y008119D02*
X031667Y008069D01*
X031249Y008069D01*
X031717Y007119D02*
X031692Y007094D01*
X031249Y007094D01*
X026824Y008169D02*
X022324Y008169D01*
X021599Y007444D01*
X021599Y006814D01*
X019873Y006042D02*
X019873Y005867D01*
X019282Y005867D02*
X019282Y006176D01*
X022274Y009119D02*
X022369Y009214D01*
X022369Y009674D01*
X013650Y007367D02*
X013649Y007366D01*
X012174Y007044D02*
X012174Y006519D01*
X011899Y006519D01*
X011324Y005944D01*
X010524Y005944D01*
X010524Y006419D01*
X010774Y006419D01*
X010974Y006619D01*
X010974Y007219D01*
X011999Y007219D01*
X012174Y007044D01*
X012156Y007062D02*
X010974Y007062D01*
X010974Y007120D02*
X012098Y007120D01*
X012039Y007179D02*
X010974Y007179D01*
X010974Y007003D02*
X012174Y007003D01*
X012174Y006945D02*
X010974Y006945D01*
X010974Y006886D02*
X012174Y006886D01*
X012174Y006828D02*
X010974Y006828D01*
X010974Y006769D02*
X012174Y006769D01*
X012174Y006711D02*
X010974Y006711D01*
X010974Y006652D02*
X012174Y006652D01*
X012174Y006594D02*
X010949Y006594D01*
X010891Y006535D02*
X012174Y006535D01*
X011857Y006477D02*
X010832Y006477D01*
X010674Y006669D02*
X010499Y006669D01*
X010274Y006444D01*
X010274Y006219D01*
X009499Y006219D01*
X009499Y006919D01*
X009617Y006919D01*
X009617Y006563D01*
X009681Y006499D01*
X009930Y006499D01*
X009994Y006563D01*
X009994Y006989D01*
X009955Y007028D01*
X009955Y007063D01*
X010112Y007219D01*
X010674Y007219D01*
X010674Y006669D01*
X010674Y006711D02*
X009994Y006711D01*
X009994Y006769D02*
X010674Y006769D01*
X010674Y006828D02*
X009994Y006828D01*
X009994Y006886D02*
X010674Y006886D01*
X010674Y006945D02*
X009994Y006945D01*
X009980Y007003D02*
X010674Y007003D01*
X010674Y007062D02*
X009955Y007062D01*
X010013Y007120D02*
X010674Y007120D01*
X010674Y007179D02*
X010072Y007179D01*
X009617Y006886D02*
X009499Y006886D01*
X009499Y006828D02*
X009617Y006828D01*
X009617Y006769D02*
X009499Y006769D01*
X009499Y006711D02*
X009617Y006711D01*
X009617Y006652D02*
X009499Y006652D01*
X009499Y006594D02*
X009617Y006594D01*
X009644Y006535D02*
X009499Y006535D01*
X009499Y006477D02*
X010307Y006477D01*
X010274Y006418D02*
X009499Y006418D01*
X009499Y006360D02*
X010274Y006360D01*
X010274Y006301D02*
X009499Y006301D01*
X009499Y006243D02*
X010274Y006243D01*
X010364Y006019D02*
X010364Y005871D01*
X010428Y005806D01*
X010464Y005806D01*
X010466Y005804D01*
X010974Y005804D01*
X010974Y004269D01*
X010824Y004119D01*
X009399Y004119D01*
X009099Y004419D01*
X009099Y006919D01*
X009349Y006919D01*
X009349Y006119D01*
X009449Y006019D01*
X010364Y006019D01*
X010364Y006009D02*
X009099Y006009D01*
X009099Y006067D02*
X009401Y006067D01*
X009349Y006126D02*
X009099Y006126D01*
X009099Y006184D02*
X009349Y006184D01*
X009349Y006243D02*
X009099Y006243D01*
X009099Y006301D02*
X009349Y006301D01*
X009349Y006360D02*
X009099Y006360D01*
X009099Y006418D02*
X009349Y006418D01*
X009349Y006477D02*
X009099Y006477D01*
X009099Y006535D02*
X009349Y006535D01*
X009349Y006594D02*
X009099Y006594D01*
X009099Y006652D02*
X009349Y006652D01*
X009349Y006711D02*
X009099Y006711D01*
X009099Y006769D02*
X009349Y006769D01*
X009349Y006828D02*
X009099Y006828D01*
X009099Y006886D02*
X009349Y006886D01*
X008799Y006519D02*
X008799Y004819D01*
X007549Y004819D01*
X007249Y005119D01*
X007249Y005694D01*
X007899Y005694D01*
X008149Y005944D01*
X008149Y006519D01*
X008799Y006519D01*
X008799Y006477D02*
X008149Y006477D01*
X008149Y006418D02*
X008799Y006418D01*
X008799Y006360D02*
X008149Y006360D01*
X008149Y006301D02*
X008799Y006301D01*
X008799Y006243D02*
X008149Y006243D01*
X008149Y006184D02*
X008799Y006184D01*
X008799Y006126D02*
X008149Y006126D01*
X008149Y006067D02*
X008799Y006067D01*
X008799Y006009D02*
X008149Y006009D01*
X008149Y005950D02*
X008799Y005950D01*
X008799Y005892D02*
X008097Y005892D01*
X008039Y005833D02*
X008799Y005833D01*
X008799Y005775D02*
X007980Y005775D01*
X007922Y005716D02*
X008799Y005716D01*
X008799Y005658D02*
X007249Y005658D01*
X007249Y005599D02*
X008799Y005599D01*
X008799Y005541D02*
X007249Y005541D01*
X007249Y005482D02*
X008799Y005482D01*
X008799Y005424D02*
X007249Y005424D01*
X007249Y005365D02*
X008799Y005365D01*
X008799Y005307D02*
X007249Y005307D01*
X007249Y005248D02*
X008799Y005248D01*
X008799Y005190D02*
X007249Y005190D01*
X007249Y005131D02*
X008799Y005131D01*
X008799Y005073D02*
X007295Y005073D01*
X007354Y005014D02*
X008799Y005014D01*
X008799Y004956D02*
X007412Y004956D01*
X007471Y004897D02*
X008799Y004897D01*
X008799Y004839D02*
X007529Y004839D01*
X009099Y004839D02*
X010974Y004839D01*
X010974Y004897D02*
X009099Y004897D01*
X009099Y004956D02*
X010974Y004956D01*
X010974Y005014D02*
X009099Y005014D01*
X009099Y005073D02*
X010974Y005073D01*
X010974Y005131D02*
X009099Y005131D01*
X009099Y005190D02*
X010974Y005190D01*
X010974Y005248D02*
X009099Y005248D01*
X009099Y005307D02*
X010974Y005307D01*
X010974Y005365D02*
X009099Y005365D01*
X009099Y005424D02*
X010974Y005424D01*
X010974Y005482D02*
X009099Y005482D01*
X009099Y005541D02*
X010974Y005541D01*
X010974Y005599D02*
X009099Y005599D01*
X009099Y005658D02*
X010974Y005658D01*
X010974Y005716D02*
X009099Y005716D01*
X009099Y005775D02*
X010974Y005775D01*
X011331Y005950D02*
X010524Y005950D01*
X010524Y006009D02*
X011389Y006009D01*
X011448Y006067D02*
X010524Y006067D01*
X010524Y006126D02*
X011506Y006126D01*
X011565Y006184D02*
X010524Y006184D01*
X010524Y006243D02*
X011623Y006243D01*
X011682Y006301D02*
X010524Y006301D01*
X010524Y006360D02*
X011740Y006360D01*
X011799Y006418D02*
X010524Y006418D01*
X010366Y006535D02*
X009966Y006535D01*
X009994Y006594D02*
X010424Y006594D01*
X010483Y006652D02*
X009994Y006652D01*
X010364Y005950D02*
X009099Y005950D01*
X009099Y005892D02*
X010364Y005892D01*
X010401Y005833D02*
X009099Y005833D01*
X009099Y004780D02*
X010974Y004780D01*
X010974Y004722D02*
X009099Y004722D01*
X009099Y004663D02*
X010974Y004663D01*
X010974Y004605D02*
X009099Y004605D01*
X009099Y004546D02*
X010974Y004546D01*
X010974Y004488D02*
X009099Y004488D01*
X009099Y004429D02*
X010974Y004429D01*
X010974Y004371D02*
X009147Y004371D01*
X009206Y004312D02*
X010974Y004312D01*
X010959Y004254D02*
X009264Y004254D01*
X009323Y004195D02*
X010901Y004195D01*
X010842Y004137D02*
X009381Y004137D01*
X007574Y006569D02*
X007574Y006619D01*
X007699Y006744D01*
X007699Y006969D01*
X009805Y007662D02*
X009805Y007913D01*
X009649Y008069D01*
X010490Y007894D02*
X010490Y008329D01*
X010474Y008344D01*
X008099Y021269D02*
X007624Y021744D01*
X007624Y023369D01*
X008124Y023869D01*
X010297Y023869D01*
X010319Y023891D01*
X010319Y024150D01*
X010199Y024269D01*
X010449Y024569D02*
X010574Y024444D01*
X010574Y023794D01*
X010474Y023694D01*
X010319Y023694D01*
X010294Y023669D01*
X008499Y023669D01*
X008099Y023269D01*
X010224Y023419D02*
X010228Y023497D01*
X010319Y023497D01*
X010699Y023694D02*
X010830Y023694D01*
X010830Y023891D02*
X011009Y023894D01*
X011049Y023969D01*
X014009Y029294D02*
X014024Y029294D01*
X013999Y029319D01*
X014024Y029294D02*
X014124Y029344D01*
X014349Y030769D02*
X012274Y030769D01*
X012149Y030894D01*
X012149Y031894D01*
X012349Y032094D01*
X013574Y032094D01*
X013774Y032294D01*
X013774Y034169D01*
X013874Y034269D01*
X014799Y034269D01*
X014899Y034169D01*
X014899Y033294D01*
X014799Y033194D01*
X014574Y033194D01*
X014474Y033094D01*
X014474Y030894D01*
X014349Y030769D01*
X014394Y030813D02*
X012230Y030813D01*
X012172Y030872D02*
X014452Y030872D01*
X014474Y030930D02*
X012149Y030930D01*
X012149Y030989D02*
X014474Y030989D01*
X014474Y031047D02*
X012149Y031047D01*
X012149Y031106D02*
X014474Y031106D01*
X014474Y031164D02*
X012149Y031164D01*
X012149Y031223D02*
X014474Y031223D01*
X014474Y031281D02*
X012149Y031281D01*
X012149Y031340D02*
X014474Y031340D01*
X014474Y031398D02*
X012149Y031398D01*
X012149Y031457D02*
X014474Y031457D01*
X014474Y031515D02*
X012149Y031515D01*
X012149Y031574D02*
X014474Y031574D01*
X014474Y031632D02*
X012149Y031632D01*
X012149Y031691D02*
X014474Y031691D01*
X014474Y031749D02*
X012149Y031749D01*
X012149Y031808D02*
X014474Y031808D01*
X014474Y031866D02*
X012149Y031866D01*
X012180Y031925D02*
X014474Y031925D01*
X014474Y031983D02*
X012239Y031983D01*
X012297Y032042D02*
X014474Y032042D01*
X014474Y032100D02*
X013581Y032100D01*
X013639Y032159D02*
X014474Y032159D01*
X014474Y032217D02*
X013698Y032217D01*
X013756Y032276D02*
X014474Y032276D01*
X014474Y032334D02*
X013774Y032334D01*
X013774Y032393D02*
X014474Y032393D01*
X014474Y032451D02*
X013774Y032451D01*
X013774Y032510D02*
X014474Y032510D01*
X014474Y032568D02*
X013774Y032568D01*
X013774Y032627D02*
X014474Y032627D01*
X014474Y032685D02*
X013774Y032685D01*
X013774Y032744D02*
X014474Y032744D01*
X014474Y032802D02*
X013774Y032802D01*
X013774Y032861D02*
X014474Y032861D01*
X014474Y032919D02*
X013774Y032919D01*
X013774Y032978D02*
X014474Y032978D01*
X014474Y033036D02*
X013774Y033036D01*
X013774Y033095D02*
X014475Y033095D01*
X014534Y033153D02*
X013774Y033153D01*
X013774Y033212D02*
X014817Y033212D01*
X014876Y033270D02*
X013774Y033270D01*
X013774Y033329D02*
X014899Y033329D01*
X014899Y033387D02*
X013774Y033387D01*
X013774Y033446D02*
X014899Y033446D01*
X014899Y033504D02*
X013774Y033504D01*
X013774Y033563D02*
X014899Y033563D01*
X014899Y033621D02*
X013774Y033621D01*
X013774Y033680D02*
X014899Y033680D01*
X014899Y033738D02*
X013774Y033738D01*
X013774Y033797D02*
X014899Y033797D01*
X014899Y033855D02*
X013774Y033855D01*
X013774Y033914D02*
X014899Y033914D01*
X014899Y033972D02*
X013774Y033972D01*
X013774Y034031D02*
X014899Y034031D01*
X014899Y034089D02*
X013774Y034089D01*
X013774Y034148D02*
X014899Y034148D01*
X014862Y034206D02*
X013812Y034206D01*
X013870Y034265D02*
X014804Y034265D01*
X014800Y033609D02*
X014799Y033608D01*
X014799Y033294D01*
X015174Y032919D01*
X015174Y032729D01*
X014800Y032729D02*
X014800Y031994D01*
X014975Y031819D01*
X014975Y031044D01*
X015723Y031044D02*
X016099Y031044D01*
X016099Y031819D02*
X015723Y031819D01*
X013599Y033269D02*
X012849Y033269D01*
X012849Y034019D01*
X013599Y034019D01*
X013599Y033269D01*
X013599Y033270D02*
X012849Y033270D01*
X012849Y033329D02*
X013599Y033329D01*
X013599Y033387D02*
X012849Y033387D01*
X012849Y033446D02*
X013599Y033446D01*
X013599Y033504D02*
X012849Y033504D01*
X012849Y033563D02*
X013599Y033563D01*
X013599Y033621D02*
X012849Y033621D01*
X012849Y033680D02*
X013599Y033680D01*
X013599Y033738D02*
X012849Y033738D01*
X012849Y033797D02*
X013599Y033797D01*
X013599Y033855D02*
X012849Y033855D01*
X012849Y033914D02*
X013599Y033914D01*
X013599Y033972D02*
X012849Y033972D01*
X012944Y034969D02*
X012249Y034969D01*
X012149Y035069D01*
X012149Y036369D01*
X012274Y036494D01*
X014824Y036494D01*
X014949Y036369D01*
X014949Y035069D01*
X014849Y034969D01*
X013504Y034969D01*
X013504Y035083D01*
X013428Y035159D01*
X013021Y035159D01*
X012944Y035083D01*
X012944Y034969D01*
X012944Y035025D02*
X012193Y035025D01*
X012149Y035084D02*
X012945Y035084D01*
X013004Y035142D02*
X012149Y035142D01*
X012149Y035201D02*
X014949Y035201D01*
X014949Y035259D02*
X012149Y035259D01*
X012149Y035318D02*
X014949Y035318D01*
X014949Y035376D02*
X012149Y035376D01*
X012149Y035435D02*
X014949Y035435D01*
X014949Y035493D02*
X012149Y035493D01*
X012149Y035552D02*
X014949Y035552D01*
X014949Y035610D02*
X012149Y035610D01*
X012149Y035669D02*
X014949Y035669D01*
X014949Y035727D02*
X012149Y035727D01*
X012149Y035786D02*
X014949Y035786D01*
X014949Y035844D02*
X012149Y035844D01*
X012149Y035903D02*
X014949Y035903D01*
X014949Y035961D02*
X012149Y035961D01*
X012149Y036020D02*
X014949Y036020D01*
X014949Y036078D02*
X012149Y036078D01*
X012149Y036137D02*
X014949Y036137D01*
X014949Y036195D02*
X012149Y036195D01*
X012149Y036254D02*
X014949Y036254D01*
X014949Y036312D02*
X012149Y036312D01*
X012151Y036371D02*
X014948Y036371D01*
X014889Y036429D02*
X012210Y036429D01*
X012268Y036488D02*
X014831Y036488D01*
X014949Y035142D02*
X013445Y035142D01*
X013504Y035084D02*
X014949Y035084D01*
X014906Y035025D02*
X013504Y035025D01*
X009974Y035069D02*
X009874Y034969D01*
X008529Y034969D01*
X008529Y035083D01*
X008453Y035159D01*
X008046Y035159D01*
X007969Y035083D01*
X007969Y034969D01*
X007274Y034969D01*
X007174Y035069D01*
X007174Y036369D01*
X007299Y036494D01*
X009849Y036494D01*
X009974Y036369D01*
X009974Y035069D01*
X009974Y035084D02*
X008529Y035084D01*
X008529Y035025D02*
X009931Y035025D01*
X009974Y035142D02*
X008470Y035142D01*
X008249Y035444D02*
X008249Y035519D01*
X008524Y035519D01*
X008029Y035142D02*
X007174Y035142D01*
X007174Y035084D02*
X007970Y035084D01*
X007969Y035025D02*
X007218Y035025D01*
X007174Y035201D02*
X009974Y035201D01*
X009974Y035259D02*
X007174Y035259D01*
X007174Y035318D02*
X009974Y035318D01*
X009974Y035376D02*
X007174Y035376D01*
X007174Y035435D02*
X009974Y035435D01*
X009974Y035493D02*
X007174Y035493D01*
X007174Y035552D02*
X009974Y035552D01*
X009974Y035610D02*
X007174Y035610D01*
X007174Y035669D02*
X009974Y035669D01*
X009974Y035727D02*
X007174Y035727D01*
X007174Y035786D02*
X009974Y035786D01*
X009974Y035844D02*
X007174Y035844D01*
X007174Y035903D02*
X009974Y035903D01*
X009974Y035961D02*
X007174Y035961D01*
X007174Y036020D02*
X009974Y036020D01*
X009974Y036078D02*
X007174Y036078D01*
X007174Y036137D02*
X009974Y036137D01*
X009974Y036195D02*
X007174Y036195D01*
X007174Y036254D02*
X009974Y036254D01*
X009974Y036312D02*
X007174Y036312D01*
X007176Y036371D02*
X009973Y036371D01*
X009914Y036429D02*
X007235Y036429D01*
X007293Y036488D02*
X009856Y036488D01*
X009824Y034269D02*
X008899Y034269D01*
X008799Y034169D01*
X008799Y032294D01*
X008599Y032094D01*
X007374Y032094D01*
X007174Y031894D01*
X007174Y030894D01*
X007299Y030769D01*
X009374Y030769D01*
X009499Y030894D01*
X009499Y033094D01*
X009599Y033194D01*
X009824Y033194D01*
X009924Y033294D01*
X009924Y034169D01*
X009824Y034269D01*
X009829Y034265D02*
X008895Y034265D01*
X008837Y034206D02*
X009887Y034206D01*
X009924Y034148D02*
X008799Y034148D01*
X008799Y034089D02*
X009924Y034089D01*
X009924Y034031D02*
X008799Y034031D01*
X008799Y033972D02*
X009924Y033972D01*
X009924Y033914D02*
X008799Y033914D01*
X008799Y033855D02*
X009924Y033855D01*
X009924Y033797D02*
X008799Y033797D01*
X008799Y033738D02*
X009924Y033738D01*
X009924Y033680D02*
X008799Y033680D01*
X008799Y033621D02*
X009924Y033621D01*
X009924Y033563D02*
X008799Y033563D01*
X008799Y033504D02*
X009924Y033504D01*
X009924Y033446D02*
X008799Y033446D01*
X008799Y033387D02*
X009924Y033387D01*
X009924Y033329D02*
X008799Y033329D01*
X008799Y033270D02*
X009901Y033270D01*
X009842Y033212D02*
X008799Y033212D01*
X008799Y033153D02*
X009559Y033153D01*
X009500Y033095D02*
X008799Y033095D01*
X008799Y033036D02*
X009499Y033036D01*
X009499Y032978D02*
X008799Y032978D01*
X008799Y032919D02*
X009499Y032919D01*
X009499Y032861D02*
X008799Y032861D01*
X008799Y032802D02*
X009499Y032802D01*
X009499Y032744D02*
X008799Y032744D01*
X008799Y032685D02*
X009499Y032685D01*
X009499Y032627D02*
X008799Y032627D01*
X008799Y032568D02*
X009499Y032568D01*
X009499Y032510D02*
X008799Y032510D01*
X008799Y032451D02*
X009499Y032451D01*
X009499Y032393D02*
X008799Y032393D01*
X008799Y032334D02*
X009499Y032334D01*
X009499Y032276D02*
X008781Y032276D01*
X008723Y032217D02*
X009499Y032217D01*
X009499Y032159D02*
X008664Y032159D01*
X008606Y032100D02*
X009499Y032100D01*
X009499Y032042D02*
X007322Y032042D01*
X007264Y031983D02*
X009499Y031983D01*
X009499Y031925D02*
X007205Y031925D01*
X007174Y031866D02*
X009499Y031866D01*
X009499Y031808D02*
X007174Y031808D01*
X007174Y031749D02*
X009499Y031749D01*
X009499Y031691D02*
X007174Y031691D01*
X007174Y031632D02*
X009499Y031632D01*
X009499Y031574D02*
X007174Y031574D01*
X007174Y031515D02*
X009499Y031515D01*
X009499Y031457D02*
X007174Y031457D01*
X007174Y031398D02*
X009499Y031398D01*
X009499Y031340D02*
X007174Y031340D01*
X007174Y031281D02*
X009499Y031281D01*
X009499Y031223D02*
X007174Y031223D01*
X007174Y031164D02*
X009499Y031164D01*
X009499Y031106D02*
X007174Y031106D01*
X007174Y031047D02*
X009499Y031047D01*
X009499Y030989D02*
X007174Y030989D01*
X007174Y030930D02*
X009499Y030930D01*
X009477Y030872D02*
X007197Y030872D01*
X007255Y030813D02*
X009419Y030813D01*
X009950Y031119D02*
X009950Y031893D01*
X009949Y031894D01*
X009950Y031894D02*
X009874Y031970D01*
X009874Y032728D01*
X009875Y032729D01*
X010249Y032729D02*
X010249Y032394D01*
X010324Y032319D01*
X011299Y032319D01*
X011574Y032044D01*
X011574Y030794D01*
X011324Y030544D01*
X007899Y030544D01*
X010698Y031119D02*
X011024Y031119D01*
X011024Y031894D02*
X010698Y031894D01*
X008624Y033294D02*
X007874Y033294D01*
X007874Y034019D01*
X008624Y034019D01*
X008624Y033294D01*
X008624Y033329D02*
X007874Y033329D01*
X007874Y033387D02*
X008624Y033387D01*
X008624Y033446D02*
X007874Y033446D01*
X007874Y033504D02*
X008624Y033504D01*
X008624Y033563D02*
X007874Y033563D01*
X007874Y033621D02*
X008624Y033621D01*
X008624Y033680D02*
X007874Y033680D01*
X007874Y033738D02*
X008624Y033738D01*
X008624Y033797D02*
X007874Y033797D01*
X007874Y033855D02*
X008624Y033855D01*
X008624Y033914D02*
X007874Y033914D01*
X007874Y033972D02*
X008624Y033972D01*
X031499Y018044D02*
X031499Y017689D01*
X031499Y017194D01*
D80*
X028899Y014894D02*
X028899Y014579D01*
X028890Y014569D01*
X028174Y014569D01*
X028149Y014544D01*
X028149Y014399D01*
X028574Y013869D02*
X028915Y013859D01*
X028899Y013909D01*
X027739Y012780D02*
X027724Y012794D01*
X027739Y012780D02*
X027739Y012246D01*
X026349Y013219D02*
X025909Y013219D01*
X025240Y013219D02*
X025140Y013309D01*
X025149Y013519D01*
X025155Y013424D01*
X024552Y013424D01*
X022864Y014158D02*
X022899Y014244D01*
X022864Y014158D02*
X022322Y014158D01*
X024527Y015949D02*
X024805Y015949D01*
X024849Y015994D01*
X024849Y016219D01*
X024859Y016229D01*
X024859Y016494D01*
X021065Y019569D02*
X020674Y019569D01*
X020654Y019549D01*
X015524Y019944D02*
X015409Y019829D01*
X015399Y019804D01*
X010867Y022225D02*
X010594Y022225D01*
X010549Y022269D01*
X023398Y029180D02*
X023409Y029169D01*
X023398Y029180D02*
X023398Y030154D01*
X020699Y032730D02*
X020698Y032729D01*
X020699Y032730D02*
X020699Y032944D01*
X020749Y032894D01*
X021399Y032894D01*
X021399Y032944D01*
X021424Y032969D01*
X021424Y033034D01*
X020924Y033469D02*
X020838Y033469D01*
X020698Y033609D01*
X022824Y036432D02*
X023171Y036432D01*
X023174Y036429D01*
X016274Y033034D02*
X016274Y032919D01*
X015599Y032919D01*
X015548Y032868D01*
X015548Y032729D01*
X011349Y032919D02*
X011324Y032894D01*
X010624Y032894D01*
X010624Y032719D01*
X011349Y032919D02*
X011349Y033034D01*
X010849Y033469D02*
X010763Y033469D01*
X010623Y033609D01*
X008249Y033419D02*
X008249Y032874D01*
X008224Y033394D02*
X008249Y033419D01*
X008224Y033394D02*
X007974Y033394D01*
X007974Y033919D02*
X008249Y033919D01*
X008249Y034464D01*
X031624Y031134D02*
X031709Y031134D01*
X032449Y030394D01*
X034824Y030394D01*
X034974Y030244D01*
X035199Y030019D01*
X035199Y029144D01*
X035374Y028969D01*
X035690Y028969D01*
X035684Y028974D01*
X035690Y028969D02*
X036949Y028969D01*
X035684Y028334D02*
X035674Y028344D01*
X035684Y028334D02*
X035684Y028019D01*
X035724Y027494D02*
X035684Y027454D01*
X035684Y027349D01*
X035540Y027494D01*
X035499Y027494D01*
X034974Y028019D01*
X034974Y030244D01*
X035540Y027494D02*
X037924Y027494D01*
X037949Y027469D01*
X032849Y014419D02*
X032534Y014419D01*
X032394Y014259D01*
X032394Y013624D01*
X032134Y013624D02*
X032134Y014084D01*
X031949Y014269D01*
X031949Y014334D01*
X031865Y014419D01*
X031524Y014419D01*
X025724Y010394D02*
X025384Y010394D01*
X024825Y010283D02*
X024715Y010394D01*
X024665Y010344D01*
X024374Y010344D01*
X023899Y009869D01*
X023899Y009674D01*
X023899Y009844D01*
X023924Y009869D01*
X024549Y009644D02*
X024800Y009644D01*
X024825Y009669D01*
X024825Y010283D01*
X025573Y009669D02*
X025899Y009669D01*
X025924Y009694D01*
X013394Y009571D02*
X012807Y009571D01*
X012799Y009579D01*
X012509Y009579D01*
X012499Y009569D01*
X012515Y008909D02*
X012499Y008894D01*
X012515Y008909D02*
X012799Y008909D01*
D81*
X041499Y021369D03*
D82*
X018724Y035594D03*
X018024Y035594D03*
X013574Y035469D03*
X013574Y035819D03*
X012874Y035819D03*
X012874Y035469D03*
X012849Y031319D03*
X008624Y031319D03*
X018049Y031319D03*
D83*
X018369Y031319D01*
X018374Y031314D01*
X013224Y031314D02*
X013219Y031319D01*
X012849Y031319D01*
X011549Y030119D02*
X011174Y030119D01*
X010799Y030119D01*
X007399Y035094D02*
X007424Y035119D01*
X018374Y035594D02*
X018724Y035594D01*
D84*
X008199Y028789D02*
X008199Y028174D01*
X008904Y027469D01*
X009724Y027469D01*
M02*
