G75*
G70*
%OFA0B0*%
%FSLAX24Y24*%
%IPPOS*%
%LPD*%
%AMOC8*
5,1,8,0,0,1.08239X$1,22.5*
%
%ADD10R,0.0170X0.0650*%
%ADD11R,0.0157X0.0335*%
%ADD12R,0.0580X0.0220*%
%ADD13R,0.0709X0.0669*%
%ADD14R,0.1063X0.0630*%
%ADD15R,0.0512X0.0591*%
%ADD16R,0.0220X0.0580*%
%ADD17R,0.0394X0.0433*%
%ADD18R,0.0689X0.0591*%
%ADD19R,0.0300X0.1130*%
%ADD20R,0.0630X0.0710*%
%ADD21R,0.0709X0.0630*%
%ADD22R,0.0472X0.0472*%
%ADD23R,0.0591X0.0512*%
%ADD24R,0.1063X0.1181*%
%ADD25R,0.0118X0.0472*%
%ADD26R,0.0433X0.0394*%
%ADD27R,0.0551X0.0551*%
%ADD28R,0.0138X0.0630*%
%ADD29R,0.0300X0.0350*%
%ADD30C,0.0083*%
%ADD31R,0.0220X0.0780*%
%ADD32R,0.0197X0.0472*%
%ADD33R,0.0630X0.0138*%
%ADD34R,0.0460X0.0100*%
%ADD35R,0.1890X0.1890*%
%ADD36R,0.0512X0.0071*%
%ADD37R,0.0370X0.0520*%
%ADD38R,0.0220X0.0620*%
%ADD39R,0.0630X0.1063*%
%ADD40R,0.0335X0.0157*%
%ADD41R,0.0748X0.0787*%
%ADD42R,0.1575X0.0807*%
%ADD43R,0.1378X0.0807*%
%ADD44R,0.0886X0.0197*%
%ADD45R,0.0110X0.0660*%
%ADD46R,0.1575X0.1575*%
%ADD47R,0.0560X0.0170*%
%ADD48R,0.0620X0.0740*%
%ADD49R,0.0591X0.0472*%
%ADD50R,0.0236X0.0689*%
%ADD51R,0.0669X0.0709*%
%ADD52R,0.0472X0.0591*%
%ADD53R,0.0630X0.0354*%
%ADD54R,0.0710X0.0630*%
%ADD55R,0.0257X0.0118*%
%ADD56R,0.0630X0.0630*%
%ADD57R,0.0580X0.0140*%
%ADD58R,0.0520X0.0220*%
D10*
X021599Y006814D03*
X021849Y006814D03*
X022109Y006814D03*
X022369Y006814D03*
X022619Y006814D03*
X022879Y006814D03*
X023129Y006814D03*
X023389Y006814D03*
X023649Y006814D03*
X023899Y006814D03*
X023899Y009674D03*
X023649Y009674D03*
X023389Y009674D03*
X023129Y009674D03*
X022879Y009674D03*
X022619Y009674D03*
X022369Y009674D03*
X022109Y009674D03*
X021849Y009674D03*
X021599Y009674D03*
X031114Y010764D03*
X031364Y010764D03*
X031624Y010764D03*
X031874Y010764D03*
X032134Y010764D03*
X032394Y010764D03*
X032644Y010764D03*
X032904Y010764D03*
X033154Y010764D03*
X033414Y010764D03*
X033674Y010764D03*
X033924Y010764D03*
X034184Y010764D03*
X034434Y010764D03*
X034434Y013624D03*
X034184Y013624D03*
X033924Y013624D03*
X033674Y013624D03*
X033414Y013624D03*
X033154Y013624D03*
X032904Y013624D03*
X032644Y013624D03*
X032394Y013624D03*
X032134Y013624D03*
X031874Y013624D03*
X031624Y013624D03*
X031364Y013624D03*
X031114Y013624D03*
D11*
X009805Y007662D03*
X009294Y007662D03*
X009294Y006776D03*
X009549Y006776D03*
X009805Y006776D03*
X040044Y033176D03*
X040299Y033176D03*
X040555Y033176D03*
X040555Y034062D03*
X040044Y034062D03*
D12*
X014889Y028943D03*
X014889Y028569D03*
X014889Y028195D03*
X014009Y028195D03*
X014009Y028569D03*
X014009Y028943D03*
D13*
X012757Y027594D03*
X011142Y027594D03*
X031717Y009094D03*
X031717Y008119D03*
X031717Y007119D03*
X033332Y007119D03*
X033332Y008119D03*
X033332Y009094D03*
D14*
X042099Y014243D03*
X042099Y015345D03*
X009724Y027468D03*
X009724Y028570D03*
D15*
X012200Y028619D03*
X012948Y028619D03*
X014075Y027519D03*
X014823Y027519D03*
X014823Y029769D03*
X014075Y029769D03*
X014975Y031044D03*
X015723Y031044D03*
X015723Y031819D03*
X014975Y031819D03*
X010698Y031894D03*
X009950Y031894D03*
X009950Y031119D03*
X010698Y031119D03*
X020125Y031044D03*
X020873Y031044D03*
X020873Y031819D03*
X020125Y031819D03*
X022750Y032094D03*
X023498Y032094D03*
X026510Y031079D03*
X027258Y031079D03*
X027258Y030304D03*
X026510Y030304D03*
X026510Y029529D03*
X027258Y029529D03*
X032550Y029094D03*
X033298Y029094D03*
X033298Y028319D03*
X032550Y028319D03*
X032400Y027369D03*
X033148Y027369D03*
X033148Y026594D03*
X032400Y026594D03*
X034750Y024969D03*
X035498Y024969D03*
X028283Y023154D03*
X027535Y023154D03*
X025573Y020694D03*
X024825Y020694D03*
X023698Y023969D03*
X022950Y023969D03*
X014573Y019519D03*
X013825Y019519D03*
X012473Y020419D03*
X011725Y020419D03*
X011223Y012319D03*
X010475Y012319D03*
X010475Y011544D03*
X011223Y011544D03*
X011223Y010769D03*
X010475Y010769D03*
X010325Y009469D03*
X011073Y009469D03*
X013725Y010719D03*
X014473Y010719D03*
X011223Y006944D03*
X010475Y006944D03*
X024775Y006644D03*
X025523Y006644D03*
X025523Y007419D03*
X024775Y007419D03*
X024825Y008894D03*
X025573Y008894D03*
X025573Y009669D03*
X024825Y009669D03*
X035675Y012794D03*
X036423Y012794D03*
X035498Y031294D03*
X034750Y031294D03*
X035150Y033194D03*
X035898Y033194D03*
X035898Y033969D03*
X035150Y033969D03*
X033828Y033739D03*
X033080Y033739D03*
X035150Y035269D03*
X035898Y035269D03*
X035898Y036044D03*
X035150Y036044D03*
X033813Y035954D03*
X033065Y035954D03*
X036700Y036044D03*
X037448Y036044D03*
X037448Y035269D03*
X036700Y035269D03*
X038250Y035269D03*
X038998Y035269D03*
X038998Y036044D03*
X038250Y036044D03*
X039800Y036044D03*
X040548Y036044D03*
X040548Y035269D03*
X039800Y035269D03*
D16*
X023398Y031034D03*
X023024Y031034D03*
X022650Y031034D03*
X022650Y030154D03*
X023024Y030154D03*
X023398Y030154D03*
X020698Y032729D03*
X020324Y032729D03*
X019950Y032729D03*
X019950Y033609D03*
X020324Y033609D03*
X020698Y033609D03*
X015548Y033609D03*
X015174Y033609D03*
X014800Y033609D03*
X014800Y032729D03*
X015174Y032729D03*
X015548Y032729D03*
X010623Y032729D03*
X010249Y032729D03*
X009875Y032729D03*
X009875Y033609D03*
X010249Y033609D03*
X010623Y033609D03*
X015100Y017589D03*
X015848Y017589D03*
X015848Y016649D03*
X015474Y016649D03*
X015100Y016649D03*
X009723Y013389D03*
X008975Y013389D03*
X008975Y012449D03*
X009349Y012449D03*
X009723Y012449D03*
D17*
X009474Y010129D03*
X009474Y009459D03*
X008759Y008694D03*
X008090Y008694D03*
X012799Y008909D03*
X012799Y009579D03*
X015774Y009579D03*
X015774Y008909D03*
X020699Y016509D03*
X020699Y017179D03*
X019499Y017209D03*
X019499Y017879D03*
X016749Y018209D03*
X016749Y018879D03*
X016074Y018834D03*
X015399Y019134D03*
X016074Y019504D03*
X015399Y019804D03*
X013349Y021234D03*
X013349Y021904D03*
X013740Y025494D03*
X014409Y025494D03*
X014409Y026169D03*
X013740Y026169D03*
X017215Y027144D03*
X017884Y027144D03*
X018790Y027019D03*
X019459Y027019D03*
X019459Y027694D03*
X018790Y027694D03*
X020599Y026654D03*
X021274Y026654D03*
X021274Y025984D03*
X020599Y025984D03*
X022174Y025404D03*
X022174Y024734D03*
X025290Y028094D03*
X025959Y028094D03*
X030374Y029784D03*
X031049Y029784D03*
X031724Y029784D03*
X031724Y030454D03*
X031049Y030454D03*
X030374Y030454D03*
X035684Y029644D03*
X035684Y028974D03*
X035684Y028019D03*
X035684Y027349D03*
X021424Y033034D03*
X021424Y033704D03*
X016274Y033704D03*
X016274Y033034D03*
X015699Y029829D03*
X015699Y029159D03*
X011349Y033034D03*
X011349Y033704D03*
X014449Y017504D03*
X014449Y016834D03*
X028899Y014579D03*
X028899Y013909D03*
D18*
X009914Y005094D03*
X008634Y005094D03*
X009985Y035519D03*
X011265Y035519D03*
X014910Y035519D03*
X016190Y035519D03*
X020060Y035519D03*
X021340Y035519D03*
D19*
X018374Y036024D03*
X018374Y034464D03*
X018374Y032874D03*
X018374Y031314D03*
X013224Y031314D03*
X013224Y032874D03*
X013224Y034464D03*
X013224Y036024D03*
X008249Y036024D03*
X008249Y034464D03*
X008249Y032874D03*
X008249Y031314D03*
D20*
X010490Y007894D03*
X011609Y007894D03*
D21*
X007574Y005468D03*
X007574Y006570D03*
X029599Y029918D03*
X029599Y031020D03*
D22*
X026789Y035606D03*
X026789Y036432D03*
X022824Y036432D03*
X022824Y035606D03*
X029499Y005332D03*
X029499Y004506D03*
X031099Y004506D03*
X031099Y005332D03*
X032699Y005332D03*
X032699Y004506D03*
D23*
X034299Y007020D03*
X034299Y007768D03*
X035074Y007768D03*
X035849Y007768D03*
X035849Y007020D03*
X035074Y007020D03*
X030374Y006795D03*
X030374Y007543D03*
X029599Y007543D03*
X028824Y007543D03*
X028824Y006795D03*
X029599Y006795D03*
X035649Y010945D03*
X035649Y011693D03*
X039049Y011895D03*
X039049Y012643D03*
X041999Y012643D03*
X041999Y011895D03*
X041099Y007743D03*
X041099Y006995D03*
X039799Y006970D03*
X039799Y007718D03*
X028924Y015570D03*
X028924Y016318D03*
X024099Y018820D03*
X024099Y019568D03*
X013724Y017868D03*
X013724Y017120D03*
X012499Y021395D03*
X011724Y021395D03*
X011724Y022143D03*
X012499Y022143D03*
X021899Y029495D03*
X021899Y030243D03*
X024274Y030295D03*
X024274Y031043D03*
X022824Y034120D03*
X022824Y034868D03*
X026789Y034878D03*
X026789Y034130D03*
X031774Y034435D03*
X031774Y035183D03*
X032434Y032108D03*
X033209Y032108D03*
X033209Y031360D03*
X032434Y031360D03*
X039249Y020268D03*
X039249Y019520D03*
X020474Y008263D03*
X020474Y007594D03*
X020474Y006925D03*
X018874Y007470D03*
X018874Y008218D03*
X012674Y007743D03*
X012674Y006995D03*
D24*
X012026Y005119D03*
X021223Y005119D03*
D25*
X020463Y005867D03*
X020266Y005867D03*
X020069Y005867D03*
X019873Y005867D03*
X019676Y005867D03*
X019479Y005867D03*
X019282Y005867D03*
X019085Y005867D03*
X018888Y005867D03*
X018691Y005867D03*
X018495Y005867D03*
X018298Y005867D03*
X018101Y005867D03*
X017904Y005867D03*
X017707Y005867D03*
X017510Y005867D03*
X017313Y005867D03*
X017117Y005867D03*
X016920Y005867D03*
X016723Y005867D03*
X016526Y005867D03*
X016329Y005867D03*
X016132Y005867D03*
X015935Y005867D03*
X015739Y005867D03*
X015542Y005867D03*
X015345Y005867D03*
X015148Y005867D03*
X014951Y005867D03*
X014754Y005867D03*
X014558Y005867D03*
X014361Y005867D03*
X014164Y005867D03*
X013967Y005867D03*
X013770Y005867D03*
X013573Y005867D03*
X013376Y005867D03*
X013180Y005867D03*
X012983Y005867D03*
X012786Y005867D03*
D26*
X016565Y010769D03*
X017234Y010769D03*
X019290Y010769D03*
X019959Y010769D03*
X024715Y010394D03*
X025384Y010394D03*
X025240Y013219D03*
X025909Y013219D03*
X024859Y016494D03*
X024190Y016494D03*
X025565Y017769D03*
X026234Y017769D03*
X028715Y017719D03*
X029384Y017719D03*
X031865Y014419D03*
X032534Y014419D03*
X030759Y009819D03*
X030090Y009819D03*
X018984Y016469D03*
X018315Y016469D03*
X017234Y016469D03*
X016565Y016469D03*
X012409Y016469D03*
X011740Y016469D03*
X014190Y020919D03*
X014859Y020919D03*
X014359Y023694D03*
X013690Y023694D03*
X014315Y024369D03*
X014984Y024369D03*
X015015Y025019D03*
X015684Y025019D03*
X015865Y026269D03*
X016534Y026269D03*
X022840Y024719D03*
X023509Y024719D03*
X023190Y023144D03*
X023859Y023144D03*
X023809Y021719D03*
X023140Y021719D03*
X022984Y020919D03*
X022315Y020919D03*
X022434Y020244D03*
X021765Y020244D03*
X021734Y019569D03*
X021065Y019569D03*
X021384Y018894D03*
X020715Y018894D03*
X027755Y024634D03*
X028424Y024634D03*
X027084Y026769D03*
X026415Y026769D03*
X026705Y028809D03*
X027374Y028809D03*
X028834Y029799D03*
X028834Y030469D03*
X031624Y031134D03*
X031624Y031804D03*
X032740Y029819D03*
X033409Y029819D03*
X033259Y025869D03*
X032590Y025869D03*
X037690Y019344D03*
X038359Y019344D03*
X023409Y029169D03*
X022740Y029169D03*
X010784Y021069D03*
X010115Y021069D03*
X008149Y012404D03*
X008149Y011734D03*
X038815Y033994D03*
X039484Y033994D03*
D27*
X010749Y006192D03*
X010749Y004696D03*
D28*
X013394Y007367D03*
X013650Y007367D03*
X013906Y007367D03*
X014162Y007367D03*
X014418Y007367D03*
X014673Y007367D03*
X014929Y007367D03*
X015185Y007367D03*
X016344Y007367D03*
X016600Y007367D03*
X016856Y007367D03*
X017112Y007367D03*
X017368Y007367D03*
X017623Y007367D03*
X017879Y007367D03*
X018135Y007367D03*
X018135Y009571D03*
X017879Y009571D03*
X017623Y009571D03*
X017368Y009571D03*
X017112Y009571D03*
X016856Y009571D03*
X016600Y009571D03*
X016344Y009571D03*
X015185Y009571D03*
X014929Y009571D03*
X014673Y009571D03*
X014418Y009571D03*
X014162Y009571D03*
X013906Y009571D03*
X013650Y009571D03*
X013394Y009571D03*
X027739Y010042D03*
X027995Y010042D03*
X028250Y010042D03*
X028506Y010042D03*
X028762Y010042D03*
X029018Y010042D03*
X029274Y010042D03*
X029530Y010042D03*
X029530Y012246D03*
X029274Y012246D03*
X029018Y012246D03*
X028762Y012246D03*
X028506Y012246D03*
X028250Y012246D03*
X027995Y012246D03*
X027739Y012246D03*
D29*
X024849Y036394D03*
D30*
X023730Y036744D02*
X023730Y036000D01*
X023730Y036744D02*
X024198Y036744D01*
X024198Y036000D01*
X023730Y036000D01*
X023730Y036082D02*
X024198Y036082D01*
X024198Y036164D02*
X023730Y036164D01*
X023730Y036246D02*
X024198Y036246D01*
X024198Y036328D02*
X023730Y036328D01*
X023730Y036410D02*
X024198Y036410D01*
X024198Y036492D02*
X023730Y036492D01*
X023730Y036574D02*
X024198Y036574D01*
X024198Y036656D02*
X023730Y036656D01*
X023730Y036738D02*
X024198Y036738D01*
X025501Y036744D02*
X025501Y036000D01*
X025501Y036744D02*
X025969Y036744D01*
X025969Y036000D01*
X025501Y036000D01*
X025501Y036082D02*
X025969Y036082D01*
X025969Y036164D02*
X025501Y036164D01*
X025501Y036246D02*
X025969Y036246D01*
X025969Y036328D02*
X025501Y036328D01*
X025501Y036410D02*
X025969Y036410D01*
X025969Y036492D02*
X025501Y036492D01*
X025501Y036574D02*
X025969Y036574D01*
X025969Y036656D02*
X025501Y036656D01*
X025501Y036738D02*
X025969Y036738D01*
X025501Y033437D02*
X025501Y032693D01*
X025501Y033437D02*
X025969Y033437D01*
X025969Y032693D01*
X025501Y032693D01*
X025501Y032775D02*
X025969Y032775D01*
X025969Y032857D02*
X025501Y032857D01*
X025501Y032939D02*
X025969Y032939D01*
X025969Y033021D02*
X025501Y033021D01*
X025501Y033103D02*
X025969Y033103D01*
X025969Y033185D02*
X025501Y033185D01*
X025501Y033267D02*
X025969Y033267D01*
X025969Y033349D02*
X025501Y033349D01*
X025501Y033431D02*
X025969Y033431D01*
X023730Y033437D02*
X023730Y032693D01*
X023730Y033437D02*
X024198Y033437D01*
X024198Y032693D01*
X023730Y032693D01*
X023730Y032775D02*
X024198Y032775D01*
X024198Y032857D02*
X023730Y032857D01*
X023730Y032939D02*
X024198Y032939D01*
X024198Y033021D02*
X023730Y033021D01*
X023730Y033103D02*
X024198Y033103D01*
X024198Y033185D02*
X023730Y033185D01*
X023730Y033267D02*
X024198Y033267D01*
X024198Y033349D02*
X023730Y033349D01*
X023730Y033431D02*
X024198Y033431D01*
D31*
X029999Y017689D03*
X030499Y017689D03*
X030999Y017689D03*
X031499Y017689D03*
X031499Y015749D03*
X030999Y015749D03*
X030499Y015749D03*
X029999Y015749D03*
X028149Y016339D03*
X027649Y016339D03*
X027149Y016339D03*
X026649Y016339D03*
X026649Y014399D03*
X027149Y014399D03*
X027649Y014399D03*
X028149Y014399D03*
D32*
X020669Y015785D03*
X020354Y015785D03*
X020039Y015785D03*
X019724Y015785D03*
X019409Y015785D03*
X019094Y015785D03*
X018779Y015785D03*
X018464Y015785D03*
X018149Y015785D03*
X017834Y015785D03*
X017519Y015785D03*
X017204Y015785D03*
X016889Y015785D03*
X016574Y015785D03*
X016260Y015785D03*
X015945Y015785D03*
X015630Y015785D03*
X015315Y015785D03*
X015000Y015785D03*
X014685Y015785D03*
X014370Y015785D03*
X014055Y015785D03*
X013740Y015785D03*
X013425Y015785D03*
X013110Y015785D03*
X012795Y015785D03*
X012480Y015785D03*
X012480Y011453D03*
X012795Y011453D03*
X013110Y011453D03*
X013425Y011453D03*
X013740Y011453D03*
X014055Y011453D03*
X014370Y011453D03*
X014685Y011453D03*
X015000Y011453D03*
X015315Y011453D03*
X015630Y011453D03*
X015945Y011453D03*
X016260Y011453D03*
X016574Y011453D03*
X016889Y011453D03*
X017204Y011453D03*
X017519Y011453D03*
X017834Y011453D03*
X018149Y011453D03*
X018464Y011453D03*
X018779Y011453D03*
X019094Y011453D03*
X019409Y011453D03*
X019724Y011453D03*
X020039Y011453D03*
X020354Y011453D03*
X020669Y011453D03*
D33*
X022347Y011633D03*
X022347Y011889D03*
X022347Y012145D03*
X022347Y012401D03*
X022347Y012657D03*
X022347Y012913D03*
X022347Y013169D03*
X022347Y013424D03*
X022322Y014158D03*
X022322Y014414D03*
X022322Y014670D03*
X022322Y014926D03*
X022322Y015182D03*
X022322Y015438D03*
X022322Y015694D03*
X022322Y015949D03*
X024527Y015949D03*
X024527Y015694D03*
X024527Y015438D03*
X024527Y015182D03*
X024527Y014926D03*
X024527Y014670D03*
X024527Y014414D03*
X024527Y014158D03*
X024552Y013424D03*
X024552Y013169D03*
X024552Y012913D03*
X024552Y012657D03*
X024552Y012401D03*
X024552Y012145D03*
X024552Y011889D03*
X024552Y011633D03*
D34*
X024939Y017324D03*
X024939Y017520D03*
X024939Y017717D03*
X024939Y017914D03*
X023859Y017914D03*
X023859Y017717D03*
X023859Y017520D03*
X023859Y017324D03*
D35*
G36*
X018599Y021233D02*
X017263Y022569D01*
X018599Y023905D01*
X019935Y022569D01*
X018599Y021233D01*
G37*
D36*
G36*
X017287Y019983D02*
X016926Y019622D01*
X016877Y019671D01*
X017238Y020032D01*
X017287Y019983D01*
G37*
G36*
X017399Y019871D02*
X017038Y019510D01*
X016989Y019559D01*
X017350Y019920D01*
X017399Y019871D01*
G37*
G36*
X017510Y019760D02*
X017149Y019399D01*
X017100Y019448D01*
X017461Y019809D01*
X017510Y019760D01*
G37*
G36*
X017621Y019649D02*
X017260Y019288D01*
X017211Y019337D01*
X017572Y019698D01*
X017621Y019649D01*
G37*
G36*
X017733Y019537D02*
X017372Y019176D01*
X017323Y019225D01*
X017684Y019586D01*
X017733Y019537D01*
G37*
G36*
X017844Y019426D02*
X017483Y019065D01*
X017434Y019114D01*
X017795Y019475D01*
X017844Y019426D01*
G37*
G36*
X017955Y019315D02*
X017594Y018954D01*
X017545Y019003D01*
X017906Y019364D01*
X017955Y019315D01*
G37*
G36*
X018067Y019203D02*
X017706Y018842D01*
X017657Y018891D01*
X018018Y019252D01*
X018067Y019203D01*
G37*
G36*
X018178Y019092D02*
X017817Y018731D01*
X017768Y018780D01*
X018129Y019141D01*
X018178Y019092D01*
G37*
G36*
X018289Y018981D02*
X017928Y018620D01*
X017879Y018669D01*
X018240Y019030D01*
X018289Y018981D01*
G37*
G36*
X018401Y018869D02*
X018040Y018508D01*
X017991Y018557D01*
X018352Y018918D01*
X018401Y018869D01*
G37*
G36*
X019159Y018508D02*
X018798Y018869D01*
X018847Y018918D01*
X019208Y018557D01*
X019159Y018508D01*
G37*
G36*
X019270Y018620D02*
X018909Y018981D01*
X018958Y019030D01*
X019319Y018669D01*
X019270Y018620D01*
G37*
G36*
X019382Y018731D02*
X019021Y019092D01*
X019070Y019141D01*
X019431Y018780D01*
X019382Y018731D01*
G37*
G36*
X019493Y018842D02*
X019132Y019203D01*
X019181Y019252D01*
X019542Y018891D01*
X019493Y018842D01*
G37*
G36*
X019605Y018954D02*
X019244Y019315D01*
X019293Y019364D01*
X019654Y019003D01*
X019605Y018954D01*
G37*
G36*
X019716Y019065D02*
X019355Y019426D01*
X019404Y019475D01*
X019765Y019114D01*
X019716Y019065D01*
G37*
G36*
X019827Y019176D02*
X019466Y019537D01*
X019515Y019586D01*
X019876Y019225D01*
X019827Y019176D01*
G37*
G36*
X019939Y019288D02*
X019578Y019649D01*
X019627Y019698D01*
X019988Y019337D01*
X019939Y019288D01*
G37*
G36*
X020050Y019399D02*
X019689Y019760D01*
X019738Y019809D01*
X020099Y019448D01*
X020050Y019399D01*
G37*
G36*
X020161Y019510D02*
X019800Y019871D01*
X019849Y019920D01*
X020210Y019559D01*
X020161Y019510D01*
G37*
G36*
X020273Y019622D02*
X019912Y019983D01*
X019961Y020032D01*
X020322Y019671D01*
X020273Y019622D01*
G37*
G36*
X020384Y019733D02*
X020023Y020094D01*
X020072Y020143D01*
X020433Y019782D01*
X020384Y019733D01*
G37*
G36*
X020495Y019844D02*
X020134Y020205D01*
X020183Y020254D01*
X020544Y019893D01*
X020495Y019844D01*
G37*
G36*
X020607Y019956D02*
X020246Y020317D01*
X020295Y020366D01*
X020656Y020005D01*
X020607Y019956D01*
G37*
G36*
X020718Y020067D02*
X020357Y020428D01*
X020406Y020477D01*
X020767Y020116D01*
X020718Y020067D01*
G37*
G36*
X020829Y020179D02*
X020468Y020540D01*
X020517Y020589D01*
X020878Y020228D01*
X020829Y020179D01*
G37*
G36*
X020941Y020290D02*
X020580Y020651D01*
X020629Y020700D01*
X020990Y020339D01*
X020941Y020290D01*
G37*
G36*
X021052Y020401D02*
X020691Y020762D01*
X020740Y020811D01*
X021101Y020450D01*
X021052Y020401D01*
G37*
G36*
X021164Y020513D02*
X020803Y020874D01*
X020852Y020923D01*
X021213Y020562D01*
X021164Y020513D01*
G37*
G36*
X021275Y020624D02*
X020914Y020985D01*
X020963Y021034D01*
X021324Y020673D01*
X021275Y020624D01*
G37*
G36*
X021386Y020735D02*
X021025Y021096D01*
X021074Y021145D01*
X021435Y020784D01*
X021386Y020735D01*
G37*
G36*
X021498Y020847D02*
X021137Y021208D01*
X021186Y021257D01*
X021547Y020896D01*
X021498Y020847D01*
G37*
G36*
X021609Y020958D02*
X021248Y021319D01*
X021297Y021368D01*
X021658Y021007D01*
X021609Y020958D01*
G37*
G36*
X021720Y021069D02*
X021359Y021430D01*
X021408Y021479D01*
X021769Y021118D01*
X021720Y021069D01*
G37*
G36*
X021832Y021181D02*
X021471Y021542D01*
X021520Y021591D01*
X021881Y021230D01*
X021832Y021181D01*
G37*
G36*
X021943Y021292D02*
X021582Y021653D01*
X021631Y021702D01*
X021992Y021341D01*
X021943Y021292D01*
G37*
G36*
X022054Y021403D02*
X021693Y021764D01*
X021742Y021813D01*
X022103Y021452D01*
X022054Y021403D01*
G37*
G36*
X022166Y021515D02*
X021805Y021876D01*
X021854Y021925D01*
X022215Y021564D01*
X022166Y021515D01*
G37*
G36*
X022277Y021626D02*
X021916Y021987D01*
X021965Y022036D01*
X022326Y021675D01*
X022277Y021626D01*
G37*
G36*
X022388Y021738D02*
X022027Y022099D01*
X022076Y022148D01*
X022437Y021787D01*
X022388Y021738D01*
G37*
G36*
X022500Y021849D02*
X022139Y022210D01*
X022188Y022259D01*
X022549Y021898D01*
X022500Y021849D01*
G37*
G36*
X022611Y021960D02*
X022250Y022321D01*
X022299Y022370D01*
X022660Y022009D01*
X022611Y021960D01*
G37*
G36*
X022660Y023129D02*
X022299Y022768D01*
X022250Y022817D01*
X022611Y023178D01*
X022660Y023129D01*
G37*
G36*
X022549Y023240D02*
X022188Y022879D01*
X022139Y022928D01*
X022500Y023289D01*
X022549Y023240D01*
G37*
G36*
X022437Y023351D02*
X022076Y022990D01*
X022027Y023039D01*
X022388Y023400D01*
X022437Y023351D01*
G37*
G36*
X022326Y023463D02*
X021965Y023102D01*
X021916Y023151D01*
X022277Y023512D01*
X022326Y023463D01*
G37*
G36*
X022215Y023574D02*
X021854Y023213D01*
X021805Y023262D01*
X022166Y023623D01*
X022215Y023574D01*
G37*
G36*
X022103Y023685D02*
X021742Y023324D01*
X021693Y023373D01*
X022054Y023734D01*
X022103Y023685D01*
G37*
G36*
X021992Y023797D02*
X021631Y023436D01*
X021582Y023485D01*
X021943Y023846D01*
X021992Y023797D01*
G37*
G36*
X021881Y023908D02*
X021520Y023547D01*
X021471Y023596D01*
X021832Y023957D01*
X021881Y023908D01*
G37*
G36*
X021769Y024019D02*
X021408Y023658D01*
X021359Y023707D01*
X021720Y024068D01*
X021769Y024019D01*
G37*
G36*
X021658Y024131D02*
X021297Y023770D01*
X021248Y023819D01*
X021609Y024180D01*
X021658Y024131D01*
G37*
G36*
X021547Y024242D02*
X021186Y023881D01*
X021137Y023930D01*
X021498Y024291D01*
X021547Y024242D01*
G37*
G36*
X021435Y024353D02*
X021074Y023992D01*
X021025Y024041D01*
X021386Y024402D01*
X021435Y024353D01*
G37*
G36*
X021324Y024465D02*
X020963Y024104D01*
X020914Y024153D01*
X021275Y024514D01*
X021324Y024465D01*
G37*
G36*
X021213Y024576D02*
X020852Y024215D01*
X020803Y024264D01*
X021164Y024625D01*
X021213Y024576D01*
G37*
G36*
X021101Y024688D02*
X020740Y024327D01*
X020691Y024376D01*
X021052Y024737D01*
X021101Y024688D01*
G37*
G36*
X020990Y024799D02*
X020629Y024438D01*
X020580Y024487D01*
X020941Y024848D01*
X020990Y024799D01*
G37*
G36*
X020878Y024910D02*
X020517Y024549D01*
X020468Y024598D01*
X020829Y024959D01*
X020878Y024910D01*
G37*
G36*
X020767Y025022D02*
X020406Y024661D01*
X020357Y024710D01*
X020718Y025071D01*
X020767Y025022D01*
G37*
G36*
X020656Y025133D02*
X020295Y024772D01*
X020246Y024821D01*
X020607Y025182D01*
X020656Y025133D01*
G37*
G36*
X020544Y025244D02*
X020183Y024883D01*
X020134Y024932D01*
X020495Y025293D01*
X020544Y025244D01*
G37*
G36*
X020433Y025356D02*
X020072Y024995D01*
X020023Y025044D01*
X020384Y025405D01*
X020433Y025356D01*
G37*
G36*
X020322Y025467D02*
X019961Y025106D01*
X019912Y025155D01*
X020273Y025516D01*
X020322Y025467D01*
G37*
G36*
X020210Y025578D02*
X019849Y025217D01*
X019800Y025266D01*
X020161Y025627D01*
X020210Y025578D01*
G37*
G36*
X020099Y025690D02*
X019738Y025329D01*
X019689Y025378D01*
X020050Y025739D01*
X020099Y025690D01*
G37*
G36*
X019988Y025801D02*
X019627Y025440D01*
X019578Y025489D01*
X019939Y025850D01*
X019988Y025801D01*
G37*
G36*
X019876Y025912D02*
X019515Y025551D01*
X019466Y025600D01*
X019827Y025961D01*
X019876Y025912D01*
G37*
G36*
X019765Y026024D02*
X019404Y025663D01*
X019355Y025712D01*
X019716Y026073D01*
X019765Y026024D01*
G37*
G36*
X019654Y026135D02*
X019293Y025774D01*
X019244Y025823D01*
X019605Y026184D01*
X019654Y026135D01*
G37*
G36*
X019542Y026247D02*
X019181Y025886D01*
X019132Y025935D01*
X019493Y026296D01*
X019542Y026247D01*
G37*
G36*
X019431Y026358D02*
X019070Y025997D01*
X019021Y026046D01*
X019382Y026407D01*
X019431Y026358D01*
G37*
G36*
X019319Y026469D02*
X018958Y026108D01*
X018909Y026157D01*
X019270Y026518D01*
X019319Y026469D01*
G37*
G36*
X019208Y026581D02*
X018847Y026220D01*
X018798Y026269D01*
X019159Y026630D01*
X019208Y026581D01*
G37*
G36*
X018352Y026220D02*
X017991Y026581D01*
X018040Y026630D01*
X018401Y026269D01*
X018352Y026220D01*
G37*
G36*
X018240Y026108D02*
X017879Y026469D01*
X017928Y026518D01*
X018289Y026157D01*
X018240Y026108D01*
G37*
G36*
X018129Y025997D02*
X017768Y026358D01*
X017817Y026407D01*
X018178Y026046D01*
X018129Y025997D01*
G37*
G36*
X018018Y025886D02*
X017657Y026247D01*
X017706Y026296D01*
X018067Y025935D01*
X018018Y025886D01*
G37*
G36*
X017906Y025774D02*
X017545Y026135D01*
X017594Y026184D01*
X017955Y025823D01*
X017906Y025774D01*
G37*
G36*
X017795Y025663D02*
X017434Y026024D01*
X017483Y026073D01*
X017844Y025712D01*
X017795Y025663D01*
G37*
G36*
X017684Y025551D02*
X017323Y025912D01*
X017372Y025961D01*
X017733Y025600D01*
X017684Y025551D01*
G37*
G36*
X017572Y025440D02*
X017211Y025801D01*
X017260Y025850D01*
X017621Y025489D01*
X017572Y025440D01*
G37*
G36*
X017461Y025329D02*
X017100Y025690D01*
X017149Y025739D01*
X017510Y025378D01*
X017461Y025329D01*
G37*
G36*
X017350Y025217D02*
X016989Y025578D01*
X017038Y025627D01*
X017399Y025266D01*
X017350Y025217D01*
G37*
G36*
X017238Y025106D02*
X016877Y025467D01*
X016926Y025516D01*
X017287Y025155D01*
X017238Y025106D01*
G37*
G36*
X017127Y024995D02*
X016766Y025356D01*
X016815Y025405D01*
X017176Y025044D01*
X017127Y024995D01*
G37*
G36*
X017016Y024883D02*
X016655Y025244D01*
X016704Y025293D01*
X017065Y024932D01*
X017016Y024883D01*
G37*
G36*
X016904Y024772D02*
X016543Y025133D01*
X016592Y025182D01*
X016953Y024821D01*
X016904Y024772D01*
G37*
G36*
X016793Y024661D02*
X016432Y025022D01*
X016481Y025071D01*
X016842Y024710D01*
X016793Y024661D01*
G37*
G36*
X016681Y024549D02*
X016320Y024910D01*
X016369Y024959D01*
X016730Y024598D01*
X016681Y024549D01*
G37*
G36*
X016570Y024438D02*
X016209Y024799D01*
X016258Y024848D01*
X016619Y024487D01*
X016570Y024438D01*
G37*
G36*
X016459Y024327D02*
X016098Y024688D01*
X016147Y024737D01*
X016508Y024376D01*
X016459Y024327D01*
G37*
G36*
X016347Y024215D02*
X015986Y024576D01*
X016035Y024625D01*
X016396Y024264D01*
X016347Y024215D01*
G37*
G36*
X016236Y024104D02*
X015875Y024465D01*
X015924Y024514D01*
X016285Y024153D01*
X016236Y024104D01*
G37*
G36*
X016125Y023992D02*
X015764Y024353D01*
X015813Y024402D01*
X016174Y024041D01*
X016125Y023992D01*
G37*
G36*
X016013Y023881D02*
X015652Y024242D01*
X015701Y024291D01*
X016062Y023930D01*
X016013Y023881D01*
G37*
G36*
X015902Y023770D02*
X015541Y024131D01*
X015590Y024180D01*
X015951Y023819D01*
X015902Y023770D01*
G37*
G36*
X015791Y023658D02*
X015430Y024019D01*
X015479Y024068D01*
X015840Y023707D01*
X015791Y023658D01*
G37*
G36*
X015679Y023547D02*
X015318Y023908D01*
X015367Y023957D01*
X015728Y023596D01*
X015679Y023547D01*
G37*
G36*
X015568Y023436D02*
X015207Y023797D01*
X015256Y023846D01*
X015617Y023485D01*
X015568Y023436D01*
G37*
G36*
X015457Y023324D02*
X015096Y023685D01*
X015145Y023734D01*
X015506Y023373D01*
X015457Y023324D01*
G37*
G36*
X015345Y023213D02*
X014984Y023574D01*
X015033Y023623D01*
X015394Y023262D01*
X015345Y023213D01*
G37*
G36*
X015234Y023102D02*
X014873Y023463D01*
X014922Y023512D01*
X015283Y023151D01*
X015234Y023102D01*
G37*
G36*
X015123Y022990D02*
X014762Y023351D01*
X014811Y023400D01*
X015172Y023039D01*
X015123Y022990D01*
G37*
G36*
X015011Y022879D02*
X014650Y023240D01*
X014699Y023289D01*
X015060Y022928D01*
X015011Y022879D01*
G37*
G36*
X014900Y022768D02*
X014539Y023129D01*
X014588Y023178D01*
X014949Y022817D01*
X014900Y022768D01*
G37*
G36*
X014949Y022321D02*
X014588Y021960D01*
X014539Y022009D01*
X014900Y022370D01*
X014949Y022321D01*
G37*
G36*
X015060Y022210D02*
X014699Y021849D01*
X014650Y021898D01*
X015011Y022259D01*
X015060Y022210D01*
G37*
G36*
X015172Y022099D02*
X014811Y021738D01*
X014762Y021787D01*
X015123Y022148D01*
X015172Y022099D01*
G37*
G36*
X015283Y021987D02*
X014922Y021626D01*
X014873Y021675D01*
X015234Y022036D01*
X015283Y021987D01*
G37*
G36*
X015394Y021876D02*
X015033Y021515D01*
X014984Y021564D01*
X015345Y021925D01*
X015394Y021876D01*
G37*
G36*
X015506Y021764D02*
X015145Y021403D01*
X015096Y021452D01*
X015457Y021813D01*
X015506Y021764D01*
G37*
G36*
X015617Y021653D02*
X015256Y021292D01*
X015207Y021341D01*
X015568Y021702D01*
X015617Y021653D01*
G37*
G36*
X015728Y021542D02*
X015367Y021181D01*
X015318Y021230D01*
X015679Y021591D01*
X015728Y021542D01*
G37*
G36*
X015840Y021430D02*
X015479Y021069D01*
X015430Y021118D01*
X015791Y021479D01*
X015840Y021430D01*
G37*
G36*
X015951Y021319D02*
X015590Y020958D01*
X015541Y021007D01*
X015902Y021368D01*
X015951Y021319D01*
G37*
G36*
X016062Y021208D02*
X015701Y020847D01*
X015652Y020896D01*
X016013Y021257D01*
X016062Y021208D01*
G37*
G36*
X016174Y021096D02*
X015813Y020735D01*
X015764Y020784D01*
X016125Y021145D01*
X016174Y021096D01*
G37*
G36*
X016285Y020985D02*
X015924Y020624D01*
X015875Y020673D01*
X016236Y021034D01*
X016285Y020985D01*
G37*
G36*
X016396Y020874D02*
X016035Y020513D01*
X015986Y020562D01*
X016347Y020923D01*
X016396Y020874D01*
G37*
G36*
X016508Y020762D02*
X016147Y020401D01*
X016098Y020450D01*
X016459Y020811D01*
X016508Y020762D01*
G37*
G36*
X016619Y020651D02*
X016258Y020290D01*
X016209Y020339D01*
X016570Y020700D01*
X016619Y020651D01*
G37*
G36*
X016730Y020540D02*
X016369Y020179D01*
X016320Y020228D01*
X016681Y020589D01*
X016730Y020540D01*
G37*
G36*
X016842Y020428D02*
X016481Y020067D01*
X016432Y020116D01*
X016793Y020477D01*
X016842Y020428D01*
G37*
G36*
X016953Y020317D02*
X016592Y019956D01*
X016543Y020005D01*
X016904Y020366D01*
X016953Y020317D01*
G37*
G36*
X017065Y020205D02*
X016704Y019844D01*
X016655Y019893D01*
X017016Y020254D01*
X017065Y020205D01*
G37*
G36*
X017176Y020094D02*
X016815Y019733D01*
X016766Y019782D01*
X017127Y020143D01*
X017176Y020094D01*
G37*
D37*
X008749Y010894D03*
D38*
X008069Y010894D03*
X008069Y010144D03*
X008829Y010144D03*
D39*
X016723Y028394D03*
X017826Y028394D03*
D40*
X010867Y022225D03*
X010867Y021969D03*
X010867Y021713D03*
X009982Y021713D03*
X009982Y022225D03*
D41*
X018924Y028487D03*
X018924Y030101D03*
X020924Y030101D03*
X020924Y028487D03*
X022324Y028101D03*
X024324Y028101D03*
X024324Y026487D03*
X022324Y026487D03*
D42*
X005187Y012398D03*
X005187Y008540D03*
D43*
X006860Y008540D03*
X006860Y012398D03*
D44*
X006850Y011099D03*
X006850Y010784D03*
X006850Y010469D03*
X006850Y010154D03*
X006850Y009839D03*
D45*
G36*
X028658Y025378D02*
X028580Y025456D01*
X029046Y025922D01*
X029124Y025844D01*
X028658Y025378D01*
G37*
G36*
X028797Y025239D02*
X028719Y025317D01*
X029185Y025783D01*
X029263Y025705D01*
X028797Y025239D01*
G37*
G36*
X028936Y025100D02*
X028858Y025178D01*
X029324Y025644D01*
X029402Y025566D01*
X028936Y025100D01*
G37*
G36*
X029076Y024961D02*
X028998Y025039D01*
X029464Y025505D01*
X029542Y025427D01*
X029076Y024961D01*
G37*
G36*
X030301Y025039D02*
X030223Y024961D01*
X029757Y025427D01*
X029835Y025505D01*
X030301Y025039D01*
G37*
G36*
X030441Y025178D02*
X030363Y025100D01*
X029897Y025566D01*
X029975Y025644D01*
X030441Y025178D01*
G37*
G36*
X030580Y025317D02*
X030502Y025239D01*
X030036Y025705D01*
X030114Y025783D01*
X030580Y025317D01*
G37*
G36*
X030719Y025456D02*
X030641Y025378D01*
X030175Y025844D01*
X030253Y025922D01*
X030719Y025456D01*
G37*
G36*
X030858Y025596D02*
X030780Y025518D01*
X030314Y025984D01*
X030392Y026062D01*
X030858Y025596D01*
G37*
G36*
X030997Y025735D02*
X030919Y025657D01*
X030453Y026123D01*
X030531Y026201D01*
X030997Y025735D01*
G37*
G36*
X031137Y025874D02*
X031059Y025796D01*
X030593Y026262D01*
X030671Y026340D01*
X031137Y025874D01*
G37*
G36*
X031276Y026013D02*
X031198Y025935D01*
X030732Y026401D01*
X030810Y026479D01*
X031276Y026013D01*
G37*
G36*
X031415Y026152D02*
X031337Y026074D01*
X030871Y026540D01*
X030949Y026618D01*
X031415Y026152D01*
G37*
G36*
X031554Y026292D02*
X031476Y026214D01*
X031010Y026680D01*
X031088Y026758D01*
X031554Y026292D01*
G37*
G36*
X031693Y026431D02*
X031615Y026353D01*
X031149Y026819D01*
X031227Y026897D01*
X031693Y026431D01*
G37*
G36*
X031833Y026570D02*
X031755Y026492D01*
X031289Y026958D01*
X031367Y027036D01*
X031833Y026570D01*
G37*
G36*
X031367Y027252D02*
X031289Y027330D01*
X031755Y027796D01*
X031833Y027718D01*
X031367Y027252D01*
G37*
G36*
X031227Y027391D02*
X031149Y027469D01*
X031615Y027935D01*
X031693Y027857D01*
X031227Y027391D01*
G37*
G36*
X031088Y027530D02*
X031010Y027608D01*
X031476Y028074D01*
X031554Y027996D01*
X031088Y027530D01*
G37*
G36*
X030949Y027669D02*
X030871Y027747D01*
X031337Y028213D01*
X031415Y028135D01*
X030949Y027669D01*
G37*
G36*
X030810Y027809D02*
X030732Y027887D01*
X031198Y028353D01*
X031276Y028275D01*
X030810Y027809D01*
G37*
G36*
X030671Y027948D02*
X030593Y028026D01*
X031059Y028492D01*
X031137Y028414D01*
X030671Y027948D01*
G37*
G36*
X030531Y028087D02*
X030453Y028165D01*
X030919Y028631D01*
X030997Y028553D01*
X030531Y028087D01*
G37*
G36*
X030392Y028226D02*
X030314Y028304D01*
X030780Y028770D01*
X030858Y028692D01*
X030392Y028226D01*
G37*
G36*
X030253Y028365D02*
X030175Y028443D01*
X030641Y028909D01*
X030719Y028831D01*
X030253Y028365D01*
G37*
G36*
X030114Y028505D02*
X030036Y028583D01*
X030502Y029049D01*
X030580Y028971D01*
X030114Y028505D01*
G37*
G36*
X029975Y028644D02*
X029897Y028722D01*
X030363Y029188D01*
X030441Y029110D01*
X029975Y028644D01*
G37*
G36*
X029835Y028783D02*
X029757Y028861D01*
X030223Y029327D01*
X030301Y029249D01*
X029835Y028783D01*
G37*
G36*
X029542Y028861D02*
X029464Y028783D01*
X028998Y029249D01*
X029076Y029327D01*
X029542Y028861D01*
G37*
G36*
X029402Y028722D02*
X029324Y028644D01*
X028858Y029110D01*
X028936Y029188D01*
X029402Y028722D01*
G37*
G36*
X029263Y028583D02*
X029185Y028505D01*
X028719Y028971D01*
X028797Y029049D01*
X029263Y028583D01*
G37*
G36*
X029124Y028443D02*
X029046Y028365D01*
X028580Y028831D01*
X028658Y028909D01*
X029124Y028443D01*
G37*
G36*
X028985Y028304D02*
X028907Y028226D01*
X028441Y028692D01*
X028519Y028770D01*
X028985Y028304D01*
G37*
G36*
X028846Y028165D02*
X028768Y028087D01*
X028302Y028553D01*
X028380Y028631D01*
X028846Y028165D01*
G37*
G36*
X028706Y028026D02*
X028628Y027948D01*
X028162Y028414D01*
X028240Y028492D01*
X028706Y028026D01*
G37*
G36*
X028567Y027887D02*
X028489Y027809D01*
X028023Y028275D01*
X028101Y028353D01*
X028567Y027887D01*
G37*
G36*
X028428Y027747D02*
X028350Y027669D01*
X027884Y028135D01*
X027962Y028213D01*
X028428Y027747D01*
G37*
G36*
X028289Y027608D02*
X028211Y027530D01*
X027745Y027996D01*
X027823Y028074D01*
X028289Y027608D01*
G37*
G36*
X028150Y027469D02*
X028072Y027391D01*
X027606Y027857D01*
X027684Y027935D01*
X028150Y027469D01*
G37*
G36*
X028010Y027330D02*
X027932Y027252D01*
X027466Y027718D01*
X027544Y027796D01*
X028010Y027330D01*
G37*
G36*
X027544Y026492D02*
X027466Y026570D01*
X027932Y027036D01*
X028010Y026958D01*
X027544Y026492D01*
G37*
G36*
X027684Y026353D02*
X027606Y026431D01*
X028072Y026897D01*
X028150Y026819D01*
X027684Y026353D01*
G37*
G36*
X027823Y026214D02*
X027745Y026292D01*
X028211Y026758D01*
X028289Y026680D01*
X027823Y026214D01*
G37*
G36*
X027962Y026074D02*
X027884Y026152D01*
X028350Y026618D01*
X028428Y026540D01*
X027962Y026074D01*
G37*
G36*
X028101Y025935D02*
X028023Y026013D01*
X028489Y026479D01*
X028567Y026401D01*
X028101Y025935D01*
G37*
G36*
X028240Y025796D02*
X028162Y025874D01*
X028628Y026340D01*
X028706Y026262D01*
X028240Y025796D01*
G37*
G36*
X028380Y025657D02*
X028302Y025735D01*
X028768Y026201D01*
X028846Y026123D01*
X028380Y025657D01*
G37*
G36*
X028519Y025518D02*
X028441Y025596D01*
X028907Y026062D01*
X028985Y025984D01*
X028519Y025518D01*
G37*
D46*
G36*
X029649Y028256D02*
X030761Y027144D01*
X029649Y026032D01*
X028537Y027144D01*
X029649Y028256D01*
G37*
D47*
X032579Y034474D03*
X032579Y034724D03*
X032579Y034984D03*
X032579Y035234D03*
X034299Y035234D03*
X034299Y034984D03*
X034299Y034724D03*
X034299Y034474D03*
D48*
X033439Y034854D03*
D49*
X013295Y029794D03*
X012154Y029794D03*
X037804Y018169D03*
X038945Y018169D03*
D50*
X039774Y012741D03*
X040274Y012741D03*
X040774Y012741D03*
X041274Y012741D03*
X041274Y010497D03*
X040774Y010497D03*
X040274Y010497D03*
X039774Y010497D03*
X038124Y009547D03*
X037624Y009547D03*
X037124Y009547D03*
X036624Y009547D03*
X036624Y011791D03*
X037124Y011791D03*
X037624Y011791D03*
X038124Y011791D03*
D51*
X038474Y008451D03*
X036949Y008451D03*
X036949Y006837D03*
X038474Y006837D03*
D52*
X039799Y008548D03*
X041099Y008548D03*
X041099Y009690D03*
X039799Y009690D03*
D53*
X034126Y019686D03*
X033023Y019686D03*
X033023Y021852D03*
X034126Y021852D03*
D54*
X008474Y007829D03*
X008474Y006709D03*
D55*
X009769Y019247D03*
X009769Y019444D03*
X009769Y019641D03*
X010280Y019641D03*
X010280Y019444D03*
X010280Y019247D03*
X010319Y023497D03*
X010319Y023694D03*
X010319Y023891D03*
X010830Y023891D03*
X010830Y023694D03*
X010830Y023497D03*
D56*
X028018Y033337D03*
X030931Y033337D03*
X030931Y036251D03*
X028018Y036251D03*
D57*
X034814Y019314D03*
X034814Y019054D03*
X034814Y018804D03*
X034814Y018544D03*
X034814Y018284D03*
X034814Y018034D03*
X034814Y017774D03*
X037034Y017774D03*
X037034Y018034D03*
X037034Y018284D03*
X037034Y018544D03*
X037034Y018804D03*
X037034Y019054D03*
X037034Y019314D03*
D58*
X011154Y029074D03*
X011154Y029814D03*
X010294Y029444D03*
M02*
