G75*
G70*
%OFA0B0*%
%FSLAX24Y24*%
%IPPOS*%
%LPD*%
%AMOC8*
5,1,8,0,0,1.08239X$1,22.5*
%
%ADD10C,0.0039*%
%ADD11C,0.0000*%
D10*
X004890Y003669D02*
X043079Y003669D01*
X043079Y003668D02*
X043125Y003670D01*
X043171Y003675D01*
X043217Y003684D01*
X043262Y003697D01*
X043305Y003713D01*
X043347Y003732D01*
X043388Y003755D01*
X043426Y003781D01*
X043463Y003810D01*
X043497Y003841D01*
X043528Y003875D01*
X043557Y003912D01*
X043583Y003950D01*
X043606Y003991D01*
X043625Y004033D01*
X043641Y004076D01*
X043654Y004121D01*
X043663Y004167D01*
X043668Y004213D01*
X043670Y004259D01*
X043670Y036543D01*
X043668Y036589D01*
X043663Y036635D01*
X043654Y036681D01*
X043641Y036726D01*
X043625Y036769D01*
X043606Y036811D01*
X043583Y036852D01*
X043557Y036890D01*
X043528Y036927D01*
X043497Y036961D01*
X043463Y036992D01*
X043426Y037021D01*
X043388Y037047D01*
X043347Y037070D01*
X043305Y037089D01*
X043262Y037105D01*
X043217Y037118D01*
X043171Y037127D01*
X043125Y037132D01*
X043079Y037134D01*
X043079Y037133D02*
X004890Y037133D01*
X004890Y037134D02*
X004844Y037132D01*
X004798Y037127D01*
X004752Y037118D01*
X004707Y037105D01*
X004664Y037089D01*
X004622Y037070D01*
X004581Y037047D01*
X004543Y037021D01*
X004506Y036992D01*
X004472Y036961D01*
X004441Y036927D01*
X004412Y036890D01*
X004386Y036852D01*
X004363Y036811D01*
X004344Y036769D01*
X004328Y036726D01*
X004315Y036681D01*
X004306Y036635D01*
X004301Y036589D01*
X004299Y036543D01*
X004299Y004259D01*
X004301Y004213D01*
X004306Y004167D01*
X004315Y004121D01*
X004328Y004076D01*
X004344Y004033D01*
X004363Y003991D01*
X004386Y003950D01*
X004412Y003912D01*
X004441Y003875D01*
X004472Y003841D01*
X004506Y003810D01*
X004543Y003781D01*
X004581Y003755D01*
X004622Y003732D01*
X004664Y003713D01*
X004707Y003697D01*
X004752Y003684D01*
X004798Y003675D01*
X004844Y003670D01*
X004890Y003668D01*
D11*
X005738Y009603D02*
X005740Y009630D01*
X005746Y009657D01*
X005755Y009683D01*
X005768Y009707D01*
X005784Y009730D01*
X005803Y009749D01*
X005825Y009766D01*
X005849Y009780D01*
X005874Y009790D01*
X005901Y009797D01*
X005928Y009800D01*
X005956Y009799D01*
X005983Y009794D01*
X006009Y009786D01*
X006033Y009774D01*
X006056Y009758D01*
X006077Y009740D01*
X006094Y009719D01*
X006109Y009695D01*
X006120Y009670D01*
X006128Y009644D01*
X006132Y009617D01*
X006132Y009589D01*
X006128Y009562D01*
X006120Y009536D01*
X006109Y009511D01*
X006094Y009487D01*
X006077Y009466D01*
X006056Y009448D01*
X006034Y009432D01*
X006009Y009420D01*
X005983Y009412D01*
X005956Y009407D01*
X005928Y009406D01*
X005901Y009409D01*
X005874Y009416D01*
X005849Y009426D01*
X005825Y009440D01*
X005803Y009457D01*
X005784Y009476D01*
X005768Y009499D01*
X005755Y009523D01*
X005746Y009549D01*
X005740Y009576D01*
X005738Y009603D01*
X005738Y011335D02*
X005740Y011362D01*
X005746Y011389D01*
X005755Y011415D01*
X005768Y011439D01*
X005784Y011462D01*
X005803Y011481D01*
X005825Y011498D01*
X005849Y011512D01*
X005874Y011522D01*
X005901Y011529D01*
X005928Y011532D01*
X005956Y011531D01*
X005983Y011526D01*
X006009Y011518D01*
X006033Y011506D01*
X006056Y011490D01*
X006077Y011472D01*
X006094Y011451D01*
X006109Y011427D01*
X006120Y011402D01*
X006128Y011376D01*
X006132Y011349D01*
X006132Y011321D01*
X006128Y011294D01*
X006120Y011268D01*
X006109Y011243D01*
X006094Y011219D01*
X006077Y011198D01*
X006056Y011180D01*
X006034Y011164D01*
X006009Y011152D01*
X005983Y011144D01*
X005956Y011139D01*
X005928Y011138D01*
X005901Y011141D01*
X005874Y011148D01*
X005849Y011158D01*
X005825Y011172D01*
X005803Y011189D01*
X005784Y011208D01*
X005768Y011231D01*
X005755Y011255D01*
X005746Y011281D01*
X005740Y011308D01*
X005738Y011335D01*
X039819Y025969D02*
X039821Y026019D01*
X039827Y026069D01*
X039837Y026118D01*
X039851Y026166D01*
X039868Y026213D01*
X039889Y026258D01*
X039914Y026302D01*
X039942Y026343D01*
X039974Y026382D01*
X040008Y026419D01*
X040045Y026453D01*
X040085Y026483D01*
X040127Y026510D01*
X040171Y026534D01*
X040217Y026555D01*
X040264Y026571D01*
X040312Y026584D01*
X040362Y026593D01*
X040411Y026598D01*
X040462Y026599D01*
X040512Y026596D01*
X040561Y026589D01*
X040610Y026578D01*
X040658Y026563D01*
X040704Y026545D01*
X040749Y026523D01*
X040792Y026497D01*
X040833Y026468D01*
X040872Y026436D01*
X040908Y026401D01*
X040940Y026363D01*
X040970Y026323D01*
X040997Y026280D01*
X041020Y026236D01*
X041039Y026190D01*
X041055Y026142D01*
X041067Y026093D01*
X041075Y026044D01*
X041079Y025994D01*
X041079Y025944D01*
X041075Y025894D01*
X041067Y025845D01*
X041055Y025796D01*
X041039Y025748D01*
X041020Y025702D01*
X040997Y025658D01*
X040970Y025615D01*
X040940Y025575D01*
X040908Y025537D01*
X040872Y025502D01*
X040833Y025470D01*
X040792Y025441D01*
X040749Y025415D01*
X040704Y025393D01*
X040658Y025375D01*
X040610Y025360D01*
X040561Y025349D01*
X040512Y025342D01*
X040462Y025339D01*
X040411Y025340D01*
X040362Y025345D01*
X040312Y025354D01*
X040264Y025367D01*
X040217Y025383D01*
X040171Y025404D01*
X040127Y025428D01*
X040085Y025455D01*
X040045Y025485D01*
X040008Y025519D01*
X039974Y025556D01*
X039942Y025595D01*
X039914Y025636D01*
X039889Y025680D01*
X039868Y025725D01*
X039851Y025772D01*
X039837Y025820D01*
X039827Y025869D01*
X039821Y025919D01*
X039819Y025969D01*
X039819Y030469D02*
X039821Y030519D01*
X039827Y030569D01*
X039837Y030618D01*
X039851Y030666D01*
X039868Y030713D01*
X039889Y030758D01*
X039914Y030802D01*
X039942Y030843D01*
X039974Y030882D01*
X040008Y030919D01*
X040045Y030953D01*
X040085Y030983D01*
X040127Y031010D01*
X040171Y031034D01*
X040217Y031055D01*
X040264Y031071D01*
X040312Y031084D01*
X040362Y031093D01*
X040411Y031098D01*
X040462Y031099D01*
X040512Y031096D01*
X040561Y031089D01*
X040610Y031078D01*
X040658Y031063D01*
X040704Y031045D01*
X040749Y031023D01*
X040792Y030997D01*
X040833Y030968D01*
X040872Y030936D01*
X040908Y030901D01*
X040940Y030863D01*
X040970Y030823D01*
X040997Y030780D01*
X041020Y030736D01*
X041039Y030690D01*
X041055Y030642D01*
X041067Y030593D01*
X041075Y030544D01*
X041079Y030494D01*
X041079Y030444D01*
X041075Y030394D01*
X041067Y030345D01*
X041055Y030296D01*
X041039Y030248D01*
X041020Y030202D01*
X040997Y030158D01*
X040970Y030115D01*
X040940Y030075D01*
X040908Y030037D01*
X040872Y030002D01*
X040833Y029970D01*
X040792Y029941D01*
X040749Y029915D01*
X040704Y029893D01*
X040658Y029875D01*
X040610Y029860D01*
X040561Y029849D01*
X040512Y029842D01*
X040462Y029839D01*
X040411Y029840D01*
X040362Y029845D01*
X040312Y029854D01*
X040264Y029867D01*
X040217Y029883D01*
X040171Y029904D01*
X040127Y029928D01*
X040085Y029955D01*
X040045Y029985D01*
X040008Y030019D01*
X039974Y030056D01*
X039942Y030095D01*
X039914Y030136D01*
X039889Y030180D01*
X039868Y030225D01*
X039851Y030272D01*
X039837Y030320D01*
X039827Y030369D01*
X039821Y030419D01*
X039819Y030469D01*
M02*
