G75*
G70*
%OFA0B0*%
%FSLAX24Y24*%
%IPPOS*%
%LPD*%
%AMOC8*
5,1,8,0,0,1.08239X$1,22.5*
%
%ADD10C,0.1190*%
%ADD11R,0.1190X0.1190*%
%ADD12C,0.0928*%
%ADD13C,0.0050*%
%ADD14OC8,0.0688*%
%ADD15OC8,0.0637*%
%ADD16C,0.0484*%
%ADD17C,0.0690*%
%ADD18R,0.0690X0.0690*%
%ADD19C,0.1350*%
%ADD20C,0.1090*%
%ADD21R,0.1271X0.1153*%
%ADD22R,0.0562X0.0208*%
%ADD23C,0.0790*%
%ADD24OC8,0.0790*%
%ADD25C,0.0688*%
%ADD26R,0.0681X0.0366*%
%ADD27R,0.1007X0.0661*%
%ADD28R,0.0681X0.0523*%
%ADD29C,0.2255*%
D10*
X007257Y026819D02*
X008357Y026819D01*
X008987Y028239D02*
X008987Y029339D01*
D11*
X006627Y028789D03*
D12*
X006627Y029089D03*
X006627Y028489D03*
X008987Y028489D03*
X008987Y029089D03*
X008107Y026819D03*
X007507Y026819D03*
D13*
X006158Y033295D02*
X006071Y033287D01*
X005984Y033295D01*
X005900Y033317D01*
X005821Y033354D01*
X005750Y033404D01*
X005688Y033466D01*
X005638Y033537D01*
X005601Y033616D01*
X005579Y033700D01*
X005571Y033787D01*
X005579Y033874D01*
X005601Y033958D01*
X005638Y034037D01*
X005688Y034108D01*
X005750Y034170D01*
X005821Y034220D01*
X005900Y034257D01*
X005984Y034279D01*
X006071Y034287D01*
X006158Y034279D01*
X006242Y034257D01*
X006321Y034220D01*
X006393Y034170D01*
X006454Y034108D01*
X006504Y034037D01*
X006541Y033958D01*
X006564Y033874D01*
X006571Y033787D01*
X006564Y033700D01*
X006541Y033616D01*
X006504Y033537D01*
X006454Y033466D01*
X006393Y033404D01*
X006321Y033354D01*
X006242Y033317D01*
X006158Y033295D01*
X006188Y033303D02*
X005955Y033303D01*
X005827Y033351D02*
X006315Y033351D01*
X006386Y033400D02*
X005756Y033400D01*
X005706Y033448D02*
X006437Y033448D01*
X006476Y033497D02*
X005666Y033497D01*
X005634Y033545D02*
X006508Y033545D01*
X006531Y033594D02*
X005612Y033594D01*
X005594Y033642D02*
X006548Y033642D01*
X006561Y033691D02*
X005581Y033691D01*
X005575Y033739D02*
X006567Y033739D01*
X006571Y033788D02*
X005571Y033788D01*
X005575Y033836D02*
X006567Y033836D01*
X006561Y033885D02*
X005582Y033885D01*
X005595Y033933D02*
X006548Y033933D01*
X006530Y033982D02*
X005612Y033982D01*
X005635Y034030D02*
X006507Y034030D01*
X006475Y034079D02*
X005667Y034079D01*
X005707Y034127D02*
X006435Y034127D01*
X006385Y034176D02*
X005758Y034176D01*
X005830Y034224D02*
X006312Y034224D01*
X006184Y034273D02*
X005959Y034273D01*
X043090Y007534D02*
X043151Y007595D01*
X043223Y007645D01*
X043302Y007682D01*
X043386Y007705D01*
X043473Y007712D01*
X043560Y007705D01*
X043644Y007682D01*
X043723Y007645D01*
X043794Y007595D01*
X043856Y007534D01*
X043906Y007462D01*
X043943Y007383D01*
X043965Y007299D01*
X043973Y007212D01*
X043965Y007125D01*
X043943Y007041D01*
X043906Y006962D01*
X043856Y006891D01*
X043794Y006829D01*
X043723Y006779D01*
X043644Y006742D01*
X043560Y006720D01*
X043473Y006712D01*
X043386Y006720D01*
X043302Y006742D01*
X043223Y006779D01*
X043151Y006829D01*
X043090Y006891D01*
X043040Y006962D01*
X043003Y007041D01*
X042980Y007125D01*
X042973Y007212D01*
X042980Y007299D01*
X043003Y007383D01*
X043040Y007462D01*
X043090Y007534D01*
X043105Y007549D02*
X043840Y007549D01*
X043879Y007500D02*
X043066Y007500D01*
X043035Y007452D02*
X043911Y007452D01*
X043933Y007403D02*
X043012Y007403D01*
X042995Y007355D02*
X043950Y007355D01*
X043963Y007306D02*
X042982Y007306D01*
X042977Y007258D02*
X043969Y007258D01*
X043972Y007209D02*
X042973Y007209D01*
X042977Y007161D02*
X043968Y007161D01*
X043962Y007112D02*
X042984Y007112D01*
X042997Y007064D02*
X043949Y007064D01*
X043931Y007015D02*
X043015Y007015D01*
X043037Y006967D02*
X043908Y006967D01*
X043875Y006918D02*
X043070Y006918D01*
X043111Y006870D02*
X043835Y006870D01*
X043783Y006821D02*
X043162Y006821D01*
X043236Y006773D02*
X043709Y006773D01*
X043577Y006724D02*
X043369Y006724D01*
X043154Y007597D02*
X043791Y007597D01*
X043721Y007646D02*
X043224Y007646D01*
X043348Y007694D02*
X043598Y007694D01*
D14*
X040912Y005544D03*
X040912Y004544D03*
X039912Y004544D03*
X039912Y005544D03*
X038912Y005544D03*
X038912Y004544D03*
X037912Y004544D03*
X037912Y005544D03*
X036912Y005544D03*
X036912Y004544D03*
X035912Y004544D03*
X035912Y005544D03*
X034912Y005544D03*
X034912Y004544D03*
X028712Y004544D03*
X028712Y005544D03*
X027712Y005544D03*
X027712Y004544D03*
X026712Y004544D03*
X026712Y005544D03*
X025712Y005544D03*
X025712Y004544D03*
X024712Y004544D03*
X024712Y005544D03*
X026037Y018694D03*
X027037Y018694D03*
X028037Y018694D03*
X029037Y018694D03*
X029037Y019694D03*
X028037Y019694D03*
X027037Y019694D03*
X026037Y019694D03*
X031037Y019269D03*
X032037Y019269D03*
X032037Y020269D03*
X032037Y021269D03*
X031037Y021269D03*
X031037Y020269D03*
X031037Y022269D03*
X032037Y022269D03*
X032037Y023269D03*
X031037Y023269D03*
X011262Y025219D03*
X010262Y025219D03*
X009262Y025219D03*
X009262Y026219D03*
X010262Y026219D03*
X011262Y026219D03*
D15*
X009887Y024269D03*
X009887Y023269D03*
X008887Y023269D03*
X008887Y024269D03*
X008887Y022269D03*
X009887Y022269D03*
X009887Y021269D03*
X009887Y020269D03*
X008887Y020269D03*
X008887Y021269D03*
X008887Y019269D03*
X009887Y019269D03*
X009887Y018269D03*
X009887Y017269D03*
X008887Y017269D03*
X008887Y018269D03*
X008887Y016269D03*
X009887Y016269D03*
X009887Y015269D03*
X008887Y015269D03*
D16*
X006722Y011335D03*
X006722Y009603D03*
D17*
X037737Y026969D03*
X037737Y027969D03*
X038737Y028469D03*
X038737Y029469D03*
X037737Y029969D03*
X037737Y028969D03*
X038737Y027469D03*
X042568Y026729D03*
X043237Y025729D03*
X043237Y029709D03*
X042568Y030709D03*
D18*
X038737Y026469D03*
D19*
X041237Y025969D03*
X041237Y030469D03*
D20*
X040036Y031270D03*
X040036Y025168D03*
D21*
X042512Y022599D03*
X042512Y017339D03*
D22*
X041764Y018099D03*
X041764Y018296D03*
X041764Y018493D03*
X041764Y018689D03*
X041764Y018886D03*
X041764Y019083D03*
X041764Y019280D03*
X041764Y019477D03*
X041764Y019674D03*
X041764Y019870D03*
X041764Y020067D03*
X041764Y020264D03*
X041764Y020461D03*
X041764Y020658D03*
X041764Y020855D03*
X041764Y021052D03*
X041764Y021248D03*
X041764Y021445D03*
X041764Y021642D03*
X041764Y021839D03*
D23*
X036068Y021969D03*
D24*
X040005Y021969D03*
D25*
X030762Y034495D02*
X030762Y035093D01*
X029762Y035093D02*
X029762Y034495D01*
D26*
X043248Y013327D03*
X043248Y012894D03*
X043248Y012461D03*
X043248Y012028D03*
X043248Y011595D03*
X043248Y011162D03*
X043248Y010729D03*
X043248Y010296D03*
D27*
X043027Y008819D03*
D28*
X038169Y009607D03*
X038169Y011300D03*
D29*
X006465Y005047D03*
X043079Y005047D03*
X043079Y035756D03*
X006465Y035756D03*
M02*
