G75*
G70*
%OFA0B0*%
%FSLAX24Y24*%
%IPPOS*%
%LPD*%
%AMOC8*
5,1,8,0,0,1.08239X$1,22.5*
%
%ADD10R,0.0260X0.0740*%
%ADD11R,0.0247X0.0425*%
%ADD12C,0.1190*%
%ADD13R,0.1190X0.1190*%
%ADD14C,0.0917*%
%ADD15R,0.0670X0.0310*%
%ADD16R,0.0799X0.0759*%
%ADD17R,0.1153X0.0720*%
%ADD18R,0.0602X0.0681*%
%ADD19R,0.0310X0.0670*%
%ADD20R,0.0484X0.0523*%
%ADD21R,0.0779X0.0681*%
%ADD22R,0.0390X0.1220*%
%ADD23R,0.0720X0.0800*%
%ADD24R,0.0799X0.0720*%
%ADD25R,0.0562X0.0562*%
%ADD26R,0.0681X0.0602*%
%ADD27R,0.1153X0.1271*%
%ADD28R,0.0208X0.0562*%
%ADD29R,0.0523X0.0484*%
%ADD30R,0.0641X0.0641*%
%ADD31C,0.0050*%
%ADD32R,0.0228X0.0720*%
%ADD33C,0.0096*%
%ADD34R,0.0310X0.0870*%
%ADD35R,0.0287X0.0562*%
%ADD36R,0.0720X0.0228*%
%ADD37R,0.0550X0.0190*%
%ADD38OC8,0.0681*%
%ADD39R,0.1980X0.1980*%
%ADD40R,0.0602X0.0161*%
%ADD41OC8,0.0630*%
%ADD42R,0.0460X0.0610*%
%ADD43R,0.0310X0.0710*%
%ADD44R,0.0720X0.1153*%
%ADD45R,0.0425X0.0247*%
%ADD46R,0.0838X0.0877*%
%ADD47C,0.0484*%
%ADD48R,0.1665X0.0897*%
%ADD49R,0.1468X0.0897*%
%ADD50R,0.0976X0.0287*%
%ADD51R,0.0200X0.0750*%
%ADD52R,0.1665X0.1665*%
%ADD53R,0.0650X0.0260*%
%ADD54R,0.0710X0.0830*%
%ADD55C,0.0690*%
%ADD56R,0.0690X0.0690*%
%ADD57C,0.1350*%
%ADD58C,0.1090*%
%ADD59R,0.0681X0.0562*%
%ADD60C,0.0790*%
%ADD61OC8,0.0790*%
%ADD62R,0.0326X0.0779*%
%ADD63R,0.0759X0.0799*%
%ADD64R,0.0562X0.0681*%
%ADD65R,0.0720X0.0444*%
%ADD66R,0.0800X0.0720*%
%ADD67R,0.0347X0.0208*%
%ADD68R,0.0720X0.0720*%
%ADD69C,0.0681*%
%ADD70R,0.0670X0.0230*%
%ADD71R,0.0610X0.0310*%
%ADD72C,0.2255*%
D10*
X021599Y006814D03*
X021849Y006814D03*
X022109Y006814D03*
X022369Y006814D03*
X022619Y006814D03*
X022879Y006814D03*
X023129Y006814D03*
X023389Y006814D03*
X023649Y006814D03*
X023899Y006814D03*
X023899Y009674D03*
X023649Y009674D03*
X023389Y009674D03*
X023129Y009674D03*
X022879Y009674D03*
X022619Y009674D03*
X022369Y009674D03*
X022109Y009674D03*
X021849Y009674D03*
X021599Y009674D03*
X031114Y010764D03*
X031364Y010764D03*
X031624Y010764D03*
X031874Y010764D03*
X032134Y010764D03*
X032394Y010764D03*
X032644Y010764D03*
X032904Y010764D03*
X033154Y010764D03*
X033414Y010764D03*
X033674Y010764D03*
X033924Y010764D03*
X034184Y010764D03*
X034434Y010764D03*
X034434Y013624D03*
X034184Y013624D03*
X033924Y013624D03*
X033674Y013624D03*
X033414Y013624D03*
X033154Y013624D03*
X032904Y013624D03*
X032644Y013624D03*
X032394Y013624D03*
X032134Y013624D03*
X031874Y013624D03*
X031624Y013624D03*
X031364Y013624D03*
X031114Y013624D03*
D11*
X009805Y007662D03*
X009294Y007662D03*
X009294Y006776D03*
X009549Y006776D03*
X009805Y006776D03*
X040044Y033176D03*
X040299Y033176D03*
X040555Y033176D03*
X040555Y034062D03*
X040044Y034062D03*
D12*
X008199Y029339D02*
X008199Y028239D01*
X007569Y026819D02*
X006469Y026819D01*
D13*
X005839Y028789D03*
D14*
X005839Y029089D03*
X005839Y028489D03*
X008199Y028489D03*
X008199Y029089D03*
X007319Y026819D03*
X006719Y026819D03*
D15*
X014009Y028195D03*
X014009Y028569D03*
X014009Y028943D03*
X014889Y028943D03*
X014889Y028569D03*
X014889Y028195D03*
D16*
X012757Y027594D03*
X011142Y027594D03*
X031717Y009094D03*
X031717Y008119D03*
X031717Y007119D03*
X033332Y007119D03*
X033332Y008119D03*
X033332Y009094D03*
D17*
X042224Y010193D03*
X042224Y011295D03*
X009724Y027468D03*
X009724Y028570D03*
D18*
X012200Y028619D03*
X012948Y028619D03*
X014075Y027519D03*
X014823Y027519D03*
X014823Y029769D03*
X014075Y029769D03*
X014975Y031044D03*
X015723Y031044D03*
X015723Y031819D03*
X014975Y031819D03*
X010698Y031894D03*
X009950Y031894D03*
X009950Y031119D03*
X010698Y031119D03*
X020125Y031044D03*
X020873Y031044D03*
X020873Y031819D03*
X020125Y031819D03*
X022750Y032094D03*
X023498Y032094D03*
X026510Y031079D03*
X027258Y031079D03*
X027258Y030304D03*
X026510Y030304D03*
X026510Y029529D03*
X027258Y029529D03*
X032550Y029094D03*
X033298Y029094D03*
X033298Y028319D03*
X032550Y028319D03*
X032400Y027369D03*
X033148Y027369D03*
X033148Y026594D03*
X032400Y026594D03*
X034750Y024969D03*
X035498Y024969D03*
X028283Y023154D03*
X027535Y023154D03*
X025573Y020694D03*
X024825Y020694D03*
X023698Y023969D03*
X022950Y023969D03*
X014573Y019519D03*
X013825Y019519D03*
X012473Y020419D03*
X011725Y020419D03*
X011223Y012319D03*
X010475Y012319D03*
X010475Y011544D03*
X011223Y011544D03*
X011223Y010769D03*
X010475Y010769D03*
X010325Y009469D03*
X011073Y009469D03*
X013725Y010719D03*
X014473Y010719D03*
X011223Y006944D03*
X010475Y006944D03*
X024775Y006644D03*
X025523Y006644D03*
X025523Y007419D03*
X024775Y007419D03*
X024825Y008894D03*
X025573Y008894D03*
X025573Y009669D03*
X024825Y009669D03*
X035675Y012794D03*
X036423Y012794D03*
X035498Y031294D03*
X034750Y031294D03*
X035150Y033194D03*
X035898Y033194D03*
X035898Y033969D03*
X035150Y033969D03*
X033828Y033739D03*
X033080Y033739D03*
X035150Y035269D03*
X035898Y035269D03*
X035898Y036044D03*
X035150Y036044D03*
X033813Y035954D03*
X033065Y035954D03*
X036700Y036044D03*
X037448Y036044D03*
X037448Y035269D03*
X036700Y035269D03*
X038250Y035269D03*
X038998Y035269D03*
X038998Y036044D03*
X038250Y036044D03*
X039800Y036044D03*
X040548Y036044D03*
X040548Y035269D03*
X039800Y035269D03*
D19*
X023398Y031034D03*
X023024Y031034D03*
X022650Y031034D03*
X022650Y030154D03*
X023024Y030154D03*
X023398Y030154D03*
X020698Y032729D03*
X020324Y032729D03*
X019950Y032729D03*
X019950Y033609D03*
X020324Y033609D03*
X020698Y033609D03*
X015548Y033609D03*
X015174Y033609D03*
X014800Y033609D03*
X014800Y032729D03*
X015174Y032729D03*
X015548Y032729D03*
X010623Y032729D03*
X010249Y032729D03*
X009875Y032729D03*
X009875Y033609D03*
X010249Y033609D03*
X010623Y033609D03*
X015100Y017589D03*
X015848Y017589D03*
X015848Y016649D03*
X015474Y016649D03*
X015100Y016649D03*
X009723Y013389D03*
X008975Y013389D03*
X008975Y012449D03*
X009349Y012449D03*
X009723Y012449D03*
D20*
X009474Y010129D03*
X009474Y009459D03*
X008759Y008694D03*
X008090Y008694D03*
X012799Y008909D03*
X012799Y009579D03*
X015774Y009579D03*
X015774Y008909D03*
X020699Y016509D03*
X020699Y017179D03*
X019499Y017209D03*
X019499Y017879D03*
X016749Y018209D03*
X016749Y018879D03*
X016074Y018834D03*
X015399Y019134D03*
X016074Y019504D03*
X015399Y019804D03*
X013349Y021234D03*
X013349Y021904D03*
X013740Y025494D03*
X014409Y025494D03*
X014409Y026169D03*
X013740Y026169D03*
X017215Y027144D03*
X017884Y027144D03*
X018790Y027019D03*
X019459Y027019D03*
X019459Y027694D03*
X018790Y027694D03*
X020599Y026654D03*
X021274Y026654D03*
X021274Y025984D03*
X020599Y025984D03*
X022174Y025404D03*
X022174Y024734D03*
X025290Y028094D03*
X025959Y028094D03*
X030374Y029784D03*
X031049Y029784D03*
X031724Y029784D03*
X031724Y030454D03*
X031049Y030454D03*
X030374Y030454D03*
X035684Y029644D03*
X035684Y028974D03*
X035684Y028019D03*
X035684Y027349D03*
X021424Y033034D03*
X021424Y033704D03*
X016274Y033704D03*
X016274Y033034D03*
X015699Y029829D03*
X015699Y029159D03*
X011349Y033034D03*
X011349Y033704D03*
X014449Y017504D03*
X014449Y016834D03*
X028899Y014579D03*
X028899Y013909D03*
D21*
X009914Y005094D03*
X008634Y005094D03*
X009985Y035519D03*
X011265Y035519D03*
X014910Y035519D03*
X016190Y035519D03*
X020060Y035519D03*
X021340Y035519D03*
D22*
X018374Y036024D03*
X018374Y034464D03*
X018374Y032874D03*
X018374Y031314D03*
X013224Y031314D03*
X013224Y032874D03*
X013224Y034464D03*
X013224Y036024D03*
X008249Y036024D03*
X008249Y034464D03*
X008249Y032874D03*
X008249Y031314D03*
D23*
X010490Y007894D03*
X011609Y007894D03*
D24*
X007574Y006570D03*
X007574Y005468D03*
X029599Y029918D03*
X029599Y031020D03*
D25*
X026789Y035606D03*
X026789Y036432D03*
X022824Y036432D03*
X022824Y035606D03*
X029499Y005332D03*
X029499Y004506D03*
X031099Y004506D03*
X031099Y005332D03*
X032699Y005332D03*
X032699Y004506D03*
D26*
X034299Y007020D03*
X034299Y007768D03*
X035074Y007768D03*
X035849Y007768D03*
X035849Y007020D03*
X035074Y007020D03*
X030374Y006795D03*
X030374Y007543D03*
X029599Y007543D03*
X028824Y007543D03*
X028824Y006795D03*
X029599Y006795D03*
X035649Y010945D03*
X035649Y011693D03*
X038674Y012495D03*
X038674Y013243D03*
X041624Y013243D03*
X041624Y012495D03*
X041099Y007743D03*
X041099Y006995D03*
X039799Y006970D03*
X039799Y007718D03*
X028924Y015570D03*
X028924Y016318D03*
X024099Y018820D03*
X024099Y019568D03*
X013724Y017868D03*
X013724Y017120D03*
X012499Y021395D03*
X011724Y021395D03*
X011724Y022143D03*
X012499Y022143D03*
X021899Y029495D03*
X021899Y030243D03*
X024274Y030295D03*
X024274Y031043D03*
X022824Y034120D03*
X022824Y034868D03*
X026789Y034878D03*
X026789Y034130D03*
X031774Y034435D03*
X031774Y035183D03*
X032434Y032108D03*
X033209Y032108D03*
X033209Y031360D03*
X032434Y031360D03*
X039249Y020268D03*
X039249Y019520D03*
X020474Y008263D03*
X020474Y007594D03*
X020474Y006925D03*
X018874Y007470D03*
X018874Y008218D03*
X012674Y007743D03*
X012674Y006995D03*
D27*
X012026Y005119D03*
X021223Y005119D03*
D28*
X020463Y005867D03*
X020266Y005867D03*
X020069Y005867D03*
X019873Y005867D03*
X019676Y005867D03*
X019479Y005867D03*
X019282Y005867D03*
X019085Y005867D03*
X018888Y005867D03*
X018691Y005867D03*
X018495Y005867D03*
X018298Y005867D03*
X018101Y005867D03*
X017904Y005867D03*
X017707Y005867D03*
X017510Y005867D03*
X017313Y005867D03*
X017117Y005867D03*
X016920Y005867D03*
X016723Y005867D03*
X016526Y005867D03*
X016329Y005867D03*
X016132Y005867D03*
X015935Y005867D03*
X015739Y005867D03*
X015542Y005867D03*
X015345Y005867D03*
X015148Y005867D03*
X014951Y005867D03*
X014754Y005867D03*
X014558Y005867D03*
X014361Y005867D03*
X014164Y005867D03*
X013967Y005867D03*
X013770Y005867D03*
X013573Y005867D03*
X013376Y005867D03*
X013180Y005867D03*
X012983Y005867D03*
X012786Y005867D03*
D29*
X016565Y010769D03*
X017234Y010769D03*
X019290Y010769D03*
X019959Y010769D03*
X024715Y010394D03*
X025384Y010394D03*
X025240Y013219D03*
X025909Y013219D03*
X024859Y016494D03*
X024190Y016494D03*
X025565Y017769D03*
X026234Y017769D03*
X028715Y017719D03*
X029384Y017719D03*
X031865Y014419D03*
X032534Y014419D03*
X030759Y009819D03*
X030090Y009819D03*
X018984Y016469D03*
X018315Y016469D03*
X017234Y016469D03*
X016565Y016469D03*
X012409Y016469D03*
X011740Y016469D03*
X014190Y020919D03*
X014859Y020919D03*
X014359Y023694D03*
X013690Y023694D03*
X014315Y024369D03*
X014984Y024369D03*
X015015Y025019D03*
X015684Y025019D03*
X015865Y026269D03*
X016534Y026269D03*
X022840Y024719D03*
X023509Y024719D03*
X023190Y023144D03*
X023859Y023144D03*
X023809Y021719D03*
X023140Y021719D03*
X022984Y020919D03*
X022315Y020919D03*
X022434Y020244D03*
X021765Y020244D03*
X021734Y019569D03*
X021065Y019569D03*
X021384Y018894D03*
X020715Y018894D03*
X027755Y024634D03*
X028424Y024634D03*
X027084Y026769D03*
X026415Y026769D03*
X026705Y028809D03*
X027374Y028809D03*
X028834Y029799D03*
X028834Y030469D03*
X031624Y031134D03*
X031624Y031804D03*
X032740Y029819D03*
X033409Y029819D03*
X033259Y025869D03*
X032590Y025869D03*
X037690Y019344D03*
X038359Y019344D03*
X023409Y029169D03*
X022740Y029169D03*
X010784Y021069D03*
X010115Y021069D03*
X008149Y012404D03*
X008149Y011734D03*
X038815Y033994D03*
X039484Y033994D03*
D30*
X010749Y006192D03*
X010749Y004696D03*
D31*
X042185Y007212D02*
X042193Y007299D01*
X042215Y007383D01*
X042252Y007462D01*
X042302Y007534D01*
X042364Y007595D01*
X042435Y007645D01*
X042514Y007682D01*
X042598Y007705D01*
X042685Y007712D01*
X042772Y007705D01*
X042856Y007682D01*
X042935Y007645D01*
X043007Y007595D01*
X043068Y007534D01*
X043118Y007462D01*
X043155Y007383D01*
X043178Y007299D01*
X043185Y007212D01*
X043178Y007125D01*
X043155Y007041D01*
X043118Y006962D01*
X043068Y006891D01*
X043007Y006829D01*
X042935Y006779D01*
X042856Y006742D01*
X042772Y006720D01*
X042685Y006712D01*
X042598Y006720D01*
X042514Y006742D01*
X042435Y006779D01*
X042364Y006829D01*
X042302Y006891D01*
X042252Y006962D01*
X042215Y007041D01*
X042193Y007125D01*
X042185Y007212D01*
X042186Y007209D02*
X043185Y007209D01*
X043181Y007161D02*
X042190Y007161D01*
X042196Y007112D02*
X043174Y007112D01*
X043161Y007064D02*
X042209Y007064D01*
X042227Y007015D02*
X043143Y007015D01*
X043121Y006967D02*
X042250Y006967D01*
X042283Y006918D02*
X043088Y006918D01*
X043047Y006870D02*
X042323Y006870D01*
X042375Y006821D02*
X042996Y006821D01*
X042922Y006773D02*
X042449Y006773D01*
X042581Y006724D02*
X042789Y006724D01*
X043181Y007258D02*
X042189Y007258D01*
X042195Y007306D02*
X043176Y007306D01*
X043163Y007355D02*
X042208Y007355D01*
X042225Y007403D02*
X043146Y007403D01*
X043123Y007452D02*
X042247Y007452D01*
X042279Y007500D02*
X043092Y007500D01*
X043053Y007549D02*
X042318Y007549D01*
X042367Y007597D02*
X043004Y007597D01*
X042934Y007646D02*
X042437Y007646D01*
X042560Y007694D02*
X042810Y007694D01*
X005717Y033537D02*
X005754Y033616D01*
X005776Y033700D01*
X005784Y033787D01*
X005776Y033874D01*
X005754Y033958D01*
X005717Y034037D01*
X005667Y034108D01*
X005605Y034170D01*
X005534Y034220D01*
X005455Y034257D01*
X005371Y034279D01*
X005284Y034287D01*
X005197Y034279D01*
X005113Y034257D01*
X005034Y034220D01*
X004962Y034170D01*
X004901Y034108D01*
X004851Y034037D01*
X004814Y033958D01*
X004791Y033874D01*
X004784Y033787D01*
X004791Y033700D01*
X004814Y033616D01*
X004851Y033537D01*
X004901Y033466D01*
X004962Y033404D01*
X005034Y033354D01*
X005113Y033317D01*
X005197Y033295D01*
X005284Y033287D01*
X005371Y033295D01*
X005455Y033317D01*
X005534Y033354D01*
X005605Y033404D01*
X005667Y033466D01*
X005717Y033537D01*
X005720Y033545D02*
X004847Y033545D01*
X004824Y033594D02*
X005743Y033594D01*
X005761Y033642D02*
X004807Y033642D01*
X004794Y033691D02*
X005774Y033691D01*
X005780Y033739D02*
X004788Y033739D01*
X004784Y033788D02*
X005784Y033788D01*
X005779Y033836D02*
X004788Y033836D01*
X004794Y033885D02*
X005773Y033885D01*
X005760Y033933D02*
X004807Y033933D01*
X004825Y033982D02*
X005743Y033982D01*
X005720Y034030D02*
X004847Y034030D01*
X004880Y034079D02*
X005688Y034079D01*
X005648Y034127D02*
X004919Y034127D01*
X004970Y034176D02*
X005597Y034176D01*
X005525Y034224D02*
X005042Y034224D01*
X005171Y034273D02*
X005396Y034273D01*
X005688Y033497D02*
X004879Y033497D01*
X004918Y033448D02*
X005649Y033448D01*
X005599Y033400D02*
X004969Y033400D01*
X005040Y033351D02*
X005527Y033351D01*
X005400Y033303D02*
X005167Y033303D01*
D32*
X027739Y012246D03*
X027995Y012246D03*
X028250Y012246D03*
X028506Y012246D03*
X028762Y012246D03*
X029018Y012246D03*
X029274Y012246D03*
X029530Y012246D03*
X029530Y010042D03*
X029274Y010042D03*
X029018Y010042D03*
X028762Y010042D03*
X028506Y010042D03*
X028250Y010042D03*
X027995Y010042D03*
X027739Y010042D03*
X018135Y009571D03*
X017879Y009571D03*
X017623Y009571D03*
X017368Y009571D03*
X017112Y009571D03*
X016856Y009571D03*
X016600Y009571D03*
X016344Y009571D03*
X015185Y009571D03*
X014929Y009571D03*
X014673Y009571D03*
X014418Y009571D03*
X014162Y009571D03*
X013906Y009571D03*
X013650Y009571D03*
X013394Y009571D03*
X013394Y007367D03*
X013650Y007367D03*
X013906Y007367D03*
X014162Y007367D03*
X014418Y007367D03*
X014673Y007367D03*
X014929Y007367D03*
X015185Y007367D03*
X016344Y007367D03*
X016600Y007367D03*
X016856Y007367D03*
X017112Y007367D03*
X017368Y007367D03*
X017623Y007367D03*
X017879Y007367D03*
X018135Y007367D03*
D33*
X023692Y032655D02*
X023692Y033475D01*
X024236Y033475D01*
X024236Y032655D01*
X023692Y032655D01*
X023692Y032750D02*
X024236Y032750D01*
X024236Y032845D02*
X023692Y032845D01*
X023692Y032940D02*
X024236Y032940D01*
X024236Y033035D02*
X023692Y033035D01*
X023692Y033130D02*
X024236Y033130D01*
X024236Y033225D02*
X023692Y033225D01*
X023692Y033320D02*
X024236Y033320D01*
X024236Y033415D02*
X023692Y033415D01*
X025463Y033475D02*
X025463Y032655D01*
X025463Y033475D02*
X026007Y033475D01*
X026007Y032655D01*
X025463Y032655D01*
X025463Y032750D02*
X026007Y032750D01*
X026007Y032845D02*
X025463Y032845D01*
X025463Y032940D02*
X026007Y032940D01*
X026007Y033035D02*
X025463Y033035D01*
X025463Y033130D02*
X026007Y033130D01*
X026007Y033225D02*
X025463Y033225D01*
X025463Y033320D02*
X026007Y033320D01*
X026007Y033415D02*
X025463Y033415D01*
X025463Y035962D02*
X025463Y036782D01*
X026007Y036782D01*
X026007Y035962D01*
X025463Y035962D01*
X025463Y036057D02*
X026007Y036057D01*
X026007Y036152D02*
X025463Y036152D01*
X025463Y036247D02*
X026007Y036247D01*
X026007Y036342D02*
X025463Y036342D01*
X025463Y036437D02*
X026007Y036437D01*
X026007Y036532D02*
X025463Y036532D01*
X025463Y036627D02*
X026007Y036627D01*
X026007Y036722D02*
X025463Y036722D01*
X024577Y036782D02*
X024577Y035962D01*
X024577Y036782D02*
X025121Y036782D01*
X025121Y035962D01*
X024577Y035962D01*
X024577Y036057D02*
X025121Y036057D01*
X025121Y036152D02*
X024577Y036152D01*
X024577Y036247D02*
X025121Y036247D01*
X025121Y036342D02*
X024577Y036342D01*
X024577Y036437D02*
X025121Y036437D01*
X025121Y036532D02*
X024577Y036532D01*
X024577Y036627D02*
X025121Y036627D01*
X025121Y036722D02*
X024577Y036722D01*
X023692Y036782D02*
X023692Y035962D01*
X023692Y036782D02*
X024236Y036782D01*
X024236Y035962D01*
X023692Y035962D01*
X023692Y036057D02*
X024236Y036057D01*
X024236Y036152D02*
X023692Y036152D01*
X023692Y036247D02*
X024236Y036247D01*
X024236Y036342D02*
X023692Y036342D01*
X023692Y036437D02*
X024236Y036437D01*
X024236Y036532D02*
X023692Y036532D01*
X023692Y036627D02*
X024236Y036627D01*
X024236Y036722D02*
X023692Y036722D01*
D34*
X029999Y017689D03*
X030499Y017689D03*
X030999Y017689D03*
X031499Y017689D03*
X031499Y015749D03*
X030999Y015749D03*
X030499Y015749D03*
X029999Y015749D03*
X028149Y016339D03*
X027649Y016339D03*
X027149Y016339D03*
X026649Y016339D03*
X026649Y014399D03*
X027149Y014399D03*
X027649Y014399D03*
X028149Y014399D03*
D35*
X020669Y015785D03*
X020354Y015785D03*
X020039Y015785D03*
X019724Y015785D03*
X019409Y015785D03*
X019094Y015785D03*
X018779Y015785D03*
X018464Y015785D03*
X018149Y015785D03*
X017834Y015785D03*
X017519Y015785D03*
X017204Y015785D03*
X016889Y015785D03*
X016574Y015785D03*
X016260Y015785D03*
X015945Y015785D03*
X015630Y015785D03*
X015315Y015785D03*
X015000Y015785D03*
X014685Y015785D03*
X014370Y015785D03*
X014055Y015785D03*
X013740Y015785D03*
X013425Y015785D03*
X013110Y015785D03*
X012795Y015785D03*
X012480Y015785D03*
X012480Y011453D03*
X012795Y011453D03*
X013110Y011453D03*
X013425Y011453D03*
X013740Y011453D03*
X014055Y011453D03*
X014370Y011453D03*
X014685Y011453D03*
X015000Y011453D03*
X015315Y011453D03*
X015630Y011453D03*
X015945Y011453D03*
X016260Y011453D03*
X016574Y011453D03*
X016889Y011453D03*
X017204Y011453D03*
X017519Y011453D03*
X017834Y011453D03*
X018149Y011453D03*
X018464Y011453D03*
X018779Y011453D03*
X019094Y011453D03*
X019409Y011453D03*
X019724Y011453D03*
X020039Y011453D03*
X020354Y011453D03*
X020669Y011453D03*
D36*
X022347Y011633D03*
X022347Y011889D03*
X022347Y012145D03*
X022347Y012401D03*
X022347Y012657D03*
X022347Y012913D03*
X022347Y013169D03*
X022347Y013424D03*
X022322Y014158D03*
X022322Y014414D03*
X022322Y014670D03*
X022322Y014926D03*
X022322Y015182D03*
X022322Y015438D03*
X022322Y015694D03*
X022322Y015949D03*
X024527Y015949D03*
X024527Y015694D03*
X024527Y015438D03*
X024527Y015182D03*
X024527Y014926D03*
X024527Y014670D03*
X024527Y014414D03*
X024527Y014158D03*
X024552Y013424D03*
X024552Y013169D03*
X024552Y012913D03*
X024552Y012657D03*
X024552Y012401D03*
X024552Y012145D03*
X024552Y011889D03*
X024552Y011633D03*
D37*
X024939Y017324D03*
X024939Y017520D03*
X024939Y017717D03*
X024939Y017914D03*
X023859Y017914D03*
X023859Y017717D03*
X023859Y017520D03*
X023859Y017324D03*
D38*
X025249Y018694D03*
X025249Y019694D03*
X026249Y019694D03*
X026249Y018694D03*
X027249Y018694D03*
X027249Y019694D03*
X028249Y019694D03*
X028249Y018694D03*
X030249Y019269D03*
X031249Y019269D03*
X031249Y020269D03*
X030249Y020269D03*
X030249Y021269D03*
X031249Y021269D03*
X031249Y022269D03*
X030249Y022269D03*
X030249Y023269D03*
X031249Y023269D03*
X010474Y025219D03*
X009474Y025219D03*
X008474Y025219D03*
X008474Y026219D03*
X009474Y026219D03*
X010474Y026219D03*
X023924Y005544D03*
X023924Y004544D03*
X024924Y004544D03*
X024924Y005544D03*
X025924Y005544D03*
X025924Y004544D03*
X026924Y004544D03*
X026924Y005544D03*
X027924Y005544D03*
X027924Y004544D03*
X034124Y004544D03*
X034124Y005544D03*
X035124Y005544D03*
X035124Y004544D03*
X036124Y004544D03*
X036124Y005544D03*
X037124Y005544D03*
X038124Y005544D03*
X038124Y004544D03*
X037124Y004544D03*
X039124Y004544D03*
X039124Y005544D03*
X040124Y005544D03*
X040124Y004544D03*
D39*
G36*
X018599Y021169D02*
X017199Y022569D01*
X018599Y023969D01*
X019999Y022569D01*
X018599Y021169D01*
G37*
D40*
G36*
X017351Y019983D02*
X016926Y019558D01*
X016813Y019671D01*
X017238Y020096D01*
X017351Y019983D01*
G37*
G36*
X017463Y019871D02*
X017038Y019446D01*
X016925Y019559D01*
X017350Y019984D01*
X017463Y019871D01*
G37*
G36*
X017574Y019760D02*
X017149Y019335D01*
X017036Y019448D01*
X017461Y019873D01*
X017574Y019760D01*
G37*
G36*
X017685Y019649D02*
X017260Y019224D01*
X017147Y019337D01*
X017572Y019762D01*
X017685Y019649D01*
G37*
G36*
X017797Y019537D02*
X017372Y019112D01*
X017259Y019225D01*
X017684Y019650D01*
X017797Y019537D01*
G37*
G36*
X017908Y019426D02*
X017483Y019001D01*
X017370Y019114D01*
X017795Y019539D01*
X017908Y019426D01*
G37*
G36*
X018019Y019315D02*
X017594Y018890D01*
X017481Y019003D01*
X017906Y019428D01*
X018019Y019315D01*
G37*
G36*
X018131Y019203D02*
X017706Y018778D01*
X017593Y018891D01*
X018018Y019316D01*
X018131Y019203D01*
G37*
G36*
X018242Y019092D02*
X017817Y018667D01*
X017704Y018780D01*
X018129Y019205D01*
X018242Y019092D01*
G37*
G36*
X018353Y018981D02*
X017928Y018556D01*
X017815Y018669D01*
X018240Y019094D01*
X018353Y018981D01*
G37*
G36*
X018465Y018869D02*
X018040Y018444D01*
X017927Y018557D01*
X018352Y018982D01*
X018465Y018869D01*
G37*
G36*
X019159Y018444D02*
X018734Y018869D01*
X018847Y018982D01*
X019272Y018557D01*
X019159Y018444D01*
G37*
G36*
X019270Y018556D02*
X018845Y018981D01*
X018958Y019094D01*
X019383Y018669D01*
X019270Y018556D01*
G37*
G36*
X019382Y018667D02*
X018957Y019092D01*
X019070Y019205D01*
X019495Y018780D01*
X019382Y018667D01*
G37*
G36*
X019493Y018778D02*
X019068Y019203D01*
X019181Y019316D01*
X019606Y018891D01*
X019493Y018778D01*
G37*
G36*
X019605Y018890D02*
X019180Y019315D01*
X019293Y019428D01*
X019718Y019003D01*
X019605Y018890D01*
G37*
G36*
X019716Y019001D02*
X019291Y019426D01*
X019404Y019539D01*
X019829Y019114D01*
X019716Y019001D01*
G37*
G36*
X019827Y019112D02*
X019402Y019537D01*
X019515Y019650D01*
X019940Y019225D01*
X019827Y019112D01*
G37*
G36*
X019939Y019224D02*
X019514Y019649D01*
X019627Y019762D01*
X020052Y019337D01*
X019939Y019224D01*
G37*
G36*
X020050Y019335D02*
X019625Y019760D01*
X019738Y019873D01*
X020163Y019448D01*
X020050Y019335D01*
G37*
G36*
X020161Y019446D02*
X019736Y019871D01*
X019849Y019984D01*
X020274Y019559D01*
X020161Y019446D01*
G37*
G36*
X020273Y019558D02*
X019848Y019983D01*
X019961Y020096D01*
X020386Y019671D01*
X020273Y019558D01*
G37*
G36*
X020384Y019669D02*
X019959Y020094D01*
X020072Y020207D01*
X020497Y019782D01*
X020384Y019669D01*
G37*
G36*
X020495Y019780D02*
X020070Y020205D01*
X020183Y020318D01*
X020608Y019893D01*
X020495Y019780D01*
G37*
G36*
X020607Y019892D02*
X020182Y020317D01*
X020295Y020430D01*
X020720Y020005D01*
X020607Y019892D01*
G37*
G36*
X020718Y020003D02*
X020293Y020428D01*
X020406Y020541D01*
X020831Y020116D01*
X020718Y020003D01*
G37*
G36*
X020829Y020115D02*
X020404Y020540D01*
X020517Y020653D01*
X020942Y020228D01*
X020829Y020115D01*
G37*
G36*
X020941Y020226D02*
X020516Y020651D01*
X020629Y020764D01*
X021054Y020339D01*
X020941Y020226D01*
G37*
G36*
X021052Y020337D02*
X020627Y020762D01*
X020740Y020875D01*
X021165Y020450D01*
X021052Y020337D01*
G37*
G36*
X021164Y020449D02*
X020739Y020874D01*
X020852Y020987D01*
X021277Y020562D01*
X021164Y020449D01*
G37*
G36*
X021275Y020560D02*
X020850Y020985D01*
X020963Y021098D01*
X021388Y020673D01*
X021275Y020560D01*
G37*
G36*
X021386Y020671D02*
X020961Y021096D01*
X021074Y021209D01*
X021499Y020784D01*
X021386Y020671D01*
G37*
G36*
X021498Y020783D02*
X021073Y021208D01*
X021186Y021321D01*
X021611Y020896D01*
X021498Y020783D01*
G37*
G36*
X021609Y020894D02*
X021184Y021319D01*
X021297Y021432D01*
X021722Y021007D01*
X021609Y020894D01*
G37*
G36*
X021720Y021005D02*
X021295Y021430D01*
X021408Y021543D01*
X021833Y021118D01*
X021720Y021005D01*
G37*
G36*
X021832Y021117D02*
X021407Y021542D01*
X021520Y021655D01*
X021945Y021230D01*
X021832Y021117D01*
G37*
G36*
X021943Y021228D02*
X021518Y021653D01*
X021631Y021766D01*
X022056Y021341D01*
X021943Y021228D01*
G37*
G36*
X022054Y021339D02*
X021629Y021764D01*
X021742Y021877D01*
X022167Y021452D01*
X022054Y021339D01*
G37*
G36*
X022166Y021451D02*
X021741Y021876D01*
X021854Y021989D01*
X022279Y021564D01*
X022166Y021451D01*
G37*
G36*
X022277Y021562D02*
X021852Y021987D01*
X021965Y022100D01*
X022390Y021675D01*
X022277Y021562D01*
G37*
G36*
X022388Y021674D02*
X021963Y022099D01*
X022076Y022212D01*
X022501Y021787D01*
X022388Y021674D01*
G37*
G36*
X022500Y021785D02*
X022075Y022210D01*
X022188Y022323D01*
X022613Y021898D01*
X022500Y021785D01*
G37*
G36*
X022611Y021896D02*
X022186Y022321D01*
X022299Y022434D01*
X022724Y022009D01*
X022611Y021896D01*
G37*
G36*
X022724Y023129D02*
X022299Y022704D01*
X022186Y022817D01*
X022611Y023242D01*
X022724Y023129D01*
G37*
G36*
X022613Y023240D02*
X022188Y022815D01*
X022075Y022928D01*
X022500Y023353D01*
X022613Y023240D01*
G37*
G36*
X022501Y023351D02*
X022076Y022926D01*
X021963Y023039D01*
X022388Y023464D01*
X022501Y023351D01*
G37*
G36*
X022390Y023463D02*
X021965Y023038D01*
X021852Y023151D01*
X022277Y023576D01*
X022390Y023463D01*
G37*
G36*
X022279Y023574D02*
X021854Y023149D01*
X021741Y023262D01*
X022166Y023687D01*
X022279Y023574D01*
G37*
G36*
X022167Y023685D02*
X021742Y023260D01*
X021629Y023373D01*
X022054Y023798D01*
X022167Y023685D01*
G37*
G36*
X022056Y023797D02*
X021631Y023372D01*
X021518Y023485D01*
X021943Y023910D01*
X022056Y023797D01*
G37*
G36*
X021945Y023908D02*
X021520Y023483D01*
X021407Y023596D01*
X021832Y024021D01*
X021945Y023908D01*
G37*
G36*
X021833Y024019D02*
X021408Y023594D01*
X021295Y023707D01*
X021720Y024132D01*
X021833Y024019D01*
G37*
G36*
X021722Y024131D02*
X021297Y023706D01*
X021184Y023819D01*
X021609Y024244D01*
X021722Y024131D01*
G37*
G36*
X021611Y024242D02*
X021186Y023817D01*
X021073Y023930D01*
X021498Y024355D01*
X021611Y024242D01*
G37*
G36*
X021499Y024353D02*
X021074Y023928D01*
X020961Y024041D01*
X021386Y024466D01*
X021499Y024353D01*
G37*
G36*
X021388Y024465D02*
X020963Y024040D01*
X020850Y024153D01*
X021275Y024578D01*
X021388Y024465D01*
G37*
G36*
X021277Y024576D02*
X020852Y024151D01*
X020739Y024264D01*
X021164Y024689D01*
X021277Y024576D01*
G37*
G36*
X021165Y024688D02*
X020740Y024263D01*
X020627Y024376D01*
X021052Y024801D01*
X021165Y024688D01*
G37*
G36*
X021054Y024799D02*
X020629Y024374D01*
X020516Y024487D01*
X020941Y024912D01*
X021054Y024799D01*
G37*
G36*
X020942Y024910D02*
X020517Y024485D01*
X020404Y024598D01*
X020829Y025023D01*
X020942Y024910D01*
G37*
G36*
X020831Y025022D02*
X020406Y024597D01*
X020293Y024710D01*
X020718Y025135D01*
X020831Y025022D01*
G37*
G36*
X020720Y025133D02*
X020295Y024708D01*
X020182Y024821D01*
X020607Y025246D01*
X020720Y025133D01*
G37*
G36*
X020608Y025244D02*
X020183Y024819D01*
X020070Y024932D01*
X020495Y025357D01*
X020608Y025244D01*
G37*
G36*
X020497Y025356D02*
X020072Y024931D01*
X019959Y025044D01*
X020384Y025469D01*
X020497Y025356D01*
G37*
G36*
X020386Y025467D02*
X019961Y025042D01*
X019848Y025155D01*
X020273Y025580D01*
X020386Y025467D01*
G37*
G36*
X020274Y025578D02*
X019849Y025153D01*
X019736Y025266D01*
X020161Y025691D01*
X020274Y025578D01*
G37*
G36*
X020163Y025690D02*
X019738Y025265D01*
X019625Y025378D01*
X020050Y025803D01*
X020163Y025690D01*
G37*
G36*
X020052Y025801D02*
X019627Y025376D01*
X019514Y025489D01*
X019939Y025914D01*
X020052Y025801D01*
G37*
G36*
X019940Y025912D02*
X019515Y025487D01*
X019402Y025600D01*
X019827Y026025D01*
X019940Y025912D01*
G37*
G36*
X019829Y026024D02*
X019404Y025599D01*
X019291Y025712D01*
X019716Y026137D01*
X019829Y026024D01*
G37*
G36*
X019718Y026135D02*
X019293Y025710D01*
X019180Y025823D01*
X019605Y026248D01*
X019718Y026135D01*
G37*
G36*
X019606Y026247D02*
X019181Y025822D01*
X019068Y025935D01*
X019493Y026360D01*
X019606Y026247D01*
G37*
G36*
X019495Y026358D02*
X019070Y025933D01*
X018957Y026046D01*
X019382Y026471D01*
X019495Y026358D01*
G37*
G36*
X019383Y026469D02*
X018958Y026044D01*
X018845Y026157D01*
X019270Y026582D01*
X019383Y026469D01*
G37*
G36*
X019272Y026581D02*
X018847Y026156D01*
X018734Y026269D01*
X019159Y026694D01*
X019272Y026581D01*
G37*
G36*
X018352Y026156D02*
X017927Y026581D01*
X018040Y026694D01*
X018465Y026269D01*
X018352Y026156D01*
G37*
G36*
X018240Y026044D02*
X017815Y026469D01*
X017928Y026582D01*
X018353Y026157D01*
X018240Y026044D01*
G37*
G36*
X018129Y025933D02*
X017704Y026358D01*
X017817Y026471D01*
X018242Y026046D01*
X018129Y025933D01*
G37*
G36*
X018018Y025822D02*
X017593Y026247D01*
X017706Y026360D01*
X018131Y025935D01*
X018018Y025822D01*
G37*
G36*
X017906Y025710D02*
X017481Y026135D01*
X017594Y026248D01*
X018019Y025823D01*
X017906Y025710D01*
G37*
G36*
X017795Y025599D02*
X017370Y026024D01*
X017483Y026137D01*
X017908Y025712D01*
X017795Y025599D01*
G37*
G36*
X017684Y025487D02*
X017259Y025912D01*
X017372Y026025D01*
X017797Y025600D01*
X017684Y025487D01*
G37*
G36*
X017572Y025376D02*
X017147Y025801D01*
X017260Y025914D01*
X017685Y025489D01*
X017572Y025376D01*
G37*
G36*
X017461Y025265D02*
X017036Y025690D01*
X017149Y025803D01*
X017574Y025378D01*
X017461Y025265D01*
G37*
G36*
X017350Y025153D02*
X016925Y025578D01*
X017038Y025691D01*
X017463Y025266D01*
X017350Y025153D01*
G37*
G36*
X017238Y025042D02*
X016813Y025467D01*
X016926Y025580D01*
X017351Y025155D01*
X017238Y025042D01*
G37*
G36*
X017127Y024931D02*
X016702Y025356D01*
X016815Y025469D01*
X017240Y025044D01*
X017127Y024931D01*
G37*
G36*
X017016Y024819D02*
X016591Y025244D01*
X016704Y025357D01*
X017129Y024932D01*
X017016Y024819D01*
G37*
G36*
X016904Y024708D02*
X016479Y025133D01*
X016592Y025246D01*
X017017Y024821D01*
X016904Y024708D01*
G37*
G36*
X016793Y024597D02*
X016368Y025022D01*
X016481Y025135D01*
X016906Y024710D01*
X016793Y024597D01*
G37*
G36*
X016681Y024485D02*
X016256Y024910D01*
X016369Y025023D01*
X016794Y024598D01*
X016681Y024485D01*
G37*
G36*
X016570Y024374D02*
X016145Y024799D01*
X016258Y024912D01*
X016683Y024487D01*
X016570Y024374D01*
G37*
G36*
X016459Y024263D02*
X016034Y024688D01*
X016147Y024801D01*
X016572Y024376D01*
X016459Y024263D01*
G37*
G36*
X016347Y024151D02*
X015922Y024576D01*
X016035Y024689D01*
X016460Y024264D01*
X016347Y024151D01*
G37*
G36*
X016236Y024040D02*
X015811Y024465D01*
X015924Y024578D01*
X016349Y024153D01*
X016236Y024040D01*
G37*
G36*
X016125Y023928D02*
X015700Y024353D01*
X015813Y024466D01*
X016238Y024041D01*
X016125Y023928D01*
G37*
G36*
X016013Y023817D02*
X015588Y024242D01*
X015701Y024355D01*
X016126Y023930D01*
X016013Y023817D01*
G37*
G36*
X015902Y023706D02*
X015477Y024131D01*
X015590Y024244D01*
X016015Y023819D01*
X015902Y023706D01*
G37*
G36*
X015791Y023594D02*
X015366Y024019D01*
X015479Y024132D01*
X015904Y023707D01*
X015791Y023594D01*
G37*
G36*
X015679Y023483D02*
X015254Y023908D01*
X015367Y024021D01*
X015792Y023596D01*
X015679Y023483D01*
G37*
G36*
X015568Y023372D02*
X015143Y023797D01*
X015256Y023910D01*
X015681Y023485D01*
X015568Y023372D01*
G37*
G36*
X015457Y023260D02*
X015032Y023685D01*
X015145Y023798D01*
X015570Y023373D01*
X015457Y023260D01*
G37*
G36*
X015345Y023149D02*
X014920Y023574D01*
X015033Y023687D01*
X015458Y023262D01*
X015345Y023149D01*
G37*
G36*
X015234Y023038D02*
X014809Y023463D01*
X014922Y023576D01*
X015347Y023151D01*
X015234Y023038D01*
G37*
G36*
X015123Y022926D02*
X014698Y023351D01*
X014811Y023464D01*
X015236Y023039D01*
X015123Y022926D01*
G37*
G36*
X015011Y022815D02*
X014586Y023240D01*
X014699Y023353D01*
X015124Y022928D01*
X015011Y022815D01*
G37*
G36*
X014900Y022704D02*
X014475Y023129D01*
X014588Y023242D01*
X015013Y022817D01*
X014900Y022704D01*
G37*
G36*
X015013Y022321D02*
X014588Y021896D01*
X014475Y022009D01*
X014900Y022434D01*
X015013Y022321D01*
G37*
G36*
X015124Y022210D02*
X014699Y021785D01*
X014586Y021898D01*
X015011Y022323D01*
X015124Y022210D01*
G37*
G36*
X015236Y022099D02*
X014811Y021674D01*
X014698Y021787D01*
X015123Y022212D01*
X015236Y022099D01*
G37*
G36*
X015347Y021987D02*
X014922Y021562D01*
X014809Y021675D01*
X015234Y022100D01*
X015347Y021987D01*
G37*
G36*
X015458Y021876D02*
X015033Y021451D01*
X014920Y021564D01*
X015345Y021989D01*
X015458Y021876D01*
G37*
G36*
X015570Y021764D02*
X015145Y021339D01*
X015032Y021452D01*
X015457Y021877D01*
X015570Y021764D01*
G37*
G36*
X015681Y021653D02*
X015256Y021228D01*
X015143Y021341D01*
X015568Y021766D01*
X015681Y021653D01*
G37*
G36*
X015792Y021542D02*
X015367Y021117D01*
X015254Y021230D01*
X015679Y021655D01*
X015792Y021542D01*
G37*
G36*
X015904Y021430D02*
X015479Y021005D01*
X015366Y021118D01*
X015791Y021543D01*
X015904Y021430D01*
G37*
G36*
X016015Y021319D02*
X015590Y020894D01*
X015477Y021007D01*
X015902Y021432D01*
X016015Y021319D01*
G37*
G36*
X016126Y021208D02*
X015701Y020783D01*
X015588Y020896D01*
X016013Y021321D01*
X016126Y021208D01*
G37*
G36*
X016238Y021096D02*
X015813Y020671D01*
X015700Y020784D01*
X016125Y021209D01*
X016238Y021096D01*
G37*
G36*
X016349Y020985D02*
X015924Y020560D01*
X015811Y020673D01*
X016236Y021098D01*
X016349Y020985D01*
G37*
G36*
X016460Y020874D02*
X016035Y020449D01*
X015922Y020562D01*
X016347Y020987D01*
X016460Y020874D01*
G37*
G36*
X016572Y020762D02*
X016147Y020337D01*
X016034Y020450D01*
X016459Y020875D01*
X016572Y020762D01*
G37*
G36*
X016683Y020651D02*
X016258Y020226D01*
X016145Y020339D01*
X016570Y020764D01*
X016683Y020651D01*
G37*
G36*
X016794Y020540D02*
X016369Y020115D01*
X016256Y020228D01*
X016681Y020653D01*
X016794Y020540D01*
G37*
G36*
X016906Y020428D02*
X016481Y020003D01*
X016368Y020116D01*
X016793Y020541D01*
X016906Y020428D01*
G37*
G36*
X017017Y020317D02*
X016592Y019892D01*
X016479Y020005D01*
X016904Y020430D01*
X017017Y020317D01*
G37*
G36*
X017129Y020205D02*
X016704Y019780D01*
X016591Y019893D01*
X017016Y020318D01*
X017129Y020205D01*
G37*
G36*
X017240Y020094D02*
X016815Y019669D01*
X016702Y019782D01*
X017127Y020207D01*
X017240Y020094D01*
G37*
D41*
X009099Y020269D03*
X008099Y020269D03*
X008099Y021269D03*
X009099Y021269D03*
X009099Y022269D03*
X008099Y022269D03*
X008099Y023269D03*
X008099Y024269D03*
X009099Y024269D03*
X009099Y023269D03*
X009099Y019269D03*
X008099Y019269D03*
X008099Y018269D03*
X008099Y017269D03*
X009099Y017269D03*
X009099Y018269D03*
X009099Y016269D03*
X008099Y016269D03*
X008099Y015269D03*
X009099Y015269D03*
D42*
X008749Y010894D03*
D43*
X008069Y010894D03*
X008069Y010144D03*
X008829Y010144D03*
D44*
X016723Y028394D03*
X017826Y028394D03*
D45*
X010867Y022225D03*
X010867Y021969D03*
X010867Y021713D03*
X009982Y021713D03*
X009982Y022225D03*
D46*
X018924Y028487D03*
X018924Y030101D03*
X020924Y030101D03*
X020924Y028487D03*
X022324Y028101D03*
X024324Y028101D03*
X024324Y026487D03*
X022324Y026487D03*
D47*
X005935Y011335D03*
X005935Y009603D03*
D48*
X005187Y008540D03*
X005187Y012398D03*
D49*
X006860Y012398D03*
X006860Y008540D03*
D50*
X006850Y009839D03*
X006850Y010154D03*
X006850Y010469D03*
X006850Y010784D03*
X006850Y011099D03*
D51*
G36*
X027823Y026151D02*
X027682Y026292D01*
X028211Y026821D01*
X028352Y026680D01*
X027823Y026151D01*
G37*
G36*
X027962Y026011D02*
X027821Y026152D01*
X028350Y026681D01*
X028491Y026540D01*
X027962Y026011D01*
G37*
G36*
X028101Y025872D02*
X027960Y026013D01*
X028489Y026542D01*
X028630Y026401D01*
X028101Y025872D01*
G37*
G36*
X028240Y025733D02*
X028099Y025874D01*
X028628Y026403D01*
X028769Y026262D01*
X028240Y025733D01*
G37*
G36*
X028380Y025594D02*
X028239Y025735D01*
X028768Y026264D01*
X028909Y026123D01*
X028380Y025594D01*
G37*
G36*
X028519Y025455D02*
X028378Y025596D01*
X028907Y026125D01*
X029048Y025984D01*
X028519Y025455D01*
G37*
G36*
X028658Y025315D02*
X028517Y025456D01*
X029046Y025985D01*
X029187Y025844D01*
X028658Y025315D01*
G37*
G36*
X028797Y025176D02*
X028656Y025317D01*
X029185Y025846D01*
X029326Y025705D01*
X028797Y025176D01*
G37*
G36*
X028936Y025037D02*
X028795Y025178D01*
X029324Y025707D01*
X029465Y025566D01*
X028936Y025037D01*
G37*
G36*
X029076Y024898D02*
X028935Y025039D01*
X029464Y025568D01*
X029605Y025427D01*
X029076Y024898D01*
G37*
G36*
X030364Y025039D02*
X030223Y024898D01*
X029694Y025427D01*
X029835Y025568D01*
X030364Y025039D01*
G37*
G36*
X030504Y025178D02*
X030363Y025037D01*
X029834Y025566D01*
X029975Y025707D01*
X030504Y025178D01*
G37*
G36*
X030643Y025317D02*
X030502Y025176D01*
X029973Y025705D01*
X030114Y025846D01*
X030643Y025317D01*
G37*
G36*
X030782Y025456D02*
X030641Y025315D01*
X030112Y025844D01*
X030253Y025985D01*
X030782Y025456D01*
G37*
G36*
X030921Y025596D02*
X030780Y025455D01*
X030251Y025984D01*
X030392Y026125D01*
X030921Y025596D01*
G37*
G36*
X031060Y025735D02*
X030919Y025594D01*
X030390Y026123D01*
X030531Y026264D01*
X031060Y025735D01*
G37*
G36*
X031200Y025874D02*
X031059Y025733D01*
X030530Y026262D01*
X030671Y026403D01*
X031200Y025874D01*
G37*
G36*
X031339Y026013D02*
X031198Y025872D01*
X030669Y026401D01*
X030810Y026542D01*
X031339Y026013D01*
G37*
G36*
X031478Y026152D02*
X031337Y026011D01*
X030808Y026540D01*
X030949Y026681D01*
X031478Y026152D01*
G37*
G36*
X031617Y026292D02*
X031476Y026151D01*
X030947Y026680D01*
X031088Y026821D01*
X031617Y026292D01*
G37*
G36*
X031756Y026431D02*
X031615Y026290D01*
X031086Y026819D01*
X031227Y026960D01*
X031756Y026431D01*
G37*
G36*
X031896Y026570D02*
X031755Y026429D01*
X031226Y026958D01*
X031367Y027099D01*
X031896Y026570D01*
G37*
G36*
X031367Y027189D02*
X031226Y027330D01*
X031755Y027859D01*
X031896Y027718D01*
X031367Y027189D01*
G37*
G36*
X031227Y027328D02*
X031086Y027469D01*
X031615Y027998D01*
X031756Y027857D01*
X031227Y027328D01*
G37*
G36*
X031088Y027467D02*
X030947Y027608D01*
X031476Y028137D01*
X031617Y027996D01*
X031088Y027467D01*
G37*
G36*
X030949Y027606D02*
X030808Y027747D01*
X031337Y028276D01*
X031478Y028135D01*
X030949Y027606D01*
G37*
G36*
X030810Y027746D02*
X030669Y027887D01*
X031198Y028416D01*
X031339Y028275D01*
X030810Y027746D01*
G37*
G36*
X030671Y027885D02*
X030530Y028026D01*
X031059Y028555D01*
X031200Y028414D01*
X030671Y027885D01*
G37*
G36*
X030531Y028024D02*
X030390Y028165D01*
X030919Y028694D01*
X031060Y028553D01*
X030531Y028024D01*
G37*
G36*
X030392Y028163D02*
X030251Y028304D01*
X030780Y028833D01*
X030921Y028692D01*
X030392Y028163D01*
G37*
G36*
X030253Y028302D02*
X030112Y028443D01*
X030641Y028972D01*
X030782Y028831D01*
X030253Y028302D01*
G37*
G36*
X030114Y028442D02*
X029973Y028583D01*
X030502Y029112D01*
X030643Y028971D01*
X030114Y028442D01*
G37*
G36*
X029975Y028581D02*
X029834Y028722D01*
X030363Y029251D01*
X030504Y029110D01*
X029975Y028581D01*
G37*
G36*
X029835Y028720D02*
X029694Y028861D01*
X030223Y029390D01*
X030364Y029249D01*
X029835Y028720D01*
G37*
G36*
X029605Y028861D02*
X029464Y028720D01*
X028935Y029249D01*
X029076Y029390D01*
X029605Y028861D01*
G37*
G36*
X029465Y028722D02*
X029324Y028581D01*
X028795Y029110D01*
X028936Y029251D01*
X029465Y028722D01*
G37*
G36*
X029326Y028583D02*
X029185Y028442D01*
X028656Y028971D01*
X028797Y029112D01*
X029326Y028583D01*
G37*
G36*
X029187Y028443D02*
X029046Y028302D01*
X028517Y028831D01*
X028658Y028972D01*
X029187Y028443D01*
G37*
G36*
X029048Y028304D02*
X028907Y028163D01*
X028378Y028692D01*
X028519Y028833D01*
X029048Y028304D01*
G37*
G36*
X028909Y028165D02*
X028768Y028024D01*
X028239Y028553D01*
X028380Y028694D01*
X028909Y028165D01*
G37*
G36*
X028769Y028026D02*
X028628Y027885D01*
X028099Y028414D01*
X028240Y028555D01*
X028769Y028026D01*
G37*
G36*
X028630Y027887D02*
X028489Y027746D01*
X027960Y028275D01*
X028101Y028416D01*
X028630Y027887D01*
G37*
G36*
X028491Y027747D02*
X028350Y027606D01*
X027821Y028135D01*
X027962Y028276D01*
X028491Y027747D01*
G37*
G36*
X028352Y027608D02*
X028211Y027467D01*
X027682Y027996D01*
X027823Y028137D01*
X028352Y027608D01*
G37*
G36*
X028213Y027469D02*
X028072Y027328D01*
X027543Y027857D01*
X027684Y027998D01*
X028213Y027469D01*
G37*
G36*
X028073Y027330D02*
X027932Y027189D01*
X027403Y027718D01*
X027544Y027859D01*
X028073Y027330D01*
G37*
G36*
X027544Y026429D02*
X027403Y026570D01*
X027932Y027099D01*
X028073Y026958D01*
X027544Y026429D01*
G37*
G36*
X027684Y026290D02*
X027543Y026431D01*
X028072Y026960D01*
X028213Y026819D01*
X027684Y026290D01*
G37*
D52*
G36*
X029649Y028320D02*
X030825Y027144D01*
X029649Y025968D01*
X028473Y027144D01*
X029649Y028320D01*
G37*
D53*
X032579Y034474D03*
X032579Y034724D03*
X032579Y034984D03*
X032579Y035234D03*
X034299Y035234D03*
X034299Y034984D03*
X034299Y034724D03*
X034299Y034474D03*
D54*
X033439Y034854D03*
D55*
X036949Y029969D03*
X037949Y029469D03*
X037949Y028469D03*
X036949Y028969D03*
X036949Y027969D03*
X036949Y026969D03*
X037949Y027469D03*
X041780Y026729D03*
X042449Y025729D03*
X042449Y029709D03*
X041780Y030709D03*
D56*
X037949Y026469D03*
D57*
X040449Y025969D03*
X040449Y030469D03*
D58*
X039249Y031270D03*
X039249Y025168D03*
D59*
X038945Y018169D03*
X037804Y018169D03*
X013295Y029794D03*
X012154Y029794D03*
D60*
X035281Y021969D03*
D61*
X039218Y021969D03*
D62*
X039399Y013341D03*
X039899Y013341D03*
X040399Y013341D03*
X040899Y013341D03*
X040899Y011097D03*
X040399Y011097D03*
X039899Y011097D03*
X039399Y011097D03*
X037974Y011791D03*
X037474Y011791D03*
X036974Y011791D03*
X036474Y011791D03*
X036474Y009547D03*
X036974Y009547D03*
X037474Y009547D03*
X037974Y009547D03*
D63*
X038474Y008376D03*
X036949Y008376D03*
X036949Y006762D03*
X038474Y006762D03*
D64*
X039674Y008598D03*
X040749Y008598D03*
X040749Y009740D03*
X039674Y009740D03*
D65*
X034126Y019686D03*
X033023Y019686D03*
X033023Y021852D03*
X034126Y021852D03*
D66*
X008474Y007829D03*
X008474Y006709D03*
D67*
X009769Y019247D03*
X009769Y019444D03*
X009769Y019641D03*
X010280Y019641D03*
X010280Y019444D03*
X010280Y019247D03*
X010319Y023497D03*
X010319Y023694D03*
X010319Y023891D03*
X010830Y023891D03*
X010830Y023694D03*
X010830Y023497D03*
D68*
X028018Y033337D03*
X030931Y033337D03*
X030931Y036251D03*
X028018Y036251D03*
D69*
X028974Y035089D02*
X028974Y034499D01*
X029974Y034499D02*
X029974Y035089D01*
D70*
X034814Y019314D03*
X034814Y019054D03*
X034814Y018804D03*
X034814Y018544D03*
X034814Y018284D03*
X034814Y018034D03*
X034814Y017774D03*
X037034Y017774D03*
X037034Y018034D03*
X037034Y018284D03*
X037034Y018544D03*
X037034Y018804D03*
X037034Y019054D03*
X037034Y019314D03*
D71*
X011154Y029074D03*
X011154Y029814D03*
X010294Y029444D03*
D72*
X005677Y005047D03*
X042292Y005047D03*
X042292Y035756D03*
X005677Y035756D03*
M02*
