%
M48
M72
T01C0.0118
T02C0.0197
T03C0.0236
T04C0.0360
T05C0.0394
T06C0.0433
T07C0.0551
T08C0.0669
T09C0.1260
%
T01
X8124Y5294
X8124Y5569
X9599Y6319
X9874Y6319
X10149Y6319
X12049Y6169
X12824Y6794
X12674Y8119
X12049Y7894
X12499Y8894
X12499Y9569
X12174Y9994
X12399Y10319
X12724Y10569
X13374Y10719
X12449Y11819
X11599Y11544
X11599Y10794
X11524Y9469
X10474Y8344
X9649Y8069
X8224Y9194
X9149Y9469
X8449Y10144
X7849Y10669
X9049Y11019
X9074Y11919
X9874Y11694
X9349Y12869
X8999Y13769
X9673Y13970
X7824Y14444
X8149Y12644
X11574Y12319
X14324Y11894
X14699Y11869
X15574Y11919
X15949Y11944
X16574Y11869
X16949Y11894
X17424Y11919
X18149Y11919
X18649Y12119
X18699Y12669
X19074Y12769
X18274Y12669
X17524Y13769
X17874Y13919
X18674Y14069
X19249Y14469
X19574Y14819
X19074Y15294
X18724Y15119
X18474Y15444
X17774Y15294
X17524Y15019
X16874Y15344
X16249Y15094
X15949Y15344
X15674Y15094
X15299Y15244
X14674Y15394
X14374Y15169
X14049Y15444
X13174Y15319
X13449Y16244
X13449Y16619
X14449Y16494
X14474Y17819
X13874Y18219
X12874Y18619
X13899Y19119
X13099Y20419
X13874Y20919
X14849Y21344
X15124Y20869
X16174Y21369
X16799Y20994
X17499Y20619
X17874Y20619
X18624Y20344
X19249Y20494
X19524Y20769
X19549Y21144
X19874Y21944
X20649Y22069
X20374Y22594
X20799Y23119
X20774Y23519
X20399Y23519
X20774Y23894
X20263Y23919
X20174Y24494
X19799Y24444
X19424Y24419
X19424Y24819
X19124Y25044
X19249Y25444
X18893Y25869
X18524Y25919
X18499Y25494
X17849Y25344
X17599Y25069
X17624Y24694
X18349Y24569
X18599Y23669
X18074Y23144
X18599Y22569
X19149Y23144
X19699Y22569
X19949Y23144
X21174Y23544
X21749Y24419
X22124Y24269
X22649Y23794
X23024Y22869
X23824Y22869
X24799Y22944
X25249Y22594
X25599Y22844
X26124Y23194
X26524Y22944
X26824Y22369
X27249Y21769
X26124Y22019
X25349Y21819
X24874Y21794
X24124Y21694
X24474Y20694
X23299Y20419
X23249Y20919
X22424Y19944
X21749Y19819
X21199Y20194
X21649Y20669
X21924Y20919
X21099Y21494
X21299Y21819
X21674Y22669
X22074Y22669
X22899Y21694
X20399Y21294
X19724Y20194
X19074Y19669
X18399Y19219
X17824Y19769
X17679Y20119
X18199Y19819
X16724Y19494
X16774Y19119
X16349Y19569
X16249Y19944
X15424Y18794
X16099Y18494
X16824Y17869
X17149Y17544
X16874Y17144
X17149Y16244
X16574Y16144
X15849Y17044
X17299Y18069
X17574Y18369
X17474Y18744
X18274Y18394
X18949Y18244
X19429Y18199
X19724Y18419
X19974Y18144
X20224Y17869
X20224Y17494
X20399Y17119
X20649Y17819
X20649Y18194
X20899Y18469
X21799Y18894
X21974Y18244
X22274Y17994
X22699Y17669
X21649Y17819
X21649Y17444
X22374Y16694
X22374Y16144
X22874Y15194
X22899Y14244
X22474Y13569
X21824Y13719
X21849Y14394
X21849Y15169
X20674Y16219
X19099Y16219
X18149Y16144
X18149Y17494
X19199Y17219
X20374Y19069
X20654Y19549
X22574Y19369
X23224Y18994
X23474Y19794
X24524Y19769
X26099Y20544
X26949Y20569
X27199Y20844
X28849Y23119
X29024Y24519
X28424Y24904
X27749Y24919
X26924Y25869
X26099Y26769
X25249Y26169
X24949Y25894
X23824Y26469
X23674Y25719
X23274Y25769
X22899Y25669
X22649Y25369
X22174Y25794
X21274Y25694
X20924Y25194
X20443Y25894
X20099Y26294
X20549Y26994
X20224Y27594
X20874Y27944
X21849Y28094
X22749Y28869
X23399Y28844
X23024Y29694
X21899Y29144
X23874Y30919
X23024Y31419
X22024Y32594
X21624Y32144
X21224Y31819
X21199Y31044
X18874Y29544
X16024Y29844
X15324Y28944
X14124Y29344
X13524Y28569
X12949Y28219
X13699Y27494
X15574Y26329
X15874Y25444
X16149Y25069
X16574Y25669
X17049Y25969
X16874Y26319
X17424Y26344
X15574Y24494
X15049Y24069
X14749Y23669
X14024Y24369
X13574Y24444
X13399Y23669
X13774Y22844
X13349Y22319
X12499Y21044
X11724Y21019
X10799Y20769
X10249Y20769
X9824Y20369
X9749Y19869
X10299Y19819
X10874Y19744
X11249Y19794
X9724Y19069
X10549Y22269
X10224Y23419
X10199Y24269
X10449Y24569
X11049Y23969
X11749Y24869
X11974Y25169
X12349Y25044
X12349Y25419
X14799Y25044
X16874Y24269
X16924Y23034
X17499Y22569
X18074Y21994
X18599Y21469
X19174Y22044
X15859Y22054
X15499Y22199
X21574Y26644
X23324Y27594
X24924Y28919
X24874Y29319
X26124Y30304
X27649Y30344
X28199Y31169
X28824Y30794
X29599Y31444
X30379Y30779
X31049Y30769
X32424Y30819
X32899Y30819
X32399Y29769
X32049Y29069
X31774Y28619
X31524Y28319
X31324Y28669
X31274Y29119
X30924Y29269
X29524Y29494
X29249Y28244
X28999Y27919
X29649Y27894
X29649Y27144
X28899Y27144
X29649Y26394
X30399Y27144
X30649Y27694
X32099Y27269
X32124Y26569
X32249Y25869
X31799Y25644
X35674Y28344
X35674Y29969
X34374Y31169
X33199Y32469
X31624Y32179
X34249Y33744
X33599Y34634
X33274Y34634
X33274Y35059
X33599Y35059
X34824Y34994
X35899Y33584
X36624Y32669
X38474Y33984
X39474Y34279
X39799Y34859
X40624Y33459
X37849Y35259
X41224Y31319
X31374Y34459
X31399Y35204
X27174Y36419
X26099Y36369
X23174Y36429
X22024Y36519
X21524Y35944
X21174Y35944
X20374Y36519
X21174Y35094
X21524Y35094
X22024Y34544
X21424Y34044
X20924Y33744
X20924Y33469
X20374Y34044
X19874Y34544
X18649Y33919
X18649Y33644
X18649Y33369
X18099Y33369
X18099Y33644
X18099Y33919
X16874Y34544
X16374Y35094
X16024Y35094
X16274Y34044
X15799Y33744
X15799Y33469
X15224Y34119
X14724Y34544
X13499Y33919
X13499Y33644
X13499Y33369
X12949Y33369
X12949Y33644
X12949Y33919
X11824Y34544
X11424Y35094
X11099Y35094
X11349Y34044
X10849Y33744
X10849Y33469
X10274Y34119
X9674Y34544
X8524Y33919
X8524Y33669
X8524Y33394
X7974Y33394
X7974Y33644
X7974Y33919
X7399Y35094
X7399Y35344
X8524Y35519
X10249Y36544
X11099Y35944
X11424Y35944
X11824Y36544
X15224Y36544
X16024Y35944
X16374Y35944
X16874Y36544
X16874Y32594
X16099Y31819
X16099Y31044
X11824Y32594
X11024Y31894
X11024Y31119
X22824Y33744
X26799Y33779
X27749Y29319
X27899Y28969
X27974Y28594
X27374Y28504
X26374Y28744
X27099Y27069
X23849Y24719
X24174Y23919
X24574Y23669
X24624Y24069
X25024Y23694
X25424Y23719
X31949Y21469
X32324Y21094
X31949Y20869
X32099Y20469
X32324Y20044
X32299Y19494
X32999Y20794
X35524Y20119
X36074Y21344
X38349Y19669
X38974Y18519
X40499Y19469
X41449Y19669
X41449Y19269
X41449Y18394
X40899Y17919
X37024Y17569
X36174Y18044
X36474Y18344
X34799Y17569
X34289Y18284
X33774Y18019
X31499Y17194
X30999Y17194
X31249Y16619
X31624Y16669
X30999Y16244
X31749Y15769
X30499Y15244
X29999Y15244
X28899Y14894
X28574Y13869
X27674Y13619
X27724Y12794
X27174Y12744
X26349Y13219
X25149Y13519
X25124Y12744
X25099Y12369
X25349Y12019
X25599Y11469
X25724Y10394
X25924Y9694
X24549Y9644
X24199Y8794
X24024Y8419
X23399Y9119
X22274Y9119
X22324Y10244
X22774Y10244
X23699Y10244
X22449Y11444
X21824Y11119
X21474Y10744
X21299Y11119
X20949Y10769
X20074Y10969
X20124Y11919
X20374Y12244
X20549Y12594
X20674Y11869
X21524Y12894
X22899Y12869
X23624Y12019
X23949Y11619
X23999Y12619
X24024Y13169
X23849Y14919
X23674Y15894
X23874Y16519
X23849Y17169
X24849Y16219
X25124Y15894
X25949Y15394
X26274Y14919
X26299Y14544
X25949Y14369
X25099Y14919
X26649Y15069
X27174Y14994
X27124Y15794
X27599Y15794
X26649Y16844
X26249Y17469
X25649Y17044
X25424Y17344
X25574Y18094
X24224Y18044
X28374Y17719
X29399Y18044
X33249Y15194
X32849Y14419
X31524Y14419
X30199Y13169
X29899Y12919
X30474Y12819
X30749Y13069
X31274Y12069
X31274Y11419
X30524Y10844
X30774Y10544
X30749Y10119
X30074Y10119
X30149Y10969
X29924Y11269
X29924Y12094
X29274Y12694
X29624Y13644
X32134Y11384
X31374Y10219
X32324Y10069
X31249Y9094
X31249Y8069
X31249Y7094
X32374Y6269
X31474Y4519
X29874Y4669
X25899Y6669
X25899Y7419
X24099Y6819
X24024Y7444
X23149Y7369
X22924Y7769
X22649Y7394
X22274Y7494
X21024Y6794
X20399Y5344
X19974Y5344
X18949Y6469
X18499Y6769
X18324Y7194
X18874Y8569
X18724Y9269
X19024Y9644
X19374Y9869
X19699Y8969
X20099Y8969
X19024Y10794
X18649Y10769
X18449Y11094
X17774Y10669
X18049Y10419
X17249Y10469
X16574Y10469
X16049Y10419
X16099Y9569
X16074Y8919
X17099Y9019
X17374Y8669
X17874Y9019
X15374Y7194
X14499Y8669
X14149Y9044
X14924Y9019
X14999Y11069
X14674Y12619
X14924Y12894
X15299Y12894
X15574Y13219
X15874Y13469
X16199Y13044
X16874Y13569
X13824Y14344
X13449Y14319
X13124Y14519
X12474Y16144
X11749Y16144
X7699Y6969
X7424Y6969
X13174Y5404
X13774Y5404
X15249Y5394
X16924Y5394
X18299Y5394
X27999Y10619
X28599Y10569
X28724Y9494
X29499Y9444
X28824Y7919
X33774Y8394
X33799Y9119
X34824Y8394
X35149Y9119
X37374Y10969
X37974Y11044
X38674Y12119
X41199Y12494
X40899Y13869
X39899Y13869
X42874Y12019
X42974Y11169
X42424Y9469
X41999Y9469
X42249Y8419
X41299Y8444
X40199Y8444
X34299Y11919
X33524Y13044
X33924Y13094
X33149Y12869
X35024Y15794
T02
X17999Y27794
X17649Y27794
X16724Y27794
X16724Y29069
X17649Y29094
X17999Y29094
X18049Y31319
X12849Y31319
X8624Y31319
X12874Y35469
X12874Y35819
X13574Y35819
X13574Y35469
X18024Y35594
X18724Y35594
T03
X11549Y30119
X11174Y30119
X10799Y30119
X13274Y27759
X13274Y27409
X40424Y21744
X41499Y21369
T04
X9099Y21269
X8099Y21269
X8099Y20269
X9099Y20269
X9099Y19269
X8099Y19269
X8099Y18269
X8099Y17269
X9099Y17269
X9099Y18269
X9099Y16269
X8099Y16269
X8099Y15269
X9099Y15269
X9099Y22269
X8099Y22269
X8099Y23269
X8099Y24269
X9099Y24269
X9099Y23269
T05
X9474Y25219
X8474Y25219
X8474Y26219
X9474Y26219
X10474Y26219
X10474Y25219
X25249Y19694
X25249Y18694
X26249Y18694
X26249Y19694
X27249Y19694
X27249Y18694
X28249Y18694
X28249Y19694
X30249Y19269
X31249Y19269
X31249Y20269
X30249Y20269
X30249Y21269
X31249Y21269
X31249Y22269
X30249Y22269
X30249Y23269
X31249Y23269
X36949Y26969
X36949Y27969
X37949Y28469
X37949Y29469
X36949Y29969
X36949Y28969
X37949Y27469
X37949Y26469
X41780Y26729
X42449Y25729
X42449Y29709
X41780Y30709
X29974Y34794
X28974Y34794
X5935Y11335
X5935Y9603
X23924Y5544
X23924Y4544
X24924Y4544
X24924Y5544
X25924Y5544
X25924Y4544
X26924Y4544
X26924Y5544
X27924Y5544
X27924Y4544
X34124Y4544
X34124Y5544
X35124Y5544
X35124Y4544
X36124Y4544
X36124Y5544
X37124Y5544
X38124Y5544
X38124Y4544
X37124Y4544
X39124Y4544
X39124Y5544
X40124Y5544
X40124Y4544
T06
X39218Y21969
X35281Y21969
T07
X8199Y28489
X8199Y28789
X8199Y29089
X5839Y29089
X5839Y28789
X5839Y28489
X6719Y26819
X7019Y26819
X7319Y26819
T08
X39249Y25168
X39249Y31270
T09
X5677Y5047
X40449Y25969
X40449Y30469
X42292Y35756
X5677Y35756
X42292Y5047
M30
