G75*
G70*
%OFA0B0*%
%FSLAX24Y24*%
%IPPOS*%
%LPD*%
%AMOC8*
5,1,8,0,0,1.08239X$1,22.5*
%
%ADD10C,0.0050*%
%ADD11C,0.0060*%
%ADD12C,0.0040*%
D10*
X036984Y008418D02*
X042968Y008418D01*
X042968Y014028D01*
X036984Y014028D01*
X036984Y008418D01*
X040622Y016642D02*
X042925Y016642D01*
X042925Y023296D01*
X040622Y023296D01*
X040622Y016642D01*
X041134Y016741D02*
X042827Y016741D01*
X042827Y023197D01*
X041134Y023197D01*
D11*
X040749Y017869D02*
X040899Y017619D01*
X040749Y017619D01*
X040749Y017869D01*
X040749Y017826D02*
X040775Y017826D01*
X040749Y017767D02*
X040810Y017767D01*
X040845Y017709D02*
X040749Y017709D01*
X040749Y017650D02*
X040881Y017650D01*
D12*
X040495Y019538D02*
X040035Y019845D01*
X040112Y019999D02*
X040035Y020075D01*
X040035Y020229D01*
X040112Y020306D01*
X040418Y020306D01*
X040495Y020229D01*
X040495Y020075D01*
X040418Y019999D01*
X040342Y019999D01*
X040265Y020075D01*
X040265Y020306D01*
X040495Y019845D02*
X040035Y019538D01*
X037993Y014391D02*
X037873Y014391D01*
X037933Y014391D02*
X037933Y014090D01*
X037993Y014030D01*
X038053Y014030D01*
X038113Y014090D01*
X037745Y014030D02*
X037504Y014271D01*
X037504Y014331D01*
X037564Y014391D01*
X037685Y014391D01*
X037745Y014331D01*
X037745Y014030D02*
X037504Y014030D01*
M02*
