%
M48
M72
T01C0.0118
T02C0.0197
T03C0.0236
T04C0.0360
T05C0.0394
T06C0.0433
T07C0.0551
T08C0.0669
T09C0.1260
%
T01
X8912Y5294
X8912Y5569
X10387Y6319
X10662Y6319
X10937Y6319
X12837Y6169
X14162Y6344
X13962Y5404
X14562Y5404
X16037Y5394
X17712Y5394
X19087Y5394
X19737Y6469
X19287Y6769
X19112Y7194
X19662Y8569
X19512Y9269
X19812Y9644
X20162Y9869
X19812Y10794
X19437Y10769
X19237Y11094
X18562Y10669
X18837Y10419
X18037Y10469
X17362Y10469
X16837Y10419
X16887Y9569
X16862Y8919
X17887Y9019
X18162Y8669
X18662Y9019
X21237Y8844
X21612Y8844
X23062Y9119
X23712Y8569
X24187Y9119
X24987Y8419
X25337Y9644
X24487Y10244
X23562Y10244
X23112Y10244
X22262Y10744
X22087Y11119
X21737Y10769
X20862Y10969
X20912Y11919
X21162Y12244
X21337Y12594
X21462Y11869
X22612Y11119
X23237Y11444
X24412Y12019
X24737Y11619
X24787Y12619
X24812Y13169
X23687Y12869
X23262Y13569
X22612Y13719
X22637Y14394
X22637Y15169
X23662Y15194
X23687Y14244
X24637Y14919
X25887Y14919
X26737Y15394
X27437Y15069
X27062Y14919
X27087Y14544
X26737Y14369
X25937Y13519
X25912Y12744
X25887Y12369
X26137Y12019
X26387Y11469
X26512Y10394
X26712Y9694
X28787Y10619
X29387Y10569
X30712Y11269
X30937Y10969
X31312Y10844
X31562Y10544
X31537Y10119
X32162Y10219
X33112Y10069
X32037Y9094
X32037Y8069
X32037Y7094
X33162Y6269
X32262Y4519
X30662Y4669
X26687Y6669
X26687Y7419
X24887Y6819
X23937Y7369
X23712Y7769
X23437Y7394
X23062Y7494
X21187Y5344
X20762Y5344
X16162Y7194
X15287Y8669
X14937Y9044
X15712Y9019
X14162Y10719
X13512Y10569
X13187Y10319
X12962Y9994
X13287Y9569
X13287Y8894
X12837Y7894
X11262Y8344
X10437Y8069
X9012Y9194
X9937Y9469
X9837Y11019
X9562Y11394
X9862Y11919
X10662Y11694
X10137Y12869
X9787Y13769
X10461Y13970
X8612Y14444
X8937Y12644
X8687Y11069
X12387Y10794
X12387Y11544
X13237Y11819
X12362Y12319
X15112Y11894
X15487Y11869
X16362Y11919
X16737Y11944
X17362Y11869
X17737Y11894
X18212Y11919
X18937Y11919
X19437Y12119
X19487Y12669
X19862Y12769
X19062Y12669
X18312Y13769
X18662Y13919
X19462Y14069
X20037Y14469
X20362Y14819
X19862Y15294
X19512Y15119
X19262Y15444
X18562Y15294
X18312Y15019
X17662Y15344
X17037Y15094
X16737Y15344
X16462Y15094
X16087Y15244
X15462Y15394
X15162Y15169
X14837Y15444
X13962Y15319
X14237Y16244
X14237Y16619
X13262Y16144
X12537Y16144
X13912Y14519
X14237Y14319
X14612Y14344
X16362Y13219
X16662Y13469
X16987Y13044
X17662Y13569
X16087Y12894
X15712Y12894
X15462Y12619
X15787Y11069
X12312Y9469
X8487Y6969
X8212Y6969
X17362Y16144
X17937Y16244
X17662Y17144
X17937Y17544
X17612Y17869
X18087Y18069
X18362Y18369
X18262Y18744
X17562Y19119
X17512Y19494
X17137Y19569
X17037Y19944
X17587Y20794
X18287Y20619
X18662Y20619
X19412Y20344
X20037Y20494
X20312Y20769
X20337Y21144
X20662Y21944
X19962Y22044
X20487Y22569
X20737Y23144
X21187Y23519
X21562Y23519
X21562Y23894
X21051Y23919
X20962Y24494
X20587Y24444
X20212Y24419
X20212Y24819
X19912Y25044
X20037Y25444
X19680Y25869
X19312Y25919
X19287Y25494
X18637Y25344
X18387Y25069
X18412Y24694
X19137Y24569
X19387Y23669
X18862Y23144
X19387Y22569
X19937Y23144
X21162Y22594
X21437Y22069
X22087Y21819
X21887Y21494
X21212Y21319
X22437Y20669
X22712Y20919
X21987Y20194
X22537Y19819
X23212Y19944
X23362Y19369
X24012Y18994
X24187Y18494
X25012Y18044
X26362Y18094
X26212Y17344
X26437Y17044
X27037Y17469
X27437Y16844
X27912Y15794
X28387Y15794
X27962Y14994
X29687Y14894
X29362Y13869
X28462Y13619
X28512Y12794
X27962Y12744
X27137Y13219
X30062Y12694
X30687Y12919
X30987Y13169
X31262Y12819
X31537Y13069
X32062Y12069
X32062Y11419
X32922Y11384
X33937Y12869
X34312Y13044
X34712Y13094
X33637Y14419
X34037Y15194
X32537Y15769
X31787Y16244
X32037Y16619
X32412Y16669
X32287Y17194
X31787Y17194
X30187Y18044
X29162Y17719
X30787Y15244
X31287Y15244
X32312Y14419
X30412Y13644
X30712Y12094
X30862Y10119
X30287Y9444
X29512Y9494
X29612Y7919
X34562Y8394
X34587Y9119
X35612Y8394
X35937Y9119
X38162Y10919
X38912Y11044
X39837Y11519
X42362Y11894
X43662Y12019
X42062Y13269
X41062Y13269
X43712Y14269
X43087Y15744
X42662Y15744
X41687Y17919
X42237Y18394
X42237Y19269
X42237Y19669
X41287Y19469
X39762Y18519
X39137Y19669
X37262Y18344
X36962Y18044
X37812Y17569
X35587Y17569
X35077Y18284
X34562Y18019
X33087Y19494
X33112Y20044
X32887Y20469
X32737Y20869
X33112Y21094
X32737Y21469
X33787Y20794
X36312Y20119
X36862Y21344
X32587Y25644
X33037Y25869
X32912Y26569
X32887Y27269
X32312Y28319
X32562Y28619
X32112Y28669
X32062Y29119
X31712Y29269
X32837Y29069
X33187Y29769
X33212Y30819
X33687Y30819
X35162Y31169
X33987Y32469
X32412Y32179
X31837Y30769
X31167Y30779
X30387Y31444
X29612Y30794
X28987Y31169
X28437Y30344
X28537Y29319
X28687Y28969
X28762Y28594
X28162Y28504
X27162Y28744
X25712Y28919
X25662Y29319
X24187Y28844
X23537Y28869
X23812Y29694
X22687Y29144
X22637Y28094
X21662Y27944
X21012Y27594
X21337Y26994
X20887Y26294
X21230Y25894
X22062Y25694
X21712Y25194
X22537Y24419
X22912Y24269
X23437Y23794
X23812Y22869
X22862Y22669
X22462Y22669
X21587Y23119
X21962Y23544
X23437Y25369
X23687Y25669
X24062Y25769
X24462Y25719
X24612Y26469
X25737Y25894
X26037Y26169
X26887Y26769
X27887Y27069
X27712Y25869
X28537Y24919
X29212Y24904
X29812Y24519
X29637Y23119
X28037Y21769
X27612Y22369
X27312Y22944
X26912Y23194
X26387Y22844
X26037Y22594
X25587Y22944
X25362Y23669
X25412Y24069
X24962Y23919
X25812Y23694
X26212Y23719
X24612Y22869
X24912Y21694
X25662Y21794
X26137Y21819
X26912Y22019
X27987Y20844
X27737Y20569
X26887Y20544
X25262Y20694
X24087Y20419
X24037Y20919
X23687Y21694
X25362Y19744
X23062Y17994
X22762Y18244
X22437Y17819
X22437Y17444
X23162Y16694
X23162Y16144
X24462Y15894
X24662Y16519
X24637Y17169
X23487Y17669
X22587Y18894
X21687Y18469
X21437Y18194
X21437Y17819
X21012Y17869
X20762Y18144
X20512Y18419
X20217Y18199
X19737Y18244
X19062Y18394
X19187Y19219
X18612Y19769
X18987Y19819
X18467Y20119
X19862Y19669
X20512Y20194
X21442Y19549
X21162Y19069
X21012Y17494
X21187Y17119
X21462Y16219
X19887Y16219
X18937Y16144
X18937Y17494
X19987Y17219
X16887Y18494
X16212Y18794
X15262Y17819
X14662Y18219
X13662Y18619
X14687Y19119
X14662Y20919
X15637Y21344
X15912Y20869
X16612Y21969
X16287Y22169
X17837Y22694
X18287Y22569
X18862Y21994
X19387Y21469
X17662Y24269
X16937Y25069
X16662Y25444
X17362Y25669
X17837Y25969
X17662Y26319
X18212Y26344
X16362Y26329
X15587Y25044
X16362Y24494
X15837Y24069
X15537Y23669
X14812Y24369
X14362Y24444
X14187Y23669
X14562Y22844
X14137Y21969
X13287Y20694
X12512Y20494
X12037Y19794
X11662Y19744
X11087Y19819
X10537Y19869
X10612Y20369
X11037Y20769
X11587Y20769
X11337Y22269
X11012Y23419
X10987Y24269
X11212Y24569
X11837Y23969
X12537Y24869
X12762Y25169
X13162Y25094
X13362Y25419
X14487Y27494
X13737Y28219
X14312Y28569
X14912Y29344
X16112Y28944
X16812Y29844
X16887Y31044
X16887Y31819
X17662Y32594
X16587Y33469
X16587Y33744
X17062Y34044
X17662Y34544
X17162Y35094
X16812Y35094
X16012Y34119
X15512Y34544
X14287Y33919
X14287Y33644
X14287Y33369
X13737Y33369
X13737Y33644
X13737Y33919
X12612Y34544
X12212Y35094
X11887Y35094
X12137Y34044
X11637Y33744
X11637Y33469
X11062Y34119
X10462Y34544
X9312Y33919
X9312Y33669
X9312Y33394
X8762Y33394
X8762Y33644
X8762Y33919
X8187Y35094
X8187Y35344
X9312Y35519
X11037Y36544
X11887Y35944
X12212Y35944
X12612Y36544
X16012Y36544
X16812Y35944
X17162Y35944
X17662Y36544
X20662Y34544
X21162Y34044
X21712Y33744
X21712Y33469
X22212Y34044
X22812Y34544
X22312Y35094
X21962Y35094
X21962Y35944
X22312Y35944
X22812Y36519
X23962Y36429
X26887Y36369
X27962Y36419
X27587Y33779
X23612Y33744
X22812Y32594
X22412Y32144
X22012Y31819
X21987Y31044
X23812Y31419
X24662Y30919
X26912Y30304
X30037Y28244
X29787Y27919
X30437Y27894
X30437Y27144
X31187Y27144
X31437Y27694
X30437Y26394
X29687Y27144
X30312Y29494
X36462Y29969
X36462Y28344
X42012Y31319
X41412Y33459
X40262Y34279
X39262Y33984
X40587Y34859
X38637Y35259
X36687Y33584
X37412Y32669
X35037Y33744
X34387Y34634
X34062Y34634
X34062Y35059
X34387Y35059
X35612Y34994
X32187Y35204
X32162Y34459
X24112Y27594
X22362Y26644
X22962Y25794
X24637Y24719
X19662Y29544
X19437Y33369
X19437Y33644
X19437Y33919
X18887Y33919
X18887Y33644
X18887Y33369
X21162Y36519
X12612Y32594
X11812Y31894
X11812Y31119
X10512Y19069
X15237Y16494
X16637Y17044
X22312Y12894
X25912Y15894
X25637Y16219
X35087Y11919
X35812Y15794
X43037Y9219
X42637Y8069
X41262Y8069
T02
X18787Y27794
X18437Y27794
X17512Y27794
X17512Y29069
X18437Y29094
X18787Y29094
X18837Y31319
X13637Y31319
X9412Y31319
X13662Y35469
X13662Y35819
X14362Y35819
X14362Y35469
X18812Y35594
X19512Y35594
T03
X12337Y30119
X11962Y30119
X11587Y30119
X14062Y27759
X14062Y27409
X41212Y21744
X42287Y21369
T04
X9887Y21269
X9887Y20269
X8887Y20269
X8887Y21269
X8887Y22269
X9887Y22269
X9887Y23269
X9887Y24269
X8887Y24269
X8887Y23269
X8887Y19269
X9887Y19269
X9887Y18269
X9887Y17269
X8887Y17269
X8887Y18269
X8887Y16269
X9887Y16269
X9887Y15269
X8887Y15269
T05
X6722Y11335
X6722Y9603
X24712Y5544
X25712Y5544
X26712Y5544
X27712Y5544
X28712Y5544
X28712Y4544
X27712Y4544
X26712Y4544
X25712Y4544
X24712Y4544
X34912Y4544
X35912Y4544
X36912Y4544
X37912Y4544
X38912Y4544
X39912Y4544
X40912Y4544
X40912Y5544
X39912Y5544
X38912Y5544
X37912Y5544
X36912Y5544
X35912Y5544
X34912Y5544
X29037Y18694
X29037Y19694
X28037Y19694
X28037Y18694
X27037Y18694
X26037Y18694
X26037Y19694
X27037Y19694
X31037Y19269
X32037Y19269
X32037Y20269
X32037Y21269
X31037Y21269
X31037Y20269
X31037Y22269
X32037Y22269
X32037Y23269
X31037Y23269
X37737Y26969
X37737Y27969
X38737Y28469
X38737Y29469
X37737Y29969
X37737Y28969
X38737Y27469
X38737Y26469
X42568Y26729
X43237Y25729
X43237Y29709
X42568Y30709
X30762Y34794
X29762Y34794
X11262Y26219
X10262Y26219
X9262Y26219
X9262Y25219
X10262Y25219
X11262Y25219
T06
X36068Y21969
X40005Y21969
T07
X8987Y28489
X8987Y28789
X8987Y29089
X6627Y29089
X6627Y28789
X6627Y28489
X7507Y26819
X7807Y26819
X8107Y26819
T08
X40036Y25168
X40036Y31270
T09
X6465Y5047
X41237Y25969
X41237Y30469
X43079Y35756
X6465Y35756
X43079Y5047
M30
